<svg width="20" height="20" viewBox="0 0 20 20" fill="none" xmlns="http://www.w3.org/2000/svg"><path d="M18.8209 7.31313C19.0997 8.20063 19.25 9.14531 19.25 10.125C19.25 15.3028 15.0528 19.5 9.875 19.5C4.69719 19.5 0.5 15.3028 0.5 10.125C0.5 4.94719 4.69719 0.75 9.875 0.75C11.9469 0.75 13.8625 1.42125 15.4141 2.55937" stroke="#252733" stroke-miterlimit="10" stroke-linecap="round" stroke-linejoin="round"/><path d="M16.75 5.75C17.7855 5.75 18.625 4.91053 18.625 3.875C18.625 2.83947 17.7855 2 16.75 2C15.7145 2 14.875 2.83947 14.875 3.875C14.875 4.91053 15.7145 5.75 16.75 5.75Z" stroke="#252733" stroke-miterlimit="10" stroke-linecap="round" stroke-linejoin="round"/><path d="M13.625 14.1875V12.9484C13.625 12.5047 13.3922 12.0966 13.0103 11.8706C12.4025 11.5109 11.3488 11.0625 9.875 11.0625C8.38219 11.0625 7.33531 11.5081 6.73375 11.8672C6.355 12.0934 6.125 12.5003 6.125 12.9416V14.1875H13.625Z" stroke="#252733" stroke-miterlimit="10" stroke-linecap="round" stroke-linejoin="round"/><path d="M9.875 9.1875C10.9105 9.1875 11.75 8.34803 11.75 7.3125C11.75 6.27697 10.9105 5.4375 9.875 5.4375C8.83947 5.4375 8 6.27697 8 7.3125C8 8.34803 8.83947 9.1875 9.875 9.1875Z" stroke="#252733" stroke-miterlimit="10" stroke-linecap="round" stroke-linejoin="round"/></svg>