<svg width="245" height="250" viewBox="0 0 245 250" fill="none" xmlns="http://www.w3.org/2000/svg"><g clip-path="url(#clip0)"><path opacity=".5" d="M106.283 250C133.252 250 155.115 245.117 155.115 239.094C155.115 233.071 133.252 228.188 106.283 228.188C79.3132 228.188 57.4502 233.071 57.4502 239.094C57.4502 245.117 79.3132 250 106.283 250Z" fill="url(#paint0_radial)"/><path d="M131.656 185.523C131.656 185.523 129.382 188.878 126.39 193.193C121.483 200.264 114.661 209.732 112.028 211.409C110.831 212.248 109.993 209.252 109.634 204.818C108.676 194.271 109.514 174.976 109.514 174.976C109.514 174.976 125.911 178.452 131.656 185.523Z" fill="url(#paint1_linear)"/><path opacity=".5" d="M131.656 185.523C131.656 185.523 129.382 188.879 126.39 193.193C126.39 193.193 121.962 192.474 114.541 196.908C111.668 198.586 110.352 201.582 109.634 204.698C108.676 194.152 109.514 174.856 109.514 174.856C109.514 174.856 125.911 178.452 131.656 185.523Z" fill="url(#paint2_linear)"/><path d="M162.416 167.306C157.628 165.988 151.764 161.434 147.335 154.722C137.641 140.221 127.228 109.9 139.675 103.668C140.872 103.068 146.737 110.499 153.08 120.326C160.501 131.951 168.52 147.052 170.196 156.4C171.632 165.748 167.802 168.744 162.416 167.306Z" fill="url(#paint3_linear)"/><path d="M155.953 163.95C155.953 163.95 160.142 147.651 165.288 147.891C170.435 148.13 171.153 163.111 167.802 166.227C164.45 169.223 157.868 165.868 155.953 163.95Z" fill="url(#paint4_linear)"/><path opacity=".3" d="M162.416 167.306C157.628 165.988 151.764 161.434 147.335 154.722C137.641 140.221 127.228 109.9 139.675 103.668C140.872 103.068 146.737 110.499 153.08 120.326C153.08 120.326 150.208 142.019 152.242 149.689C154.277 157.359 161.219 162.153 161.219 162.153L162.416 167.306Z" fill="url(#paint5_linear)"/><path d="M87.7313 153.524C87.0132 173.179 95.6307 183.965 114.781 188.519C133.572 193.073 150.208 175.695 150.208 150.288C150.208 134.109 149.251 119.487 143.386 109.061C140.035 103.188 135.247 98.6341 128.186 95.8776C122.68 93.7203 117.055 95.6379 112.028 99.8325C98.7425 110.978 88.3297 138.303 87.7313 153.524Z" fill="url(#paint6_linear)"/><path opacity=".3" d="M106.761 121.045C106.761 121.045 101.016 135.067 98.6226 144.775C95.7501 156.28 99.8195 168.984 99.8195 168.984L88.9279 165.508C88.9279 165.508 85.9357 149.689 89.7657 141.06C92.9973 133.749 93.9548 130.154 93.9548 130.154L106.761 121.045Z" fill="url(#paint7_linear)"/><path d="M95.1519 134.708C95.8701 134.828 96.7079 134.468 97.785 133.629C102.333 130.034 109.155 117.929 110.951 110.739C111.669 107.982 111.549 105.825 110.352 105.346C108.318 104.387 102.094 110.619 97.3063 120.207C94.5535 125.839 92.1597 133.989 95.1519 134.708Z" fill="url(#paint8_linear)"/><path d="M97.665 133.749C102.213 130.154 109.035 118.049 110.831 110.858C108.078 113.016 104.128 118.049 100.897 124.521C99.58 127.397 98.2635 130.873 97.665 133.749Z" fill="#6340A2"/><path opacity=".72" d="M129.263 185.882C129.263 185.882 124.236 188.878 117.653 187.44C111.07 186.002 109.634 182.287 109.634 182.287C109.634 182.287 112.865 181.807 117.294 183.845C121.603 185.882 126.031 186.362 129.263 185.882Z" fill="url(#paint9_linear)"/><path d="M118.491 121.045C119.568 121.405 119.329 130.753 118.251 130.873C117.294 130.993 115.379 130.633 115.499 126.678C115.499 122.843 117.414 120.806 118.491 121.045Z" fill="#fff"/><path d="M108.557 228.547C102.333 228.667 76.4804 171.5 82.7041 166.946C93.2366 159.276 107.719 174.616 113.105 183.365C114.302 185.403 115.139 187.08 115.259 188.039C115.738 193.073 114.78 228.428 108.557 228.547Z" fill="url(#paint10_linear)"/><path d="M106.761 109.9C110.232 113.375 100.179 132.79 91.5611 136.026C82.8239 139.262 64.033 135.307 61.0408 134.109C58.0486 132.91 56.9714 122.843 59.7243 119.008C62.4771 115.053 101.974 105.106 106.761 109.9Z" fill="url(#paint11_linear)"/><path opacity=".5" d="M92.6382 109.3C92.6382 109.3 106.043 119.967 125.792 118.888C145.54 117.809 146.976 111.458 146.976 111.458C146.976 111.458 140.513 101.87 135.247 100.192C133.212 99.5928 111.429 95.6379 104.368 108.581C99.58 108.581 92.6382 109.3 92.6382 109.3Z" fill="url(#paint12_linear)"/><path d="M139.915 5.03369C139.915 5.03369 149.969 11.7451 154.397 27.445C158.825 43.0251 135.367 24.329 135.367 24.329L139.915 5.03369Z" fill="url(#paint13_linear)"/><path d="M146.976 24.0893C146.976 24.0893 144.224 3.23598 137.282 0.479511C130.34 -2.27696 121.244 7.91 121.244 7.91L146.976 24.0893Z" fill="url(#paint14_linear)"/><path d="M91.0823 12.5839C59.8439 31.6395 61.5195 79.0987 73.4882 96.3567C87.4917 116.371 160.74 103.787 171.033 70.8293C181.566 37.6318 129.981 -11.1458 91.0823 12.5839Z" fill="url(#paint15_linear)"/><path opacity=".5" d="M81.6269 62.3203C81.6269 62.3203 77.7969 79.4584 67.9826 83.7729C67.9826 83.7729 65.7085 75.3836 65.7085 70.1103C65.7085 64.9569 81.6269 62.3203 81.6269 62.3203Z" fill="url(#paint16_linear)"/><path d="M109.514 17.1383C85.3372 29.2428 81.6269 78.0204 97.665 94.3195C113.703 110.499 168.28 93.3607 172.11 64.3579C175.581 38.471 138.478 2.63686 109.514 17.1383Z" fill="url(#paint17_linear)"/><path opacity=".5" d="M114.661 95.0388C114.661 95.0388 103.171 96.8365 98.1437 90.1251C93.1168 83.4137 95.3909 78.1404 97.0665 77.7809C98.6224 77.4213 103.769 87.4884 107.838 91.0838C111.908 94.5594 114.661 95.0388 114.661 95.0388Z" fill="url(#paint18_linear)"/><path d="M87.3721 31.5195C87.3721 31.5195 90.6037 61.0018 72.4112 71.5483C72.4112 71.5483 63.4346 72.5071 58.2881 67.114C58.2881 67.114 66.4268 74.6643 74.9246 66.7544C83.4224 58.8446 81.3877 37.0325 74.9246 29.8417C68.4615 22.7707 59.1259 24.5684 59.1259 24.5684L62.8362 21.2127C62.8362 21.2127 76.6003 18.3364 87.3721 31.5195Z" fill="url(#paint19_linear)"/><path d="M62.836 21.2132C62.836 21.2132 73.0094 20.2544 80.071 31.9994C87.6113 44.4635 82.1057 66.0359 73.0094 69.3916C63.9132 72.6274 54.6973 37.7521 54.6973 37.7521L59.9635 23.8498C59.9635 23.8498 61.0407 21.9323 62.836 21.2132Z" fill="url(#paint20_linear)"/><path d="M49.7903 50.9348C51.1068 57.6462 53.8596 63.1592 57.4503 66.6347L58.5274 67.5935C61.5196 69.9904 64.9906 71.1889 68.8206 70.7095C81.1484 69.1515 82.824 51.2943 81.3877 41.1074C79.7121 29.3624 69.6584 22.4113 61.759 23.3701C52.3037 24.6884 47.1571 37.7517 49.7903 50.9348Z" fill="url(#paint21_linear)"/><path opacity=".72" d="M79.353 55.3691C79.353 55.3691 78.0365 66.2752 70.0174 68.6721C61.9984 71.069 55.4155 65.1966 53.3809 57.047C53.3809 57.047 55.8943 64.1179 66.4268 62.3202C76.8396 60.5225 79.353 55.3691 79.353 55.3691Z" fill="url(#paint22_linear)"/><path opacity=".72" d="M77.9165 34.6356C77.7968 36.673 63.0752 32.4784 58.4074 33.0776C53.7396 33.6768 51.7049 39.4295 50.9868 39.3096C50.2687 39.1898 52.1837 25.6471 60.9209 24.6883C69.5384 23.7296 77.9165 33.3173 77.9165 34.6356Z" fill="url(#paint23_linear)"/><path d="M152.841 54.6503C157.868 57.4067 165.169 51.2946 163.373 43.8641C161.578 36.4336 152.96 30.4413 148.652 32.8382C144.343 35.1153 144.582 49.9762 152.841 54.6503Z" fill="url(#paint24_linear)"/><path d="M107.599 71.1892C115.499 76.7021 123.996 67.7136 123.996 59.6839C123.877 51.6542 116.576 43.8642 109.275 45.7817C101.256 48.0588 99.4606 65.5564 107.599 71.1892Z" fill="url(#paint25_linear)"/><path d="M131.776 73.9455C131.058 75.2638 140.633 81.7355 145.181 79.8179C150.567 77.6607 149.729 66.1554 148.772 65.4364C147.694 64.7173 132.973 71.7882 131.776 73.9455Z" fill="#2F95CD"/><path opacity=".5" d="M92.6382 59.2043C96.947 65.0768 109.155 44.9426 122.44 38.1113C137.521 30.3213 159.424 38.5907 160.86 36.1938C162.296 33.7968 143.625 12.7038 119.448 16.4191C95.2714 20.2542 88.5689 53.8112 92.6382 59.2043Z" fill="url(#paint26_linear)"/><path d="M59.2456 68.7921C59.2456 68.7921 58.4078 62.9196 62.1181 61.0021C62.1181 61.0021 67.7434 60.7624 69.06 66.1555C69.06 66.1555 58.0487 101.51 67.0253 107.143C75.4034 112.416 97.5455 101.63 97.5455 101.63L99.3409 103.068C99.3409 103.068 80.5499 114.813 68.7009 111.218C56.8518 107.503 59.2456 68.7921 59.2456 68.7921Z" fill="url(#paint27_linear)"/><path d="M92.0399 102.11C90.1249 105.945 96.9471 107.742 101.854 106.904C107.36 105.945 116.336 101.271 114.302 95.9975C112.267 90.8441 96.4683 93.1212 92.0399 102.11Z" fill="url(#paint28_linear)"/><path d="M92.6385 102.589C92.7582 103.548 111.908 98.3942 111.429 94.9187C110.951 91.4431 91.9203 95.3981 92.6385 102.589Z" fill="url(#paint29_linear)"/><path d="M45.4814 114.933C45.4814 114.933 46.1996 112.416 49.4311 111.218L51.4658 118.409L45.4814 114.933Z" fill="url(#paint30_linear)"/><path d="M46.1997 96.3571C46.1997 96.3571 56.3731 90.125 77.7972 90.6044C77.7972 90.6044 86.7737 123.323 87.8509 146.693C87.8509 146.693 75.2837 150.168 61.5197 149.689C61.6394 149.809 51.7053 125.6 46.1997 96.3571Z" fill="url(#paint31_linear)"/><path d="M77.9165 90.6043L82.8237 88.8066C82.8237 88.8066 90.1246 121.645 90.7231 146.093L88.0899 146.812L77.9165 90.6043Z" fill="url(#paint32_linear)"/><path opacity=".5" d="M55.5352 132.431L58.1683 139.621C58.1683 139.621 65.3495 130.873 64.5117 122.483L55.5352 132.431Z" fill="url(#paint33_linear)"/><path d="M46.1997 96.357C46.1997 96.357 53.74 90.2448 82.7043 88.8066L77.7972 90.6043C77.9169 90.6043 64.6316 90.3647 46.1997 96.357Z" fill="#FF91FF"/><path d="M47.875 118.888C47.875 118.888 48.4734 131.352 53.1412 133.989C53.1412 133.989 66.5462 126.438 64.6312 118.648C63.3147 113.255 47.875 118.888 47.875 118.888Z" fill="url(#paint34_linear)"/><path d="M45.4814 114.933C45.4814 114.933 45.4814 125.12 51.3461 131.472C51.3461 131.472 59.1258 128.356 61.7589 125.12C65.948 119.967 64.2724 117.091 62.8361 115.892C60.562 114.094 45.4814 114.933 45.4814 114.933Z" fill="url(#paint35_linear)"/><path d="M81.2681 100.312C81.2681 100.312 82.7043 98.9935 84.2602 99.2332C84.2602 99.2332 87.1327 107.383 86.5343 113.974L84.2602 114.574L81.2681 100.312Z" fill="url(#paint36_linear)"/><path d="M81.2681 100.312C81.2681 100.312 84.739 108.222 85.3374 114.334L87.3721 113.615C87.3721 113.615 85.9359 103.188 84.2602 99.353C84.2602 99.2332 82.2256 99.1133 81.2681 100.312Z" fill="url(#paint37_linear)"/><path d="M67.7432 104.866C68.3417 107.862 67.0251 110.619 64.8707 110.978C62.7164 111.458 60.4423 109.42 59.8439 106.424C59.2454 103.428 60.562 100.672 62.7164 100.312C64.8707 99.8327 67.1448 101.87 67.7432 104.866Z" fill="url(#paint38_linear)"/><path d="M67.2648 104.986C67.7435 107.263 66.6663 109.42 64.9907 109.78C63.3151 110.139 61.5197 108.581 61.041 106.184C60.5622 103.907 61.6394 101.75 63.3151 101.391C65.1104 101.151 66.9057 102.709 67.2648 104.986Z" fill="url(#paint39_radial)"/><path d="M65.23 146.573V144.056L79.7121 142.138L80.7893 144.415C80.7893 144.415 72.6506 146.093 65.23 146.573Z" fill="url(#paint40_linear)"/><path opacity=".5" d="M78.6349 94.6792L58.4077 140.94L60.203 145.974C60.203 145.974 76.6002 135.667 83.5421 123.083C83.5421 123.203 79.353 98.754 78.6349 94.6792Z" fill="url(#paint41_linear)"/><path opacity=".5" d="M131.656 94.9188C131.656 94.9188 141.83 92.7616 148.772 83.7731C155.713 74.9044 165.049 76.3426 165.049 76.3426C165.049 76.3426 151.883 94.9188 131.656 94.9188Z" fill="url(#paint42_linear)"/><path d="M87.9707 22.2917C87.9707 24.2092 99.9394 14.5017 98.3835 13.7826C96.9473 12.9436 87.9707 20.1344 87.9707 22.2917Z" fill="#fff"/><path opacity=".3" d="M109.634 160.954L109.275 160.355C109.395 160.475 109.514 160.715 109.634 160.954Z" fill="url(#paint43_linear)"/><path opacity=".3" d="M108.557 228.547C102.333 228.667 76.4804 171.5 82.7041 166.946C82.7041 166.946 90.4838 202.78 99.8194 212.128C109.275 221.357 115.379 197.028 113.703 186.481C113.583 185.403 113.344 184.324 113.105 183.365C114.302 185.403 115.139 187.081 115.259 188.039C115.738 193.073 114.78 228.428 108.557 228.547Z" fill="url(#paint44_linear)"/><path d="M93.7155 176.894C92.758 178.452 95.1517 187.8 96.4683 187.68C97.7848 187.44 98.0242 182.527 97.4258 180.969C96.8273 179.291 93.9549 176.534 93.7155 176.894Z" fill="#fff"/><path d="M96.8273 189.238C95.7502 189.837 97.0667 192.594 97.7848 192.594C98.6226 192.474 97.7848 188.759 96.8273 189.238Z" fill="#fff"/><path d="M127.826 5.03343C128.544 6.59143 133.571 3.35558 132.853 1.91742C132.135 0.599105 127.108 3.47542 127.826 5.03343Z" fill="#fff"/><path d="M46.7979 117.45C46.7979 118.408 51.8247 117.33 51.4657 116.491C51.1066 115.652 46.7979 115.892 46.7979 117.45Z" fill="#fff"/><path d="M60.8016 65.7959C59.485 65.3165 58.8866 83.5332 59.9638 83.7729C61.041 84.0126 62.8363 66.3952 60.8016 65.7959Z" fill="url(#paint45_linear)"/><path d="M179.052 158.797C179.052 158.797 174.863 153.404 169.118 152.924C163.373 152.445 161.458 154.123 160.501 158.198C159.543 162.272 168.4 176.414 178.933 186.961C183.241 187.081 184.319 181.687 184.797 178.212C184.558 175.216 183.241 165.628 179.052 158.797Z" fill="url(#paint46_linear)"/><path d="M164.81 153.044C164.81 153.044 176.18 167.426 180.01 175.815C182.045 180.369 183.242 183.365 183.242 183.365C183.242 183.365 180.848 190.556 175.941 184.923C168.999 176.894 159.663 164.789 160.98 158.557C162.057 153.284 162.895 152.325 164.81 153.044Z" fill="url(#paint47_linear)"/><path opacity=".5" d="M174.504 166.347C174.504 166.347 173.427 174.377 168.639 175.815L166.964 156.76C166.964 156.76 172.948 163.951 174.504 166.347Z" fill="url(#paint48_linear)"/><path d="M169.597 161.194C170.435 162.991 169.597 175.096 168.4 176.534C167.204 177.972 164.092 175.815 163.134 173.418C162.177 171.021 157.748 157.958 162.416 153.523C162.296 153.404 166.246 153.643 169.597 161.194Z" fill="url(#paint49_linear)"/><path d="M167.443 162.872C167.922 162.992 168.76 167.066 168.401 167.786C168.041 168.505 167.084 168.505 166.605 167.546C166.126 166.707 166.605 162.752 167.443 162.872Z" fill="#fff"/></g><defs><linearGradient id="paint26_linear" x1="91.525" y1="38.159" x2="160.936" y2="38.159" gradientUnits="userSpaceOnUse"><stop/><stop offset="1" stop-color="#6A9BFF"/></linearGradient><linearGradient id="paint1_linear" x1="111.639" y1="211.597" x2="121.289" y2="178.221" gradientUnits="userSpaceOnUse"><stop stop-color="#CBC1F7"/><stop offset="1" stop-color="#D4BEF1"/></linearGradient><linearGradient id="paint3_linear" x1="148.648" y1="165.69" x2="156.188" y2="105.736" gradientUnits="userSpaceOnUse"><stop stop-color="#CBC1F7"/><stop offset="1" stop-color="#D4BEF1"/></linearGradient><linearGradient id="paint4_linear" x1="165.496" y1="167.381" x2="159.688" y2="149.589" gradientUnits="userSpaceOnUse"><stop stop-color="#BE9DEA"/><stop offset="1" stop-color="#9E8CEF"/></linearGradient><linearGradient id="paint5_linear" x1="148.119" y1="167.309" x2="148.119" y2="103.669" gradientUnits="userSpaceOnUse"><stop stop-color="#9D68C2"/><stop offset="1" stop-color="#CCEDFF"/></linearGradient><linearGradient id="paint6_linear" x1="114.568" y1="188.611" x2="126.33" y2="95.172" gradientUnits="userSpaceOnUse"><stop stop-color="#CBC1F7"/><stop offset="1" stop-color="#E8DCF7"/></linearGradient><linearGradient id="paint7_linear" x1="91.518" y1="166.943" x2="103.463" y2="120.227" gradientUnits="userSpaceOnUse"><stop stop-color="#9D68C2"/><stop offset="1" stop-color="#CCEDFF"/></linearGradient><linearGradient id="paint8_linear" x1="108.188" y1="121.436" x2="96.77" y2="118.524" gradientUnits="userSpaceOnUse"><stop stop-color="#8879EA"/><stop offset="1" stop-color="#9E8CEF"/></linearGradient><linearGradient id="paint9_linear" x1="118.52" y1="187.67" x2="119.607" y2="183.417" gradientUnits="userSpaceOnUse"><stop stop-color="#D4E2FF"/><stop offset="1"/></linearGradient><linearGradient id="paint10_linear" x1="90.453" y1="224.45" x2="103.515" y2="167.99" gradientUnits="userSpaceOnUse"><stop stop-color="#CBC1F7"/><stop offset="1" stop-color="#E8DCF7"/></linearGradient><linearGradient id="paint11_linear" x1="80.372" y1="137.476" x2="84.29" y2="106.319" gradientUnits="userSpaceOnUse"><stop stop-color="#CBC1F7"/><stop offset="1" stop-color="#E8DCF7"/></linearGradient><linearGradient id="paint12_linear" x1="117.511" y1="119.212" x2="123.144" y2="97.18" gradientUnits="userSpaceOnUse"><stop stop-color="#8DA4E5"/><stop offset="1" stop-color="#755CBB"/></linearGradient><linearGradient id="paint13_linear" x1="146.904" y1="34.975" x2="140.173" y2="4.997" gradientUnits="userSpaceOnUse"><stop stop-color="#45FFCD"/><stop offset="1" stop-color="#22E0FF"/></linearGradient><linearGradient id="paint14_linear" x1="136.536" y1="26.438" x2="130.748" y2=".662" gradientUnits="userSpaceOnUse"><stop stop-color="#B9ACF4"/><stop offset="1" stop-color="#E1D1F5"/></linearGradient><linearGradient id="paint15_linear" x1="113.189" y1="107.98" x2="125.825" y2="7.507" gradientUnits="userSpaceOnUse"><stop stop-color="#CBC1F7"/><stop offset="1" stop-color="#E8DCF7"/></linearGradient><linearGradient id="paint16_linear" x1="73.635" y1="83.802" x2="73.635" y2="62.32" gradientUnits="userSpaceOnUse"><stop stop-color="#8DA4E5"/><stop offset="1" stop-color="#755CBB"/></linearGradient><linearGradient id="paint17_linear" x1="130.15" y1="100.539" x2="130.15" y2="13.793" gradientUnits="userSpaceOnUse"><stop stop-color="#0665BD"/><stop offset="1" stop-color="#1A1F77"/></linearGradient><linearGradient id="paint18_linear" x1="104.04" y1="94.554" x2="106.019" y2="78.816" gradientUnits="userSpaceOnUse"><stop/><stop offset="1" stop-color="#6A9BFF"/></linearGradient><linearGradient id="paint19_linear" x1="72.976" y1="71.522" x2="72.976" y2="20.933" gradientUnits="userSpaceOnUse"><stop stop-color="#B9ACF4"/><stop offset="1" stop-color="#E1D1F5"/></linearGradient><linearGradient id="paint20_linear" x1="69.105" y1="69.601" x2="69.105" y2="21.169" gradientUnits="userSpaceOnUse"><stop stop-color="#BE9DEA"/><stop offset="1" stop-color="#9E8CEF"/></linearGradient><linearGradient id="paint21_linear" x1="65.455" y1="70.804" x2="65.455" y2="23.33" gradientUnits="userSpaceOnUse"><stop stop-color="#45FFCD"/><stop offset="1" stop-color="#22E0FF"/></linearGradient><linearGradient id="paint22_linear" x1="66.362" y1="69.252" x2="66.362" y2="55.388" gradientUnits="userSpaceOnUse"><stop stop-color="#D4E2FF"/><stop offset="1"/></linearGradient><linearGradient id="paint23_linear" x1="77.873" y1="32.014" x2="50.743" y2="32.014" gradientUnits="userSpaceOnUse"><stop/><stop offset="1" stop-color="#D4E2FF"/></linearGradient><linearGradient id="paint24_linear" x1="160.508" y1="53.355" x2="147.519" y2="33.488" gradientUnits="userSpaceOnUse"><stop stop-color="#45FFCD"/><stop offset="1" stop-color="#22E0FF"/></linearGradient><linearGradient id="paint2_linear" x1="120.492" y1="204.862" x2="120.492" y2="174.976" gradientUnits="userSpaceOnUse"><stop stop-color="#8DA4E5"/><stop offset="1" stop-color="#755CBB"/></linearGradient><linearGradient id="paint25_linear" x1="118.517" y1="71.008" x2="106.738" y2="46.944" gradientUnits="userSpaceOnUse"><stop stop-color="#45FFCD"/><stop offset="1" stop-color="#22E0FF"/></linearGradient><linearGradient id="paint27_linear" x1="72.642" y1="112.172" x2="83.778" y2="66.001" gradientUnits="userSpaceOnUse"><stop stop-color="#BE9DEA"/><stop offset="1" stop-color="#9E8CEF"/></linearGradient><linearGradient id="paint28_linear" x1="103.433" y1="107.055" x2="102.906" y2="93.474" gradientUnits="userSpaceOnUse"><stop stop-color="#DD1A8F"/><stop offset="1" stop-color="#FE117E"/></linearGradient><linearGradient id="paint29_linear" x1="102.488" y1="100.487" x2="100.947" y2="94.927" gradientUnits="userSpaceOnUse"><stop stop-color="#D93DE3"/><stop offset="1" stop-color="#FF6DBA"/></linearGradient><linearGradient id="paint30_linear" x1="48.679" y1="118.757" x2="47.929" y2="111.407" gradientUnits="userSpaceOnUse"><stop stop-color="#BE9DEA"/><stop offset="1" stop-color="#9E8CEF"/></linearGradient><linearGradient id="paint31_linear" x1="61.494" y1="149.715" x2="73.446" y2="89.731" gradientUnits="userSpaceOnUse"><stop stop-color="#D93DE3"/><stop offset="1" stop-color="#FF6DBA"/></linearGradient><linearGradient id="paint32_linear" x1="82.248" y1="146.349" x2="86.32" y2="89.047" gradientUnits="userSpaceOnUse"><stop stop-color="#A242EA"/><stop offset="1" stop-color="#FE117E"/></linearGradient><linearGradient id="paint33_linear" x1="55.482" y1="131.073" x2="64.522" y2="131.073" gradientUnits="userSpaceOnUse"><stop stop-color="#8DA4E5"/><stop offset="1" stop-color="#755CBB"/></linearGradient><linearGradient id="paint34_linear" x1="54.409" y1="134.2" x2="56.923" y2="115.784" gradientUnits="userSpaceOnUse"><stop stop-color="#BE9DEA"/><stop offset="1" stop-color="#9E8CEF"/></linearGradient><linearGradient id="paint35_linear" x1="49.948" y1="130.954" x2="56.58" y2="113.462" gradientUnits="userSpaceOnUse"><stop stop-color="#CBC1F7"/><stop offset="1" stop-color="#E8DCF7"/></linearGradient><linearGradient id="paint36_linear" x1="82.453" y1="114.201" x2="85.395" y2="99.433" gradientUnits="userSpaceOnUse"><stop stop-color="#D93DE3"/><stop offset="1" stop-color="#FF6DBA"/></linearGradient><linearGradient id="paint37_linear" x1="83.778" y1="114.137" x2="84.836" y2="99.245" gradientUnits="userSpaceOnUse"><stop stop-color="#B31A8F"/><stop offset="1" stop-color="#92117E"/></linearGradient><linearGradient id="paint38_linear" x1="64.419" y1="111.052" x2="63.058" y2="100.233" gradientUnits="userSpaceOnUse"><stop stop-color="#B31A8F"/><stop offset="1" stop-color="#FE117E"/></linearGradient><linearGradient id="paint40_linear" x1="65.257" y1="144.342" x2="80.832" y2="144.342" gradientUnits="userSpaceOnUse"><stop stop-color="#B31A8F"/><stop offset="1" stop-color="#92117E"/></linearGradient><linearGradient id="paint41_linear" x1="70.988" y1="146.047" x2="70.988" y2="94.708" gradientUnits="userSpaceOnUse"><stop stop-color="#2481D7"/><stop offset="1" stop-color="#56CBFE"/></linearGradient><linearGradient id="paint42_linear" x1="146.957" y1="96.853" x2="149.777" y2="74.425" gradientUnits="userSpaceOnUse"><stop/><stop offset="1" stop-color="#6A9BFF"/></linearGradient><linearGradient id="paint43_linear" x1="109.507" y1="160.947" x2="109.507" y2="160.364" gradientUnits="userSpaceOnUse"><stop stop-color="#9D68C2"/><stop offset="1" stop-color="#CCEDFF"/></linearGradient><linearGradient id="paint44_linear" x1="101.134" y1="228.994" x2="97.735" y2="166.232" gradientUnits="userSpaceOnUse"><stop stop-color="#9D68C2"/><stop offset="1" stop-color="#CCEDFF"/></linearGradient><linearGradient id="paint45_linear" x1="60.608" y1="83.804" x2="60.608" y2="65.771" gradientUnits="userSpaceOnUse"><stop stop-color="#CBC1F7"/><stop offset="1" stop-color="#E8DCF7"/></linearGradient><linearGradient id="paint46_linear" x1="175.966" y1="187.552" x2="169.783" y2="152.166" gradientUnits="userSpaceOnUse"><stop stop-color="#CBC1F7"/><stop offset="1" stop-color="#E8DCF7"/></linearGradient><linearGradient id="paint47_linear" x1="171.262" y1="186.577" x2="173.052" y2="153.326" gradientUnits="userSpaceOnUse"><stop stop-color="#BE9DEA"/><stop offset="1" stop-color="#9E8CEF"/></linearGradient><linearGradient id="paint48_linear" x1="169.984" y1="175.805" x2="170.999" y2="156.937" gradientUnits="userSpaceOnUse"><stop stop-color="#8DA4E5"/><stop offset="1" stop-color="#755CBB"/></linearGradient><linearGradient id="paint49_linear" x1="167.558" y1="176.845" x2="163.421" y2="153.168" gradientUnits="userSpaceOnUse"><stop stop-color="#CBC1F7"/><stop offset="1" stop-color="#E8DCF7"/></linearGradient><radialGradient id="paint0_radial" cx="0" cy="0" r="1" gradientUnits="userSpaceOnUse" gradientTransform="matrix(48.8174 0 0 10.8763 106.224 239.09)"><stop stop-color="#BE9DEA"/><stop offset=".388" stop-color="#E0BFF5"/><stop offset="1" stop-color="#fff"/></radialGradient><radialGradient id="paint39_radial" cx="0" cy="0" r="1" gradientUnits="userSpaceOnUse" gradientTransform="matrix(3.658 -.72667 .72756 3.6625 64.25 105.642)"><stop stop-color="#45FFCD"/><stop offset="1" stop-color="#22E0FF"/></radialGradient><clipPath id="clip0"><path fill="#fff" d="M0 0H245V250H0z"/></clipPath></defs></svg>