<svg width="169" height="96" viewBox="0 0 169 96" fill="none" xmlns="http://www.w3.org/2000/svg"><path d="M2.58838 50.9585L135.886 15.2415L144.686 48.0829L11.3882 83.8L2.58838 50.9585Z" fill="#252733"/><path d="M27.4151 59.8726C26.8526 59.4891 26.2386 59.2374 25.5729 59.1177C24.9188 58.9948 24.2904 59.0141 23.6877 59.1756C22.9342 59.3774 22.2927 59.7419 21.7631 60.2689C21.2334 60.796 20.8743 61.4264 20.6858 62.1602C20.4942 62.8824 20.4994 63.6202 20.7012 64.3736C20.9031 65.127 21.2691 65.7744 21.7993 66.3156C22.3263 66.8452 22.9525 67.2117 23.6778 67.4149C24.4 67.6065 25.1378 67.6013 25.8912 67.3995C26.4708 67.2442 27.0162 66.9614 27.5274 66.5511C28.0502 66.1377 28.4771 65.6444 28.808 65.0712L30.5915 66.2332C30.128 67.0531 29.5243 67.7677 28.7807 68.3769C28.0339 68.9746 27.2259 69.3899 26.3565 69.6228C25.1858 69.9365 24.0391 69.9456 22.9164 69.6501C21.7936 69.3546 20.8268 68.8062 20.0157 68.0048C19.2015 67.1918 18.6392 66.2058 18.3286 65.0466C18.018 63.8875 18.0194 62.7566 18.3326 61.654C18.6459 60.5513 19.2164 59.5972 20.0441 58.7915C20.8834 57.9827 21.8999 57.4184 23.0938 57.0985C23.9632 56.8655 24.8617 56.8111 25.7894 56.9352C26.7172 57.0594 27.5589 57.3494 28.3147 57.8053L27.4151 59.8726ZM30.0549 55.401L32.3847 54.7767L33.7777 59.9753L39.8456 58.3494L38.4526 53.1508L40.7825 52.5265L44.0436 64.6972L41.7138 65.3215L40.3907 60.3837L34.3227 62.0096L35.6458 66.9474L33.316 67.5717L30.0549 55.401ZM56.3482 61.4002L54.5807 59.1158L48.6345 60.7091L48.246 63.5712L45.8293 64.2187L47.9059 50.6178L50.3226 49.9703L58.8519 60.7293L56.3482 61.4002ZM48.9333 58.486L53.2104 57.34L49.7196 52.7966L48.9333 58.486ZM54.764 48.7802L64.6918 46.1201L65.2462 48.1891L61.4559 49.2047L64.1626 59.3063L61.8154 59.9353L59.1087 49.8336L55.3184 50.8492L54.764 48.7802ZM76.2425 43.0251C77.4595 42.699 78.619 42.6678 79.7208 42.9316C80.8195 43.1838 81.7655 43.7006 82.5588 44.4819C83.352 45.2632 83.9055 46.2393 84.2192 47.41C84.5328 48.5807 84.5357 49.7042 84.2278 50.7806C83.9284 51.8422 83.3618 52.7643 82.5279 53.5468C81.694 54.3293 80.6569 54.8867 79.4167 55.219L74.4441 56.5514L71.1829 44.3808L76.2425 43.0251ZM79.006 53.1301C79.7478 52.9314 80.3693 52.5847 80.8704 52.0902C81.3799 51.5809 81.722 50.9799 81.8967 50.2871C82.0682 49.5827 82.0499 48.8422 81.8418 48.0656C81.6338 47.289 81.2735 46.6401 80.7612 46.119C80.2457 45.5862 79.6358 45.2341 78.9314 45.0625C78.2355 44.8763 77.5108 44.8841 76.7574 45.086L74.0625 45.8081L76.2241 53.8755L79.006 53.1301ZM84.9202 40.6999L93.8396 38.3099L94.3847 40.3442L87.7951 42.1098L88.6011 45.1177L94.5125 43.5338L95.0576 45.568L89.1461 47.152L89.9661 50.212L96.7643 48.3905L97.3093 50.4247L88.1813 52.8705L84.9202 40.6999ZM96.7049 37.5422L99.3651 36.8294L105.5 43.5899L107.398 34.677L110.058 33.9643L113.319 46.1349L111.18 46.708L108.842 37.9798L107.055 46.4717L105.559 46.8724L99.7485 40.4164L102.087 49.1445L99.966 49.7128L96.7049 37.5422ZM118.833 31.4453C120.038 31.1223 121.206 31.1012 122.338 31.382C123.48 31.6597 124.463 32.1977 125.286 32.996C126.109 33.7943 126.675 34.773 126.986 35.9321C127.296 37.0912 127.296 38.2279 126.986 39.3421C126.673 40.4448 126.092 41.4078 125.245 42.2313C124.409 43.0517 123.388 43.6234 122.182 43.9464C120.977 44.2694 119.801 44.2862 118.655 43.997C117.521 43.7046 116.542 43.1593 115.72 42.361C114.894 41.5511 114.326 40.5666 114.015 39.4075C113.705 38.2484 113.706 37.1175 114.019 36.0148C114.333 34.9122 114.909 33.9565 115.748 33.1477C116.599 32.3358 117.627 31.7684 118.833 31.4453ZM119.426 33.5224C118.685 33.7212 118.045 34.0915 117.507 34.6332C116.965 35.1633 116.595 35.7969 116.395 36.5338C116.191 37.2591 116.192 38.0042 116.397 38.7692C116.602 39.5342 116.976 40.1858 117.517 40.7239C118.071 41.259 118.71 41.6281 119.435 41.8313C120.172 42.0314 120.912 42.032 121.653 41.8333C122.384 41.6376 123.012 41.2704 123.539 40.7318C124.065 40.1932 124.423 39.557 124.611 38.8232C124.811 38.0863 124.809 37.3353 124.604 36.5703C124.399 35.8053 124.027 35.1595 123.488 34.633C122.958 34.0918 122.332 33.7253 121.61 33.5337C120.884 33.3305 120.157 33.3268 119.426 33.5224Z" fill="#fff"/><path d="M161.452 27.3203L126.811 7.32031L141.452 61.9613L161.452 27.3203Z" fill="#252733"/></svg>