<svg width="23" height="23" viewBox="0 0 23 23" fill="none" xmlns="http://www.w3.org/2000/svg"><path d="M1 9.93505L11.476 1.36377L21.952 9.93505" stroke="#252733" stroke-width="2" stroke-miterlimit="10" stroke-linecap="round" stroke-linejoin="round"/><path d="M3.85742 11.8402V21.3639H19.0953V11.8402" stroke="#252733" stroke-width="2" stroke-miterlimit="10" stroke-linecap="round" stroke-linejoin="round"/><path d="M14.6773 10.5362C14.4584 10.3213 14.1949 10.157 13.9056 10.055C13.6162 9.95304 13.308 9.91587 13.0027 9.94612C12.6974 9.97637 12.4024 10.0733 12.1387 10.2301C11.8749 10.3868 11.6489 10.5996 11.4764 10.8534C11.3039 10.5996 11.0778 10.3868 10.8141 10.2301C10.5504 10.0733 10.2554 9.97637 9.95012 9.94612C9.64481 9.91587 9.33658 9.95304 9.04721 10.055C8.75784 10.157 8.4944 10.3213 8.27549 10.5362C8.0828 10.7256 7.92975 10.9515 7.82527 11.2007C7.7208 11.4499 7.66699 11.7174 7.66699 11.9876C7.66699 12.2578 7.7208 12.5253 7.82527 12.7745C7.92975 13.0237 8.0828 13.2496 8.27549 13.439L11.4764 16.6018L14.6773 13.439C14.87 13.2496 15.023 13.0237 15.1275 12.7745C15.232 12.5253 15.2858 12.2578 15.2858 11.9876C15.2858 11.7174 15.232 11.4499 15.1275 11.2007C15.023 10.9515 14.87 10.7256 14.6773 10.5362Z" stroke="#252733" stroke-width="2" stroke-miterlimit="10" stroke-linecap="round" stroke-linejoin="round"/></svg>