<svg width="19" height="18" viewBox="0 0 19 18" fill="none" xmlns="http://www.w3.org/2000/svg"><path d="M1 7.85714L9.38095 1L17.7619 7.85714" stroke="#000" stroke-miterlimit="10" stroke-linecap="round" stroke-linejoin="round"/><path d="M3.28564 9.38086V16.9999H15.4761V9.38086" stroke="#000" stroke-miterlimit="10" stroke-linecap="round" stroke-linejoin="round"/><path d="M11.9418 8.33792C11.7667 8.16594 11.5559 8.03452 11.3244 7.95295C11.0929 7.87137 10.8464 7.84163 10.6021 7.86583C10.3579 7.89003 10.1219 7.96758 9.9109 8.093C9.69991 8.21841 9.51904 8.38863 9.38107 8.59164C9.24309 8.38863 9.06222 8.21841 8.85123 8.093C8.64024 7.96758 8.40428 7.89003 8.16003 7.86583C7.91577 7.84163 7.66919 7.87137 7.43769 7.95295C7.20619 8.03452 6.99543 8.16594 6.82031 8.33792C6.66614 8.48946 6.5437 8.67018 6.46012 8.86953C6.37654 9.06889 6.3335 9.2829 6.3335 9.49906C6.3335 9.71523 6.37654 9.92924 6.46012 10.1286C6.5437 10.328 6.66614 10.5087 6.82031 10.6602L9.38107 13.1905L11.9418 10.6602C12.096 10.5087 12.2184 10.328 12.302 10.1286C12.3856 9.92924 12.4286 9.71523 12.4286 9.49906C12.4286 9.2829 12.3856 9.06889 12.302 8.86953C12.2184 8.67018 12.096 8.48946 11.9418 8.33792Z" stroke="#000" stroke-miterlimit="10" stroke-linecap="round" stroke-linejoin="round"/></svg>