<svg width="18" height="19" viewBox="0 0 18 19" fill="none" xmlns="http://www.w3.org/2000/svg"><path d="M15.4 1H2.6C1.72 1 1 1.72 1 2.6V17L4.2 13.8H15.4C16.28 13.8 17 13.08 17 12.2V2.6C17 1.72 16.28 1 15.4 1Z" stroke="#252733"/><path d="M6.71422 6.143C6.71422 8.42871 3.28564 8.42871 3.28564 6.143C3.28564 3.85728 6.71422 3.85728 6.71422 6.143Z" fill="#252733"/><path d="M14.7142 6.143C14.7142 8.42871 11.2856 8.42871 11.2856 6.143C11.2856 3.85728 14.7142 3.85728 14.7142 6.143Z" fill="#252733"/><path stroke="#252733" stroke-linecap="round" d="M7.214 9.643L10.786 9.643"/></svg>