<svg width="534" height="731" viewBox="0 0 534 731" fill="none" xmlns="http://www.w3.org/2000/svg"><g filter="url(#filter0_dd)"><path fill-rule="evenodd" clip-rule="evenodd" d="M164.114 30H446.888C461.31 30 473.002 40.4686 473.002 53.3823V634.6C473.002 647.513 461.31 657.982 446.888 657.982H164.114C149.692 657.982 138 647.513 138 634.6V53.3823C138 40.4686 149.692 30 164.114 30Z" fill="#000" fill-opacity=".01"/></g><path fill-rule="evenodd" clip-rule="evenodd" d="M170.025 30H440.976C458.663 30 473.002 42.8097 473.002 58.6114V628.203C473.002 644.005 458.663 656.815 440.976 656.815H170.025C152.338 656.815 138 644.005 138 628.203V58.6114C138 42.8097 152.338 30 170.025 30Z" fill="#fff"/><path d="M244.881 55.2111C244.881 52.8905 246.762 51.0093 249.083 51.0093H371.545C373.866 51.0093 375.747 52.8905 375.747 55.2111C375.747 57.5317 373.866 59.413 371.545 59.413H249.083C246.762 59.413 244.881 57.5317 244.881 55.2111Z" fill="#D8D8D8"/><path d="M244.543 635.337C244.543 633.016 246.424 631.135 248.745 631.135H371.207C373.528 631.135 375.409 633.016 375.409 635.337C375.409 637.657 373.528 639.539 371.207 639.539H248.745C246.424 639.539 244.543 637.657 244.543 635.337Z" fill="#D8D8D8"/><path fill-rule="evenodd" clip-rule="evenodd" d="M184.938 63.5276C189.053 63.5276 192.389 60.1918 192.389 56.077C192.389 51.9622 189.053 48.6265 184.938 48.6265C180.824 48.6265 177.488 51.9622 177.488 56.077C177.488 60.1918 180.824 63.5276 184.938 63.5276Z" fill="#D8D8D8"/><path fill="#D8D8D8" d="M472.53 293.995H477V381.68H472.53z"/><path fill-rule="evenodd" clip-rule="evenodd" d="M472.531 195.402H474.766C476 195.402 477.001 195.966 477.001 196.661V238.196C477.001 238.891 476 239.454 474.766 239.454H472.531V195.402Z" fill="#D8D8D8"/><path fill="#F2F2F2" stroke="#CEDCE4" d="M149.273 93.532H462.264V596.785H149.273z"/><path d="M2.58838 206.959L148.038 167.986L156.838 200.827L11.3882 239.8L2.58838 206.959Z" fill="#252733"/><path d="M27.6984 225.226C26.4813 225.552 25.3088 225.581 24.1806 225.311C23.061 225.027 22.0972 224.491 21.2893 223.701C20.4782 222.899 19.9143 221.908 19.5975 220.725C19.2807 219.543 19.2747 218.408 19.5795 217.32C19.8812 216.22 20.4533 215.272 21.2956 214.475C22.1349 213.666 23.1631 213.099 24.3801 212.772C25.3306 212.518 26.2434 212.447 27.1186 212.56C27.9906 212.662 28.7887 212.952 29.5128 213.428L28.6762 214.827C27.5027 214.11 26.2321 213.935 24.8643 214.301C23.9602 214.543 23.1974 214.965 22.5759 215.567C21.9543 216.168 21.5312 216.884 21.3065 217.714C21.0902 218.53 21.1001 219.378 21.3362 220.259C21.5722 221.14 21.9894 221.886 22.5876 222.496C23.1944 223.091 23.9172 223.494 24.7561 223.704C25.5951 223.914 26.4666 223.898 27.3707 223.655C28.7269 223.292 29.7382 222.499 30.4046 221.277L31.8282 222.07C31.4395 222.845 30.8888 223.501 30.176 224.04C29.4747 224.576 28.6489 224.971 27.6984 225.226Z" fill="#fff"/><path d="M42.2791 208.126L45.5402 220.296L43.8016 220.762L42.3481 215.337L35.3586 217.21L36.8121 222.635L35.0735 223.101L31.8124 210.93L33.551 210.464L34.9533 215.698L41.9427 213.825L40.5405 208.591L42.2791 208.126Z" fill="#fff"/><path d="M56.4121 214.122L49.9443 215.855L49.4208 219.256L47.63 219.736L49.8804 206.089L51.6017 205.628L60.3918 216.317L58.5662 216.806L56.4121 214.122ZM55.4309 212.894L51.2075 207.634L50.1801 214.301L55.4309 212.894Z" fill="#fff"/><path d="M61.4468 204.611L57.274 205.729L56.8687 204.216L66.9355 201.519L67.3409 203.031L63.1681 204.15L66.0239 214.808L64.3026 215.269L61.4468 204.611Z" fill="#fff"/><path d="M74.078 199.605L79.2071 198.231C80.4937 197.886 81.7038 197.835 82.8373 198.078C83.9707 198.321 84.9341 198.833 85.7274 199.614C86.5291 200.381 87.0899 201.361 87.4098 202.555C87.7297 203.749 87.7357 204.884 87.4278 205.96C87.1284 207.022 86.5486 207.941 85.6884 208.719C84.8282 209.496 83.7548 210.057 82.4682 210.401L77.3391 211.776L74.078 199.605ZM81.9586 208.917C82.9438 208.653 83.7561 208.23 84.3955 207.649C85.0464 207.064 85.4831 206.376 85.7055 205.583C85.9249 204.779 85.9134 203.925 85.6711 203.021C85.4289 202.117 85.0133 201.377 84.4244 200.802C83.8323 200.215 83.1084 199.832 82.2524 199.651C81.4081 199.467 80.4933 199.507 79.5081 199.771L76.222 200.652L78.6725 209.797L81.9586 208.917Z" fill="#fff"/><path d="M100.42 203.97L100.826 205.482L91.9933 207.849L88.7322 195.678L97.3212 193.377L97.7265 194.89L90.8762 196.725L91.8778 200.463L97.9805 198.828L98.3765 200.306L92.2738 201.941L93.3267 205.871L100.42 203.97Z" fill="#fff"/><path d="M115.215 201.627L112.821 192.764L110.403 201.332L109.603 201.547L103.238 195.388L105.6 204.203L103.931 204.65L100.67 192.48L102.095 192.098L109.464 199.292L112.18 189.396L113.605 189.014L116.884 201.18L115.215 201.627Z" fill="#fff"/><path d="M126.358 198.79C125.129 199.12 123.951 199.15 122.822 198.88C121.691 198.6 120.714 198.06 119.892 197.262C119.081 196.46 118.518 195.474 118.205 194.304C117.891 193.133 117.885 191.998 118.187 190.898C118.5 189.796 119.078 188.846 119.92 188.048C120.759 187.24 121.793 186.671 123.022 186.341C124.239 186.015 125.413 185.993 126.544 186.273C127.673 186.543 128.642 187.078 129.453 187.879C130.261 188.669 130.823 189.655 131.14 190.837C131.457 192.02 131.465 193.161 131.163 194.26C130.858 195.348 130.286 196.297 129.447 197.105C128.604 197.903 127.575 198.464 126.358 198.79ZM125.943 197.243C126.836 197.004 127.581 196.587 128.179 195.991C128.789 195.393 129.202 194.686 129.419 193.87C129.643 193.04 129.638 192.184 129.402 191.303C129.166 190.422 128.744 189.684 128.137 189.089C127.539 188.479 126.826 188.068 125.999 187.854C125.183 187.638 124.329 187.65 123.437 187.889C122.544 188.128 121.787 188.548 121.166 189.15C120.556 189.748 120.138 190.462 119.914 191.293C119.697 192.108 119.707 192.957 119.943 193.838C120.179 194.719 120.596 195.464 121.195 196.074C121.801 196.669 122.518 197.073 123.346 197.287C124.185 197.497 125.05 197.482 125.943 197.243Z" fill="#fff"/><path d="M175.503 179.555L138.371 160.223L153.012 214.864L175.503 179.555Z" fill="#252733"/><defs><filter id="filter0_dd" x="78" y="0" width="455.002" height="747.982" filterUnits="userSpaceOnUse" color-interpolation-filters="sRGB"><feFlood flood-opacity="0" result="BackgroundImageFix"/><feColorMatrix in="SourceAlpha" values="0 0 0 0 0 0 0 0 0 0 0 0 0 0 0 0 0 0 127 0"/><feOffset dy="30"/><feGaussianBlur stdDeviation="30"/><feColorMatrix values="0 0 0 0 0 0 0 0 0 0.0784314 0 0 0 0 0.113725 0 0 0 0.1 0"/><feBlend in2="BackgroundImageFix" result="effect1_dropShadow"/><feColorMatrix in="SourceAlpha" values="0 0 0 0 0 0 0 0 0 0 0 0 0 0 0 0 0 0 127 0"/><feOffset dy="10"/><feGaussianBlur stdDeviation="15"/><feColorMatrix values="0 0 0 0 0 0 0 0 0 0.0784314 0 0 0 0 0.113725 0 0 0 0.1 0"/><feBlend in2="effect1_dropShadow" result="effect2_dropShadow"/><feBlend in="SourceGraphic" in2="effect2_dropShadow" result="shape"/></filter></defs></svg>