<svg xmlns="http://www.w3.org/2000/svg" width="165.307" height="70.544"><path d="M4.334 12.398h6.384v3.5H.688v-15.9h9.921v3.5H4.334v2.631h5.7v3.454h-5.7zm17.205-2.318a2.725 2.725 0 0 1 1.528 2.57 2.985 2.985 0 0 1-1.016 2.349 4.2 4.2 0 0 1-2.863.9h-6.154V4.542h5.7a4.178 4.178 0 0 1 2.863.9 2.985 2.985 0 0 1 1.016 2.349 2.677 2.677 0 0 1-1.073 2.293m-3.17-2.815h-2.146v1.59h2.146c.669 0 1-.257 1-.771 0-.546-.331-.819-1-.819m.363 5.815c.669 0 1-.281 1-.839q0-.8-1-.8h-2.508v1.635zm13.235-8.863a5.045 5.045 0 0 1 3.855 1.739 6.478 6.478 0 0 1 0 8.518 5.068 5.068 0 0 1-3.855 1.735 4.265 4.265 0 0 1-3.4-1.386v5.615h-3.42v-15.9h3.42V5.61a4.265 4.265 0 0 1 3.4-1.386m-2.633 8.016a2.715 2.715 0 0 0 4.662-2.02 2.686 2.686 0 0 0-.762-2.02 2.918 2.918 0 0 0-3.9 0 3.058 3.058 0 0 0 0 4.04m19.967 2.238a6.164 6.164 0 0 1-8.574 0 6.047 6.047 0 0 1 0-8.518 6.153 6.153 0 0 1 8.574 0 6.038 6.038 0 0 1 0 8.518m-6.154-2.329a2.7 2.7 0 0 0 3.738 0 2.857 2.857 0 0 0 0-3.86 2.7 2.7 0 0 0-3.738 0 2.846 2.846 0 0 0 0 3.86M63.921 4.54v11.358h-3.424V7.721h-3.876v8.177h-3.42V4.54zm5.783 7.038a2.576 2.576 0 0 0 2.734 1.59 2.832 2.832 0 0 0 2.19-.863l2.734 1.57a5.73 5.73 0 0 1-4.968 2.337 6.251 6.251 0 0 1-4.6-1.7 6.225 6.225 0 0 1-.024-8.571 5.889 5.889 0 0 1 4.368-1.719 5.5 5.5 0 0 1 4.138 1.719 5.9 5.9 0 0 1 1.657 4.277 6.086 6.086 0 0 1-.141 1.361zm-.073-2.542h4.9a2.271 2.271 0 0 0-2.416-1.8 2.319 2.319 0 0 0-2.488 1.8m18.66-4.494h2.508v11.354h-3.331v-5.679l-4.88 5.679h-2.508V4.542h3.331v5.675zM82.012.249h6.844v2.952h-6.844zm16.942 15.964a6 6 0 1 1 0-11.992 5.941 5.941 0 0 1 3.017.8 5.67 5.67 0 0 1 2.137 2.113l-2.992 1.727a2.239 2.239 0 0 0-2.214-1.273 2.5 2.5 0 0 0-1.847.739 2.838 2.838 0 0 0 0 3.791 2.488 2.488 0 0 0 1.847.739 2.212 2.212 0 0 0 2.214-1.273l2.992 1.707a5.631 5.631 0 0 1-2.125 2.133 5.921 5.921 0 0 1-3.029.8m17.839-.327h-3.876l-3.65-5.012v5.012h-3.422V4.539h3.42v4.976l3.42-4.976h3.992l-4.15 5.679zm9.684-11.357h2.508v11.358h-3.331v-5.679l-4.88 5.679h-2.508V4.54h3.331v5.679zm8.293 7.038a2.579 2.579 0 0 0 2.734 1.59 2.826 2.826 0 0 0 2.19-.863l2.738 1.57a5.742 5.742 0 0 1-4.972 2.337 6.235 6.235 0 0 1-4.593-1.7 6.225 6.225 0 0 1-.024-8.571 5.882 5.882 0 0 1 4.368-1.719 5.511 5.511 0 0 1 4.138 1.719 5.9 5.9 0 0 1 1.657 4.277 6.331 6.331 0 0 1-.141 1.361zm-.069-2.542h4.9a2.275 2.275 0 0 0-2.42-1.8 2.315 2.315 0 0 0-2.484 1.8M11.927 25.051v3.5H7.818v12.4H4.172v-12.4h-4.1v-3.5zm3.366 11.58a2.576 2.576 0 0 0 2.734 1.59 2.832 2.832 0 0 0 2.19-.863l2.734 1.57a5.73 5.73 0 0 1-4.968 2.337 6.251 6.251 0 0 1-4.6-1.7 6.23 6.23 0 0 1-.024-8.575 5.886 5.886 0 0 1 4.368-1.715 5.5 5.5 0 0 1 4.138 1.715 5.918 5.918 0 0 1 1.658 4.281 6.082 6.082 0 0 1-.141 1.361zm-.073-2.542h4.9a2.267 2.267 0 0 0-2.416-1.8 2.316 2.316 0 0 0-2.488 1.8m20.912 6.858H32.22l-2.133-3.016-2.141 3.016h-3.9l4.093-5.771-3.956-5.582h3.9l2 2.823 2-2.823h3.9l-3.948 5.577zm8.778-11.355h3.424v11.354h-3.424v-4.085H41.03v4.084h-3.424V29.592h3.424v4.088h3.876zm15.905 9.935a6.153 6.153 0 0 1-8.574 0 6.047 6.047 0 0 1 0-8.518 6.164 6.164 0 0 1 8.574 0 6.037 6.037 0 0 1 0 8.518m-6.154-2.329a2.7 2.7 0 0 0 3.738 0 2.857 2.857 0 0 0 0-3.86 2.712 2.712 0 0 0-3.738 0 2.846 2.846 0 0 0 0 3.86m19.955-7.607v11.354h-3.424V32.86h-2.46v3.386a4.971 4.971 0 0 1-1.286 3.791 4.518 4.518 0 0 1-3.779.908v-3.174a1.12 1.12 0 0 0 1.222-.229 2.205 2.205 0 0 0 .419-1.522v-6.429zm12.473 9.936a6.153 6.153 0 0 1-8.574 0 6.047 6.047 0 0 1 0-8.518 6.164 6.164 0 0 1 8.574 0 6.038 6.038 0 0 1 0 8.518m-6.154-2.329a2.7 2.7 0 0 0 3.738 0 2.846 2.846 0 0 0 0-3.86 2.712 2.712 0 0 0-3.738 0 2.846 2.846 0 0 0 0 3.86m18.037-7.606v3.269h-4.561v8.085h-3.42V29.592zm9.806 0h2.508v11.354h-3.331v-5.675l-4.88 5.675h-2.508V29.592h3.331v5.679zm13.489 0h2.508v11.354h-3.326v-5.675l-4.88 5.675h-2.508V29.592h3.331v5.679zM8.304 66.315a8.269 8.269 0 1 1 0-16.535 8.183 8.183 0 0 1 3.964.988 7.528 7.528 0 0 1 2.875 2.691l-3.146 1.819a3.574 3.574 0 0 0-1.508-1.442 4.639 4.639 0 0 0-2.186-.51 4.516 4.516 0 0 0-3.388 1.293 5.273 5.273 0 0 0 0 6.856 4.519 4.519 0 0 0 3.388 1.3 4.634 4.634 0 0 0 2.2-.522 3.545 3.545 0 0 0 1.5-1.43l3.146 1.815a7.319 7.319 0 0 1-2.851 2.691 8.254 8.254 0 0 1-3.988.988m17.791-11.675v3.269h-3.4V66h-3.42v-8.089h-3.444v-3.269zm8.453-.315a5.045 5.045 0 0 1 3.855 1.739 6.473 6.473 0 0 1 0 8.514 5.045 5.045 0 0 1-3.855 1.739 4.265 4.265 0 0 1-3.4-1.386v5.611h-3.42v-15.9h3.42v1.068a4.265 4.265 0 0 1 3.4-1.386m-2.633 8.016a2.772 2.772 0 1 0 0-4.04 3.058 3.058 0 0 0 0 4.04m19.966 2.238a6.164 6.164 0 0 1-8.574 0 6.047 6.047 0 0 1 0-8.518 6.164 6.164 0 0 1 8.574 0 6.037 6.037 0 0 1 0 8.518m-6.154-2.329a2.707 2.707 0 0 0 3.742 0 2.857 2.857 0 0 0 0-3.86 2.707 2.707 0 0 0-3.742 0 2.846 2.846 0 0 0 0 3.86m18.266-7.609h2.508V66H63.18v-5.679L58.296 66h-2.5V54.642h3.327v5.679zm14.423 0v3.269h-3.4V66h-3.416v-8.089h-3.448v-3.269zm4.78 7.042a2.579 2.579 0 0 0 2.734 1.59 2.821 2.821 0 0 0 2.19-.863l2.738 1.566a5.738 5.738 0 0 1-4.969 2.341 6.255 6.255 0 0 1-4.6-1.7 6.23 6.23 0 0 1-.024-8.575 5.879 5.879 0 0 1 4.368-1.715 5.5 5.5 0 0 1 4.138 1.715 5.918 5.918 0 0 1 1.658 4.281 6.327 6.327 0 0 1-.141 1.361zm-.069-2.542h4.9a2.269 2.269 0 0 0-2.42-1.8 2.311 2.311 0 0 0-2.484 1.8m20.316-4.498v11.358h-3.424v-8.089h-2.46v3.386a4.975 4.975 0 0 1-1.286 3.8 4.54 4.54 0 0 1-3.775.908v-3.186a1.115 1.115 0 0 0 1.218-.229 2.192 2.192 0 0 0 .424-1.518v-6.43zm8.088 3.402a4.7 4.7 0 0 1 3.267 1.092 4.042 4.042 0 0 1 0 5.767 4.686 4.686 0 0 1-3.267 1.092h-5.336V54.64h3.424v3.406zm.028 5a1.156 1.156 0 0 0 .807-.285 1.03 1.03 0 0 0 0-1.474 1.156 1.156 0 0 0-.807-.285h-1.94v2.044zm11.877 3.269a6 6 0 1 1 0-11.988 5.981 5.981 0 0 1 3.021.791 5.659 5.659 0 0 1 2.133 2.113l-2.988 1.727a2.239 2.239 0 0 0-2.214-1.273 2.5 2.5 0 0 0-1.847.739 2.838 2.838 0 0 0 0 3.791 2.488 2.488 0 0 0 1.847.739 2.215 2.215 0 0 0 2.214-1.269l2.988 1.7a5.62 5.62 0 0 1-2.121 2.133 5.925 5.925 0 0 1-3.033.8m16.496-11.676v3.269h-3.4V66h-3.42v-8.089h-3.444v-3.269zm10.144 5.54a2.725 2.725 0 0 1 1.528 2.57 2.985 2.985 0 0 1-1.016 2.349 4.178 4.178 0 0 1-2.863.9h-6.154V54.644h5.7a4.167 4.167 0 0 1 2.859.9 2.988 2.988 0 0 1 1.016 2.353 2.675 2.675 0 0 1-1.073 2.289m-3.17-2.815h-2.141v1.59h2.141q1 0 1-.771 0-.819-1-.819m.367 5.815c.665 0 1-.281 1-.839 0-.53-.339-.8-1-.8h-2.508v1.635zm14.615-8.542h3.42v11.358h-3.42v-1.068a4.273 4.273 0 0 1-3.4 1.386 5.045 5.045 0 0 1-3.855-1.739 6.485 6.485 0 0 1 0-8.514 5.045 5.045 0 0 1 3.855-1.739 4.273 4.273 0 0 1 3.4 1.386zm-4.674 7.7a2.938 2.938 0 0 0 3.924 0 3.1 3.1 0 0 0 0-4.04 2.938 2.938 0 0 0-3.924 0 3.083 3.083 0 0 0 0 4.04" fill="#000f8f"/><path d="M27.738 70.544v-15.9h3.419v1.071a4.264 4.264 0 0 1 3.4-1.386 5.044 5.044 0 0 1 3.856 1.74 6.471 6.471 0 0 1 0 8.514 5.046 5.046 0 0 1-3.856 1.739 4.267 4.267 0 0 1-3.4-1.385v5.611zm4.181-12.242a3.058 3.058 0 0 0 0 4.04 2.771 2.771 0 1 0 0-4.04zm122.711 6.277a6.487 6.487 0 0 1 0-8.514 5.046 5.046 0 0 1 3.856-1.74 4.273 4.273 0 0 1 3.4 1.386v-1.068h3.42v11.358h-3.42v-1.068a4.275 4.275 0 0 1-3.4 1.385 5.048 5.048 0 0 1-3.855-1.738zm2.581-6.277a3.082 3.082 0 0 0 0 4.04 2.937 2.937 0 0 0 3.924 0 3.094 3.094 0 0 0 0-4.04 2.94 2.94 0 0 0-3.924 0zm-75.913 6.313a6.23 6.23 0 0 1-.024-8.574 5.879 5.879 0 0 1 4.368-1.715 5.5 5.5 0 0 1 4.137 1.715 5.918 5.918 0 0 1 1.658 4.281 6.321 6.321 0 0 1-.141 1.361h-8.09a2.579 2.579 0 0 0 2.734 1.591 2.819 2.819 0 0 0 2.19-.864l2.739 1.566a5.738 5.738 0 0 1-4.969 2.342 6.256 6.256 0 0 1-4.602-1.703zm1.835-5.474h4.9a2.269 2.269 0 0 0-2.42-1.8 2.311 2.311 0 0 0-2.48 1.801zm35.985 5.446a5.994 5.994 0 0 1 4.319-10.262 5.989 5.989 0 0 1 3.021.791 5.659 5.659 0 0 1 2.133 2.113l-2.988 1.726a2.24 2.24 0 0 0-2.214-1.273 2.507 2.507 0 0 0-1.848.739 2.839 2.839 0 0 0 0 3.791 2.49 2.49 0 0 0 1.848.74 2.215 2.215 0 0 0 2.214-1.27l2.988 1.7a5.623 5.623 0 0 1-2.121 2.132 5.926 5.926 0 0 1-3.033.8 5.84 5.84 0 0 1-4.319-1.726zm-75.805-.008a6.048 6.048 0 0 1 0-8.518 6.163 6.163 0 0 1 8.573 0 6.037 6.037 0 0 1 0 8.518 6.163 6.163 0 0 1-8.573 0zm2.42-6.189a2.847 2.847 0 0 0 0 3.86 2.708 2.708 0 0 0 3.742 0 2.859 2.859 0 0 0 0-3.86 2.707 2.707 0 0 0-3.742 0zM2.359 63.94a8.268 8.268 0 0 1 5.947-14.16 8.184 8.184 0 0 1 3.965.988 7.528 7.528 0 0 1 2.875 2.69l-3.145 1.82a3.574 3.574 0 0 0-1.508-1.442 4.644 4.644 0 0 0-2.186-.51 4.518 4.518 0 0 0-3.388 1.293 5.272 5.272 0 0 0 0 6.855 4.518 4.518 0 0 0 3.388 1.3 4.636 4.636 0 0 0 2.2-.522 3.55 3.55 0 0 0 1.5-1.43l3.145 1.815a7.322 7.322 0 0 1-2.851 2.691 8.255 8.255 0 0 1-3.995.987 8.042 8.042 0 0 1-5.947-2.374zm90.139 2.061V62.82a1.114 1.114 0 0 0 1.218-.229 2.192 2.192 0 0 0 .423-1.518v-6.43h9.3v11.358h-3.424v-8.086h-2.461v3.386a4.975 4.975 0 0 1-1.286 3.8 4.03 4.03 0 0 1-2.853.965 7.914 7.914 0 0 1-.917-.064zm40.617 0v-8.086h-3.444v-3.269h10.264v3.269h-3.4v8.089zm-61.509 0v-8.086h-3.448v-3.269h10.264v3.269h-3.4v8.089zm-8.426 0v-5.679l-4.883 5.679h-2.5V54.642h3.327v5.679l4.88-5.679h2.502V66zm-43.9 0v-8.086h-3.444v-3.269h10.27v3.269h-3.4v8.089zm122.291 0V54.644h5.7a4.165 4.165 0 0 1 2.859.9 2.987 2.987 0 0 1 1.016 2.353 2.672 2.672 0 0 1-1.072 2.289 2.726 2.726 0 0 1 1.528 2.57 2.988 2.988 0 0 1-1.016 2.35 4.18 4.18 0 0 1-2.864.9zm3.194-2.815h2.508c.666 0 1-.281 1-.84 0-.53-.338-.795-1-.795h-2.508zm0-4.225h2.141q1 0 1-.77 0-.819-1-.82h-2.141zm-38.57 7.041V54.639h3.424v3.406h1.912a4.706 4.706 0 0 1 3.266 1.093 4.042 4.042 0 0 1 0 5.767 4.685 4.685 0 0 1-3.266 1.093zm3.424-2.952h1.94a1.156 1.156 0 0 0 .806-.285 1.029 1.029 0 0 0 0-1.473 1.156 1.156 0 0 0-.806-.285h-1.94zM78.51 39.531a6.047 6.047 0 0 1 0-8.518 6.163 6.163 0 0 1 8.573 0 6.036 6.036 0 0 1 0 8.518 6.151 6.151 0 0 1-8.573 0zm2.419-6.188a2.845 2.845 0 0 0 0 3.859 2.7 2.7 0 0 0 3.739 0 2.845 2.845 0 0 0 0-3.859 2.712 2.712 0 0 0-3.739 0zm-28.694 6.188a6.047 6.047 0 0 1 0-8.518 6.164 6.164 0 0 1 8.574 0 6.036 6.036 0 0 1 0 8.518 6.152 6.152 0 0 1-8.574 0zm2.42-6.188a2.845 2.845 0 0 0 0 3.859 2.7 2.7 0 0 0 3.739 0 2.858 2.858 0 0 0 0-3.859 2.712 2.712 0 0 0-3.739 0zm-41.272 6.224a6.23 6.23 0 0 1-.024-8.574 5.884 5.884 0 0 1 4.368-1.714 5.5 5.5 0 0 1 4.137 1.714 5.918 5.918 0 0 1 1.658 4.281 6.063 6.063 0 0 1-.141 1.362h-8.09a2.577 2.577 0 0 0 2.735 1.59 2.834 2.834 0 0 0 2.19-.863l2.734 1.57a5.731 5.731 0 0 1-4.969 2.338 6.251 6.251 0 0 1-4.596-1.708zm1.835-5.474h4.9a2.268 2.268 0 0 0-2.416-1.8 2.316 2.316 0 0 0-2.482 1.796zm48.443 6.856v-3.177a1.12 1.12 0 0 0 1.222-.23 2.206 2.206 0 0 0 .423-1.527v-6.426h9.308v11.356H71.19V32.86h-2.46v3.386a4.968 4.968 0 0 1-1.287 3.791 4 4 0 0 1-2.843.967 7.978 7.978 0 0 1-.937-.059zm-31.442 0l-2.134-3.017-2.141 3.017h-3.9l4.094-5.772-3.956-5.582h3.9l2 2.823 2-2.823h3.9l-3.956 5.582 4.093 5.772zm-28.048 0v-12.4h-4.1v-3.5h11.857v3.5H7.819v12.4zm117.268 0v-5.675l-4.879 5.675h-2.509V29.592h3.332v5.678l4.88-5.678h2.508v11.354zm-13.488 0v-5.675l-4.88 5.675h-2.508V29.592h3.331v5.678l4.88-5.678h2.508v11.354zm-16.965 0V29.592h7.981v3.269h-4.561v8.085zm-46.081 0v-4.084H41.03v4.084h-3.424V29.592h3.424v4.088h3.876v-4.088h3.424v11.354zm-19.753-20.5v-15.9h3.42v1.068a4.263 4.263 0 0 1 3.4-1.386 5.046 5.046 0 0 1 3.856 1.739 6.479 6.479 0 0 1 0 8.518 5.067 5.067 0 0 1-3.856 1.735 4.263 4.263 0 0 1-3.4-1.386v5.615zm4.182-12.245a3.058 3.058 0 0 0 0 4.04 2.715 2.715 0 0 0 4.662-2.02 2.686 2.686 0 0 0-.762-2.021 2.918 2.918 0 0 0-3.9 0zm103.532 6.311a6.224 6.224 0 0 1-.024-8.571 5.882 5.882 0 0 1 4.368-1.719 5.509 5.509 0 0 1 4.137 1.719 5.9 5.9 0 0 1 1.659 4.271 6.325 6.325 0 0 1-.141 1.361h-8.094a2.579 2.579 0 0 0 2.734 1.59 2.823 2.823 0 0 0 2.19-.863l2.739 1.571a5.744 5.744 0 0 1-4.972 2.337 6.234 6.234 0 0 1-4.596-1.696zm1.835-5.474h4.9a2.276 2.276 0 0 0-2.42-1.8 2.314 2.314 0 0 0-2.475 1.795zm-40.071 5.45a6.154 6.154 0 0 1 0-8.538 5.856 5.856 0 0 1 4.324-1.727 5.94 5.94 0 0 1 3.016.8 5.669 5.669 0 0 1 2.138 2.112l-2.993 1.727a2.238 2.238 0 0 0-2.214-1.273 2.505 2.505 0 0 0-1.847.739 2.84 2.84 0 0 0 0 3.792 2.488 2.488 0 0 0 1.847.739 2.212 2.212 0 0 0 2.214-1.273l2.993 1.707a5.627 5.627 0 0 1-2.125 2.132 5.924 5.924 0 0 1-3.029.8 5.838 5.838 0 0 1-4.323-1.742zm-26.834.024a6.226 6.226 0 0 1-.024-8.571 5.888 5.888 0 0 1 4.368-1.719 5.5 5.5 0 0 1 4.137 1.719 5.9 5.9 0 0 1 1.658 4.278 6.052 6.052 0 0 1-.141 1.361h-8.088a2.576 2.576 0 0 0 2.734 1.59 2.832 2.832 0 0 0 2.191-.863l2.734 1.571a5.732 5.732 0 0 1-4.969 2.337 6.251 6.251 0 0 1-4.599-1.703zm1.835-5.474h4.9a2.27 2.27 0 0 0-2.416-1.8 2.319 2.319 0 0 0-2.483 1.795zm-28.9 5.441a6.048 6.048 0 0 1 0-8.518 6.153 6.153 0 0 1 8.573 0 6.037 6.037 0 0 1 0 8.518 6.163 6.163 0 0 1-8.573 0zm2.419-6.188a2.845 2.845 0 0 0 0 3.859 2.7 2.7 0 0 0 3.739 0 2.856 2.856 0 0 0 0-3.859 2.7 2.7 0 0 0-3.739 0zm82.507 7.609v-5.688l-4.879 5.679h-2.512V4.54h3.332v5.675l4.88-5.679h2.508v11.358zm-65.157 0V7.726h-3.875v8.177h-3.419V4.54h10.72v11.358zm52.42 0l-3.649-5.012v5.012h-3.42V4.539h3.42v4.976l3.42-4.976h3.992l-4.15 5.678 4.262 5.679zm-112.229 0V.003h9.915v3.5H4.331v2.631h5.7v3.454h-5.7v2.815h6.384v3.5zm86.776 0v-5.688l-4.88 5.678h-2.511V4.542h3.33v5.673l4.88-5.675h2.508v11.355zm-74.43 0V4.542h5.7a4.177 4.177 0 0 1 2.863.9 2.985 2.985 0 0 1 1.016 2.35 2.676 2.676 0 0 1-1.073 2.293 2.724 2.724 0 0 1 1.529 2.57 2.987 2.987 0 0 1-1.016 2.349 4.2 4.2 0 0 1-2.864.9zm3.19-2.815h2.508c.67 0 1-.281 1-.839q0-.8-1-.8h-2.508zm0-4.225h2.145c.67 0 1-.257 1-.771 0-.546-.331-.819-1-.819h-2.145zm65.787-5.655V.256h6.844v2.952z" fill="#fff"/></svg>