<svg width="251" height="87" fill="none" xmlns="http://www.w3.org/2000/svg"><path d="M234.335 35.767c1-1.4 1.5-2.9 1.7-4.6.1-1.4-.3-2.4-1.6-3-1.1-.6-2.2-1-3.4-1.5-1.6-.6-3.2-.7-4.8-.1-3.4 1.2-6.2 3.2-7.7 6.6-1.1 2.5-.5 4.6 1.6 6.3 1.6 1.3 3.4 2.1 5.2 2.8.7.3.7.4.2 1-1 1.1-2 2.3-3 3.4-3.9 4.2-7.9 8.1-12.5 11.6-1.2.9-2.4 1.8-3.8 2.3-.2.1-.6.3-.8.2-.2-.2-.1-.5 0-.8.7-3.2 2.4-5.9 4.4-8.5 1.8-2.3 4-4.3 6.1-6.3.7-.7.7-.7-.1-1.4-1.2-1-2.6-1.5-4.1-1.7-.6-.1-1.1.1-1.5.4-1.6.9-3.1 2.1-4.5 3.4-2.7 2.8-6 4.8-9.4 6.5-.8.4-1.7.7-2.6.9-.8.1-.9 0-.8-.7.1-.7.4-1.4.6-2.1-.5-.3.1-.2.2-.4.5-1 1.1-2 1.6-3-.9-.6-2-.8-3.1-.8-1.2 0-1.5.5-1 1.6.1.3.3.6 0 .9-.3.2-.5-.1-.7-.2 0 0-.1 0-.1-.1-.6-.3-1.1-.2-1.3.5-.1.3-.2.5-.3.7-.5.8-.4 1 .5 1.3.2 0 .3.1.5.1.2.1.4.2.5.4.2.4.3.9.3 1.4 0 .7.1 1.4.7 1.9-.2.3-.6.2-.8.5.2.1.4.1.7.1 2 .1 3.8-.5 5.5-1.5 1.2-.7 2.5-1.4 3.7-2.1.4-.2.7-.4 1.2-.4-.1.4-.2.7-.3 1.1-.6 1.7-1.3 3.4-1.7 5.1-.2.9-.2 1.8.2 2.7.8 1.9 4.6 4.1 7.2 2.8 1.5-.7 2.9-1.5 4.2-2.5 6.3-4.8 11.8-10.5 16.8-16.6.6-.7 1.2-1.3 2.2-1.1h.2c.1 0 .2-.1.4-.2.4-.2.8-.3 1.1.1.1.2.3.1.5.1.7 0 1.4-.5 2.1-.5.3 0 .6-.2.5-.5-.1-.5-.2-1-.6-1.3-.9.1-1.9.3-2.8.4-.2 0-.6.2-.7-.1-.1-.3.2-.5.3-.7 1-1.5 2-3 3.1-4.4zm-6.1 4.5c-.5.6-.7.6-1.3.6-2.1 0-3.7-2.5-3.1-4.7.1-.4.2-.7.4-1 1.3-2.6 3.3-4.6 5.8-5.9.5-.3 1-.4 1.6-.5 1.5-.2 2.5.7 2.4 2.2 0 .7-.3 1.3-.6 1.9-1.4 2.7-3.1 5.2-5.2 7.4z" fill="#1B5E93"/><path d="M144.735 59.667c-1.1-.1-2.1-.5-2.9-1.2-1-.7-1.7-1.6-2.4-2.6s-1.5-2-2.2-3c-.3-.4-.4-.4-.8-.1-1.5 1.2-2.9 2.5-4.3 3.9-4.6 4.3-9.2 8.6-13.7 12.9-.2.2-.4.3-.6.5-.4-.1-.4-.4-.5-.7-.1-.4-.2-.8-.4-1.1-.1-.1-.2-.3-.4-.2-.1 0-.2.2-.2.3-.1.3-.2.7-.6.7-.5 0-1.1.1-1.4-.5 1.5-1.8 3.2-3.5 4.9-5.2 4.4-4.6 8.8-9.2 13.3-13.7.4-.4.8-.8 1.2-1.1.3-.2.3-.4.2-.7l-.6-1.2c.3-.3.7-.3 1.1-.3 1 0 1.6-.6 1.6-1.6 0-.3 0-.7-.1-1-.1-.9 0-1.1.9-1.2.2 0 .5-.1.7 0 .1.2.2.3.3.5.5.9.5.9 1.3.2 1.7-1.6 3.4-3.3 5.2-4.9 1.9-1.8 3.8-3.5 5.7-5.2.8.2 1.3.8 1.7 1.5.5.7 1 1.5 1.7 2 .2.2.5.4.3.8-1.9 1.6-3.7 3.2-5.6 4.8-2.2 1.9-4.4 3.8-6.5 5.8-.4.4-.5.7-.2 1.2.5.9 1 1.8 1.5 2.6 0 .5.1.9.5 1.3.4.5.7 1.2.6 1.8-.1.8.1 1.5.4 2.2.2.5.4 1.1.5 1.7.4.2.3.6-.2.8z" fill="#19274A"/><path d="M86.535 49.867c2.6-2.3 5.2-4.6 7.9-6.8 1.5-1.2 2.6-2.6 3.4-4.3.1-.2.2-.5.5-.5 2.8 0 5.1.9 6.8 3.2.2.3.3.6 0 1-1.8 2.8-3.5 5.6-4.7 8.8-.6 1.7-1.1 3.5-1.1 5.3 0 .5.1.9.2 1.4.1.4.3.5.6.2 1.1-.8 2-1.8 3.1-2.7.3-.1.4.1.5.3.2.7.4 1.5.4 2.3-.9.8-1.8 1.5-2.9 2.1-.3.2-.6.3-1 .2-.5.1-.9.1-1.4 0-2.3-.2-4.3-.9-6-2.4-.7-.6-1.1-1.4-1.2-2.4-.2-2.3.5-4.5 1.1-6.7.1-.5.3-1 .5-1.6-.5.2-.8.5-1.2.8-2.2 1.8-4.3 3.7-6.5 5.5-.2.2-.4.3-.6.5-.2-.1-.3-.2-.3-.4-.1-.7-.3-1.3-.5-1.9.7-.7 1.4-1.3 2.2-1.9.2.1 0 .4.2.5.3-.1.1-.3 0-.5z" fill="#22203A"/><path d="M84.235 51.867c.6.4.5 1.1.7 1.6 0 .2 0 .4.1.6-2.6 2.3-5.3 4.6-8.2 6.6-1.2.9-2.5.9-3.8.3-1.1-.5-2.2-1.1-3.1-1.9-.6-.6-.9-1.3-.7-2.2.6-2.5 1.8-4.6 3-6.8.9-1.8 2.2-3.3 3.4-4.9.6-.8 1.2-1.7 1.7-2.7-3.2.3-5.9 1.8-8.5 3.3-.4 0-.5-.4-.7-.7-.3-.5-.8-1-.7-1.6 3.4-1.8 7-3.2 10.9-3.9 1.2-.2 2.2 0 3.2.8.9.7 1.7 1.5 2.3 2.5.4.7.4 1.3 0 2-2.2 3.3-4.3 6.7-6.2 10.1-.6 1.1-1.2 2.2-1.6 3.5.9-.5 1.6-1 2.3-1.6 1.9-1.5 3.7-3.1 5.6-4.6 0-.1.2-.3.3-.4z" fill="#1C1B27"/><path d="M104.335 58.067c-.3-.6-.3-1.4-.5-2-.1-.3-.2-.5-.4-.6 1.9-1.9 3.8-3.8 5.6-5.7 2.9-3 5.8-6 8.7-8.9.6-.6 1.1-1.1 1.7-1.6 1.1-1 2.3-1 3.5-.4 1 .5 1.6 1.2 2.2 2.2.2.3.1.6 0 .9-.3.6-.7 1.2-1.1 1.7-1.3 1.8-2.6 3.5-3.5 5.5-.7 1.5-1.2 3.1-.8 4.8.1.5.3.9.5 1.3.2.3.1.4-.1.6-1.5 1.5-3.8 1.6-5.4.1-1.6-1.5-1.9-3.4-1.3-5.5.2-.6.3-1.2.5-1.9-.8.6-1.3 1.3-1.9 1.9-2.3 2.4-4.5 4.8-7 7-.2.3-.4.5-.7.6z" fill="#202342"/><path d="M153.935 37.267c0-.5-.4-.7-.8-1-.3-.2-.5-.4-.7-.8-.6-1-1.3-1.8-2.3-2.5 2.2-2 4.3-4 6.5-6 3.4-3.1 6.8-6.2 10.2-9.4.8-.8 1.8-1.4 3-1.5 1 0 1.8.4 2.4 1.1.7.8 1 1.7 1.1 2.7.1.6-.1 1.1-.6 1.5-6.2 5.2-12.4 10.4-18.6 15.7-.1.1-.2.1-.2.2z" fill="#243F69"/><path d="M3.235 67.967c-1.6-1.2-2.2-2.8-2.5-4.6-.5-2.8-.4-5.6-.1-8.4.6-5 1.5-9.8 3.1-14.6.1-.2.2-.4.3-.7.4 0 .3.3.3.6-.1.3 0 .4.4.3.2-.1.4-.1.5.1.3 1.2 1 2.3 1.6 3.4.1.1.1.2.1.3.4 1.6 1.1 3.2 1.8 4.8.3.6.6 1.3.1 2.1-.1.2.1.2.2.3.2.1.5.1.4.5-.6 2.2-1.2 4.3-1.4 6.5-.1.7-.1 1.4-.2 2.1-.1.7 0 1.5 0 2.2 0 .3-.1.6-.3.9-.3.5-.7 1-.8 1.6-.2.8-.7 1.1-1.4 1.3-.2.1-.4.1-.7.2-.4.1-.7.3-.6.9 0 .3-.2.4-.8.2z" fill="#4F261C"/><path d="M12.435 23.067s.1 0 0 0c.4-.3.7-.4 1 0 .2.2.3.4 0 .6-.3.3-.2.5-.1.8.3.4.2.9.3 1.6.2-.5.5-.8.9-.7.4 0 .6.3.8.7.3-.2.5-.5.6-.8.4-.7 1-1.2 1.6-1.7.2-.2.5-.3.8-.4.4-.1.6-.3.7-.7.1-.8.3-1 1.1-1.1.5 0 .9-.2 1-.8.1-.3.3-.5.7-.5.4.1.6-.2.7-.5.2-.6.3-1.3.8-1.9.5-.5.9-.7 1.5-.3.5.3.9.4 1.3-.1.2-.2.4-.2.7-.2.3 0 .5-.1.6-.3.5-1.2 1.4-1.6 2.6-1.8.7.2 1 .4 1 1.1-.9.9-1.8 1.8-2.6 2.8-1 1.2-1.9 2.4-2.9 3.6-2.2 2.8-4 5.8-6.1 8.7-1.8 2.5-3.2 5.3-4.6 8.1l-.3.6c-.5-.2-1.1-.9-1.1-1.5-.1-1-.4-1.9-.8-2.7-.1-.1-.1-.3-.3-.3-.9-.2-1.1-1-1.5-1.6-.4-.6-.8-1.2-1-2-.2-.6-.7-1.1-1.2-1.5-.1-.1-.1-.1-.2-.3.8-1.5 1.5-3 2.5-4.4.8-.4 1-1.1 1.3-1.8.2-.3.2-.5.2-.7z" fill="#BE683B"/><path d="M31.135 16.067c-.2-.4-.4-.9-1-.9-.1-.1-.2-.1-.2-.2-.6-1.7-1.8-3.2-2-5-.1-.5-.3-.8-.8-.9-.5-.2-.5-.5-.1-.8.4-.3.6-.6.6-1 0-.5.2-1 .4-1.4 3.6-2.8 7.7-4.8 12.3-5.2 2.3-.2 4.7-.3 7 .3.2.4-.1.9-.6.9-.6 0-.6.3-.5.8.1.4.3.8.6 1.1.7.6.7.6.3 1.4-3 .7-5.6 2.3-8 4.1-1.6 1.1-3.1 2.4-4.6 3.7-1.2.9-2.3 2-3.4 3.1z" fill="#D67728"/><path d="M195.335 46.967c-.6 0-1.1-.4-1.8-.5-.6-.1-1.1-.2-1.7-.1-.7 0-.9.5-.6 1.1.2.3.4.6.3.9 0 .2 0 .4-.2.5-.2.1-.4 0-.6-.1-.2-.1-.3-.3-.5-.4-.5-.3-.9-.1-1 .5 0 .4-.3.7-.5 1-.3.4-.3.6.2.8.1 0 .2 0 .3.1 1.1.3 1.5 1.1 1.5 2.3 0 .5-.2 1.3.7 1.5.1 0 .1.1.1.2 0 .2-.1.3-.3.4-.3.1-.6.1-.8.2-2.7-.3-4.4-2.8-3.8-5.6.3-1.3.8-2.6 1.4-3.9-.6.2-1.1.4-1.5.7-3.9 2.2-7.6 4.7-11.4 7.1l-.9.6c-.1 0-.2 0-.3-.1-.4-.4-.8-.6-1.4-.6-.4 0-.9-.2-.8-.8 5.7-3.5 11.2-7.4 16.8-11 1.4-.9 2.7-1.8 4-2.7 1.2-.8 2.3-1 3.7-.5 1.1.5 2.1 1 2.9 1.8.3.3.4.6.1 1-.1.2-.3.4-.4.6-1.1 1.5-2.4 3.2-3.5 5z" fill="#1A5689"/><path d="M230.035 42.867c.3 0 .4-.2.6-.3.4-.2.8-.4 1.2.1 0 .1.1.1.2.2.3-.5.9 0 1.2-.4.3-.3.7-.2 1.1-.2.4 0 .6-.2.4-.6-.1-.4-.3-.8-.4-1.2 3.2-.7 6.3-1.8 9.5-2.7.6-.2 1-.1 1.4.4.8.9 1.6 1.9 1.9 3.1.3.9.1 1.6-.5 2.3-1.7 1.9-2.8 4.1-3.2 6.7-.1.8 0 1.5.3 2.3.6 1.3 1.8 1.9 3.2 1.6.8-.2 1.5-.5 2.3-.6.3 0 .7 0 1 .1.8.3 1 1.2.4 1.9-.6.6-1.4.8-2.2.9-3.2.3-6.1-.3-8.5-2.5-2.9-2.6-3.2-5.8-2.2-9.4.3-.9.7-1.8 1.2-2.7-.7-.1-1.2.1-1.8.3-2.1.7-4.3.9-6.5.8-.2 0-.4 0-.6-.1z" fill="#15669B"/><path d="M28.135 5.767c-.1.7-.3 1.4-.4 2-.1.2-.2.4-.5.5-.2 0-.3.1-.3.3 0 .2.2.2.3.2.6 0 .7.4.9.9.2.8.4 1.6.6 2.3 0 .2.1.3.2.5.7.7 1 1.7 1.3 2.6-.8 0-1.4.5-2 .9-.2.1-.4.3-.4.6 0 .6-.3.7-.8.6-.3 0-.6 0-.8.4-.3.5-.7.3-1.1.1-1-.5-1.8-.1-2 1.1-.1.4-.3.8-.3 1.2-.1.3-.3.5-.6.3-.5-.2-.7 0-.7.5-.1.6-.4.7-.9.7-1 .1-1 .1-1.2 1.1-.1.4-.2.6-.6.7-.9.1-1.5.8-2.1 1.5-.3.4-.7.8-.9 1.3-.1.3-.4.3-.5 0-.1-.4-.4-.6-.8-.6s-.5.2-.5.6c0 .1-.1.2-.2.2-.2 0-.2-.1-.3-.2-.1-.3.1-.6 0-.9-.1-.2-.2-.5-.3-.7-.2-.3-.3-.6.2-.7.1 0 .2-.1.1-.3-.1-.2-.3-.4-.5-.4s-.4 0-.5.1c1.5-2.3 3.1-4.4 4.9-6.5 2.8-3.3 5.7-6.6 9-9.4.5-.7 1.1-1.1 1.7-1.5z" fill="#C37140"/><path d="M53.435 44.267c-1.6 1-3.2 2-4.6 3.3-1.6 1.4-2.9 2.9-3.8 4.9-1.1 2.5-2.3 5.1-2.9 7.8-.1.4-.2.4-.6.4-1.5-.3-2.9-.9-4.1-1.8-1-.7-1.3-1.5-1-2.7.4-1.7 1-3.3 1.7-4.9 1-2.4 2.1-4.8 3.4-7.1.3-.1.5.1.7.3.3.3.6.4 1 .5 1.2.3 2.4.5 3.5 1.2.5.3.9.5 1.3.1.3-.2.6.1 1-.2.4-.3.5-.5.5-.9-.1-.6.1-1.1.5-1.5 1.2-.5 2.2-1.2 3.4-1.8l.1.1c-.3.7-.1 1.5-.1 2.3z" fill="#CF612A"/><path d="M166.335 39.867c1.5-1.3 3-2.5 4.5-3.8.2-.2.6-.3.9-.3 2.3.4 4.4 1 6.4 2.3.5.3.5.5.2 1-2.3 3.8-4.6 7.6-6.9 11.5-.1.1-.1.2-.2.3-.6-.3-1.1-.8-1.4-1.4-.3-.6-.7-1.2-.8-1.8-.1-.4-.4-.8-1-.5-.3.2-.6 0-.8-.2-.4-.6-.7-1.2-.7-1.9.5-1.4 1-2.7 1.5-4.2-.4.3-.7.5-1 .7-.2.1-.3 0-.4-.1-.2-.5-.4-1-.3-1.6z" fill="#1E4D7E"/><path d="M66.535 29.767l4.8-.6c4.8-.6 9.6-1.1 14.4-1.7 1-.1 2.1-.2 3.1-.4.8-.1 1.4.1 1.9.7.7.8 1.4 1.5 1.3 2.6 0 .9-.1 1-1 1.1-3.1.3-6.3.4-9.4.5-4.9.1-9.8.4-14.7.8h-1.2c-.2-.2-.2-.5-.2-.7.2-.9.5-1.6 1-2.3z" fill="#2D2521"/><path d="M8.435 29.867c.8.6 1.6 1.1 1.7 2.2 0 .1.1.2.1.3.5.7 1 1.4 1.4 2.2.1.1.2.3.3.3.7-.1.8.5.9.9.3.9.6 1.7.6 2.6 0 .6.6 1 1 1.4-1.1 2.2-2.1 4.4-3.2 6.6-.5-.4-.6-1-.9-1.5-.7-1.2-1-2.6-1.7-3.8-.4-.7-.8-1.3-1.2-1.9-.8-1.1-1.4-2.2-2.1-3.4 1-1.9 2.1-3.9 3.1-5.9z" fill="#A35130"/><path d="M47.235 5.167c.2-.7-.2-1.1-.7-1.6-.4-.3-.4-.9-.5-1.4-.1-.4.2-.5.5-.4.6.1.8-.2.8-.7 1.9.4 3.7 1.1 5.2 2.4 2.4 2 3.1 4.7 2.8 7.7-.3 2.2-.9 4.3-1.9 6.3-.4.2-.6.5-1 .8-.2.1-.3.3-.3.5-.2.6-.4.8-1 .7-.2 0-.3-.1-.5-.1-.5 0-.9.1-1.2.5-.5.7-.9.7-1.5.2.9-1.3 1.8-2.7 2.6-4.1 1-1.7 1.7-3.5 1.9-5.5.1-1.1-.1-2.1-.5-3.1-.7-1.8-2.2-2.6-4.2-2.3-.1 0-.3 0-.5.1z" fill="#DC902E"/><path d="M114.435 68.467c.4.4.9.3 1.3.3.3.1.4-.2.4-.6 0-.2-.1-.5.2-.6.3 0 .6.1.8.5.2.6.2 1.3.6 1.9-2.1 2-4.2 4-6.3 5.9-3.2 3-6.4 6-9.7 9l-1.1 1.1c-.2.2-.4.4-.7.6-.4.2-1.2.1-1.5-.3-.3-.4.1-.7.3-.9 1.2-1.3 2.4-2.6 3.6-4l11.4-12.6c.3 0 .5-.1.7-.3z" fill="#293051"/><path d="M144.735 59.667c.7-.8.1-1.6-.1-2.4-.2-.8-.6-1.6-.5-2.6 0-.7-.2-1.4-.8-1.9-.4-.3-.4-.7-.1-1.2.8 1.1 1.6 2.3 2.6 3.3 1.3 1.2 1.2 1.6 2.9.2 2.1-1.7 4.1-3.6 6.2-5.4 2.1-1.9 4.1-3.8 6.3-5.6.1 0 .2 0 .3.1.3.6.7 1.1.9 1.8-2.7 2.5-5.3 5.1-8 7.6-1.5 1.4-3 2.9-4.5 4.4-1.5 1.5-3.2 2-5.2 1.7z" fill="#1A3257"/><path d="M20.235 60.067c2.6-2.6 5.2-5.2 7.9-7.6 1-.9 2-1.9 3.2-2.7 1.6-1.1 3.4-1.7 5.3-1.3.1.2 0 .2-.1.3-4.9 4.4-9.5 9.2-14.1 13.8-.1.1-.2.2-.3.2-.4-.2-.6-.6-.7-.9-.2-.7-.5-1.4-1.2-1.8z" fill="#CA693D"/><path d="M61.035 54.667c-.6 1.6-1.2 3.3-1.8 4.9-.3.2-.5-.1-.6-.3-.3-.6-.7-.9-1.3-1.2-.6-.3-1-.8-1.3-1.5-.3-.7-.3-1.3.2-1.9.4-.4.6-.8.2-1.4-.3-.5 0-1.2.2-1.8.1-.2.3-.4.2-.6-.2-.5 0-.9.3-1.3.1-.1.2-.3.2-.5-.2-.8.3-1.7 0-2.5.8-1.5 1.7-3 2.5-4.5.7.4 1.1 1.3.8 2-.4.9-.2 1.8.1 2.7.3 1 .4 2 .3 3.1-.1 1.1 0 2.1 0 3.2 0 .4-.1 1 0 1.6z" fill="#7F4128"/><path d="M137.635 42.367c-.3.2-.7.2-1 .2-.4 0-.5.2-.5.6 0 .4.1.8.1 1.2 0 1.2-.7 1.9-1.9 1.9-.4 0-.7.1-1 .1-1.4-2.3-2.9-4.5-4-7-.5-1-.4-1 .5-1.6 1.4-.8 2.9-1.1 4.4-1.2.4 0 .5.2.6.4 1 2 1.9 3.7 2.8 5.4z" fill="#1D1F3E"/><path d="M61.035 54.667c-.1-.1-.2-.2-.2-.3.1-.8-.3-1.7 0-2.5.1-.4-.1-.7-.1-1.1 0-.6.1-1.3.1-1.9 0-.7-.1-1.4-.3-2.1-.2-.6-.1-1.3-.4-1.9v-.2c.8-1 .4-1.9-.3-2.7 0-.2-.1-.2-.2-.2-.3.1-.7.1-1 .2l-1.5-.9c-.4-.2-.8-.4-.7-1 1.7-.7 3.4-1.5 5.2-1.9.4-.1.8-.2 1.2 0-.8.4-.8.4-.3 1.1.2.3.4.5.4.8 0 1.1.5 2 .9 3 .2.6.4 1.1.1 1.7-.2.4.1.8.3 1.1.5.7.9 1.5.3 2.4-.2.3-.1.6-.2.8-1.5 1.4-2.3 3.3-3.1 5.1-.2.3-.2.4-.2.5z" fill="#583726"/><path d="M5.535 35.867c.5.3.6.8.9 1.2.8 1.5 2 2.8 2.8 4.4.5 1.1.9 2.2 1.4 3.3.3.5.5 1.1.8 1.6-.6 1.8-1.3 3.6-1.9 5.3 0 .1-.1.2-.1.3-.1-.3-.4-.3-.6-.4-.3-.1-.5-.2-.1-.5.3-.2.3-.6.3-.9-.1-1-.7-1.8-1.1-2.7-.7-1.7-1-3.6-2.2-5 .2-.7-.8-1-.6-1.7.1-.2-.1-.3-.3-.1-.2.2-.3.3-.5.1-.2-.2-.2-.3 0-.5.1-.2.1-.4-.2-.6.3-1.3.8-2.6 1.4-3.8z" fill="#753B26"/><path d="M49.835 43.467c-.2.6-.5 1.2-.3 1.9.1.2-.1.6-.5.6-.1 0-.2.1-.3.2 0 .1-.1.2-.1.2-.7-.4-1.6.7-2.3-.2-.3-.4-.9-.5-1.4-.5-.8-.1-1.4-.7-2.3-.5-.3 0-.5-.2-.7-.5-.1-.2-.3-.4-.6-.5.9-1.9 2-3.8 3.3-5.5.4-.5.8-.6 1.3-.3 1.3.6 2.5 1.5 3.4 2.6.6.7.8 1.4.4 2.3.1 0 0 .1.1.2z" fill="#DE7D27"/><path d="M166.635 44.967c.2.6.4 1.1.7 1.7.2.4.5.6.9.3.3-.2 1 .3 1.1.9.2 1.3 1 2.2 1.9 3.1l-.6 1.5c-.1.2-.2.1-.4.1-.8-.1-1.2.4-1.1 1.1.1.6 0 1.3-.3 1.9-1.3-.4-2.5-1-3.6-1.7-1-.6-1.3-1.6-1-2.7.7-2.2 1.5-4.2 2.4-6.2z" fill="#2A7293"/><path d="M20.235 60.067c.7.1 1.1.5 1.2 1.2.1.6.4 1.1.7 1.6-2.2 2.3-4.6 4.4-7.1 6.4-.3.3-.7.4-1 .7-.5-.6-.9-1.2-1.2-2-.1-.3-.2-.5-.3-.7 2.7-2.3 5.1-4.8 7.7-7.2z" fill="#AE4D37"/><path d="M12.535 67.267c.1 0 .2 0 .3.2.2 1 .9 1.7 1.2 2.6-2.2 1.3-4.5 1.4-6.9.5-1.4-.6-2.7-1.4-3.8-2.4.5 0 .8 0 .4-.6-.1-.2-.1-.3.1-.5.3-.2.7-.4 1.1-.4.7-.1 1.3-.4 1.5-1.3.2-.6.5-1.3 1-1.8.2-.2.1-.4.1-.6.1-.7-.1-1.5.1-2.2 0 1.5-.1 3 .1 4.5 0 .2.1.4.1.7.6 2.2 2.3 2.9 4.2 1.6.3-.2.4-.3.5-.3z" fill="#6B2E24"/><path d="M64.235 49.267c-.3-.4-.1-.8.1-1.1.3-.6.2-1.6-.4-2-.4-.4-.6-1-.3-1.5.1-.2.1-.5 0-.7-.2-.6-.4-1.2-.7-1.8-.2-.6-.5-1.2-.4-1.9 0-.4-.2-.7-.4-.9-.2-.3-.6-.6-.4-1 .1-.3.6-.1.9-.1 1.7.5 3 1.5 4 2.9.4.7.4 1.2-.1 2.5.3.1.5-.2.8-.2.4.8.8 1.6 1.4 2.3-1.5 1.1-3.1 2.2-4.5 3.5z" fill="#332925"/><path d="M57.335 46.467c.3.4.4.8.1 1.3 0 .1-.1.2-.1.2.2.8 0 1.5-.5 2.2-.1.1 0 .3 0 .4.2.4.1.7-.2.9-.3.3 0 .7-.2 1.1-.2.4-.1.6.2.9.2.1.2.3.1.4-.1.2-.2.5-.4.7-.6.6-.6 1.2-.2 1.9.4.6.8 1.2 1.5 1.5.4.2.6.5.8.9.1.3.2.6.6.6v.1c-.3 1-.3 1.1-1.3.8-1.1-.3-2.2-.7-3.1-1.3-1.2-.8-1.7-1.8-1.4-3.3.5-2.4 1.5-4.6 2.5-6.7.6-.9 1-1.8 1.6-2.6z" fill="#AC512A"/><path d="M47.935 20.067c.2.1.4.1.5.2.4.2.6 0 .8-.3.4-.7.8-.9 1.6-.7.9.2.8.1 1.1-.7.2-.6.8-1 1.5-1.1-1.1 2.3-2.3 4.6-4.2 6.4-.8.7-1.6 1.2-2.7.9-.2-.1-.4-.1-.6-.3-.8-.5-.9-1-.2-1.6.9-.9 1.4-2 2.2-2.8z" fill="#D17825"/><path d="M50.835 34.167c-1 .2-1.9.2-2.9.3-3 .2-6 .5-9 .6-.3 0-.8.2-.9-.2-.1-.5.5-.5.8-.5 3.7-.8 7.5-1.7 11.3-2.2.7.5.8 1.2.7 2z" fill="#D57B27"/><path d="M50.835 34.167c-.2-.7-.3-1.5-.6-2.1 2.3-.4 4.6-.7 6.9-1.1h.3c.2.4-.1.7-.2 1-.4.5-.8 1.1-.9 1.7-1.1.1-2.1.2-3.2.3-.7.1-1.5.1-2.3.2z" fill="#A25622"/><path d="M168.935 55.467c0-.8.2-1.5 0-2.3-.1-.5.9-1.1 1.4-.8h.3c0 .2-.1.4-.1.7.5 0 .9-.4 1.4-.5.1.5.5.8.9.7.6-.1.9.2 1.3.5.1.1.2.2.3.2-1.2.8-2.3 1.9-3.9 1.8-.6.1-1.2 0-1.6-.3z" fill="#3390AB"/><path d="M56.335 33.667c0-.5 0-1 .5-1.4.4-.3.6-.8.7-1.4 1.6-.2 3.2-.5 4.9-.6.1.2.1.4 0 .4-.5.3-.5.9-.8 1.3-.3.4.1.8-.2 1.1-1.8.3-3.4.5-5.1.6z" fill="#664122"/><path d="M61.335 33.167c-.4-.7.2-1.4.3-2 .1-.4.7-.4.7-.9 1.4-.2 2.8-.4 4.2-.5 0 .3-.2.5-.3.8-.3.7-.5 1.4-.4 2.2-1.5.2-3 .3-4.5.4z" fill="#493222"/><path d="M162.235 45.967c-.5-.5-.6-1.3-1.1-1.9 1.7-1.4 3.5-2.9 5.2-4.3.2.4.1.9.4 1.3.1.2.2.4.4.4-1.6 1.5-3.2 3-4.9 4.5z" fill="#286386"/><path d="M56.335 40.167c.2.5.6.8 1.1 1 .4.1.9.4 1.1.8-1.6.5-3.1 1.2-4.6 1.9l-.6.3c-.4-.8-.4-1.7-.3-2.5 1.2-.6 2.2-1 3.3-1.5z" fill="#9E5220"/><path d="M12.435 23.067c.2.9-.5 1.5-.9 2.2-.1.2-.4.2-.6.2l1.5-2.4z" fill="#C37140"/><path d="M86.535 49.867c.3.1.4.3.4.6s-.2.3-.4.3c-.3 0-.2-.2-.1-.4.1-.1 0-.2.1-.4v-.1z" fill="#1C1B27"/><path d="M193.635 50.367c-.1.1-.3.2-.4 0-.1-.1-.1-.2 0-.3.2-.2.3-.2.6-.1-.1.2-.2.3-.2.4z" fill="#1A5689"/><path d="M99.035 60.367h1.4c-.5.2-1 .1-1.4 0z" fill="#202342"/><path d="M57.135 54.567c.1 0 .2.1.2.3 0 .1-.1.2-.2.1-.1 0-.2-.1-.2-.3.1 0 .1-.1.2-.1z" fill="#AC512A"/><path d="M45.935 42.367c.7 0 1.3.5 1.3 1.1 0 .5-.3.7-.9.7-.6 0-1.1-.5-1.1-1.1 0-.5.2-.8.7-.7z" fill="#F7C35A"/></svg>