<svg version="1.1" id="Слой_1" xmlns="http://www.w3.org/2000/svg" x="0" y="0" viewBox="0 0 297.6 99.8" xml:space="preserve"><style>.st3{fill:#1c1b27}.st4{fill:#202342}.st9{fill:#1a5689}.st11{fill:#c37140}.st29{fill:#ac512a}</style><path d="M260.9 41c1-1.4 1.5-2.9 1.7-4.6.1-1.4-.3-2.4-1.6-3-1.1-.6-2.2-1-3.4-1.5-1.6-.6-3.2-.7-4.8-.1-3.4 1.2-6.2 3.2-7.7 6.6-1.1 2.5-.5 4.6 1.6 6.3 1.6 1.3 3.4 2.1 5.2 2.8.7.3.7.4.2 1-1 1.1-2 2.3-3 3.4-3.9 4.2-7.9 8.1-12.5 11.6-1.2.9-2.4 1.8-3.8 2.3-.2.1-.6.3-.8.2-.2-.2-.1-.5 0-.8.7-3.2 2.4-5.9 4.4-8.5 1.8-2.3 4-4.3 6.1-6.3.7-.7.7-.7-.1-1.4-1.2-1-2.6-1.5-4.1-1.7-.6-.1-1.1.1-1.5.4-1.6.9-3.1 2.1-4.5 3.4-2.7 2.8-6 4.8-9.4 6.5-.8.4-1.7.7-2.6.9-.8.1-.9 0-.8-.7.1-.7.4-1.4.6-2.1-.5-.3.1-.2.2-.4.5-1 1.1-2 1.6-3-.9-.6-2-.8-3.1-.8-1.2 0-1.5.5-1 1.6.1.3.3.6 0 .9-.3.2-.5-.1-.7-.2 0 0-.1 0-.1-.1-.6-.3-1.1-.2-1.3.5-.1.3-.2.5-.3.7-.5.8-.4 1 .5 1.3.2 0 .3.1.5.1.2.1.4.2.5.4.2.4.3.9.3 1.4 0 .7.1 1.4.7 1.9-.2.3-.6.2-.8.5.2.1.4.1.7.1 2 .1 3.8-.5 5.5-1.5 1.2-.7 2.5-1.4 3.7-2.1.4-.2.7-.4 1.2-.4-.1.4-.2.7-.3 1.1-.6 1.7-1.3 3.4-1.7 5.1-.2.9-.2 1.8.2 2.7.8 1.9 4.6 4.1 7.2 2.8 1.5-.7 2.9-1.5 4.2-2.5 6.3-4.8 11.8-10.5 16.8-16.6.6-.7 1.2-1.3 2.2-1.1h.2c.1 0 .2-.1.4-.2.4-.2.8-.3 1.1.1.1.2.3.1.5.1.7 0 1.4-.5 2.1-.5.3 0 .6-.2.5-.5-.1-.5-.2-1-.6-1.3-.9.1-1.9.3-2.8.4-.2 0-.6.2-.7-.1-.1-.3.2-.5.3-.7 1-1.5 2-3 3.1-4.4zm-6.1 4.5c-.5.6-.7.6-1.3.6-2.1 0-3.7-2.5-3.1-4.7.1-.4.2-.7.4-1 1.3-2.6 3.3-4.6 5.8-5.9.5-.3 1-.4 1.6-.5 1.5-.2 2.5.7 2.4 2.2 0 .7-.3 1.3-.6 1.9-1.4 2.7-3.1 5.2-5.2 7.4z" fill="#1b5e93"/><path d="M171.3 64.9c-1.1-.1-2.1-.5-2.9-1.2-1-.7-1.7-1.6-2.4-2.6s-1.5-2-2.2-3c-.3-.4-.4-.4-.8-.1-1.5 1.2-2.9 2.5-4.3 3.9-4.6 4.3-9.2 8.6-13.7 12.9-.2.2-.4.3-.6.5-.4-.1-.4-.4-.5-.7-.1-.4-.2-.8-.4-1.1-.1-.1-.2-.3-.4-.2-.1 0-.2.2-.2.3-.1.3-.2.7-.6.7-.5 0-1.1.1-1.4-.5 1.5-1.8 3.2-3.5 4.9-5.2 4.4-4.6 8.8-9.2 13.3-13.7.4-.4.8-.8 1.2-1.1.3-.2.3-.4.2-.7l-.6-1.2c.3-.3.7-.3 1.1-.3 1 0 1.6-.6 1.6-1.6 0-.3 0-.7-.1-1-.1-.9 0-1.1.9-1.2.2 0 .5-.1.7 0 .1.2.2.3.3.5.5.9.5.9 1.3.2 1.7-1.6 3.4-3.3 5.2-4.9 1.9-1.8 3.8-3.5 5.7-5.2.8.2 1.3.8 1.7 1.5.5.7 1 1.5 1.7 2 .2.2.5.4.3.8-1.9 1.6-3.7 3.2-5.6 4.8-2.2 1.9-4.4 3.8-6.5 5.8-.4.4-.5.7-.2 1.2.5.9 1 1.8 1.5 2.6 0 .5.1.9.5 1.3.4.5.7 1.2.6 1.8-.1.8.1 1.5.4 2.2.2.5.4 1.1.5 1.7.4.2.3.6-.2.8z" fill="#19274a"/><path d="M113.1 55.1c2.6-2.3 5.2-4.6 7.9-6.8 1.5-1.2 2.6-2.6 3.4-4.3.1-.2.2-.5.5-.5 2.8 0 5.1.9 6.8 3.2.2.3.3.6 0 1-1.8 2.8-3.5 5.6-4.7 8.8-.6 1.7-1.1 3.5-1.1 5.3 0 .5.1.9.2 1.4.1.4.3.5.6.2 1.1-.8 2-1.8 3.1-2.7.3-.1.4.1.5.3.2.7.4 1.5.4 2.3-.9.8-1.8 1.5-2.9 2.1-.3.2-.6.3-1 .2-.5.1-.9.1-1.4 0-2.3-.2-4.3-.9-6-2.4-.7-.6-1.1-1.4-1.2-2.4-.2-2.3.5-4.5 1.1-6.7.1-.5.3-1 .5-1.6-.5.2-.8.5-1.2.8-2.2 1.8-4.3 3.7-6.5 5.5-.2.2-.4.3-.6.5-.2-.1-.3-.2-.3-.4-.1-.7-.3-1.3-.5-1.9.7-.7 1.4-1.3 2.2-1.9.2.1 0 .4.2.5.3-.1.1-.3 0-.5z" fill="#22203a"/><path class="st3" d="M110.8 57.1c.6.4.5 1.1.7 1.6 0 .2 0 .4.1.6-2.6 2.3-5.3 4.6-8.2 6.6-1.2.9-2.5.9-3.8.3-1.1-.5-2.2-1.1-3.1-1.9-.6-.6-.9-1.3-.7-2.2.6-2.5 1.8-4.6 3-6.8.9-1.8 2.2-3.3 3.4-4.9.6-.8 1.2-1.7 1.7-2.7-3.2.3-5.9 1.8-8.5 3.3-.4 0-.5-.4-.7-.7-.3-.5-.8-1-.7-1.6 3.4-1.8 7-3.2 10.9-3.9 1.2-.2 2.2 0 3.2.8.9.7 1.7 1.5 2.3 2.5.4.7.4 1.3 0 2-2.2 3.3-4.3 6.7-6.2 10.1-.6 1.1-1.2 2.2-1.6 3.5.9-.5 1.6-1 2.3-1.6 1.9-1.5 3.7-3.1 5.6-4.6 0-.1.2-.3.3-.4z"/><path class="st4" d="M130.9 63.3c-.3-.6-.3-1.4-.5-2-.1-.3-.2-.5-.4-.6 1.9-1.9 3.8-3.8 5.6-5.7 2.9-3 5.8-6 8.7-8.9.6-.6 1.1-1.1 1.7-1.6 1.1-1 2.3-1 3.5-.4 1 .5 1.6 1.2 2.2 2.2.2.3.1.6 0 .9-.3.6-.7 1.2-1.1 1.7-1.3 1.8-2.6 3.5-3.5 5.5-.7 1.5-1.2 3.1-.8 4.8.1.5.3.9.5 1.3.2.3.1.4-.1.6-1.5 1.5-3.8 1.6-5.4.1-1.6-1.5-1.9-3.4-1.3-5.5.2-.6.3-1.2.5-1.9-.8.6-1.3 1.3-1.9 1.9-2.3 2.4-4.5 4.8-7 7-.2.3-.4.5-.7.6z"/><path d="M180.5 42.5c0-.5-.4-.7-.8-1-.3-.2-.5-.4-.7-.8-.6-1-1.3-1.8-2.3-2.5 2.2-2 4.3-4 6.5-6 3.4-3.1 6.8-6.2 10.2-9.4.8-.8 1.8-1.4 3-1.5 1 0 1.8.4 2.4 1.1.7.8 1 1.7 1.1 2.7.1.6-.1 1.1-.6 1.5-6.2 5.2-12.4 10.4-18.6 15.7-.1.1-.2.1-.2.2z" fill="#243f69"/><path d="M29.8 73.2c-1.6-1.2-2.2-2.8-2.5-4.6-.5-2.8-.4-5.6-.1-8.4.6-5 1.5-9.8 3.1-14.6.1-.2.2-.4.3-.7.4 0 .3.3.3.6-.1.3 0 .4.4.3.2-.1.4-.1.5.1.3 1.2 1 2.3 1.6 3.4.1.1.1.2.1.3.4 1.6 1.1 3.2 1.8 4.8.3.6.6 1.3.1 2.1-.1.2.1.2.2.3.2.1.5.1.4.5-.6 2.2-1.2 4.3-1.4 6.5-.1.7-.1 1.4-.2 2.1-.1.7 0 1.5 0 2.2 0 .3-.1.6-.3.9-.3.5-.7 1-.8 1.6-.2.8-.7 1.1-1.4 1.3-.2.1-.4.1-.7.2-.4.1-.7.3-.6.9 0 .3-.2.4-.8.2z" fill="#4f261c"/><path d="M39 28.3s.1 0 0 0c.4-.3.7-.4 1 0 .2.2.3.4 0 .6-.3.3-.2.5-.1.8.3.4.2.9.3 1.6.2-.5.5-.8.9-.7.4 0 .6.3.8.7.3-.2.5-.5.6-.8.4-.7 1-1.2 1.6-1.7.2-.2.5-.3.8-.4.4-.1.6-.3.7-.7.1-.8.3-1 1.1-1.1.5 0 .9-.2 1-.8.1-.3.3-.5.7-.5.4.1.6-.2.7-.5.2-.6.3-1.3.8-1.9.5-.5.9-.7 1.5-.3.5.3.9.4 1.3-.1.2-.2.4-.2.7-.2.3 0 .5-.1.6-.3.5-1.2 1.4-1.6 2.6-1.8.7.2 1 .4 1 1.1-.9.9-1.8 1.8-2.6 2.8-1 1.2-1.9 2.4-2.9 3.6-2.2 2.8-4 5.8-6.1 8.7-1.8 2.5-3.2 5.3-4.6 8.1l-.3.6c-.5-.2-1.1-.9-1.1-1.5-.1-1-.4-1.9-.8-2.7-.1-.1-.1-.3-.3-.3-.9-.2-1.1-1-1.5-1.6-.4-.6-.8-1.2-1-2-.2-.6-.7-1.1-1.2-1.5-.1-.1-.1-.1-.2-.3.8-1.5 1.5-3 2.5-4.4.8-.4 1-1.1 1.3-1.8.2-.3.2-.5.2-.7z" fill="#be683b"/><path d="M57.7 21.3c-.2-.4-.4-.9-1-.9-.1-.1-.2-.1-.2-.2-.6-1.7-1.8-3.2-2-5-.1-.5-.3-.8-.8-.9-.5-.2-.5-.5-.1-.8.4-.3.6-.6.6-1 0-.5.2-1 .4-1.4 3.6-2.8 7.7-4.8 12.3-5.2 2.3-.2 4.7-.3 7 .3.2.4-.1.9-.6.9-.6 0-.6.3-.5.8.1.4.3.8.6 1.1.7.6.7.6.3 1.4-3 .7-5.6 2.3-8 4.1-1.6 1.1-3.1 2.4-4.6 3.7-1.2.9-2.3 2-3.4 3.1z" fill="#d67728"/><path class="st9" d="M221.9 52.2c-.6 0-1.1-.4-1.8-.5-.6-.1-1.1-.2-1.7-.1-.7 0-.9.5-.6 1.1.2.3.4.6.3.9 0 .2 0 .4-.2.5-.2.1-.4 0-.6-.1-.2-.1-.3-.3-.5-.4-.5-.3-.9-.1-1 .5 0 .4-.3.7-.5 1-.3.4-.3.6.2.8.1 0 .2 0 .3.1 1.1.3 1.5 1.1 1.5 2.3 0 .5-.2 1.3.7 1.5.1 0 .1.1.1.2 0 .2-.1.3-.3.4-.3.1-.6.1-.8.2-2.7-.3-4.4-2.8-3.8-5.6.3-1.3.8-2.6 1.4-3.9-.6.2-1.1.4-1.5.7-3.9 2.2-7.6 4.7-11.4 7.1l-.9.6c-.1 0-.2 0-.3-.1-.4-.4-.8-.6-1.4-.6-.4 0-.9-.2-.8-.8 5.7-3.5 11.2-7.4 16.8-11 1.4-.9 2.7-1.8 4-2.7 1.2-.8 2.3-1 3.7-.5 1.1.5 2.1 1 2.9 1.8.3.3.4.6.1 1-.1.2-.3.4-.4.6-1.1 1.5-2.4 3.2-3.5 5z"/><path d="M256.6 48.1c.3 0 .4-.2.6-.3.4-.2.8-.4 1.2.1 0 .1.1.1.2.2.3-.5.9 0 1.2-.4.3-.3.7-.2 1.1-.2.4 0 .6-.2.4-.6-.1-.4-.3-.8-.4-1.2 3.2-.7 6.3-1.8 9.5-2.7.6-.2 1-.1 1.4.4.8.9 1.6 1.9 1.9 3.1.3.9.1 1.6-.5 2.3-1.7 1.9-2.8 4.1-3.2 6.7-.1.8 0 1.5.3 2.3.6 1.3 1.8 1.9 3.2 1.6.8-.2 1.5-.5 2.3-.6.3 0 .7 0 1 .1.8.3 1 1.2.4 1.9-.6.6-1.4.8-2.2.9-3.2.3-6.1-.3-8.5-2.5-2.9-2.6-3.2-5.8-2.2-9.4.3-.9.7-1.8 1.2-2.7-.7-.1-1.2.1-1.8.3-2.1.7-4.3.9-6.5.8-.2 0-.4 0-.6-.1z" fill="#15669b"/><path class="st11" d="M54.7 11c-.1.7-.3 1.4-.4 2-.1.2-.2.4-.5.5-.2 0-.3.1-.3.3 0 .2.2.2.3.2.6 0 .7.4.9.9.2.8.4 1.6.6 2.3 0 .2.1.3.2.5.7.7 1 1.7 1.3 2.6-.8 0-1.4.5-2 .9-.2.1-.4.3-.4.6 0 .6-.3.7-.8.6-.3 0-.6 0-.8.4-.3.5-.7.3-1.1.1-1-.5-1.8-.1-2 1.1-.1.4-.3.8-.3 1.2-.1.3-.3.5-.6.3-.5-.2-.7 0-.7.5-.1.6-.4.7-.9.7-1 .1-1 .1-1.2 1.1-.1.4-.2.6-.6.7-.9.1-1.5.8-2.1 1.5-.3.4-.7.8-.9 1.3-.1.3-.4.3-.5 0-.1-.4-.4-.6-.8-.6s-.5.2-.5.6c0 .1-.1.2-.2.2-.2 0-.2-.1-.3-.2-.1-.3.1-.6 0-.9-.1-.2-.2-.5-.3-.7-.2-.3-.3-.6.2-.7.1 0 .2-.1.1-.3-.1-.2-.3-.4-.5-.4s-.4 0-.5.1c1.5-2.3 3.1-4.4 4.9-6.5 2.8-3.3 5.7-6.6 9-9.4.5-.7 1.1-1.1 1.7-1.5z"/><path d="M80 49.5c-1.6 1-3.2 2-4.6 3.3-1.6 1.4-2.9 2.9-3.8 4.9-1.1 2.5-2.3 5.1-2.9 7.8-.1.4-.2.4-.6.4-1.5-.3-2.9-.9-4.1-1.8-1-.7-1.3-1.5-1-2.7.4-1.7 1-3.3 1.7-4.9 1-2.4 2.1-4.8 3.4-7.1.3-.1.5.1.7.3.3.3.6.4 1 .5 1.2.3 2.4.5 3.5 1.2.5.3.9.5 1.3.1.3-.2.6.1 1-.2.4-.3.5-.5.5-.9-.1-.6.1-1.1.5-1.5 1.2-.5 2.2-1.2 3.4-1.8l.1.1c-.3.7-.1 1.5-.1 2.3z" fill="#cf612a"/><path d="M192.9 45.1c1.5-1.3 3-2.5 4.5-3.8.2-.2.6-.3.9-.3 2.3.4 4.4 1 6.4 2.3.5.3.5.5.2 1-2.3 3.8-4.6 7.6-6.9 11.5-.1.1-.1.2-.2.3-.6-.3-1.1-.8-1.4-1.4-.3-.6-.7-1.2-.8-1.8-.1-.4-.4-.8-1-.5-.3.2-.6 0-.8-.2-.4-.6-.7-1.2-.7-1.9.5-1.4 1-2.7 1.5-4.2-.4.3-.7.5-1 .7-.2.1-.3 0-.4-.1-.2-.5-.4-1-.3-1.6z" fill="#1e4d7e"/><path d="M93.1 35l4.8-.6c4.8-.6 9.6-1.1 14.4-1.7 1-.1 2.1-.2 3.1-.4.8-.1 1.4.1 1.9.7.7.8 1.4 1.5 1.3 2.6 0 .9-.1 1-1 1.1-3.1.3-6.3.4-9.4.5-4.9.1-9.8.4-14.7.8h-1.2c-.2-.2-.2-.5-.2-.7.2-.9.5-1.6 1-2.3z" fill="#2d2521"/><path d="M35 35.1c.8.6 1.6 1.1 1.7 2.2 0 .1.1.2.1.3.5.7 1 1.4 1.4 2.2.1.1.2.3.3.3.7-.1.8.5.9.9.3.9.6 1.7.6 2.6 0 .6.6 1 1 1.4-1.1 2.2-2.1 4.4-3.2 6.6-.5-.4-.6-1-.9-1.5-.7-1.2-1-2.6-1.7-3.8-.4-.7-.8-1.3-1.2-1.9-.8-1.1-1.4-2.2-2.1-3.4 1-1.9 2.1-3.9 3.1-5.9z" fill="#a35130"/><path d="M73.8 10.4c.2-.7-.2-1.1-.7-1.6-.4-.3-.4-.9-.5-1.4-.1-.4.2-.5.5-.4.6.1.8-.2.8-.7 1.9.4 3.7 1.1 5.2 2.4 2.4 2 3.1 4.7 2.8 7.7-.3 2.2-.9 4.3-1.9 6.3-.4.2-.6.5-1 .8-.2.1-.3.3-.3.5-.2.6-.4.8-1 .7-.2 0-.3-.1-.5-.1-.5 0-.9.1-1.2.5-.5.7-.9.7-1.5.2.9-1.3 1.8-2.7 2.6-4.1 1-1.7 1.7-3.5 1.9-5.5.1-1.1-.1-2.1-.5-3.1-.7-1.8-2.2-2.6-4.2-2.3-.1 0-.3 0-.5.1z" fill="#dc902e"/><path d="M141 73.7c.4.4.9.3 1.3.3.3.1.4-.2.4-.6 0-.2-.1-.5.2-.6.3 0 .6.1.8.5.2.6.2 1.3.6 1.9-2.1 2-4.2 4-6.3 5.9-3.2 3-6.4 6-9.7 9l-1.1 1.1c-.2.2-.4.4-.7.6-.4.2-1.2.1-1.5-.3-.3-.4.1-.7.3-.9 1.2-1.3 2.4-2.6 3.6-4L140.3 74c.3 0 .5-.1.7-.3z" fill="#293051"/><path d="M171.3 64.9c.7-.8.1-1.6-.1-2.4-.2-.8-.6-1.6-.5-2.6 0-.7-.2-1.4-.8-1.9-.4-.3-.4-.7-.1-1.2.8 1.1 1.6 2.3 2.6 3.3 1.3 1.2 1.2 1.6 2.9.2 2.1-1.7 4.1-3.6 6.2-5.4 2.1-1.9 4.1-3.8 6.3-5.6.1 0 .2 0 .3.1.3.6.7 1.1.9 1.8-2.7 2.5-5.3 5.1-8 7.6-1.5 1.4-3 2.9-4.5 4.4-1.5 1.5-3.2 2-5.2 1.7z" fill="#1a3257"/><path d="M46.8 65.3c2.6-2.6 5.2-5.2 7.9-7.6 1-.9 2-1.9 3.2-2.7 1.6-1.1 3.4-1.7 5.3-1.3.1.2 0 .2-.1.3-4.9 4.4-9.5 9.2-14.1 13.8-.1.1-.2.2-.3.2-.4-.2-.6-.6-.7-.9-.2-.7-.5-1.4-1.2-1.8z" fill="#ca693d"/><path d="M87.6 59.9c-.6 1.6-1.2 3.3-1.8 4.9-.3.2-.5-.1-.6-.3-.3-.6-.7-.9-1.3-1.2-.6-.3-1-.8-1.3-1.5-.3-.7-.3-1.3.2-1.9.4-.4.6-.8.2-1.4-.3-.5 0-1.2.2-1.8.1-.2.3-.4.2-.6-.2-.5 0-.9.3-1.3.1-.1.2-.3.2-.5-.2-.8.3-1.7 0-2.5.8-1.5 1.7-3 2.5-4.5.7.4 1.1 1.3.8 2-.4.9-.2 1.8.1 2.7.3 1 .4 2 .3 3.1-.1 1.1 0 2.1 0 3.2 0 .4-.1 1 0 1.6z" fill="#7f4128"/><path d="M164.2 47.6c-.3.2-.7.2-1 .2-.4 0-.5.2-.5.6 0 .4.1.8.1 1.2 0 1.2-.7 1.9-1.9 1.9-.4 0-.7.1-1 .1-1.4-2.3-2.9-4.5-4-7-.5-1-.4-1 .5-1.6 1.4-.8 2.9-1.1 4.4-1.2.4 0 .5.2.6.4 1 2 1.9 3.7 2.8 5.4z" fill="#1d1f3e"/><path d="M87.6 59.9c-.1-.1-.2-.2-.2-.3.1-.8-.3-1.7 0-2.5.1-.4-.1-.7-.1-1.1 0-.6.1-1.3.1-1.9 0-.7-.1-1.4-.3-2.1-.2-.6-.1-1.3-.4-1.9v-.2c.8-1 .4-1.9-.3-2.7 0-.2-.1-.2-.2-.2-.3.1-.7.1-1 .2l-1.5-.9c-.4-.2-.8-.4-.7-1 1.7-.7 3.4-1.5 5.2-1.9.4-.1.8-.2 1.2 0-.8.4-.8.4-.3 1.1.2.3.4.5.4.8 0 1.1.5 2 .9 3 .2.6.4 1.1.1 1.7-.2.4.1.8.3 1.1.5.7.9 1.5.3 2.4-.2.3-.1.6-.2.8-1.5 1.4-2.3 3.3-3.1 5.1-.2.3-.2.4-.2.5z" fill="#583726"/><path d="M32.1 41.1c.5.3.6.8.9 1.2.8 1.5 2 2.8 2.8 4.4.5 1.1.9 2.2 1.4 3.3.3.5.5 1.1.8 1.6-.6 1.8-1.3 3.6-1.9 5.3 0 .1-.1.2-.1.3-.1-.3-.4-.3-.6-.4-.3-.1-.5-.2-.1-.5.3-.2.3-.6.3-.9-.1-1-.7-1.8-1.1-2.7-.7-1.7-1-3.6-2.2-5 .2-.7-.8-1-.6-1.7.1-.2-.1-.3-.3-.1-.2.2-.3.3-.5.1-.2-.2-.2-.3 0-.5.1-.2.1-.4-.2-.6.3-1.3.8-2.6 1.4-3.8z" fill="#753b26"/><path d="M76.4 48.7c-.2.6-.5 1.2-.3 1.9.1.2-.1.6-.5.6-.1 0-.2.1-.3.2 0 .1-.1.2-.1.2-.7-.4-1.6.7-2.3-.2-.3-.4-.9-.5-1.4-.5-.8-.1-1.4-.7-2.3-.5-.3 0-.5-.2-.7-.5-.1-.2-.3-.4-.6-.5.9-1.9 2-3.8 3.3-5.5.4-.5.8-.6 1.3-.3 1.3.6 2.5 1.5 3.4 2.6.6.7.8 1.4.4 2.3.1 0 0 .1.1.2z" fill="#de7d27"/><path d="M193.2 50.2c.2.6.4 1.1.7 1.7.2.4.5.6.9.3.3-.2 1 .3 1.1.9.2 1.3 1 2.2 1.9 3.1l-.6 1.5c-.1.2-.2.1-.4.1-.8-.1-1.2.4-1.1 1.1.1.6 0 1.3-.3 1.9-1.3-.4-2.5-1-3.6-1.7-1-.6-1.3-1.6-1-2.7.7-2.2 1.5-4.2 2.4-6.2z" fill="#2a7293"/><path d="M46.8 65.3c.7.1 1.1.5 1.2 1.2.1.6.4 1.1.7 1.6-2.2 2.3-4.6 4.4-7.1 6.4-.3.3-.7.4-1 .7-.5-.6-.9-1.2-1.2-2-.1-.3-.2-.5-.3-.7 2.7-2.3 5.1-4.8 7.7-7.2z" fill="#ae4d37"/><path d="M39.1 72.5c.1 0 .2 0 .3.2.2 1 .9 1.7 1.2 2.6-2.2 1.3-4.5 1.4-6.9.5-1.4-.6-2.7-1.4-3.8-2.4.5 0 .8 0 .4-.6-.1-.2-.1-.3.1-.5.3-.2.7-.4 1.1-.4.7-.1 1.3-.4 1.5-1.3.2-.6.5-1.3 1-1.8.2-.2.1-.4.1-.6.1-.7-.1-1.5.1-2.2 0 1.5-.1 3 .1 4.5 0 .2.1.4.1.7.6 2.2 2.3 2.9 4.2 1.6.3-.2.4-.3.5-.3z" fill="#6b2e24"/><path d="M90.8 54.5c-.3-.4-.1-.8.1-1.1.3-.6.2-1.6-.4-2-.4-.4-.6-1-.3-1.5.1-.2.1-.5 0-.7-.2-.6-.4-1.2-.7-1.8-.2-.6-.5-1.2-.4-1.9 0-.4-.2-.7-.4-.9-.2-.3-.6-.6-.4-1 .1-.3.6-.1.9-.1 1.7.5 3 1.5 4 2.9.4.7.4 1.2-.1 2.5.3.1.5-.2.8-.2.4.8.8 1.6 1.4 2.3-1.5 1.1-3.1 2.2-4.5 3.5z" fill="#332925"/><path class="st29" d="M83.9 51.7c.3.4.4.8.1 1.3 0 .1-.1.2-.1.2.2.8 0 1.5-.5 2.2-.1.1 0 .3 0 .4.2.4.1.7-.2.9-.3.3 0 .7-.2 1.1-.2.4-.1.6.2.9.2.1.2.3.1.4-.1.2-.2.5-.4.7-.6.6-.6 1.2-.2 1.9.4.6.8 1.2 1.5 1.5.4.2.6.5.8.9.1.3.2.6.6.6v.1c-.3 1-.3 1.1-1.3.8-1.1-.3-2.2-.7-3.1-1.3-1.2-.8-1.7-1.8-1.4-3.3.5-2.4 1.5-4.6 2.5-6.7.6-.9 1-1.8 1.6-2.6z"/><path d="M74.5 25.3c.2.1.4.1.5.2.4.2.6 0 .8-.3.4-.7.8-.9 1.6-.7.9.2.8.1 1.1-.7.2-.6.8-1 1.5-1.1-1.1 2.3-2.3 4.6-4.2 6.4-.8.7-1.6 1.2-2.7.9-.2-.1-.4-.1-.6-.3-.8-.5-.9-1-.2-1.6.9-.9 1.4-2 2.2-2.8z" fill="#d17825"/><path d="M77.4 39.4c-1 .2-1.9.2-2.9.3-3 .2-6 .5-9 .6-.3 0-.8.2-.9-.2-.1-.5.5-.5.8-.5 3.7-.8 7.5-1.7 11.3-2.2.7.5.8 1.2.7 2z" fill="#d57b27"/><path d="M77.4 39.4c-.2-.7-.3-1.5-.6-2.1 2.3-.4 4.6-.7 6.9-1.1h.3c.2.4-.1.7-.2 1-.4.5-.8 1.1-.9 1.7-1.1.1-2.1.2-3.2.3-.7.1-1.5.1-2.3.2z" fill="#a25622"/><path d="M195.5 60.7c0-.8.2-1.5 0-2.3-.1-.5.9-1.1 1.4-.8h.3c0 .2-.1.4-.1.7.5 0 .9-.4 1.4-.5.1.5.5.8.9.7.6-.1.9.2 1.3.5.1.1.2.2.3.2-1.2.8-2.3 1.9-3.9 1.8-.6.1-1.2 0-1.6-.3z" fill="#3390ab"/><path d="M82.9 38.9c0-.5 0-1 .5-1.4.4-.3.6-.8.7-1.4 1.6-.2 3.2-.5 4.9-.6.1.2.1.4 0 .4-.5.3-.5.9-.8 1.3-.3.4.1.8-.2 1.1-1.8.3-3.4.5-5.1.6z" fill="#664122"/><path d="M87.9 38.4c-.4-.7.2-1.4.3-2 .1-.4.7-.4.7-.9 1.4-.2 2.8-.4 4.2-.5 0 .3-.2.5-.3.8-.3.7-.5 1.4-.4 2.2-1.5.2-3 .3-4.5.4z" fill="#493222"/><path d="M188.8 51.2c-.5-.5-.6-1.3-1.1-1.9 1.7-1.4 3.5-2.9 5.2-4.3.2.4.1.9.4 1.3.1.2.2.4.4.4-1.6 1.5-3.2 3-4.9 4.5z" fill="#286386"/><path d="M82.9 45.4c.2.5.6.8 1.1 1 .4.1.9.4 1.1.8-1.6.5-3.1 1.2-4.6 1.9l-.6.3c-.4-.8-.4-1.7-.3-2.5 1.2-.6 2.2-1 3.3-1.5z" fill="#9e5220"/><path class="st11" d="M39 28.3c.2.9-.5 1.5-.9 2.2-.1.2-.4.2-.6.2l1.5-2.4z"/><path class="st3" d="M113.1 55.1c.3.1.4.3.4.6s-.2.3-.4.3c-.3 0-.2-.2-.1-.4.1-.1 0-.2.1-.4v-.1z"/><path class="st9" d="M220.2 55.6c-.1.1-.3.2-.4 0-.1-.1-.1-.2 0-.3.2-.2.3-.2.6-.1-.1.2-.2.3-.2.4z"/><path class="st4" d="M125.6 65.6h1.4c-.5.2-1 .1-1.4 0z"/><path class="st29" d="M83.7 59.8c.1 0 .2.1.2.3 0 .1-.1.2-.2.1-.1 0-.2-.1-.2-.3.1 0 .1-.1.2-.1z"/><path d="M72.5 47.6c.7 0 1.3.5 1.3 1.1 0 .5-.3.7-.9.7-.6 0-1.1-.5-1.1-1.1 0-.5.2-.8.7-.7z" fill="#f7c35a"/></svg>