<svg version="1.1" id="Слой_1" xmlns="http://www.w3.org/2000/svg" x="0" y="0" viewBox="0 0 595.3 223.3" xml:space="preserve"><style>.st0{fill:#2d3339}</style><path class="st0" d="M61.9 110.7c-4.1-.5-25.6-10.7-30.7-14.5-7.5-5.6-11.3-13.7-11.1-23.5.1-7.9 3-16.6 7.9-24 3.5-5.3 7.9-6.8 10.9-7.1 8.8-1 16.7 6.4 17.6 7.2L51 54.5c-1.6-1.6-6.9-5.5-11.2-5-2 .2-3.6 1.4-5.1 3.6-7.6 11.4-10.5 27.8 1.3 36.6 4.9 3.7 24.2 12.4 27 13h-.1l-1 8zm71-86.2v29.1H117V37.7H99.2v78.5H72.6V103h6.7V37.7h-6.7V24.5h60.3zm29.5 27.7v5.4l-1.9 8h1.1c1.2-3.8 3.4-7.1 6.6-9.8 3.2-2.7 7.2-4.1 12-4.1 3.1 0 5.9.7 8.4 2s4.7 3.2 6.5 5.6c1.8 2.4 3.1 5.4 4.1 8.8 1 3.4 1.4 7.3 1.4 11.4 0 5.8-.9 11.1-2.6 15.8-1.7 4.7-4.1 8.7-7.1 12-3 3.3-6.5 5.9-10.4 7.7-3.9 1.8-8.1 2.7-12.5 2.7-1.9 0-3.4-.1-4.6-.4v17.1h7.9v12h-32.7v-12h6.8V64.2h-7.1v-12h24.1zm1.1 52.2c.5.2 1 .3 1.7.3s1.3.1 2 .1c4.4 0 8-2 10.9-6 2.9-4 4.4-9.5 4.4-16.5 0-4.4-.7-7.9-2-10.5-1.3-2.7-3.4-4-6.3-4-3.2 0-5.7 1.7-7.7 5-1.9 3.4-2.9 7.9-2.9 13.5v18.1zm65.9-32h-15.2V54.7c3.4-1.4 7.1-2.4 11.3-3.1 4.2-.7 8-1.1 11.4-1.1 7.7 0 13.9 1.9 18.6 5.8 4.7 3.9 7.1 10.2 7.1 19v21.6c0 2.6.5 4.5 1.6 5.6 1.1 1.1 2.7 1.7 4.8 1.7v12c-.9.3-1.9.5-2.9.5-1 .1-2.1.1-3.1.1-3.8 0-7-.9-9.7-2.7-2.6-1.8-4.3-4.7-4.9-8.7h-.8c-1.5 3.8-3.7 6.9-6.4 9.1-2.7 2.3-6.4 3.4-11 3.4-2.5 0-5-.4-7.3-1.2-2.3-.8-4.4-2-6.1-3.6-1.8-1.6-3.2-3.6-4.2-6s-1.6-5.2-1.6-8.4c0-3.8.7-7.1 2.2-9.8s3.4-5 6-6.7 5.5-3.1 8.8-3.9c3.3-.8 6.9-1.2 10.7-1.2h6.5v-1.8c0-4.6-1-7.8-2.9-9.6-2-1.8-4.7-2.7-8.1-2.7-.7 0-1.5 0-2.4.1-.9.1-1.7.2-2.4.4v8.9zm10.3 15.8c-3 0-5.5.7-7.5 2.1s-3 3.6-3 6.5c0 2.2.6 4 1.8 5.4 1.2 1.4 2.8 2.1 4.9 2.1 2.9 0 5.2-1.4 7-4.2 1.8-2.8 2.7-6.3 2.7-10.5v-1.4h-5.9zm56.4-15.8h-15.2V54.7c3.4-1.4 7.1-2.4 11.3-3.1 4.2-.7 8-1.1 11.4-1.1 7.7 0 13.9 1.9 18.6 5.8 4.7 3.9 7.1 10.2 7.1 19v21.6c0 2.6.5 4.5 1.6 5.6 1.1 1.1 2.7 1.7 4.8 1.7v12c-.9.3-1.9.5-2.9.5-1 .1-2.1.1-3.1.1-3.8 0-7-.9-9.7-2.7-2.6-1.8-4.3-4.7-4.9-8.7h-.8c-1.5 3.8-3.7 6.9-6.4 9.1-2.7 2.3-6.4 3.4-11 3.4-2.5 0-5-.4-7.3-1.2-2.3-.8-4.4-2-6.1-3.6-1.8-1.6-3.2-3.6-4.2-6s-1.6-5.2-1.6-8.4c0-3.8.7-7.1 2.2-9.8 1.5-2.7 3.4-5 6-6.7 2.5-1.8 5.5-3.1 8.8-3.9 3.3-.8 6.9-1.2 10.7-1.2h6.5v-1.8c0-4.6-1-7.8-2.9-9.6-2-1.8-4.7-2.7-8.1-2.7-.7 0-1.5 0-2.4.1-.9.1-1.7.2-2.4.4v8.9zm10.3 15.8c-3 0-5.5.7-7.5 2.1s-3 3.6-3 6.5c0 2.2.6 4 1.8 5.4 1.2 1.4 2.8 2.1 4.9 2.1 2.9 0 5.2-1.4 7-4.2 1.8-2.8 2.7-6.3 2.7-10.5v-1.4h-5.9zm78.3-36l15.6 52h5.9v12h-21l-11.6-40.3-1.2-7.2h-.8l-1.2 7.2-7.6 28.3h7.6v12h-30.1v-12h6.1l11.4-40h-7.3v-12h34.2zm49.2 0v20.6l-3.3 9h1.1c1.8-3.6 4.6-6.7 8.2-9.1 3.7-2.4 7.8-3.7 12.5-3.7 5.4 0 9.8 1.8 13.1 5.2 3.3 3.5 5 8.5 5 14.9 0 4.4-.8 8.3-2.5 11.9-1.6 3.6-3.9 6.6-6.9 9.1-3 2.5-6.6 4.4-10.7 5.8-4.1 1.4-8.7 2-13.7 2-4.2 0-8.1-.4-11.6-1.3-3.6-.9-6.6-2-9.2-3.3V64.2h-7.1v-12h25.1zm-.5 52.2c1.2.3 2.5.4 3.8.4 4.5 0 8.3-1.2 11.2-3.5 2.9-2.3 4.4-5.5 4.4-9.6 0-2.4-.6-4.2-1.7-5.5-1.1-1.3-2.8-2-5.1-2-1.8 0-3.5.4-5 1.3s-2.9 2-3.9 3.5c-1.1 1.5-2 3.1-2.6 5-.6 1.9-1 3.9-1 6v4.4z"/><path d="M140.5 160.6h2.4v30.1c0 1.9-.3 4.8-.3 4.8h.1s2.1-3.2 3.3-5l21.7-30h2.2V199h-2.4v-30.1c0-1.9.3-4.8.3-4.8h-.1s-1.9 3.1-3.2 4.8L142.7 199h-2.2v-38.4zm38.6 33.4c.9 1 3.5 3.5 7.6 3.5 3.6 0 7.5-1.9 7.5-6.1 0-3.6-2.7-5.5-7.6-5.5h-3.3v-2.1h3c4.3 0 6.9-1.8 6.9-5.3 0-3.6-2.7-5.3-6.4-5.3-3 0-5.2 1.2-6.7 2.6l-1.4-1.9c1.8-1.5 4.6-3 8.3-3 4.9 0 8.6 2.4 8.6 7.3 0 3.5-1.9 5.4-4.4 6.3v.1c3.2.7 5.4 3 5.4 6.7 0 5.5-4.9 8.3-9.9 8.3-4.4 0-7.3-2.1-9.1-4l1.5-1.6zm23.9 2.9c5.4-6.8 5.4-18.1 5.4-21.4v-3.9h15.5v25.3h3.8v8.7h-2.3V199H202v6.6h-2.3v-8.7h3.3zm18.6 0v-23.2h-10.9v1.8c0 4.1-.3 14.7-4.9 21.4h15.8zm23.7-26c7.5 0 11.2 5.9 11.2 12.5 0 .4-.1 1-.1 1.5h-22c0 8 5.4 12.5 11.7 12.5 3.1 0 6.3-1.3 8.5-3.5l1.3 1.9c-2.4 2.3-6.3 3.8-9.8 3.8-7.7 0-14.2-5.6-14.2-14.3.1-9.2 6.4-14.4 13.4-14.4zm8.8 11.9c-.3-6.7-4.3-9.7-8.8-9.7-5 0-9.7 3.3-10.7 9.7h19.5zm6.3 14.3c5.2-.8 6.9-7 6.9-17.3v-8.2h15.4V199h-2.3v-25.3h-10.8v6c0 13.4-3.1 18.8-9.2 19.5v-2.1zm31.8-25.5h2.3v19.5c0 1.9-.2 4.4-.2 4.4h.1s1.9-2.7 3.1-4.4l15-19.5h2.1V199h-2.3v-19.6c0-1.9.2-4.3.2-4.3h-.1s-1.9 2.6-3.1 4.3l-15 19.6h-2.1v-27.4zm36 17.7c.5-.8 1.3-1.6 1.3-1.6v-.1c-3.3-.4-6.7-3.1-6.7-7.8 0-5.5 4.1-8.1 9.7-8.1h8.5V199h-2.3v-11.1H332l-7.7 11.1h-2.9l6.8-9.7zm10.5-3.4v-12.2h-6c-4.6 0-7.4 1.8-7.4 6 0 4 3.1 6.1 7 6.1h6.4zm25.5-14.3h2.3v19.5c0 1.9-.2 4.4-.2 4.4h.1s1.9-2.7 3.1-4.4l15-19.5h2.1V199h-2.3v-19.6c0-1.9.2-4.3.2-4.3h-.1s-1.9 2.6-3.1 4.3l-15 19.6h-2.1v-27.4zm30.6 22.4c.9 1 3.5 3.5 7.6 3.5 3.6 0 7.5-1.9 7.5-6.1 0-3.6-2.7-5.5-7.6-5.5H399v-2.1h3c4.3 0 6.9-1.8 6.9-5.3 0-3.6-2.7-5.3-6.4-5.3-3 0-5.2 1.2-6.7 2.6l-1.4-1.9c1.8-1.5 4.6-3 8.3-3 4.9 0 8.6 2.4 8.6 7.3 0 3.5-1.9 5.4-4.4 6.3v.1c3.2.7 5.4 3 5.4 6.7 0 5.5-4.9 8.3-9.9 8.3-4.4 0-7.3-2.1-9.1-4l1.5-1.6zm38.8-22.4h2.3v12.1h4.8l9-12.1h2.9l-9.9 13.1v.1l11 14.3h-3l-10-13.2h-4.8V199h-2.3v-27.4zm40 10.7h1.8v-.9c0-6.1-3.1-8.2-7.5-8.2-2.8 0-5.6.9-7.8 2.6l-1.3-1.9c2.1-1.9 5.8-3 9.3-3 6.3 0 9.7 3.5 9.7 10.4V199h-2.3v-3.6c0-1.5.2-2.5.2-2.5h-.1c-1.4 3.6-4.8 6.7-9.6 6.7-4.4 0-9.3-2.5-9.3-8-.1-9.2 12.1-9.3 16.9-9.3zm-7.5 15.2c6 0 9.4-6.2 9.4-11.6v-1.5h-1.8c-4.7 0-14.7 0-14.7 7.1 0 3 2.4 6 7.1 6zm22.1-25.9h2.2l9.3 18.2c.9 1.8 1.9 4 1.9 4h.1s.9-2.2 1.9-4l9.3-18.2h2.2l2.2 27.4H515l-1.5-19c-.1-1.3-.1-4.7-.1-4.7h-.1s-.6 1.5-1.8 4l-8.6 16.8h-2.4l-8.6-16.7c-1.2-2.2-1.8-4.1-1.8-4.1h-.1s.1 3.4-.1 4.7l-1.5 19H486l2.2-27.4zm37.5 0h2.3v12.2h18v-12.2h2.3V199H546v-13h-18v13h-2.3v-27.4zm36.1 17.7c.5-.8 1.3-1.6 1.3-1.6v-.1c-3.3-.4-6.7-3.1-6.7-7.8 0-5.5 4.1-8.1 9.7-8.1h8.5V199h-2.3v-11.1h-6.7l-7.7 11.1H555l6.8-9.7zm10.4-3.4v-12.2h-6c-4.6 0-7.4 1.8-7.4 6 0 4 3.1 6.1 7 6.1h6.4z" fill="#2e2e2e"/><path class="st0" d="M99.2 24.5H54.6v5S15 64.4 82.5 135.7v3.7h3.7v5.4h3.3s-2 31.8-16.1 39.8h-4.7v5h-9.4v7.4h39.8"/></svg>