<svg width="536" height="536" fill="none" xmlns="http://www.w3.org/2000/svg"><path fill-rule="evenodd" clip-rule="evenodd" d="M268.4.8l21.1 14.3 23.2-10.5.5-.2.5.4L332 22.4l24.7-6.4.5-.2.4.5 15.1 20.5 25.4-2.2.6-.1.2.6 11.5 22.7 25.4 2.2h.5l.2.6 7.5 24.3 24.6 6.4.6.2v.5l3.3 25.3 23.2 10.5.5.2v.6l-1.1 25.4 21.1 14.3.5.3-.1.6-5.4 24.9 18.4 17.6.4.4-.2.5-9.5 23.7 15.1 20.4.4.5-.3.5-13.4 21.7 11.5 22.7.2.5-.3.5-16.9 19.1 7.5 24.3.2.6-.5.3-19.8 16 3.2 25.3.1.6-.5.3-22.2 12.4-1.1 25.4v.6l-.6.2-24 8.5-5.4 24.9-.1.5-.5.1-25.1 4.3-9.5 23.7-.3.5h-26l-13.3 21.7-.3.5-.6-.1-25.1-4.3-16.8 19.1-.4.4-.6-.2-24-8.5-19.8 16-.4.4-.5-.3-22.3-12.4-22.2 12.4-.5.3-.5-.4-19.8-16-24 8.5-.5.2-.4-.4-16.8-19.1-25.1 4.3-.6.1-.3-.5-13.3-21.7h-26.1l-.2-.5-9.5-23.7-25.1-4.3-.6-.1-.1-.5-5.4-24.9-24-8.5-.5-.2v-.6L51.3 402l-22.2-12.4-.5-.3v-.6l3.3-25.3-19.8-16-.5-.3.2-.6 7.4-24.3-16.8-19.1-.4-.5.3-.5 11.4-22.7L.4 257.7l-.3-.5.3-.5 15.2-20.4-9.5-23.7-.2-.5.4-.4 18.4-17.6-5.4-24.9-.1-.6.5-.3L40.8 154l-1.1-25.4v-.6l.5-.2 23.2-10.5L66.6 92l.1-.5.6-.2 24.6-6.4 7.4-24.3.2-.6h.6l25.4-2.2 11.4-22.7.3-.6.6.1 25.3 2.2 15.2-20.5.3-.5.6.2 24.6 6.4 18.4-17.6.4-.4.5.2 23.3 10.5L267.5.8l.4-.3.5.3z" fill="#434242"/><path fill-rule="evenodd" clip-rule="evenodd" d="M116.5 230l-7.1-.8c.5-4.2 1.1-8.4 1.9-12.6l34 5.9c-9.8 2.3-19.4 4.9-28.8 7.5zm51.2-12.3c3.3-.6 6.7-1.3 10.1-1.8-.7-1.8-1.3-3.6-1.8-5.4L119.1 190c-1.5 3.9-2.9 7.9-4.1 12l52.7 15.7zm192.4-9.6l54.4-22.9c1.7 3.9 3.1 7.9 4.5 11.9l-55.4 21.1c-1.9-.3-3.7-.7-5.6-1 .8-2.6 1.7-6.6 2.1-9.1zm22.1 13.1c8.9 1.9 19 3.3 27.5 5.5l15.8-2.7c-.6-4.2-1.4-8.3-2.3-12.5l-41 9.7zm-208.9-21.5l-47.8-24.4c1.9-3.8 4-7.5 6.2-11.1l40.4 23.6.3 4.5c.2 2.5.5 4.9.9 7.4zm12.8-12c-1.7-5.2-2.9-10.2-3.5-15.2L147.2 143c-2.8 3.2-5.4 6.5-7.9 9.9l46.8 34.8zm-4.2-26.9l-26.2-26.9c3-3 6.1-5.8 9.3-8.5l18.9 21.7c-.4 1.5-.7 3-1 4.5-.5 3.1-.9 6.2-1 9.2zm4.2-20.7c1.4-4 3.2-8 5.4-12.3l-9.9-14.6-6.3 4.2c-1.4 1-2.8 2-4.2 3.1l15 19.6zm11.8-23.4l-5.3-10c3.8-2 7.6-3.9 11.5-5.6l1.8 3.8c-3 4.2-5.7 8.1-8 11.8zm22.3-13.9l-2.3-6.9c3.9-1.3 7.9-2.4 11.8-3.4-2.1 6.1-3.9 9.2-9.5 10.3zm84-10.7c2.6.6 5.1 1.3 7.7 2l-1.3 5c-2.1-2.4-4.2-4.7-6.4-7zm15.5 19.4l5.1-13.1c3.9 1.5 7.8 3.2 11.6 5l-9.6 21.1c-.5.3-6-11.2-7.1-13zm19.4 11.9l8.3-14.2c3.6 2.1 7.2 4.3 10.7 6.8l-13 19.5c-.3-.9-.5-1.9-.8-2.8-.5-1.8-1-3.6-1.6-5.8l-.8-2.8-2.8-.7zm8.9 23.2c1 4.5 1.8 9.2 2.2 14.1l26.6-29.7c-1.8-1.7-3.7-3.4-5.6-5-1.3-1.1-2.7-2.2-4-3.3L348 146.6zm2.3 25.6l35.4-32.2c2.9 3.2 5.6 6.4 8.2 9.8l-31.7 25.7v-2.6c-5.3 1.8-9 4.6-12.8 7.2.4-2.7.7-5.3.9-7.9zm11.7 15.4c-.1 4.1-.3 8-.6 11.8l47.5-26.4c-2-3.7-4.1-7.4-6.4-11L362 187.6z" fill="#fff"/><path fill-rule="evenodd" clip-rule="evenodd" d="M209.7 108.2c-25.3 35.3-28.1 55.9-16.7 85.5l-13.4-.9c-.5 0-1.6-.2-2.4-.1.5 7.6 2.4 15.8 5.7 24.1 26.7-4.4 55-7.1 85-7.1h3c.9-8 1.4-15.8 1.9-21.5 1.4-16.3 4.2-12.4-10.5-23.2-8.4-6.2-14.7-12.1-20-18.4l27 15.3c6.5-18.9 1.3-27 2-41.5 3.1 13.4 7.4 21.7 9.7 39.2 1.9 14.8 2.9 29.2 1.3 44 13.4-4.4 18.1-12.3 28.3-23.2-5.8 12.6-14 21.3-20.5 29.7 21.9.9 43 3.1 63.3 6.3 3.9-11.1 4.8-21.7 4.1-35.6-5.9 2-6.3 4.8-14.3 7 6.4-23.9 0-41.3-4.8-59.2-10.6-2-7 1.9-15.4 1.7-6.5-23.8-37.7-55.3-75.3-68.1-20.4 37.4-8.8 48-38 46z" fill="#31A93F"/><path fill-rule="evenodd" clip-rule="evenodd" d="M405.4 354.4c21 7.2 39.2 15.4 52.5 24.7-1.7-12.4-3.5-24.8-5.2-37.2 7.7-9 19.4-14.9 33.9-18.7-9.6-7.6-22.7-17.2-36.8-20.5l-18.9 43.9c-5.7-1.9-12.6-5.8-18.7-7.4l-6.8 15.2z" fill="#fff"/><path fill-rule="evenodd" clip-rule="evenodd" d="M267 215c76.2 0 144.1 16.3 200.5 36.8l-38 90.5c-44.1-21-100.7-33.6-162.5-33.6-61 0-117 12.3-160.8 32.8l-36.9-89.3C125.4 232.1 190.8 215 267 215z" fill="#fff"/><path fill-rule="evenodd" clip-rule="evenodd" d="M129.5 354.4c-21 7.2-39.2 15.4-52.5 24.7 1.7-12.4 3.5-24.8 5.2-37.2-7.7-9-19.4-14.9-33.9-18.7 9.6-7.6 22.7-17.2 36.8-20.5l18.9 43.9c5.7-1.9 12.6-5.8 18.7-7.4l6.8 15.2z" fill="#fff"/><path d="M130 249.4c2.2 7.9 3.3 11.8 5.5 19.6-3.3.9-5 1.4-8.3 2.4-1.3-4.3-1.9-6.4-3.2-10.7-5.1 1.5-7.7 2.3-12.8 4 4.7 14.5 9.4 29 14.2 43.5 2.3-.8 3.5-1.1 5.8-1.8 1.1 3.5 1.6 5.3 2.7 8.8-7.5 2.3-11.3 3.6-18.7 6.3-1.3-3.5-1.9-5.2-3.1-8.7 1.6-.6 2.4-.8 3.9-1.4-5-14.4-10.1-28.8-15.1-43.2-1.7.6-2.6.9-4.3 1.5-1.3-3.5-1.9-5.2-3.1-8.7 12-4.3 24.2-8.2 36.5-11.6zm26-6.5c3-.7 5.8-.9 8.4-.6 2.6.2 5 1 7 2.3 2 1.3 3.8 3.1 5.2 5.4 1.4 2.3 2.4 5.2 3 8.7.6 3.5.7 6.6.3 9.4-.4 2.8-1.3 5.2-2.6 7.2s-3 3.7-5.1 5c-2.1 1.3-4.5 2.2-7.2 2.8-1.9.4-2.9.6-4.8 1.1 1.2 5.3 1.9 8 3.1 13.3 2.4-.6 3.5-.8 5.9-1.3l2 9c-7.7 1.7-11.5 2.6-19.1 4.6-.9-3.6-1.4-5.4-2.4-8.9l4-1c-3.8-14.8-7.6-29.5-11.3-44.3-1.8.5-2.7.7-4.4 1.2-.9-3.6-1.4-5.4-2.4-8.9 8.1-2.2 12.2-3.2 20.4-5zm2 32.4c1.6-.4 2.4-.6 4-.9 3.2-.7 5.3-2.3 6.3-4.8s1.2-5.4.5-8.8c-.7-3.4-2-5.9-3.8-7.5-1.9-1.6-4.5-2-7.9-1.2-1.7.4-2.5.6-4.2 1 2 8.9 3.1 13.3 5.1 22.2zm44-40.5c.5 3.7.7 5.5 1.2 9.2-2.1.3-3.1.4-5.1.7 1.7 11.9 3.3 23.8 5 35.8.2 0 .2 0 .4-.1.2-2 .3-2.9.6-4.9 3.5-14.2 7.3-28.2 11.4-42.2 6.5-.7 9.7-.9 16.2-1.4.3 3.7.4 5.5.6 9.2-1.8.1-2.7.2-4.5.3l3.6 45.6c1.6-.1 2.5-.2 4.1-.3.3 3.7.4 5.5.6 9.2-7.3.5-10.9.8-18.2 1.6-.4-3.7-.6-5.5-1-9.2 1.9-.2 2.9-.3 4.9-.5-1.2-12.2-2.4-24.3-3.7-36.5h-.4c-.3 1.9-.5 2.9-.8 4.9-3.9 14.2-7.5 28.4-10.7 42.7-3.9.5-5.9.8-9.9 1.5l-8.7-54.3c-1.8.3-2.7.4-4.5.7-.6-3.6-.9-5.5-1.5-9.1 8.1-1.2 12.2-1.8 20.4-2.9zm56.3-4.1c.1 3.7.1 5.5.2 9.2-2.2 0-3.3.1-5.4.1.2 6.9.3 10.3.5 17.1 7.4-.2 11.1-.2 18.5-.2.1-6.9.1-10.3.2-17.1h-5.4v-9.2c8.4 0 12.7.1 21.1.4-.1 3.7-.2 5.5-.4 9.2-1.8-.1-2.7-.1-4.5-.2-.5 15.2-.9 30.5-1.4 45.7 1.6.1 2.5.1 4.1.1-.1 3.7-.2 5.5-.4 9.2-7.4-.3-11.1-.4-18.4-.4v-9.2h4.9c.1-7.6.1-11.4.2-19.1-7.3-.1-10.9 0-18.2.2l.5 19c2-.1 3-.1 4.9-.1.1 3.7.1 5.5.2 9.2-7.4.1-11.1.3-18.4.7-.2-3.7-.3-5.5-.5-9.2 1.6-.1 2.5-.1 4.1-.2-.8-15.2-1.5-30.4-2.3-45.7-1.8.1-2.7.1-4.5.2-.2-3.7-.3-5.5-.5-9.2 8.3-.2 12.5-.3 20.9-.5zm66.6 3.2c3.3 18.8 6.1 37.6 8.4 56.5l3.5.5c-.6 3.7-.8 5.5-1.4 9.1-7.6-1.2-11.4-1.7-19-2.5.4-3.7.6-5.5 1-9.2 2.2.2 3.3.4 5.6.6-.5-3.7-.8-5.5-1.3-9.2-6.6-.8-9.9-1.1-16.5-1.6-1.2 3.5-1.8 5.2-3 8.7 2.2.2 3.3.3 5.6.5-.3 3.7-.5 5.5-.8 9.2-7.1-.6-10.7-.9-17.9-1.2.2-3.7.3-5.5.4-9.2 1.4.1 2.1.1 3.5.2 4.8-15 9.9-30 15.4-44.8-2.4-.2-3.5-.3-5.9-.4.3-3.7.4-5.5.6-9.2 8.7.6 13.1 1 21.8 2zm-9.8 16.2c-2.9 7.8-4.4 11.7-7.1 19.5 4.9.4 7.4.7 12.3 1.2-1.2-8.2-1.9-12.3-3.3-20.6-.1-1.6-.2-2.4-.3-4h-.4c-.5 1.5-.7 2.3-1.2 3.9zm54.8-9.1c3 .6 5.6 1.6 7.9 2.8 2.3 1.3 4.1 2.9 5.5 5 1.3 2 2.2 4.4 2.5 7.1.3 2.7.1 5.8-.8 9.2-.8 3.5-2.1 6.4-3.6 8.7-1.5 2.4-3.3 4.2-5.4 5.5-2 1.3-4.3 2.1-6.7 2.5-2.4.4-5 .2-7.7-.3-1.9-.4-2.9-.6-4.8-1-1 5.3-1.5 8-2.6 13.4 2.4.5 3.6.7 5.9 1.2-.7 3.6-1.1 5.4-1.9 9-7.7-1.6-11.5-2.3-19.3-3.5.6-3.6.9-5.5 1.5-9.1 1.6.3 2.4.4 4.1.7 2.6-15 5.1-30 7.7-45.1-1.8-.3-2.7-.5-4.5-.7.6-3.6.9-5.5 1.5-9.1 8.4 1.2 12.5 2 20.7 3.7zm-11.3 30.5c1.6.3 2.4.5 4 .8 3.2.7 5.8.1 7.7-1.8 1.9-1.9 3.3-4.5 4-7.9.8-3.4.6-6.2-.5-8.4s-3.3-3.6-6.8-4.3c-1.7-.3-2.5-.5-4.2-.8-1.6 8.9-2.5 13.4-4.2 22.4zm82.8-10.5c-2.9 7.9-4.3 11.9-7.1 19.8-3.3-1.2-4.9-1.7-8.1-2.9 1.5-4.5 2.3-6.7 3.8-11.2-3.5-1.2-5.2-1.7-8.6-2.9-4.6 14.5-9.3 29-13.9 43.5 2.1.7 3.1 1 5.2 1.7-1.2 3.5-1.8 5.3-2.9 8.8-7.7-2.6-11.6-3.8-19.4-6 1-3.6 1.5-5.3 2.5-8.9 2.1.6 3.1.9 5.2 1.5 4.3-14.6 8.7-29.2 13-43.8-3.5-1-5.2-1.5-8.7-2.5-1.3 4.6-1.9 6.8-3.2 11.4-3.3-.9-5-1.4-8.3-2.2 2.1-8.2 3.2-12.2 5.3-20.4 15.1 4.1 30.3 8.7 45.2 14.1z" fill="#434242"/><path d="M83.7 406.9c.4-1.4 1.5-3.3 2.6-5.3 1.5-2.6 2.8-4.5 4.7-7.2 2.6-.2 3 .7 3.3 2.9 1.2 8.7 1.3 11.2 2.5 11.4 1.5.2 4.8-2.4 7.5-6.9.3.1.7.4.5 1-1.6 4.1-7 9-9.6 8.5-1.5-.3-2.3-2.3-2.7-7-.3-4-.4-5.2-.9-5.4-.8-.2-3.1 4.2-4.2 8-.2.8-.4 1.6-.5 2.3-.7.1-1.7 0-2.2-.1-1.2-.1-1.4-.7-1-2.2z" fill="#fff"/><path d="M121.7 404.7c-.5 1.1-5.5 7.6-8.8 7.1-1.5-.3-1.9-1.5-1.7-3.4-1.4 2.5-4.3 4.4-6.4 4.1-2.2-.4-3.4-2.7-2.9-5.6 1-5.3 5.2-9.2 9.2-8.5 1.8.3 3.6 2.3 3.7 4.1-.7 1.8-1.1 3.3-1.3 4.4-.3 1.8 0 2.9.9 3.1 1.3.2 4.4-2.8 6.5-5.5.3-.2 1-.3.8.2zm-9.5-3.2c0-1.1-.6-1.6-1.2-1.7-1.7-.3-5 4.2-5.6 7.5-.2 1.2 0 2.2.6 2.3 2.1.4 5.5-5.7 6.2-8.1z" fill="#fff"/><path d="M139.5 407.4c-.1.6-5.2 10.2-9.5 9.5-2.3-.4-3.2-2.2-2.6-6 .1-.4.1-.9.2-1.3-1.2-.2-3.2-.3-4.9-.5 0 .3-.1.5-.1.8-.2 1.2-.6 3.8-.5 5.5-.7.1-1.4.1-1.9 0-1.5-.3-1.9-1.5-1.4-4.7.2-1.3.9-4 1.4-6.8.3-1.6.4-2.4.4-3.5.7 0 1.3 0 2 .1 1.4.2 1.7.9 1.4 2.8-.1.9-.5 2.6-.9 4.3 1.5.1 3.3.3 4.9.5.3-1.2.6-2.5.7-3.7.2-1 .2-1.9.3-2.6.4 0 .7 0 1 .1 1.9.3 2.4 1.4 2 4.2-.2 1-.9 3.5-1.2 5.5-.3 2.2-.3 3.5.6 3.6 1.7.3 5.6-4.7 7.7-8.6.3.1.5.5.4.8z" fill="#fff"/><path d="M155.3 410.5c-2.3-.1-5.3.9-8.3 2.6-.1.4-.1.8-.2 1.3-.8 6-4.3 15.7-9.3 15-1.9-.3-2.6-2.1-2.3-4.6.7-4.9 4.3-8.7 8.3-11.3.1-1.2.3-2.4.2-3.2-1.3 2.2-3 3.4-4.7 3.2-1.8-.3-2.5-1.8-2.1-4.5.6-4.2 4.7-7.8 8.2-7.4 1.1.2 2 .8 1.9 1.3 0 .2-.8.6-1.7.9-.2-.3-.4-.5-.7-.6-2.4-.3-4.5 4.1-4.9 6.5-.2 1.2 0 2 .6 2 1.4.2 3.2-2.8 3.3-5.2 1.3-.8 2-1 2.3-1 .9.1 1.3 2.2 1.1 5.8 3.1-1.5 6-2.2 7.5-2 .8.2 1.1.5.8 1.2zm-12.1 5.3c-3.1 2.6-5.6 6.1-6.1 9.8-.2 1.3 0 2.5.7 2.6 2.1.4 4.5-8.4 5.4-12.4z" fill="#fff"/><path d="M181.2 413c-.8 2.1-5.7 9.2-8.7 8.8-2.2-.2-3-1.7-2.8-5-2 2.8-4.3 4.3-6.2 4-1.9-.2-2.7-1.7-2.3-4.5v-.3c-2 2.6-4.2 4-6.1 3.8-1.9-.2-2.7-1.7-2.3-4.5.2-1.2.7-3.8 1-6.3.2-1.5.3-2.3.2-3.3.7 0 1.4-.1 2.1 0 1.4.2 1.7.8 1.5 2.6-.1 1.2-.8 4.1-1.1 6.3-.2 1.8.1 2.7 1 2.8.8.1 2.4-1.2 3.9-3.1.2-1.2.4-2.7.6-4.2.2-1.5.2-2.3.2-3.3.7 0 1.4-.1 2.1 0 1.4.2 1.7.8 1.5 2.5-.1 1.2-.8 4.1-1 6.3-.2 1.8.1 2.7 1 2.8.8.1 2.5-1.3 4-3.3.2-1.6.6-3.3.8-4.8.1-1 .1-1.8.1-2.5h1c1.9.2 2.5 1.2 2.2 3.8-.1.9-.7 3.4-.9 5.3-.2 2.1-.1 2.9.8 2.9 1.6.2 5.7-5.6 7.1-7.7.3.2.4.7.3.9z" fill="#fff"/><path d="M197.9 413.8c-.4 1.2-4.8 8.1-8.1 7.8-1.5-.1-2-1.4-2-3.2-1.2 2.6-3.9 4.8-6 4.6-2.2-.2-3.6-2.4-3.3-5.3.5-5.3 4.4-9.6 8.4-9.2 1.8.2 3.7 2 4 3.8-.5 1.8-.8 3.3-.9 4.5-.2 1.8.2 2.9 1.1 3 1.4.1 4.1-3.1 6-6 .2-.3.9-.5.8 0zm-9.8-2.3c-.1-1.1-.7-1.5-1.3-1.6-1.7-.2-4.6 4.6-4.9 7.9-.1 1.2.2 2.2.8 2.3 2.1.2 5-6.2 5.4-8.6z" fill="#fff"/><path d="M226.9 415.5c-2.4-.4-5.5.2-8.1 1.3v.4c-.2 4.5-2.8 6.7-4.5 6.6-1.3-.1-1.9-1-1.9-2.6.1-2.4 1.7-4.1 3.7-5.2-.2-1.8-.7-3.2-1.8-3.3-3.5-.2-6.5 12.3-6.9 18.4-.1 1.4 0 2.8.1 3.8-.6.4-1.4.7-1.8.7-1.1-.1-1.5-1-1.4-3.3.1-2.2.7-7.9 1.1-13.8-1 2.6-3.1 5.1-5.4 4.9-2.6-.2-4.2-3.1-3.9-7 .3-4 2.6-6.7 5.5-6.5 1.6.1 2.8 1.1 2.8 2.2 0 .5-.4.9-1.1 1.2-.4-1-.8-1.3-1.4-1.4-1.5-.1-2.8 2-3.1 4.9-.2 2.6.6 4.4 2.1 4.6 1.4.1 3.3-2.2 4.7-5.8.4-7.1.5-10.7.2-12.5.6-.5 1.5-.9 2.1-.9 1 .1 1.4.9 1.3 2.8-.1 1.8-1 10.1-1.4 16.6 1.9-7.9 3.9-10.8 7-10.6 1.9.1 3.4 1.7 3.9 3.9 2.7-.9 5.7-1.2 7-1.2 1.4.1 1.8 1 1.2 1.8zm-10.8 2.9c-1.1.9-1.9 1.9-1.9 3.1 0 .6.2 1.1.6 1.1.6 0 1.1-2 1.3-4.2z" fill="#fff"/><path d="M256.6 417c0 1.4-5.1 9.5-11.2 9.4-2.2 0-3.3-1.5-3.2-4.5.1-2.4.5-4.3.5-6 0-.5-.2-.9-.5-.9-1.7 0-4.3 10.1-5.8 10-.7 0-1.3-.5-1.7-1.2.2-1 .7-3.7.8-6.6.1-2.1 0-3-.5-3.1-1.5 0-4.3 11.4-7.7 11.3-.7 0-1.5-.4-2-1 .5-4.6 1.5-9.1.6-13.1.5-.4 1.1-.7 1.7-.7 1.4.1 2 1.9 1.9 5.4-.1 2.3-.4 4.1-.8 5.9 2.4-4.1 4.7-10.3 7.2-10.3 1.8.1 2.2 2.3 2.1 4.9 0 1.2-.2 2.5-.4 3.7 2.3-5.6 3.7-8.1 5.9-8 1.4 0 2.2 1.2 2.2 3s-.3 3.5-.4 5.3c-.1 2.3.6 3.6 1.9 3.7 2.7.1 6.7-3.9 8.8-7.7.4.2.6.3.6.5z" fill="#fff"/><path d="M273.5 416.3c0 .7-3.6 10.9-7.9 10.9-2.3 0-3.5-1.7-3.5-5.5v-1.3c-1.3 0-3.2.1-4.9.3v.8c0 1.2-.1 3.8.3 5.5-.6.2-1.4.3-1.9.3-1.6 0-2.1-1.2-2.1-4.5 0-1.3.3-4.1.3-6.9 0-1.6 0-2.5-.1-3.5.7-.1 1.3-.2 1.9-.2 1.4 0 1.8.6 1.8 2.6 0 .9-.1 2.7-.2 4.4 1.5-.1 3.3-.2 4.9-.2.1-1.3.2-2.6.2-3.7 0-1-.1-1.9-.2-2.7.3 0 .7-.1 1-.1 1.9 0 2.6 1 2.6 3.8 0 1-.4 3.6-.4 5.6 0 2.3.2 3.5 1.1 3.5 1.7 0 4.8-5.5 6.3-9.6.6-.2.8.1.8.5z" fill="#fff"/><path d="M290.3 416.3c.1 1.8-2.8 5.7-6 5.7-.7 0-1.6-.3-2.1-.7-.8 2.9-2.6 5.3-5.5 5.3-3.2.1-5.5-2.8-5.5-6.7 0-2.7 1.1-4.6 2.6-4.8.2-2.7 2.1-4.2 4.2-4.2 3.1 0 4.6 3.2 4.7 6.7 0 .6 0 1.2-.1 1.8.7.6 1.3.9 2.2.9 1.7 0 3.7-1.4 5.1-4.8.2.2.4.5.4.8zm-11 2.1c0-2.9-.8-5.6-2.5-5.6-1.1 0-1.8 1.2-2.3 2.4.9.3 1.3 1.1 1.3 2.4 0 .3 0 .7-.1 1.2-.9.5-1.3 1.9-1.3 3.2 0 1.7.7 3.5 2.1 3.4 1.9.1 2.9-3.6 2.8-7z" fill="#fff"/><path d="M290.7 424.6c-.1-3.7 3.9-6.8 3.8-8.8 0-.7-.4-1.1-1-1.1-1.7.1-2.6 3-3.7 3-.3 0-.6-.2-.7-.6 2-3.9 3.5-5.3 5.6-5.3 1.9-.1 3.2 1.2 3.3 3.2.1 3.8-3.6 6.2-3.5 9 0 1.1.7 1.8 1.7 1.8 3.7-.1 7.7-8.4 8.7-10.8.3.1.4.4.4.7.1 1.5-5.1 12.2-10.9 12.4-2.3.1-3.6-1.2-3.7-3.5z" fill="#fff"/><path d="M314.5 416.4c.2 4.2-1.6 9-5.6 9.2-3.2.2-5.6-2.6-5.8-6.5-.1-2.7.9-4.7 2.5-4.9.1-2.7 1.9-4.3 4-4.4 3-.1 4.7 3.1 4.9 6.6zm-3.2.9c-.2-2.9-1-5.6-2.7-5.5-1 .1-1.8 1.3-2.2 2.5.9.2 1.3 1 1.4 2.4v1.2c-.8.6-1.2 1.9-1.2 3.3.1 1.7.9 3.4 2.3 3.4 1.7-.2 2.6-3.9 2.4-7.3zm33.7-3.7c-2.3.4-5 2-7.5 4.3 0 .4.1.8.1 1.3.5 6-.9 16.2-5.9 16.6-1.9.1-3-1.5-3.2-4-.3-4.9 2.4-9.4 5.7-12.8-.1-1.2-.3-2.4-.4-3.1-.8 2.5-2.2 4-3.9 4.1-1.8.1-2.8-1.3-3-3.9-.3-4.2 2.9-8.7 6.4-8.9 1.1-.1 2.1.3 2.1.8 0 .2-.7.8-1.4 1.2-.2-.3-.5-.4-.8-.4-2.4.2-3.5 5-3.3 7.4.1 1.2.5 1.9 1 1.9 1.4-.1 2.6-3.4 2.1-5.8 1.1-1.1 1.7-1.4 2.1-1.5 1-.1 1.8 1.9 2.3 5.5 2.7-2.1 5.4-3.4 6.9-3.6.4-.1.8.2.7.9zm-10.7 7.8c-2.5 3.2-4.1 7.1-3.9 10.9.1 1.3.5 2.5 1.2 2.4 2.2-.1 2.7-9.2 2.7-13.3z" fill="#fff"/><path d="M372.7 416c.6.8 1 1.9 1.2 3.1.8 6-3.9 12.5-7.8 12.9-1.5.2-2.6-.6-2.8-2.7-.3-3.2 2.6-8 6.2-12.2-.8-1.6-2.4-2.4-4.8-2.7-.3-.5-.2-.7.2-1.1 2-2 3.3-4 3.2-5.2-.1-.6-.3-.7-.8-.6-1.2.1-2.3.3-3.5.4-.5.1-1 0-1.3 0-1.7 8-3.9 13.4-7.3 13.8-2 .2-3.7-1.1-4.1-4.2-1.3 3.2-2.7 5.1-4.6 5.2-1.8.2-3-1.3-3.3-4.2-.1-1.2-.1-3.8-.3-6.4-.1-1.5-.3-2.3-.5-3.3.7-.2 1.2-.3 1.8-.4 1.1-.1 1.7.4 1.9 2.2.1 1.2.1 4.2.3 6.4.2 2.3.9 2.5 1.6 2.5.9-.1 2-1.4 3.1-3.7-.1-1.3-.1-3.2-.3-5.3-.1-1-.2-1.8-.4-2.4.3-.1.7-.1.9-.2 1.8-.2 2.5.7 2.8 3.3.1.9 0 3.6.2 5.4.2 2.1.8 3.2 1.6 3.1 1.6-.2 3.9-4.4 5.5-12.4-.4-.3-.7-.8-.8-1.6-.1-1 .5-2.3 1.6-2.4 1.4-.2 1.6 1.2 1.1 2.5.6 0 1.3 0 2.1-.1 3.8-.4 5.1.1 5.3 1.7.1.9-.4 2.8-2.7 5.6.9-.1 2.4.4 3.7 1.6 3.1-3.1 6.2-5.5 8.2-5.9.5-.1.6.2.7.8-2.1 1.2-5 3.6-7.9 6.5zm-2.6 2.9c-3 3.6-5.2 7.5-4.9 10.4.1.8.5 1.2 1 1.1 1.4-.2 4.7-5.8 4.1-10.6-.1-.3-.1-.6-.2-.9z" fill="#fff"/><path d="M396.5 406.4c-.1 1.2-2.9 9-6.2 9.4-1.5.2-2.2-.9-2.7-2.7-.6 2.8-2.8 5.6-4.8 5.8-2.2.3-4.1-1.6-4.4-4.4-.7-5.3 2.1-10.3 6.1-10.9 1.8-.3 4.1 1.1 4.8 2.8-.1 1.9 0 3.4.1 4.6.3 1.8.9 2.8 1.8 2.7 1.3-.2 3.3-4 4.5-7.2.1-.3.8-.6.8-.1zm-10-.1c-.3-1.1-1-1.3-1.6-1.3-1.7.2-3.4 5.6-3 8.8.2 1.2.7 2.1 1.3 2 2-.1 3.3-7 3.3-9.5z" fill="#fff"/><path d="M413.1 403.4c.2 1.3-2 10.7-5.7 11.3-1.9.3-3.3-.8-4-3.9-1.1 3.3-2.5 5.2-4.3 5.5-1.8.3-3.1-1.1-3.5-4-.2-1.2-.3-3.8-.7-6.4-.2-1.5-.4-2.3-.7-3.2.6-.2 1.1-.4 1.7-.5 1.1-.2 1.8.3 2 2.1.2 1.2.3 4.2.7 6.3.3 2.2 1.1 2.5 1.7 2.4.9-.1 1.9-1.5 2.9-3.8-.1-1.3-.2-3.2-.6-5.2-.2-1-.3-1.7-.5-2.4.3-.1.7-.2.9-.2 1.8-.3 2.5.5 3 3.1.1.9.2 3.6.5 5.4.3 2.1 1 3.1 1.7 3 1.6-.3 4-7.4 4.3-10 .2-.1.5.1.6.5zm-18.3-6.6c-.1-.5.1-.8.6-.9.3 0 .6 0 1 .2s1.4 2 2.7 1.8c2.9-.5 1.2-2.5 3-2.8.6-.1 1.2.2 1.2.6.3 1.8-1.4 3.4-3.9 3.8-1.4.2-4.2 0-4.6-2.7z" fill="#fff"/><path d="M432.2 400.3c.1.6-1.6 11.3-5.9 12.1-2.3.4-3.8-1-4.4-4.8-.1-.4-.2-.9-.2-1.3-1.2.3-3.1.7-4.8 1.2 0 .3.1.5.1.8.2 1.2.6 3.8 1.3 5.3-.6.3-1.3.5-1.8.6-1.5.3-2.3-.8-2.9-4-.2-1.3-.5-4.1-.9-6.8-.3-1.6-.4-2.4-.8-3.5.7-.2 1.3-.4 1.9-.6 1.4-.2 1.9.3 2.2 2.2.2.9.4 2.6.6 4.4 1.4-.4 3.2-.8 4.8-1.1-.2-1.3-.3-2.6-.5-3.7-.2-1-.4-1.9-.6-2.6.3-.1.7-.2 1-.3 1.9-.3 2.7.5 3.2 3.3.2 1 .3 3.6.6 5.6.4 2.2.8 3.4 1.7 3.2 1.7-.3 3.7-6.3 4.5-10.6.5 0 .8.2.9.6z" fill="#fff"/><path d="M444.8 404.6c-.3 1.1-1.4 2.1-2.5 2.3-1.5.3-2.3-.8-2.8-2.5-.4 2.8-2.4 5.7-4.6 6.1-1.8.3-4-.8-4.6-4.4-.9-4.9 1.7-10.2 5.3-11 2.2-.4 4.3.9 5.1 2.5 0 1.9.2 3.4.4 4.6.4 1.8 1 2.8 1.8 2.6.4-.1.9-.5 1.3-1.1.5 0 .8.2.6.9zm-6.9-7c-.4-1.1-1.1-1.3-1.6-1.2-1.8.4-3.2 5.8-2.6 9 .2 1.2.8 2.1 1.5 2 1.9-.4 2.9-7.4 2.7-9.8zm-282.3-34.7h14.2v6.1h-14.2v-6.1zm36.6-20.9c4.4 0 9.1 1.6 12.4 5.3l-2.9 5.3c-2.4-2.4-5.9-4.1-9.2-4.1-7.4 0-11.2 6.2-11.2 13.4 0 7.3 4 13.9 11.3 13.9 3.6 0 7.2-2 9.7-4.9l3.2 5.1c-2.9 3.4-7.2 6.3-13.2 6.3-10.5 0-17.3-8.8-17.3-20.3 0-11.4 7.1-20 17.2-20zm26.1 6.7h-11v-6.1h28v6.1h-11v32.9h-6v-32.9zm23.6 25.5c.8.8 2.2 1.9 3.8 1.9 1.7 0 2.6-1.3 3.3-3.4l-13.1-30.1h6.7l7.1 17.4c1.1 2.6 1.9 5.2 1.9 5.2h.1s.6-2.6 1.4-5.1l5.4-17.4h6.4l-10.3 30.8c-1.4 4.2-3.7 8.8-8.6 8.8-2.5 0-4.7-1-6.7-2.7l2.6-5.4zm24.5 1.3c4.2-7.3 4.9-16.5 4.9-24.3v-8.5H292v32.9h3.7v13.8h-5.4v-7.7h-21.8v7.7H263v-13.8h3.4v-.1zm19.6 0v-26.8h-9v2.9c0 7.6-.8 17.3-4.3 23.9H286zm15.6-32.9h6.1v22.5c0 2.3-.3 6-.3 6h.1s1.6-3.8 2.8-6.1l12.6-22.4h6v38.9h-6v-22.4c0-2.3.3-6 .3-6h-.1s-1.6 3.7-2.8 6l-12.7 22.4h-6v-38.9zm39.4 25.2c.8-1.5 1.1-2 1.1-2v-.1c-4.1-2.1-5.9-6.4-5.9-11.3 0-5.5 2.4-9.2 5.6-10.7 1.4-.7 3.1-1 6.4-1h10.9v38.9H353V367h-5l-7.3 14.5h-6.8l7.1-13.7zm11.9-6.7v-12.4h-4.3c-2.2 0-3.3.4-4.2 1-1.4 1-2.1 2.9-2.1 5 0 4.1 2 6.4 5.3 6.4h5.3zm13.2 1.8h14.2v6.1h-14.2v-6.1z" fill="#fff"/></svg>