<svg width="1815" height="430" fill="none" xmlns="http://www.w3.org/2000/svg"><path d="M93.5 373.7L0 122.9h55.7L120 310.6l64.7-187.7h55.7l-93.9 250.8h-53zm224.8-250.8v250.8h-51.6V122.9h51.6zm140.1 0c85.6 0 126.2 52.7 126.2 125.4S544 373.7 458.4 373.7h-90.1V122.9h90.1zm0 47.3h-38.5v156.2h38.5c47.8 0 73.6-26.5 73.6-78.1 0-51.6-25.8-78.1-73.6-78.1zm333.1-47.3v47.3h-118v53.4h107.6v46.9H673.6v55.9h120v47.3H622V122.9h169.5zm227.7-56.3c118.9 0 178.3 86.9 178.3 181.7 0 94.8-59.4 181.7-178.3 181.7s-178.3-86.9-178.3-181.7c0-94.8 59.5-181.7 178.3-181.7zm.1 53.6c-79.8 0-119.7 58.1-119.7 128.1s39.9 128.1 119.7 128.1c79.3 0 119.2-58.1 119.2-128.1s-40-128.1-119.2-128.1zm355.1-2.3c25.8 0 51.6 5.7 73.9 16.1v51.2c-18.2-12.5-42.6-19.3-67.1-19.3-43 0-85.3 23.6-85.3 82.4 0 66.6 47.1 83.5 82.5 83.5 10.3 0 19.3-1.8 26.5-4.7v-89.6h49.2v124.3c-24.1 10.8-51.6 16.8-78.4 16.8-67.4 0-132.4-38.3-132.4-130.4.1-90.9 65.1-130.3 131.1-130.3zm173.5 5v250.8h-51.6V122.9h51.6zm140.2 0c85.6 0 126.2 52.7 126.2 125.4s-40.6 125.4-126.2 125.4H1598V122.9h90.1zm0 47.3h-38.5v156.2h38.5c47.8 0 73.6-26.5 73.6-78.1 0-51.6-25.8-78.1-73.6-78.1z" fill="#000200"/><path d="M1215.2 88.2c24.36 0 44.1-19.744 44.1-44.1S1239.56 0 1215.2 0c-24.36 0-44.1 19.744-44.1 44.1s19.74 44.1 44.1 44.1z" fill="#CE443D"/></svg>