<svg xmlns="http://www.w3.org/2000/svg" viewBox="0 0 1920 1080"><path d="M144.5 719.7L51 468.9h55.7L171 656.6l64.7-187.7h55.7l-93.9 250.8h-53zm224.8-250.8v250.8h-51.6V468.9h51.6zm140.1 0c85.6 0 126.2 52.7 126.2 125.4S595 719.7 509.4 719.7h-90.1V468.9h90.1zm0 47.3h-38.5v156.2h38.5c47.8 0 73.6-26.5 73.6-78.1 0-51.6-25.8-78.1-73.6-78.1zm333.1-47.3v47.3h-118v53.4h107.6v46.9H724.6v55.9h120v47.3H673V468.9h169.5zm227.7-56.3c118.9 0 178.3 86.9 178.3 181.7S1189.1 776 1070.2 776s-178.3-86.9-178.3-181.7 59.5-181.7 178.3-181.7zm.1 53.6c-79.8 0-119.7 58.1-119.7 128.1s39.9 128.1 119.7 128.1c79.3 0 119.2-58.1 119.2-128.1s-40-128.1-119.2-128.1zm355.1-2.3c25.8 0 51.6 5.7 73.9 16.1v51.2c-18.2-12.5-42.6-19.3-67.1-19.3-43 0-85.3 23.6-85.3 82.4 0 66.6 47.1 83.5 82.5 83.5 10.3 0 19.3-1.8 26.5-4.7v-89.6h49.2v124.3c-24.1 10.8-51.6 16.8-78.4 16.8-67.4 0-132.4-38.3-132.4-130.4.1-90.9 65.1-130.3 131.1-130.3zm173.5 5v250.8h-51.6V468.9h51.6zm140.2 0c85.6 0 126.2 52.7 126.2 125.4s-40.6 125.4-126.2 125.4H1649V468.9h90.1zm0 47.3h-38.5v156.2h38.5c47.8 0 73.6-26.5 73.6-78.1 0-51.6-25.8-78.1-73.6-78.1z" fill="#000200"/><circle cx="1266.2" cy="390.1" r="44.1" fill="#ce443d"/></svg>