<svg xmlns="http://www.w3.org/2000/svg" viewBox="0 0 1920 1080"><path d="M1717.3 651.9c-7 11.1-15.3 21.3-24.6 30.6-34.6 34.6-78.2 51.8-130.9 51.8s-96.4-17.3-130.9-51.8c-34.6-34.6-51.8-77.8-51.8-129.8 0-52 17.3-95.3 51.8-129.8s78.2-51.8 130.9-51.8 96.4 17.3 130.9 51.8c9.3 9.2 17.6 19.5 24.6 30.6l151.8-151.6c-8-9.4-16.5-18.6-25.4-27.5-76.5-75.1-170.4-112.7-281.6-112.8-111.2 0-205.1 37.5-281.6 112.8-76.6 75.2-114.9 168-114.9 278.4s38.3 203.2 114.9 278.4C1357 906.4 1450.9 944 1562.1 944c111.2 0 205.1-37.6 281.6-112.8 9.1-8.9 17.5-18 25.4-27.4l-151.8-151.9zM618.4 179.6v207.3h176.3v538.5h213.7V386.9h67.7l108.7-108.7v-98.6zM187.9 781.7c-1.9-1.8-4.9-1.8-6.8 0-1.9 2-1.9 5.1 0 7.1 1.9 1.8 4.9 1.8 6.8 0 1.9-2 1.9-5.1 0-7.1zm0 0c-1.9-1.8-4.9-1.8-6.8 0-1.9 2-1.9 5.1 0 7.1 1.9 1.8 4.9 1.8 6.8 0 1.9-2 1.9-5.1 0-7.1zm-52.2-1.9h-3.9v2.9h3.9c1.2 0 1.8-.5 1.8-1.4.1-.9-.5-1.5-1.8-1.5zm.7 7.7h-4.6v3h4.6c1.2 0 1.8-.5 1.8-1.5s-.6-1.5-1.8-1.5zm26.5-6c-2-1.8-5.1-1.8-7.1 0-1.9 2.1-1.9 5.3 0 7.4 2 1.9 5.1 1.9 7.1 0 1.9-2.1 1.9-5.2 0-7.4zm25 .2c-1.9-1.8-4.9-1.8-6.8 0-1.9 2-1.9 5.1 0 7.1 1.9 1.8 4.9 1.8 6.8 0 1.9-2 1.9-5.1 0-7.1zm-51.5 5.8h-4.6v3h4.6c1.2 0 1.8-.5 1.8-1.5s-.6-1.5-1.8-1.5zm-.7-7.7h-3.9v2.9h3.9c1.2 0 1.8-.5 1.8-1.4.1-.9-.5-1.5-1.8-1.5zm27.2 1.7c-2-1.8-5.1-1.8-7.1 0-1.9 2.1-1.9 5.3 0 7.4 2 1.9 5.1 1.9 7.1 0 1.9-2.1 1.9-5.2 0-7.4zm25 .2c-1.9-1.8-4.9-1.8-6.8 0-1.9 2-1.9 5.1 0 7.1 1.9 1.8 4.9 1.8 6.8 0 1.9-2 1.9-5.1 0-7.1zm-52.2-1.9h-3.9v2.9h3.9c1.2 0 1.8-.5 1.8-1.4.1-.9-.5-1.5-1.8-1.5zm.7 7.7h-4.6v3h4.6c1.2 0 1.8-.5 1.8-1.5s-.6-1.5-1.8-1.5zm26.5-6c-2-1.8-5.1-1.8-7.1 0-1.9 2.1-1.9 5.3 0 7.4 2 1.9 5.1 1.9 7.1 0 1.9-2.1 1.9-5.2 0-7.4zm25 .2c-1.9-1.8-4.9-1.8-6.8 0-1.9 2-1.9 5.1 0 7.1 1.9 1.8 4.9 1.8 6.8 0 1.9-2 1.9-5.1 0-7.1zm46.2-1.9c-2.1-.2-4 1.2-4.5 3.2h9c-.5-2-2.4-3.4-4.5-3.2zm-97.7 7.7h-4.6v3h4.6c1.2 0 1.8-.5 1.8-1.5s-.6-1.5-1.8-1.5zm-.7-7.7h-3.9v2.9h3.9c1.2 0 1.8-.5 1.8-1.4.1-.9-.5-1.5-1.8-1.5zm27.2 1.7c-2-1.8-5.1-1.8-7.1 0-1.9 2.1-1.9 5.3 0 7.4 2 1.9 5.1 1.9 7.1 0 1.9-2.1 1.9-5.2 0-7.4zm25 .2c-1.9-1.8-4.9-1.8-6.8 0-1.9 2-1.9 5.1 0 7.1 1.9 1.8 4.9 1.8 6.8 0 1.9-2 1.9-5.1 0-7.1zm46.2-1.9c-2.1-.2-4 1.2-4.5 3.2h9c-.5-2-2.4-3.4-4.5-3.2zm-98.4 0h-3.9v2.9h3.9c1.2 0 1.8-.5 1.8-1.4.1-.9-.5-1.5-1.8-1.5zm.7 7.7h-4.6v3h4.6c1.2 0 1.8-.5 1.8-1.5s-.6-1.5-1.8-1.5zm26.5-6c-2-1.8-5.1-1.8-7.1 0-1.9 2.1-1.9 5.3 0 7.4 2 1.9 5.1 1.9 7.1 0 1.9-2.1 1.9-5.2 0-7.4zm25 .2c-1.9-1.8-4.9-1.8-6.8 0-1.9 2-1.9 5.1 0 7.1 1.9 1.8 4.9 1.8 6.8 0 1.9-2 1.9-5.1 0-7.1zm46.2-1.9c-2.1-.2-4 1.2-4.5 3.2h9c-.5-2-2.4-3.4-4.5-3.2zm-97.7 7.7h-4.6v3h4.6c1.2 0 1.8-.5 1.8-1.5s-.6-1.5-1.8-1.5zm-.7-7.7h-3.9v2.9h3.9c1.2 0 1.8-.5 1.8-1.4.1-.9-.5-1.5-1.8-1.5zm27.2 1.7c-2-1.8-5.1-1.8-7.1 0-1.9 2.1-1.9 5.3 0 7.4 2 1.9 5.1 1.9 7.1 0 1.9-2.1 1.9-5.2 0-7.4zm25 .2c-1.9-1.8-4.9-1.8-6.8 0-1.9 2-1.9 5.1 0 7.1 1.9 1.8 4.9 1.8 6.8 0 1.9-2 1.9-5.1 0-7.1zm46.2-1.9c-2.1-.2-4 1.2-4.5 3.2h9c-.5-2-2.4-3.4-4.5-3.2zm-98.4 0h-3.9v2.9h3.9c1.2 0 1.8-.5 1.8-1.4.1-.9-.5-1.5-1.8-1.5zm.7 7.7h-4.6v3h4.6c1.2 0 1.8-.5 1.8-1.5s-.6-1.5-1.8-1.5zm26.5-6c-2-1.8-5.1-1.8-7.1 0-1.9 2.1-1.9 5.3 0 7.4 2 1.9 5.1 1.9 7.1 0 1.9-2.1 1.9-5.2 0-7.4zm25 .2c-1.9-1.8-4.9-1.8-6.8 0-1.9 2-1.9 5.1 0 7.1 1.9 1.8 4.9 1.8 6.8 0 1.9-2 1.9-5.1 0-7.1zm46.2-1.9c-2.1-.2-4 1.2-4.5 3.2h9c-.5-2-2.4-3.4-4.5-3.2zm-97.7 7.7h-4.6v3h4.6c1.2 0 1.8-.5 1.8-1.5s-.6-1.5-1.8-1.5zm-.7-7.7h-3.9v2.9h3.9c1.2 0 1.8-.5 1.8-1.4.1-.9-.5-1.5-1.8-1.5zm27.2 1.7c-2-1.8-5.1-1.8-7.1 0-1.9 2.1-1.9 5.3 0 7.4 2 1.9 5.1 1.9 7.1 0 1.9-2.1 1.9-5.2 0-7.4zm25 .2c-1.9-1.8-4.9-1.8-6.8 0-1.9 2-1.9 5.1 0 7.1 1.9 1.8 4.9 1.8 6.8 0 1.9-2 1.9-5.1 0-7.1zm46.2-1.9c-2.1-.2-4 1.2-4.5 3.2h9c-.5-2-2.4-3.4-4.5-3.2zm-98.4 0h-3.9v2.9h3.9c1.2 0 1.8-.5 1.8-1.4.1-.9-.5-1.5-1.8-1.5zm.7 7.7h-4.6v3h4.6c1.2 0 1.8-.5 1.8-1.5s-.6-1.5-1.8-1.5zm26.5-6c-2-1.8-5.1-1.8-7.1 0-1.9 2.1-1.9 5.3 0 7.4 2 1.9 5.1 1.9 7.1 0 1.9-2.1 1.9-5.2 0-7.4zm25 .2c-1.9-1.8-4.9-1.8-6.8 0-1.9 2-1.9 5.1 0 7.1 1.9 1.8 4.9 1.8 6.8 0 1.9-2 1.9-5.1 0-7.1zm46.2-1.9c-2.1-.2-4 1.2-4.5 3.2h9c-.5-2-2.4-3.4-4.5-3.2zm119 0c-2.1-.2-4.1 1.2-4.5 3.2h9c-.5-2-2.4-3.4-4.5-3.2zm0 0c-2.1-.2-4.1 1.2-4.5 3.2h9c-.5-2-2.4-3.4-4.5-3.2zm-216.7 7.7h-4.6v3h4.6c1.2 0 1.8-.5 1.8-1.5s-.6-1.5-1.8-1.5zm-.7-7.7h-3.9v2.9h3.9c1.2 0 1.8-.5 1.8-1.4.1-.9-.5-1.5-1.8-1.5zm27.2 1.7c-2-1.8-5.1-1.8-7.1 0-1.9 2.1-1.9 5.3 0 7.4 2 1.9 5.1 1.9 7.1 0 1.9-2.1 1.9-5.2 0-7.4zm25 .2c-1.9-1.8-4.9-1.8-6.8 0-1.9 2-1.9 5.1 0 7.1 1.9 1.8 4.9 1.8 6.8 0 1.9-2 1.9-5.1 0-7.1zm46.2-1.9c-2.1-.2-4 1.2-4.5 3.2h9c-.5-2-2.4-3.4-4.5-3.2zm-98.4 0h-3.9v2.9h3.9c1.2 0 1.8-.5 1.8-1.4.1-.9-.5-1.5-1.8-1.5zm.7 7.7h-4.6v3h4.6c1.2 0 1.8-.5 1.8-1.5s-.6-1.5-1.8-1.5zm-1.9 38.3c-2.1-.2-4.1 1.2-4.6 3.3h9c-.4-2.1-2.3-3.5-4.4-3.3zm28.4-44.3c-2-1.8-5.1-1.8-7.1 0-1.9 2.1-1.9 5.3 0 7.4 2 1.9 5.1 1.9 7.1 0 1.9-2.1 1.9-5.2 0-7.4zm25 .2c-1.9-1.8-4.9-1.8-6.8 0-1.9 2-1.9 5.1 0 7.1 1.9 1.8 4.9 1.8 6.8 0 1.9-2 1.9-5.1 0-7.1zm46.2-1.9c-2.1-.2-4 1.2-4.5 3.2h9c-.5-2-2.4-3.4-4.5-3.2zm119 0c-2.1-.2-4.1 1.2-4.5 3.2h9c-.5-2-2.4-3.4-4.5-3.2zm0 0c-2.1-.2-4.1 1.2-4.5 3.2h9c-.5-2-2.4-3.4-4.5-3.2zm-216.7 7.7h-4.6v3h4.6c1.2 0 1.8-.5 1.8-1.5s-.6-1.5-1.8-1.5zm-.7-7.7h-3.9v2.9h3.9c1.2 0 1.8-.5 1.8-1.4.1-.9-.5-1.5-1.8-1.5zm-1.2 46c-2.1-.2-4.1 1.2-4.6 3.3h9c-.4-2.1-2.3-3.5-4.4-3.3zm28.4-44.3c-2-1.8-5.1-1.8-7.1 0-1.9 2.1-1.9 5.3 0 7.4 2 1.9 5.1 1.9 7.1 0 1.9-2.1 1.9-5.2 0-7.4zm25 .2c-1.9-1.8-4.9-1.8-6.8 0-1.9 2-1.9 5.1 0 7.1 1.9 1.8 4.9 1.8 6.8 0 1.9-2 1.9-5.1 0-7.1zm46.2-1.9c-2.1-.2-4 1.2-4.5 3.2h9c-.5-2-2.4-3.4-4.5-3.2zm-98.4 0h-3.9v2.9h3.9c1.2 0 1.8-.5 1.8-1.4.1-.9-.5-1.5-1.8-1.5zm.7 7.7h-4.6v3h4.6c1.2 0 1.8-.5 1.8-1.5s-.6-1.5-1.8-1.5zm-1.9 38.3c-2.1-.2-4.1 1.2-4.6 3.3h9c-.4-2.1-2.3-3.5-4.4-3.3zm28.4-44.3c-2-1.8-5.1-1.8-7.1 0-1.9 2.1-1.9 5.3 0 7.4 2 1.9 5.1 1.9 7.1 0 1.9-2.1 1.9-5.2 0-7.4zm25 .2c-1.9-1.8-4.9-1.8-6.8 0-1.9 2-1.9 5.1 0 7.1 1.9 1.8 4.9 1.8 6.8 0 1.9-2 1.9-5.1 0-7.1zm46.2-1.9c-2.1-.2-4 1.2-4.5 3.2h9c-.5-2-2.4-3.4-4.5-3.2zm119 0c-2.1-.2-4.1 1.2-4.5 3.2h9c-.5-2-2.4-3.4-4.5-3.2zm0 0c-2.1-.2-4.1 1.2-4.5 3.2h9c-.5-2-2.4-3.4-4.5-3.2zm-216.7 7.7h-4.6v3h4.6c1.2 0 1.8-.5 1.8-1.5s-.6-1.5-1.8-1.5zm-.7-7.7h-3.9v2.9h3.9c1.2 0 1.8-.5 1.8-1.4.1-.9-.5-1.5-1.8-1.5zm-1.2 46c-2.1-.2-4.1 1.2-4.6 3.3h9c-.4-2.1-2.3-3.5-4.4-3.3zm28.4-44.3c-2-1.8-5.1-1.8-7.1 0-1.9 2.1-1.9 5.3 0 7.4 2 1.9 5.1 1.9 7.1 0 1.9-2.1 1.9-5.2 0-7.4zm25 .2c-1.9-1.8-4.9-1.8-6.8 0-1.9 2-1.9 5.1 0 7.1 1.9 1.8 4.9 1.8 6.8 0 1.9-2 1.9-5.1 0-7.1zm46.2-1.9c-2.1-.2-4 1.2-4.5 3.2h9c-.5-2-2.4-3.4-4.5-3.2zm-98.4 0h-3.9v2.9h3.9c1.2 0 1.8-.5 1.8-1.4.1-.9-.5-1.5-1.8-1.5zm.7 7.7h-4.6v3h4.6c1.2 0 1.8-.5 1.8-1.5s-.6-1.5-1.8-1.5zm-1.9 38.3c-2.1-.2-4.1 1.2-4.6 3.3h9c-.4-2.1-2.3-3.5-4.4-3.3zm28.4-44.3c-2-1.8-5.1-1.8-7.1 0-1.9 2.1-1.9 5.3 0 7.4 2 1.9 5.1 1.9 7.1 0 1.9-2.1 1.9-5.2 0-7.4zm25 .2c-1.9-1.8-4.9-1.8-6.8 0-1.9 2-1.9 5.1 0 7.1 1.9 1.8 4.9 1.8 6.8 0 1.9-2 1.9-5.1 0-7.1zm21.1 46c-1.9-1.8-4.9-1.8-6.8 0-1.8 2-1.8 5.1 0 7.1 1.9 1.8 4.9 1.8 6.8 0 1.8-2 1.8-5.1 0-7.1zm25.1-47.9c-2.1-.2-4 1.2-4.5 3.2h9c-.5-2-2.4-3.4-4.5-3.2zm119 0c-2.1-.2-4.1 1.2-4.5 3.2h9c-.5-2-2.4-3.4-4.5-3.2zm0 0c-2.1-.2-4.1 1.2-4.5 3.2h9c-.5-2-2.4-3.4-4.5-3.2zm-216.7 7.7h-4.6v3h4.6c1.2 0 1.8-.5 1.8-1.5s-.6-1.5-1.8-1.5zm-.7-7.7h-3.9v2.9h3.9c1.2 0 1.8-.5 1.8-1.4.1-.9-.5-1.5-1.8-1.5zm-1.2 46c-2.1-.2-4.1 1.2-4.6 3.3h9c-.4-2.1-2.3-3.5-4.4-3.3zm28.4-44.3c-2-1.8-5.1-1.8-7.1 0-1.9 2.1-1.9 5.3 0 7.4 2 1.9 5.1 1.9 7.1 0 1.9-2.1 1.9-5.2 0-7.4zm25 .2c-1.9-1.8-4.9-1.8-6.8 0-1.9 2-1.9 5.1 0 7.1 1.9 1.8 4.9 1.8 6.8 0 1.9-2 1.9-5.1 0-7.1zm21.1 46c-1.9-1.8-4.9-1.8-6.8 0-1.8 2-1.8 5.1 0 7.1 1.9 1.8 4.9 1.8 6.8 0 1.8-2 1.8-5.1 0-7.1zm25.1-47.9c-2.1-.2-4 1.2-4.5 3.2h9c-.5-2-2.4-3.4-4.5-3.2zm-98.4 0h-3.9v2.9h3.9c1.2 0 1.8-.5 1.8-1.4.1-.9-.5-1.5-1.8-1.5zm.7 7.7h-4.6v3h4.6c1.2 0 1.8-.5 1.8-1.5s-.6-1.5-1.8-1.5zm-1.9 38.3c-2.1-.2-4.1 1.2-4.6 3.3h9c-.4-2.1-2.3-3.5-4.4-3.3zm28.4-44.3c-2-1.8-5.1-1.8-7.1 0-1.9 2.1-1.9 5.3 0 7.4 2 1.9 5.1 1.9 7.1 0 1.9-2.1 1.9-5.2 0-7.4zm25 .2c-1.9-1.8-4.9-1.8-6.8 0-1.9 2-1.9 5.1 0 7.1 1.9 1.8 4.9 1.8 6.8 0 1.9-2 1.9-5.1 0-7.1zm21.1 46c-1.9-1.8-4.9-1.8-6.8 0-1.8 2-1.8 5.1 0 7.1 1.9 1.8 4.9 1.8 6.8 0 1.8-2 1.8-5.1 0-7.1zm25.1-47.9c-2.1-.2-4 1.2-4.5 3.2h9c-.5-2-2.4-3.4-4.5-3.2zm22.9 47.9c-1.9-1.8-4.9-1.8-6.8 0-1.8 2-1.8 5.1 0 7.1 1.9 1.8 4.9 1.8 6.8 0 1.9-2 1.9-5.1 0-7.1zm96.1-47.9c-2.1-.2-4.1 1.2-4.5 3.2h9c-.5-2-2.4-3.4-4.5-3.2zm0 0c-2.1-.2-4.1 1.2-4.5 3.2h9c-.5-2-2.4-3.4-4.5-3.2zM257 827.7c-1.9-1.8-4.9-1.8-6.8 0-1.8 2-1.8 5.1 0 7.1 1.9 1.8 4.9 1.8 6.8 0 1.9-2 1.9-5.1 0-7.1zm-120.6-40.2h-4.6v3h4.6c1.2 0 1.8-.5 1.8-1.5s-.6-1.5-1.8-1.5zm-.7-7.7h-3.9v2.9h3.9c1.2 0 1.8-.5 1.8-1.4.1-.9-.5-1.5-1.8-1.5zm-1.2 46c-2.1-.2-4.1 1.2-4.6 3.3h9c-.4-2.1-2.3-3.5-4.4-3.3zm28.4-44.3c-2-1.8-5.1-1.8-7.1 0-1.9 2.1-1.9 5.3 0 7.4 2 1.9 5.1 1.9 7.1 0 1.9-2.1 1.9-5.2 0-7.4zm25 .2c-1.9-1.8-4.9-1.8-6.8 0-1.9 2-1.9 5.1 0 7.1 1.9 1.8 4.9 1.8 6.8 0 1.9-2 1.9-5.1 0-7.1zm21.1 46c-1.9-1.8-4.9-1.8-6.8 0-1.8 2-1.8 5.1 0 7.1 1.9 1.8 4.9 1.8 6.8 0 1.8-2 1.8-5.1 0-7.1zm25.1-47.9c-2.1-.2-4 1.2-4.5 3.2h9c-.5-2-2.4-3.4-4.5-3.2zm-98.4 0h-3.9v2.9h3.9c1.2 0 1.8-.5 1.8-1.4.1-.9-.5-1.5-1.8-1.5zm.7 7.7h-4.6v3h4.6c1.2 0 1.8-.5 1.8-1.5s-.6-1.5-1.8-1.5zm-1.9 38.3c-2.1-.2-4.1 1.2-4.6 3.3h9c-.4-2.1-2.3-3.5-4.4-3.3zm28.4-44.3c-2-1.8-5.1-1.8-7.1 0-1.9 2.1-1.9 5.3 0 7.4 2 1.9 5.1 1.9 7.1 0 1.9-2.1 1.9-5.2 0-7.4zm25 .2c-1.9-1.8-4.9-1.8-6.8 0-1.9 2-1.9 5.1 0 7.1 1.9 1.8 4.9 1.8 6.8 0 1.9-2 1.9-5.1 0-7.1zm21.1 46c-1.9-1.8-4.9-1.8-6.8 0-1.8 2-1.8 5.1 0 7.1 1.9 1.8 4.9 1.8 6.8 0 1.8-2 1.8-5.1 0-7.1zm25.1-47.9c-2.1-.2-4 1.2-4.5 3.2h9c-.5-2-2.4-3.4-4.5-3.2zm22.9 47.9c-1.9-1.8-4.9-1.8-6.8 0-1.8 2-1.8 5.1 0 7.1 1.9 1.8 4.9 1.8 6.8 0 1.9-2 1.9-5.1 0-7.1zm96.1-47.9c-2.1-.2-4.1 1.2-4.5 3.2h9c-.5-2-2.4-3.4-4.5-3.2zm0 0c-2.1-.2-4.1 1.2-4.5 3.2h9c-.5-2-2.4-3.4-4.5-3.2zM257 827.7c-1.9-1.8-4.9-1.8-6.8 0-1.8 2-1.8 5.1 0 7.1 1.9 1.8 4.9 1.8 6.8 0 1.9-2 1.9-5.1 0-7.1zm-120.6-40.2h-4.6v3h4.6c1.2 0 1.8-.5 1.8-1.5s-.6-1.5-1.8-1.5zm-.7-7.7h-3.9v2.9h3.9c1.2 0 1.8-.5 1.8-1.4.1-.9-.5-1.5-1.8-1.5zm-1.2 46c-2.1-.2-4.1 1.2-4.6 3.3h9c-.4-2.1-2.3-3.5-4.4-3.3zm28.4-44.3c-2-1.8-5.1-1.8-7.1 0-1.9 2.1-1.9 5.3 0 7.4 2 1.9 5.1 1.9 7.1 0 1.9-2.1 1.9-5.2 0-7.4zm25 .2c-1.9-1.8-4.9-1.8-6.8 0-1.9 2-1.9 5.1 0 7.1 1.9 1.8 4.9 1.8 6.8 0 1.9-2 1.9-5.1 0-7.1zm21.1 46c-1.9-1.8-4.9-1.8-6.8 0-1.8 2-1.8 5.1 0 7.1 1.9 1.8 4.9 1.8 6.8 0 1.8-2 1.8-5.1 0-7.1zm25.1-47.9c-2.1-.2-4 1.2-4.5 3.2h9c-.5-2-2.4-3.4-4.5-3.2zm-98.4 0h-3.9v2.9h3.9c1.2 0 1.8-.5 1.8-1.4.1-.9-.5-1.5-1.8-1.5zm.7 7.7h-4.6v3h4.6c1.2 0 1.8-.5 1.8-1.5s-.6-1.5-1.8-1.5zm-1.9 38.3c-2.1-.2-4.1 1.2-4.6 3.3h9c-.4-2.1-2.3-3.5-4.4-3.3zm28.4-44.3c-2-1.8-5.1-1.8-7.1 0-1.9 2.1-1.9 5.3 0 7.4 2 1.9 5.1 1.9 7.1 0 1.9-2.1 1.9-5.2 0-7.4zm25 .2c-1.9-1.8-4.9-1.8-6.8 0-1.9 2-1.9 5.1 0 7.1 1.9 1.8 4.9 1.8 6.8 0 1.9-2 1.9-5.1 0-7.1zm21.1 46c-1.9-1.8-4.9-1.8-6.8 0-1.8 2-1.8 5.1 0 7.1 1.9 1.8 4.9 1.8 6.8 0 1.8-2 1.8-5.1 0-7.1zm25.1-47.9c-2.1-.2-4 1.2-4.5 3.2h9c-.5-2-2.4-3.4-4.5-3.2zm22.9 47.9c-1.9-1.8-4.9-1.8-6.8 0-1.8 2-1.8 5.1 0 7.1 1.9 1.8 4.9 1.8 6.8 0 1.9-2 1.9-5.1 0-7.1zm96.1-47.9c-2.1-.2-4.1 1.2-4.5 3.2h9c-.5-2-2.4-3.4-4.5-3.2zm0 0c-2.1-.2-4.1 1.2-4.5 3.2h9c-.5-2-2.4-3.4-4.5-3.2zM257 827.7c-1.9-1.8-4.9-1.8-6.8 0-1.8 2-1.8 5.1 0 7.1 1.9 1.8 4.9 1.8 6.8 0 1.9-2 1.9-5.1 0-7.1zm-120.6-40.2h-4.6v3h4.6c1.2 0 1.8-.5 1.8-1.5s-.6-1.5-1.8-1.5zm-.7-7.7h-3.9v2.9h3.9c1.2 0 1.8-.5 1.8-1.4.1-.9-.5-1.5-1.8-1.5zm-1.2 46c-2.1-.2-4.1 1.2-4.6 3.3h9c-.4-2.1-2.3-3.5-4.4-3.3zm28.4-44.3c-2-1.8-5.1-1.8-7.1 0-1.9 2.1-1.9 5.3 0 7.4 2 1.9 5.1 1.9 7.1 0 1.9-2.1 1.9-5.2 0-7.4zm25 .2c-1.9-1.8-4.9-1.8-6.8 0-1.9 2-1.9 5.1 0 7.1 1.9 1.8 4.9 1.8 6.8 0 1.9-2 1.9-5.1 0-7.1zm21.1 46c-1.9-1.8-4.9-1.8-6.8 0-1.8 2-1.8 5.1 0 7.1 1.9 1.8 4.9 1.8 6.8 0 1.8-2 1.8-5.1 0-7.1zm25.1-47.9c-2.1-.2-4 1.2-4.5 3.2h9c-.5-2-2.4-3.4-4.5-3.2zm-98.4 0h-3.9v2.9h3.9c1.2 0 1.8-.5 1.8-1.4.1-.9-.5-1.5-1.8-1.5zm.7 7.7h-4.6v3h4.6c1.2 0 1.8-.5 1.8-1.5s-.6-1.5-1.8-1.5zm-1.9 38.3c-2.1-.2-4.1 1.2-4.6 3.3h9c-.4-2.1-2.3-3.5-4.4-3.3zm28.4-44.3c-2-1.8-5.1-1.8-7.1 0-1.9 2.1-1.9 5.3 0 7.4 2 1.9 5.1 1.9 7.1 0 1.9-2.1 1.9-5.2 0-7.4zm4.8 92c-2-1.8-5.1-1.8-7.1 0-1.8 2.1-1.8 5.3 0 7.4 2 1.8 5.1 1.8 7.1 0 1.9-2.1 1.9-5.2 0-7.4zm20.2-91.8c-1.9-1.8-4.9-1.8-6.8 0-1.9 2-1.9 5.1 0 7.1 1.9 1.8 4.9 1.8 6.8 0 1.9-2 1.9-5.1 0-7.1zm4.8 92c-1.9-1.9-5-1.9-6.9 0-1.9 2-1.9 5.1 0 7.1 1.9 1.9 5 1.9 6.9 0 1.9-2 1.9-5.1 0-7.1zm16.3-46c-1.9-1.8-4.9-1.8-6.8 0-1.8 2-1.8 5.1 0 7.1 1.9 1.8 4.9 1.8 6.8 0 1.8-2 1.8-5.1 0-7.1zm25.1-47.9c-2.1-.2-4 1.2-4.5 3.2h9c-.5-2-2.4-3.4-4.5-3.2zm22.9 47.9c-1.9-1.8-4.9-1.8-6.8 0-1.8 2-1.8 5.1 0 7.1 1.9 1.8 4.9 1.8 6.8 0 1.9-2 1.9-5.1 0-7.1zm96.1-47.9c-2.1-.2-4.1 1.2-4.5 3.2h9c-.5-2-2.4-3.4-4.5-3.2zm0 0c-2.1-.2-4.1 1.2-4.5 3.2h9c-.5-2-2.4-3.4-4.5-3.2zM257 827.7c-1.9-1.8-4.9-1.8-6.8 0-1.8 2-1.8 5.1 0 7.1 1.9 1.8 4.9 1.8 6.8 0 1.9-2 1.9-5.1 0-7.1zm-64.3 46c-1.9-1.9-5-1.9-6.9 0-1.9 2-1.9 5.1 0 7.1 1.9 1.9 5 1.9 6.9 0 1.9-2 1.9-5.1 0-7.1zm-25-.2c-2-1.8-5.1-1.8-7.1 0-1.8 2.1-1.8 5.3 0 7.4 2 1.8 5.1 1.8 7.1 0 1.9-2.1 1.9-5.2 0-7.4zm-31.3-86h-4.6v3h4.6c1.2 0 1.8-.5 1.8-1.5s-.6-1.5-1.8-1.5zm-.7-7.7h-3.9v2.9h3.9c1.2 0 1.8-.5 1.8-1.4.1-.9-.5-1.5-1.8-1.5zm-1.2 46c-2.1-.2-4.1 1.2-4.6 3.3h9c-.4-2.1-2.3-3.5-4.4-3.3zm28.4-44.3c-2-1.8-5.1-1.8-7.1 0-1.9 2.1-1.9 5.3 0 7.4 2 1.9 5.1 1.9 7.1 0 1.9-2.1 1.9-5.2 0-7.4zm25 .2c-1.9-1.8-4.9-1.8-6.8 0-1.9 2-1.9 5.1 0 7.1 1.9 1.8 4.9 1.8 6.8 0 1.9-2 1.9-5.1 0-7.1zm21.1 46c-1.9-1.8-4.9-1.8-6.8 0-1.8 2-1.8 5.1 0 7.1 1.9 1.8 4.9 1.8 6.8 0 1.8-2 1.8-5.1 0-7.1zm25.1-47.9c-2.1-.2-4 1.2-4.5 3.2h9c-.5-2-2.4-3.4-4.5-3.2zm-98.4 0h-3.9v2.9h3.9c1.2 0 1.8-.5 1.8-1.4.1-.9-.5-1.5-1.8-1.5zm.7 7.7h-4.6v3h4.6c1.2 0 1.8-.5 1.8-1.5s-.6-1.5-1.8-1.5zm-1.9 38.3c-2.1-.2-4.1 1.2-4.6 3.3h9c-.4-2.1-2.3-3.5-4.4-3.3zm28.4-44.3c-2-1.8-5.1-1.8-7.1 0-1.9 2.1-1.9 5.3 0 7.4 2 1.9 5.1 1.9 7.1 0 1.9-2.1 1.9-5.2 0-7.4zm4.8 92c-2-1.8-5.1-1.8-7.1 0-1.8 2.1-1.8 5.3 0 7.4 2 1.8 5.1 1.8 7.1 0 1.9-2.1 1.9-5.2 0-7.4zm20.2-91.8c-1.9-1.8-4.9-1.8-6.8 0-1.9 2-1.9 5.1 0 7.1 1.9 1.8 4.9 1.8 6.8 0 1.9-2 1.9-5.1 0-7.1zm4.8 92c-1.9-1.9-5-1.9-6.9 0-1.9 2-1.9 5.1 0 7.1 1.9 1.9 5 1.9 6.9 0 1.9-2 1.9-5.1 0-7.1zm16.3-46c-1.9-1.8-4.9-1.8-6.8 0-1.8 2-1.8 5.1 0 7.1 1.9 1.8 4.9 1.8 6.8 0 1.8-2 1.8-5.1 0-7.1zm25.1-47.9c-2.1-.2-4 1.2-4.5 3.2h9c-.5-2-2.4-3.4-4.5-3.2zm22.9 47.9c-1.9-1.8-4.9-1.8-6.8 0-1.8 2-1.8 5.1 0 7.1 1.9 1.8 4.9 1.8 6.8 0 1.9-2 1.9-5.1 0-7.1zm96.1-47.9c-2.1-.2-4.1 1.2-4.5 3.2h9c-.5-2-2.4-3.4-4.5-3.2zm0 0c-2.1-.2-4.1 1.2-4.5 3.2h9c-.5-2-2.4-3.4-4.5-3.2zM257 827.7c-1.9-1.8-4.9-1.8-6.8 0-1.8 2-1.8 5.1 0 7.1 1.9 1.8 4.9 1.8 6.8 0 1.9-2 1.9-5.1 0-7.1zm-64.3 46c-1.9-1.9-5-1.9-6.9 0-1.9 2-1.9 5.1 0 7.1 1.9 1.9 5 1.9 6.9 0 1.9-2 1.9-5.1 0-7.1zm-25-.2c-2-1.8-5.1-1.8-7.1 0-1.8 2.1-1.8 5.3 0 7.4 2 1.8 5.1 1.8 7.1 0 1.9-2.1 1.9-5.2 0-7.4zm-31.3-86h-4.6v3h4.6c1.2 0 1.8-.5 1.8-1.5s-.6-1.5-1.8-1.5zm-.7-7.7h-3.9v2.9h3.9c1.2 0 1.8-.5 1.8-1.4.1-.9-.5-1.5-1.8-1.5zm-1.2 46c-2.1-.2-4.1 1.2-4.6 3.3h9c-.4-2.1-2.3-3.5-4.4-3.3zm28.4-44.3c-2-1.8-5.1-1.8-7.1 0-1.9 2.1-1.9 5.3 0 7.4 2 1.9 5.1 1.9 7.1 0 1.9-2.1 1.9-5.2 0-7.4zm25 .2c-1.9-1.8-4.9-1.8-6.8 0-1.9 2-1.9 5.1 0 7.1 1.9 1.8 4.9 1.8 6.8 0 1.9-2 1.9-5.1 0-7.1zm21.1 46c-1.9-1.8-4.9-1.8-6.8 0-1.8 2-1.8 5.1 0 7.1 1.9 1.8 4.9 1.8 6.8 0 1.8-2 1.8-5.1 0-7.1zm25.1-47.9c-2.1-.2-4 1.2-4.5 3.2h9c-.5-2-2.4-3.4-4.5-3.2zm-98.4 0h-3.9v2.9h3.9c1.2 0 1.8-.5 1.8-1.4.1-.9-.5-1.5-1.8-1.5zm.7 7.7h-4.6v3h4.6c1.2 0 1.8-.5 1.8-1.5s-.6-1.5-1.8-1.5zm-1.9 38.3c-2.1-.2-4.1 1.2-4.6 3.3h9c-.4-2.1-2.3-3.5-4.4-3.3zm28.4-44.3c-2-1.8-5.1-1.8-7.1 0-1.9 2.1-1.9 5.3 0 7.4 2 1.9 5.1 1.9 7.1 0 1.9-2.1 1.9-5.2 0-7.4zm4.8 92c-2-1.8-5.1-1.8-7.1 0-1.8 2.1-1.8 5.3 0 7.4 2 1.8 5.1 1.8 7.1 0 1.9-2.1 1.9-5.2 0-7.4zm20.2-91.8c-1.9-1.8-4.9-1.8-6.8 0-1.9 2-1.9 5.1 0 7.1 1.9 1.8 4.9 1.8 6.8 0 1.9-2 1.9-5.1 0-7.1zm4.8 92c-1.9-1.9-5-1.9-6.9 0-1.9 2-1.9 5.1 0 7.1 1.9 1.9 5 1.9 6.9 0 1.9-2 1.9-5.1 0-7.1zm16.3-46c-1.9-1.8-4.9-1.8-6.8 0-1.8 2-1.8 5.1 0 7.1 1.9 1.8 4.9 1.8 6.8 0 1.8-2 1.8-5.1 0-7.1zm25.1-47.9c-2.1-.2-4 1.2-4.5 3.2h9c-.5-2-2.4-3.4-4.5-3.2zm22.9 47.9c-1.9-1.8-4.9-1.8-6.8 0-1.8 2-1.8 5.1 0 7.1 1.9 1.8 4.9 1.8 6.8 0 1.9-2 1.9-5.1 0-7.1zm1.8 44.1c-2.1-.2-4.1 1.2-4.5 3.3h9c-.5-2-2.4-3.4-4.5-3.3zm94.3-92c-2.1-.2-4.1 1.2-4.5 3.2h9c-.5-2-2.4-3.4-4.5-3.2zm0 0c-2.1-.2-4.1 1.2-4.5 3.2h9c-.5-2-2.4-3.4-4.5-3.2zm-94.3 92c-2.1-.2-4.1 1.2-4.5 3.3h9c-.5-2-2.4-3.4-4.5-3.3zm-1.8-44.1c-1.9-1.8-4.9-1.8-6.8 0-1.8 2-1.8 5.1 0 7.1 1.9 1.8 4.9 1.8 6.8 0 1.9-2 1.9-5.1 0-7.1zm-64.3 46c-1.9-1.9-5-1.9-6.9 0-1.9 2-1.9 5.1 0 7.1 1.9 1.9 5 1.9 6.9 0 1.9-2 1.9-5.1 0-7.1zm-25-.2c-2-1.8-5.1-1.8-7.1 0-1.8 2.1-1.8 5.3 0 7.4 2 1.8 5.1 1.8 7.1 0 1.9-2.1 1.9-5.2 0-7.4zm-31.3-86h-4.6v3h4.6c1.2 0 1.8-.5 1.8-1.5s-.6-1.5-1.8-1.5zm-.7-7.7h-3.9v2.9h3.9c1.2 0 1.8-.5 1.8-1.4.1-.9-.5-1.5-1.8-1.5zm-1.2 46c-2.1-.2-4.1 1.2-4.6 3.3h9c-.4-2.1-2.3-3.5-4.4-3.3zm28.4-44.3c-2-1.8-5.1-1.8-7.1 0-1.9 2.1-1.9 5.3 0 7.4 2 1.9 5.1 1.9 7.1 0 1.9-2.1 1.9-5.2 0-7.4zm25 .2c-1.9-1.8-4.9-1.8-6.8 0-1.9 2-1.9 5.1 0 7.1 1.9 1.8 4.9 1.8 6.8 0 1.9-2 1.9-5.1 0-7.1zm21.1 46c-1.9-1.8-4.9-1.8-6.8 0-1.8 2-1.8 5.1 0 7.1 1.9 1.8 4.9 1.8 6.8 0 1.8-2 1.8-5.1 0-7.1zm25.1-47.9c-2.1-.2-4 1.2-4.5 3.2h9c-.5-2-2.4-3.4-4.5-3.2zm-98.4 0h-3.9v2.9h3.9c1.2 0 1.8-.5 1.8-1.4.1-.9-.5-1.5-1.8-1.5zm.7 7.7h-4.6v3h4.6c1.2 0 1.8-.5 1.8-1.5s-.6-1.5-1.8-1.5zm-1.9 38.3c-2.1-.2-4.1 1.2-4.6 3.3h9c-.4-2.1-2.3-3.5-4.4-3.3zm28.4-44.3c-2-1.8-5.1-1.8-7.1 0-1.9 2.1-1.9 5.3 0 7.4 2 1.9 5.1 1.9 7.1 0 1.9-2.1 1.9-5.2 0-7.4zm4.8 92c-2-1.8-5.1-1.8-7.1 0-1.8 2.1-1.8 5.3 0 7.4 2 1.8 5.1 1.8 7.1 0 1.9-2.1 1.9-5.2 0-7.4zm20.2-91.8c-1.9-1.8-4.9-1.8-6.8 0-1.9 2-1.9 5.1 0 7.1 1.9 1.8 4.9 1.8 6.8 0 1.9-2 1.9-5.1 0-7.1zm4.8 92c-1.9-1.9-5-1.9-6.9 0-1.9 2-1.9 5.1 0 7.1 1.9 1.9 5 1.9 6.9 0 1.9-2 1.9-5.1 0-7.1zm16.3-46c-1.9-1.8-4.9-1.8-6.8 0-1.8 2-1.8 5.1 0 7.1 1.9 1.8 4.9 1.8 6.8 0 1.8-2 1.8-5.1 0-7.1zm25.1-47.9c-2.1-.2-4 1.2-4.5 3.2h9c-.5-2-2.4-3.4-4.5-3.2zm22.9 47.9c-1.9-1.8-4.9-1.8-6.8 0-1.8 2-1.8 5.1 0 7.1 1.9 1.8 4.9 1.8 6.8 0 1.9-2 1.9-5.1 0-7.1zm1.8 44.1c-2.1-.2-4.1 1.2-4.5 3.3h9c-.5-2-2.4-3.4-4.5-3.3zm48.9 7.3c-.4-.4-.9-.6-1.5-.5h-3.6v3.8h3.6c.5 0 1.1-.2 1.5-.5.4-.3.6-.9.6-1.4 0-.6-.2-1-.6-1.4zm45.4-99.3c-2.1-.2-4.1 1.2-4.5 3.2h9c-.5-2-2.4-3.4-4.5-3.2zm0 0c-2.1-.2-4.1 1.2-4.5 3.2h9c-.5-2-2.4-3.4-4.5-3.2zm-45.4 99.3c-.4-.4-.9-.6-1.5-.5h-3.6v3.8h3.6c.5 0 1.1-.2 1.5-.5.4-.3.6-.9.6-1.4 0-.6-.2-1-.6-1.4zm-48.9-7.3c-2.1-.2-4.1 1.2-4.5 3.3h9c-.5-2-2.4-3.4-4.5-3.3zm-1.8-44.1c-1.9-1.8-4.9-1.8-6.8 0-1.8 2-1.8 5.1 0 7.1 1.9 1.8 4.9 1.8 6.8 0 1.9-2 1.9-5.1 0-7.1zm-64.3 46c-1.9-1.9-5-1.9-6.9 0-1.9 2-1.9 5.1 0 7.1 1.9 1.9 5 1.9 6.9 0 1.9-2 1.9-5.1 0-7.1zm-25-.2c-2-1.8-5.1-1.8-7.1 0-1.8 2.1-1.8 5.3 0 7.4 2 1.8 5.1 1.8 7.1 0 1.9-2.1 1.9-5.2 0-7.4zm-31.3-86h-4.6v3h4.6c1.2 0 1.8-.5 1.8-1.5s-.6-1.5-1.8-1.5zm-.7-7.7h-3.9v2.9h3.9c1.2 0 1.8-.5 1.8-1.4.1-.9-.5-1.5-1.8-1.5zm-1.2 46c-2.1-.2-4.1 1.2-4.6 3.3h9c-.4-2.1-2.3-3.5-4.4-3.3zm28.4-44.3c-2-1.8-5.1-1.8-7.1 0-1.9 2.1-1.9 5.3 0 7.4 2 1.9 5.1 1.9 7.1 0 1.9-2.1 1.9-5.2 0-7.4zm25 .2c-1.9-1.8-4.9-1.8-6.8 0-1.9 2-1.9 5.1 0 7.1 1.9 1.8 4.9 1.8 6.8 0 1.9-2 1.9-5.1 0-7.1zm21.1 46c-1.9-1.8-4.9-1.8-6.8 0-1.8 2-1.8 5.1 0 7.1 1.9 1.8 4.9 1.8 6.8 0 1.8-2 1.8-5.1 0-7.1zm25.1-47.9c-2.1-.2-4 1.2-4.5 3.2h9c-.5-2-2.4-3.4-4.5-3.2zm-98.4 0h-3.9v2.9h3.9c1.2 0 1.8-.5 1.8-1.4.1-.9-.5-1.5-1.8-1.5zm.7 7.7h-4.6v3h4.6c1.2 0 1.8-.5 1.8-1.5s-.6-1.5-1.8-1.5zm-1.9 38.3c-2.1-.2-4.1 1.2-4.6 3.3h9c-.4-2.1-2.3-3.5-4.4-3.3zm28.4-44.3c-2-1.8-5.1-1.8-7.1 0-1.9 2.1-1.9 5.3 0 7.4 2 1.9 5.1 1.9 7.1 0 1.9-2.1 1.9-5.2 0-7.4zm4.8 92c-2-1.8-5.1-1.8-7.1 0-1.8 2.1-1.8 5.3 0 7.4 2 1.8 5.1 1.8 7.1 0 1.9-2.1 1.9-5.2 0-7.4zm20.2-91.8c-1.9-1.8-4.9-1.8-6.8 0-1.9 2-1.9 5.1 0 7.1 1.9 1.8 4.9 1.8 6.8 0 1.9-2 1.9-5.1 0-7.1zm4.8 92c-1.9-1.9-5-1.9-6.9 0-1.9 2-1.9 5.1 0 7.1 1.9 1.9 5 1.9 6.9 0 1.9-2 1.9-5.1 0-7.1zm16.3-46c-1.9-1.8-4.9-1.8-6.8 0-1.8 2-1.8 5.1 0 7.1 1.9 1.8 4.9 1.8 6.8 0 1.8-2 1.8-5.1 0-7.1zm25.1-47.9c-2.1-.2-4 1.2-4.5 3.2h9c-.5-2-2.4-3.4-4.5-3.2zm22.9 47.9c-1.9-1.8-4.9-1.8-6.8 0-1.8 2-1.8 5.1 0 7.1 1.9 1.8 4.9 1.8 6.8 0 1.9-2 1.9-5.1 0-7.1zm1.8 44.1c-2.1-.2-4.1 1.2-4.5 3.3h9c-.5-2-2.4-3.4-4.5-3.3zm48.9 7.3c-.4-.4-.9-.6-1.5-.5h-3.6v3.8h3.6c.5 0 1.1-.2 1.5-.5.4-.3.6-.9.6-1.4 0-.6-.2-1-.6-1.4zm45.4-99.3c-2.1-.2-4.1 1.2-4.5 3.2h9c-.5-2-2.4-3.4-4.5-3.2zm17.8 92.1H367v2.9h3.9c1.2 0 1.8-.5 1.8-1.4.1-1-.5-1.5-1.8-1.5zm.7 7.6H367v3h4.6c1.2 0 1.8-.5 1.8-1.5 0-1.1-.6-1.5-1.8-1.5zm-18.5-99.7c-2.1-.2-4.1 1.2-4.5 3.2h9c-.5-2-2.4-3.4-4.5-3.2zm18.5 99.7H367v3h4.6c1.2 0 1.8-.5 1.8-1.5 0-1.1-.6-1.5-1.8-1.5zm1.2-6.2c0-.9-.6-1.5-1.8-1.5h-4v2.9h3.9c1.3.1 1.9-.4 1.9-1.4zm-65.1 5.8c-.4-.4-.9-.6-1.5-.5h-3.6v3.8h3.6c.5 0 1.1-.2 1.5-.5.4-.3.6-.9.6-1.4 0-.6-.2-1-.6-1.4zm-48.9-7.3c-2.1-.2-4.1 1.2-4.5 3.3h9c-.5-2-2.4-3.4-4.5-3.3zm-1.8-44.1c-1.9-1.8-4.9-1.8-6.8 0-1.8 2-1.8 5.1 0 7.1 1.9 1.8 4.9 1.8 6.8 0 1.9-2 1.9-5.1 0-7.1zm-64.3 46c-1.9-1.9-5-1.9-6.9 0-1.9 2-1.9 5.1 0 7.1 1.9 1.9 5 1.9 6.9 0 1.9-2 1.9-5.1 0-7.1zm-25-.2c-2-1.8-5.1-1.8-7.1 0-1.8 2.1-1.8 5.3 0 7.4 2 1.8 5.1 1.8 7.1 0 1.9-2.1 1.9-5.2 0-7.4zm-31.3-86h-4.6v3h4.6c1.2 0 1.8-.5 1.8-1.5s-.6-1.5-1.8-1.5zm1.2-6.2c0-.9-.6-1.5-1.8-1.5h-3.9v2.9h3.9c1.2 0 1.8-.5 1.8-1.4zm-3.1 44.5c-2.1-.2-4.1 1.2-4.6 3.3h9c-.4-2.1-2.3-3.5-4.4-3.3zm28.4-44.3c-2-1.8-5.1-1.8-7.1 0-1.9 2.1-1.9 5.3 0 7.4 2 1.9 5.1 1.9 7.1 0 1.9-2.1 1.9-5.2 0-7.4zm25 .2c-1.9-1.8-4.9-1.8-6.8 0-1.9 2-1.9 5.1 0 7.1 1.9 1.8 4.9 1.8 6.8 0 1.9-2 1.9-5.1 0-7.1zm21.1 46c-1.9-1.8-4.9-1.8-6.8 0-1.8 2-1.8 5.1 0 7.1 1.9 1.8 4.9 1.8 6.8 0 1.8-2 1.8-5.1 0-7.1zm25.1-47.9c-2.1-.2-4 1.2-4.5 3.2h9c-.5-2-2.4-3.4-4.5-3.2zM456 386.9l108.8-108.7v-98.7H73.1v745.8H456l108.8-108.8V718H286.9v-61.9h136.5l108.7-108.7v-98.7H286.9v-61.9H456zm-187.4 434l14.6-.1v6h-8.3v14.9h-6.3v-20.8zm-16.4-54h12.5v5.4h-12.5v-5.4zm-3.5 7.9h6.1v10.4l8.9-10.4h4.6v20.8h-6.1v-10.4l-9 10.4h-4.5v-20.8zm-22.7 2.7c2.1-2.2 5.1-3.4 8.1-3.3 2.9-.1 5.6 1.1 7.6 3.2s3.1 5 3 7.9c0 .8-.1 1.7-.2 2.5h-14.8c.8 2 2.9 3.2 5 2.9 1.5.1 3-.5 4-1.6l5 2.9c-2.1 2.9-5.5 4.5-9.1 4.3-3.1.2-6.1-1-8.4-3.1-4.4-4.3-4.5-11.3-.2-15.7zm-26.5-2.7h19.6v20.8h-6.2v-15h-7.1v15h-6.3v-20.8zm5.8 45.5h.2c2.9-.1 5.8 1.1 7.8 3.2 4.2 4.3 4.2 11.3 0 15.6v.1c-4.3 4.3-11.3 4.3-15.6 0-2.1-2.1-3.3-4.9-3.2-7.9 0-6.1 4.8-11 10.8-11zm-28.7-42.8c2.1-2.1 5-3.3 8-3.3 2.9 0 5.8 1.1 7.9 3.2 4.2 4.3 4.2 11.3 0 15.6h-.1c-4.4 4.2-11.3 4.2-15.7 0-4.4-4.2-4.4-11.2-.1-15.5zm-28.4-2.7h6.3v2c1.6-1.7 3.8-2.7 6.2-2.6 2.7 0 5.3 1.2 7.1 3.2 3.9 4.5 3.9 11.1 0 15.6-1.8 2-4.4 3.2-7.1 3.2-2.3.1-4.6-.8-6.2-2.5V804h-6.2v-29.2zm-1.8 46h7.1l3.7 5.2 3.7-5.2h7.1l-7.2 10.2 7.4 10.6h-7.1l-3.9-5.6-3.9 5.6h-7.1l7.5-10.6-7.3-10.2zm-11.3 15.9c1.5.1 3-.5 4-1.6l5 2.9c-2.1 2.9-5.5 4.5-9.1 4.3-3.1.1-6.2-1-8.4-3.1-4.4-4.2-4.4-11.2-.2-15.6 2.1-2.2 5.1-3.4 8.2-3.3 2.9-.1 5.6 1.1 7.6 3.2s3.1 4.9 3 7.9c0 .8-.1 1.7-.2 2.5h-14.8c.7 1.9 2.8 3.1 4.9 2.8zm-9.1-61.8h10.4c1.9-.1 3.7.5 5.2 1.7 1.2 1.1 1.9 2.7 1.8 4.3.1 1.6-.6 3.2-1.9 4.1 1.8.9 2.9 2.7 2.8 4.7.1 1.7-.6 3.2-1.9 4.3-1.5 1.2-3.3 1.7-5.2 1.6H126v-20.7zm-22.6-8.4h18.1v6.4H110v4.9h10.4v6.3H110v5.1h11.7v6.4h-18.3v-29.1zm-1.2 46h21.7v6.4h-7.5v22.8h-6.7v-22.8h-7.5v-6.4zm22.4 74c-2.3 1.2-4.8 1.8-7.3 1.8-4.1.1-8-1.5-10.9-4.4-6-5.9-6.1-15.5-.2-21.5 2.9-3 6.9-4.6 11-4.5 2.5 0 5 .6 7.3 1.7 2.1 1.2 3.9 2.9 5.2 4.9l-5.7 3.3c-.6-1.1-1.6-2-2.8-2.6-1.2-.6-2.6-1-4-.9-2.3-.1-4.6.8-6.2 2.4-3.1 3.6-3.1 9 0 12.6 1.6 1.7 3.9 2.5 6.2 2.5 1.4 0 2.8-.3 4-1 1.2-.6 2.1-1.5 2.7-2.6l5.8 3.3c-1.1 2.2-2.9 3.9-5.1 5zm25.3-13.6h-6.2v14.9h-6.3v-14.9h-6.3v-6h18.8v6zm22.5 12.1c-1.8 2.1-4.4 3.2-7.1 3.2-2.3.1-4.6-.8-6.2-2.5V896h-6.3v-29.1h6.3v2c1.6-1.8 3.8-2.7 6.2-2.6 2.7 0 5.3 1.1 7.1 3.2 3.9 4.4 3.9 11 0 15.5zm4.8-43.4H171v-20.8h6.3v7.5h7.1v-7.5h6.2v20.8h-6.2v-7.5h-7.1v7.5zm19.9 43.5c-4.3 4.4-11.4 4.4-15.8.1-4.4-4.3-4.4-11.4-.1-15.8 4.3-4.4 11.4-4.4 15.8-.1 2.1 2.1 3.3 5 3.3 7.9 0 3-1.1 5.9-3.2 7.9zm26.7 2.6h-6.1v-10.4l-8.9 10.4h-4.6v-20.8h6.1v10.4l8.9-10.4h4.6v20.8zm-5.2-46v-5.8c.8.3 1.6.2 2.2-.4.6-.8.9-1.8.8-2.8v-11.8h17v20.8h-6.3v-14.9h-4.5v6.2c.2 2.5-.6 5.1-2.4 6.9-1.8 1.6-4.3 2.3-6.8 1.8zm27 31.2h-6.2v14.9h-6.3v-14.9h-6.3v-6h18.8v6zm0-49.4c4.3-4.4 11.4-4.4 15.8-.1 2.1 2.1 3.3 4.9 3.3 7.9.1 2.9-1.1 5.8-3.2 7.8-4.3 4.4-11.4 4.4-15.8.1-4.4-4.3-4.4-11.4-.1-15.7zm23.6 56.2l-14.8.1c.8 2 2.9 3.2 5 2.9 1.5.1 3-.5 4-1.6l5 2.9c-2.1 2.9-5.5 4.5-9.1 4.3-3.1.2-6.1-1-8.4-3.1-4.4-4.2-4.5-11.2-.3-15.6 2.2-2.2 5.2-3.5 8.3-3.4 2.9-.1 5.6 1.1 7.6 3.2s3.1 5 3 7.9c-.1.8-.1 1.6-.3 2.4zm22.2 8h-6.3v-14.9h-4.5v6.2c.2 2.5-.6 5-2.4 6.9-1.9 1.6-4.5 2.2-6.9 1.7v-5.9c.8.3 1.6.1 2.2-.4.6-.8.9-1.8.8-2.8v-11.8l17.1.1v20.9zm9.8-66.9h4.6v20.8h-6.1v-10.4l-8.9 10.4h-4.6v-20.8h6.1v10.4l8.9-10.4zm11 64.9a8.73 8.73 0 0 1-6 2h-9.8V867h6.3v6.2h3.5c2.2-.1 4.3.6 6 2 2.9 2.9 2.9 7.6 0 10.5zm12.3-5c.9.9 2.1 1.4 3.4 1.4 1.7.2 3.3-.8 4-2.3l5.5 3.1c-.9 1.6-2.3 3-3.9 3.9-1.7 1-3.6 1.5-5.5 1.5-6.1 0-11-4.9-11-11s4.9-11 11-11c1.9 0 3.9.5 5.5 1.5 1.6.9 3 2.3 3.9 3.9l-5.5 3.2c-.7-1.5-2.3-2.5-4-2.3-1.3 0-2.5.4-3.4 1.4-1.8 1.8-1.8 4.8 0 6.7zm60.6-11.2c1.8-2 4.3-3.2 7-3.2 2.4-.1 4.6.8 6.2 2.6V867h6.3v20.8h-6.3v-2c-1.6 1.7-3.9 2.7-6.2 2.5-2.7 0-5.3-1.1-7-3.2-3.9-4.5-3.9-11.2 0-15.6zm-8.3-.8c1.2 1.1 1.9 2.7 1.8 4.3.1 1.6-.7 3.1-1.9 4.1 1.8.9 2.9 2.7 2.8 4.7.1 1.7-.6 3.2-1.9 4.3-1.5 1.2-3.3 1.8-5.2 1.7h-11.3V867h10.4c2-.1 3.8.5 5.3 1.7zM345 777.5c2.1-2.2 5.1-3.4 8.2-3.3 2.9-.1 5.6 1.1 7.6 3.2s3.1 5 3 7.9c0 .8-.1 1.7-.2 2.5h-14.8c.8 2 2.9 3.2 5 2.9 1.5.1 3-.5 4-1.6l5 2.9c-2.1 2.9-5.5 4.5-9.1 4.3-3.1.2-6.1-1-8.4-3.1-4.4-4.3-4.5-11.3-.3-15.7zm-5.5 89.4h18.7v6H352v14.9h-6.2v-14.9h-6.3v-6zm-20.9-92.1h6.1v10.4l8.9-10.4h4.6v20.8h-6.1v-10.4l-8.9 10.4h-4.6v-20.8zm7.2 46h4.6v20.8h-6.1v-10.4l-8.9 10.4h-4.6v-20.8h6.1v10.4l8.9-10.4zm-30-45.9h6.3v9.1l6.2-9.1h7.3l-7.6 10.4 7.8 10.4h-7.1l-6.7-9.2v9.2h-6.3v-20.8zm-7.1.8c1.6.9 3 2.3 3.9 3.9l-5.5 3.2c-.7-1.5-2.3-2.5-4.1-2.3-1.3 0-2.5.5-3.4 1.4-1.8 2-1.8 5 0 6.9.9.9 2.1 1.4 3.4 1.4 1.7.2 3.3-.8 4.1-2.3l5.5 3.1c-.9 1.6-2.3 3-3.9 3.9-1.7 1-3.6 1.5-5.5 1.5-6.1 0-11-4.9-11-11s4.9-11 11-11c1.9-.2 3.8.3 5.5 1.3zM396.9 881c1.8-2.1 1.8-5.3 0-7.4-2-1.8-5.1-1.8-7.2 0-1.8 2.1-1.8 5.3 0 7.4 2.1 1.9 5.2 1.9 7.2 0zm-23.5 0c0-1-.6-1.5-1.8-1.5H367v3h4.6c1.2 0 1.8-.5 1.8-1.5zm-.6-7.7c0-.9-.6-1.5-1.8-1.5h-4v2.9h3.9c1.3.1 1.9-.4 1.9-1.4zm-19.7-93.5c-2.1-.2-4.1 1.2-4.5 3.2h9c-.5-2-2.4-3.4-4.5-3.2zm-46.9 98.8h-3.6v3.8h3.6c.5 0 1.1-.2 1.5-.5.4-.3.6-.9.6-1.4 0-.5-.2-1-.6-1.4-.4-.4-1-.5-1.5-.5zm-47.4-6.8c-2.1-.2-4.1 1.2-4.5 3.3h9c-.5-2-2.4-3.4-4.5-3.3zm-1.8-37c1.9-2 1.9-5.1 0-7.1-1.9-1.8-4.9-1.8-6.8 0-1.8 2-1.8 5.1 0 7.1 1.9 1.9 4.9 1.9 6.8 0zm-22.9-55c-2.1-.2-4 1.2-4.5 3.2h9c-.5-2-2.4-3.4-4.5-3.2zm-25.1 55c1.9-2 1.9-5.1 0-7.1-1.9-1.8-4.9-1.8-6.8 0-1.8 2-1.8 5.1 0 7.1 1.8 1.9 4.9 1.9 6.8 0zm-23.2 38.9c-1.9 2-1.9 5.1 0 7.1 1.9 1.9 5 1.9 6.9 0 1.9-2 1.9-5.1 0-7.1-1.9-1.8-5-1.8-6.9 0zm2.1-84.9c1.8-2 1.8-5.1 0-7.1-1.9-1.8-4.9-1.8-6.8 0-1.9 2-1.9 5.1 0 7.1 1.9 1.8 4.9 1.8 6.8 0zm-27.4 84.7c-1.8 2.1-1.8 5.3 0 7.4 2 1.8 5.1 1.8 7.1 0 1.9-2.1 1.9-5.3 0-7.4-2-1.8-5-1.8-7.1 0zm2.4-84.6c1.8-2.1 1.8-5.3 0-7.4-2-1.8-5.1-1.8-7.1 0-1.9 2.1-1.9 5.3 0 7.4 2 1.9 5.1 1.9 7.1 0zm-28.4 36.9c-2.1-.2-4.1 1.2-4.6 3.3h9c-.4-2.1-2.3-3.5-4.4-3.3zm3.7-36.9c0-1-.6-1.5-1.8-1.5h-4.6v3h4.6c1.2.1 1.8-.4 1.8-1.5zm-.6-7.6c0-.9-.6-1.5-1.8-1.5h-3.9v2.9h3.9c1.2 0 1.8-.5 1.8-1.4zm96.5-1.5c-2.1-.2-4 1.2-4.5 3.2h9c-.5-2-2.4-3.4-4.5-3.2zM209 827.7c-1.9-1.8-4.9-1.8-6.8 0-1.8 2-1.8 5.1 0 7.1 1.9 1.8 4.9 1.8 6.8 0 1.8-2 1.8-5.1 0-7.1zm-21.1-46c-1.9-1.8-4.9-1.8-6.8 0-1.9 2-1.9 5.1 0 7.1 1.9 1.8 4.9 1.8 6.8 0 1.9-2 1.9-5.1 0-7.1zm-25-.2c-2-1.8-5.1-1.8-7.1 0-1.9 2.1-1.9 5.3 0 7.4 2 1.9 5.1 1.9 7.1 0 1.9-2.1 1.9-5.2 0-7.4zm-28.4 44.3c-2.1-.2-4.1 1.2-4.6 3.3h9c-.4-2.1-2.3-3.5-4.4-3.3zm1.2-46h-3.9v2.9h3.9c1.2 0 1.8-.5 1.8-1.4.1-.9-.5-1.5-1.8-1.5zm.7 7.7h-4.6v3h4.6c1.2 0 1.8-.5 1.8-1.5s-.6-1.5-1.8-1.5zm31.3 86c-2-1.8-5.1-1.8-7.1 0-1.8 2.1-1.8 5.3 0 7.4 2 1.8 5.1 1.8 7.1 0 1.9-2.1 1.9-5.2 0-7.4zm25 .2c-1.9-1.9-5-1.9-6.9 0-1.9 2-1.9 5.1 0 7.1 1.9 1.9 5 1.9 6.9 0 1.9-2 1.9-5.1 0-7.1zm64.3-46c-1.9-1.8-4.9-1.8-6.8 0-1.8 2-1.8 5.1 0 7.1 1.9 1.8 4.9 1.8 6.8 0 1.9-2 1.9-5.1 0-7.1zm1.8 44.1c-2.1-.2-4.1 1.2-4.5 3.3h9c-.5-2-2.4-3.4-4.5-3.3zm48.9 7.3c-.4-.4-.9-.6-1.5-.5h-3.6v3.8h3.6c.5 0 1.1-.2 1.5-.5.4-.3.6-.9.6-1.4 0-.6-.2-1-.6-1.4zm45.4-99.3c-2.1-.2-4.1 1.2-4.5 3.2h9c-.5-2-2.4-3.4-4.5-3.2zm0 0c-2.1-.2-4.1 1.2-4.5 3.2h9c-.5-2-2.4-3.4-4.5-3.2zm-45.4 99.3c-.4-.4-.9-.6-1.5-.5h-3.6v3.8h3.6c.5 0 1.1-.2 1.5-.5.4-.3.6-.9.6-1.4 0-.6-.2-1-.6-1.4zm-48.9-7.3c-2.1-.2-4.1 1.2-4.5 3.3h9c-.5-2-2.4-3.4-4.5-3.3zm-1.8-44.1c-1.9-1.8-4.9-1.8-6.8 0-1.8 2-1.8 5.1 0 7.1 1.9 1.8 4.9 1.8 6.8 0 1.9-2 1.9-5.1 0-7.1zm-22.9-47.9c-2.1-.2-4 1.2-4.5 3.2h9c-.5-2-2.4-3.4-4.5-3.2zM209 827.7c-1.9-1.8-4.9-1.8-6.8 0-1.8 2-1.8 5.1 0 7.1 1.9 1.8 4.9 1.8 6.8 0 1.8-2 1.8-5.1 0-7.1zm-16.3 46c-1.9-1.9-5-1.9-6.9 0-1.9 2-1.9 5.1 0 7.1 1.9 1.9 5 1.9 6.9 0 1.9-2 1.9-5.1 0-7.1zm-4.8-92c-1.9-1.8-4.9-1.8-6.8 0-1.9 2-1.9 5.1 0 7.1 1.9 1.8 4.9 1.8 6.8 0 1.9-2 1.9-5.1 0-7.1zm-20.2 91.8c-2-1.8-5.1-1.8-7.1 0-1.8 2.1-1.8 5.3 0 7.4 2 1.8 5.1 1.8 7.1 0 1.9-2.1 1.9-5.2 0-7.4zm-4.8-92c-2-1.8-5.1-1.8-7.1 0-1.9 2.1-1.9 5.3 0 7.4 2 1.9 5.1 1.9 7.1 0 1.9-2.1 1.9-5.2 0-7.4zm-28.4 44.3c-2.1-.2-4.1 1.2-4.6 3.3h9c-.4-2.1-2.3-3.5-4.4-3.3zm1.9-38.3h-4.6v3h4.6c1.2 0 1.8-.5 1.8-1.5s-.6-1.5-1.8-1.5zm-.7-7.7h-3.9v2.9h3.9c1.2 0 1.8-.5 1.8-1.4.1-.9-.5-1.5-1.8-1.5zm98.4 0c-2.1-.2-4 1.2-4.5 3.2h9c-.5-2-2.4-3.4-4.5-3.2zM209 827.7c-1.9-1.8-4.9-1.8-6.8 0-1.8 2-1.8 5.1 0 7.1 1.9 1.8 4.9 1.8 6.8 0 1.8-2 1.8-5.1 0-7.1zm-21.1-46c-1.9-1.8-4.9-1.8-6.8 0-1.9 2-1.9 5.1 0 7.1 1.9 1.8 4.9 1.8 6.8 0 1.9-2 1.9-5.1 0-7.1zm-25-.2c-2-1.8-5.1-1.8-7.1 0-1.9 2.1-1.9 5.3 0 7.4 2 1.9 5.1 1.9 7.1 0 1.9-2.1 1.9-5.2 0-7.4zm-28.4 44.3c-2.1-.2-4.1 1.2-4.6 3.3h9c-.4-2.1-2.3-3.5-4.4-3.3zm1.2-46h-3.9v2.9h3.9c1.2 0 1.8-.5 1.8-1.4.1-.9-.5-1.5-1.8-1.5zm.7 7.7h-4.6v3h4.6c1.2 0 1.8-.5 1.8-1.5s-.6-1.5-1.8-1.5zm31.3 86c-2-1.8-5.1-1.8-7.1 0-1.8 2.1-1.8 5.3 0 7.4 2 1.8 5.1 1.8 7.1 0 1.9-2.1 1.9-5.2 0-7.4zm25 .2c-1.9-1.9-5-1.9-6.9 0-1.9 2-1.9 5.1 0 7.1 1.9 1.9 5 1.9 6.9 0 1.9-2 1.9-5.1 0-7.1zm64.3-46c-1.9-1.8-4.9-1.8-6.8 0-1.8 2-1.8 5.1 0 7.1 1.9 1.8 4.9 1.8 6.8 0 1.9-2 1.9-5.1 0-7.1zm1.8 44.1c-2.1-.2-4.1 1.2-4.5 3.3h9c-.5-2-2.4-3.4-4.5-3.3zm48.9 7.3c-.4-.4-.9-.6-1.5-.5h-3.6v3.8h3.6c.5 0 1.1-.2 1.5-.5.4-.3.6-.9.6-1.4 0-.6-.2-1-.6-1.4zm45.4-99.3c-2.1-.2-4.1 1.2-4.5 3.2h9c-.5-2-2.4-3.4-4.5-3.2zm0 0c-2.1-.2-4.1 1.2-4.5 3.2h9c-.5-2-2.4-3.4-4.5-3.2zm-45.4 99.3c-.4-.4-.9-.6-1.5-.5h-3.6v3.8h3.6c.5 0 1.1-.2 1.5-.5.4-.3.6-.9.6-1.4 0-.6-.2-1-.6-1.4zm-48.9-7.3c-2.1-.2-4.1 1.2-4.5 3.3h9c-.5-2-2.4-3.4-4.5-3.3zm-1.8-44.1c-1.9-1.8-4.9-1.8-6.8 0-1.8 2-1.8 5.1 0 7.1 1.9 1.8 4.9 1.8 6.8 0 1.9-2 1.9-5.1 0-7.1zm-22.9-47.9c-2.1-.2-4 1.2-4.5 3.2h9c-.5-2-2.4-3.4-4.5-3.2zM209 827.7c-1.9-1.8-4.9-1.8-6.8 0-1.8 2-1.8 5.1 0 7.1 1.9 1.8 4.9 1.8 6.8 0 1.8-2 1.8-5.1 0-7.1zm-16.3 46c-1.9-1.9-5-1.9-6.9 0-1.9 2-1.9 5.1 0 7.1 1.9 1.9 5 1.9 6.9 0 1.9-2 1.9-5.1 0-7.1zm-4.8-92c-1.9-1.8-4.9-1.8-6.8 0-1.9 2-1.9 5.1 0 7.1 1.9 1.8 4.9 1.8 6.8 0 1.9-2 1.9-5.1 0-7.1zm-20.2 91.8c-2-1.8-5.1-1.8-7.1 0-1.8 2.1-1.8 5.3 0 7.4 2 1.8 5.1 1.8 7.1 0 1.9-2.1 1.9-5.2 0-7.4zm-4.8-92c-2-1.8-5.1-1.8-7.1 0-1.9 2.1-1.9 5.3 0 7.4 2 1.9 5.1 1.9 7.1 0 1.9-2.1 1.9-5.2 0-7.4zm-28.4 44.3c-2.1-.2-4.1 1.2-4.6 3.3h9c-.4-2.1-2.3-3.5-4.4-3.3zm1.9-38.3h-4.6v3h4.6c1.2 0 1.8-.5 1.8-1.5s-.6-1.5-1.8-1.5zm-.7-7.7h-3.9v2.9h3.9c1.2 0 1.8-.5 1.8-1.4.1-.9-.5-1.5-1.8-1.5zm98.4 0c-2.1-.2-4 1.2-4.5 3.2h9c-.5-2-2.4-3.4-4.5-3.2zM209 827.7c-1.9-1.8-4.9-1.8-6.8 0-1.8 2-1.8 5.1 0 7.1 1.9 1.8 4.9 1.8 6.8 0 1.8-2 1.8-5.1 0-7.1zm-21.1-46c-1.9-1.8-4.9-1.8-6.8 0-1.9 2-1.9 5.1 0 7.1 1.9 1.8 4.9 1.8 6.8 0 1.9-2 1.9-5.1 0-7.1zm-25-.2c-2-1.8-5.1-1.8-7.1 0-1.9 2.1-1.9 5.3 0 7.4 2 1.9 5.1 1.9 7.1 0 1.9-2.1 1.9-5.2 0-7.4zm-28.4 44.3c-2.1-.2-4.1 1.2-4.6 3.3h9c-.4-2.1-2.3-3.5-4.4-3.3zm1.2-46h-3.9v2.9h3.9c1.2 0 1.8-.5 1.8-1.4.1-.9-.5-1.5-1.8-1.5zm.7 7.7h-4.6v3h4.6c1.2 0 1.8-.5 1.8-1.5s-.6-1.5-1.8-1.5zm31.3 86c-2-1.8-5.1-1.8-7.1 0-1.8 2.1-1.8 5.3 0 7.4 2 1.8 5.1 1.8 7.1 0 1.9-2.1 1.9-5.2 0-7.4zm25 .2c-1.9-1.9-5-1.9-6.9 0-1.9 2-1.9 5.1 0 7.1 1.9 1.9 5 1.9 6.9 0 1.9-2 1.9-5.1 0-7.1zm64.3-46c-1.9-1.8-4.9-1.8-6.8 0-1.8 2-1.8 5.1 0 7.1 1.9 1.8 4.9 1.8 6.8 0 1.9-2 1.9-5.1 0-7.1zm1.8 44.1c-2.1-.2-4.1 1.2-4.5 3.3h9c-.5-2-2.4-3.4-4.5-3.3zm94.3-92c-2.1-.2-4.1 1.2-4.5 3.2h9c-.5-2-2.4-3.4-4.5-3.2zm0 0c-2.1-.2-4.1 1.2-4.5 3.2h9c-.5-2-2.4-3.4-4.5-3.2zm-94.3 92c-2.1-.2-4.1 1.2-4.5 3.3h9c-.5-2-2.4-3.4-4.5-3.3zm-1.8-44.1c-1.9-1.8-4.9-1.8-6.8 0-1.8 2-1.8 5.1 0 7.1 1.9 1.8 4.9 1.8 6.8 0 1.9-2 1.9-5.1 0-7.1zm-22.9-47.9c-2.1-.2-4 1.2-4.5 3.2h9c-.5-2-2.4-3.4-4.5-3.2zM209 827.7c-1.9-1.8-4.9-1.8-6.8 0-1.8 2-1.8 5.1 0 7.1 1.9 1.8 4.9 1.8 6.8 0 1.8-2 1.8-5.1 0-7.1zm-16.3 46c-1.9-1.9-5-1.9-6.9 0-1.9 2-1.9 5.1 0 7.1 1.9 1.9 5 1.9 6.9 0 1.9-2 1.9-5.1 0-7.1zm-4.8-92c-1.9-1.8-4.9-1.8-6.8 0-1.9 2-1.9 5.1 0 7.1 1.9 1.8 4.9 1.8 6.8 0 1.9-2 1.9-5.1 0-7.1zm-20.2 91.8c-2-1.8-5.1-1.8-7.1 0-1.8 2.1-1.8 5.3 0 7.4 2 1.8 5.1 1.8 7.1 0 1.9-2.1 1.9-5.2 0-7.4zm-4.8-92c-2-1.8-5.1-1.8-7.1 0-1.9 2.1-1.9 5.3 0 7.4 2 1.9 5.1 1.9 7.1 0 1.9-2.1 1.9-5.2 0-7.4zm-28.4 44.3c-2.1-.2-4.1 1.2-4.6 3.3h9c-.4-2.1-2.3-3.5-4.4-3.3zm1.9-38.3h-4.6v3h4.6c1.2 0 1.8-.5 1.8-1.5s-.6-1.5-1.8-1.5zm-.7-7.7h-3.9v2.9h3.9c1.2 0 1.8-.5 1.8-1.4.1-.9-.5-1.5-1.8-1.5zm98.4 0c-2.1-.2-4 1.2-4.5 3.2h9c-.5-2-2.4-3.4-4.5-3.2zM209 827.7c-1.9-1.8-4.9-1.8-6.8 0-1.8 2-1.8 5.1 0 7.1 1.9 1.8 4.9 1.8 6.8 0 1.8-2 1.8-5.1 0-7.1zm-21.1-46c-1.9-1.8-4.9-1.8-6.8 0-1.9 2-1.9 5.1 0 7.1 1.9 1.8 4.9 1.8 6.8 0 1.9-2 1.9-5.1 0-7.1zm-25-.2c-2-1.8-5.1-1.8-7.1 0-1.9 2.1-1.9 5.3 0 7.4 2 1.9 5.1 1.9 7.1 0 1.9-2.1 1.9-5.2 0-7.4zm-28.4 44.3c-2.1-.2-4.1 1.2-4.6 3.3h9c-.4-2.1-2.3-3.5-4.4-3.3zm1.2-46h-3.9v2.9h3.9c1.2 0 1.8-.5 1.8-1.4.1-.9-.5-1.5-1.8-1.5zm.7 7.7h-4.6v3h4.6c1.2 0 1.8-.5 1.8-1.5s-.6-1.5-1.8-1.5zm31.3 86c-2-1.8-5.1-1.8-7.1 0-1.8 2.1-1.8 5.3 0 7.4 2 1.8 5.1 1.8 7.1 0 1.9-2.1 1.9-5.2 0-7.4zm25 .2c-1.9-1.9-5-1.9-6.9 0-1.9 2-1.9 5.1 0 7.1 1.9 1.9 5 1.9 6.9 0 1.9-2 1.9-5.1 0-7.1zm64.3-46c-1.9-1.8-4.9-1.8-6.8 0-1.8 2-1.8 5.1 0 7.1 1.9 1.8 4.9 1.8 6.8 0 1.9-2 1.9-5.1 0-7.1zm96.1-47.9c-2.1-.2-4.1 1.2-4.5 3.2h9c-.5-2-2.4-3.4-4.5-3.2zm0 0c-2.1-.2-4.1 1.2-4.5 3.2h9c-.5-2-2.4-3.4-4.5-3.2zM257 827.7c-1.9-1.8-4.9-1.8-6.8 0-1.8 2-1.8 5.1 0 7.1 1.9 1.8 4.9 1.8 6.8 0 1.9-2 1.9-5.1 0-7.1zm-22.9-47.9c-2.1-.2-4 1.2-4.5 3.2h9c-.5-2-2.4-3.4-4.5-3.2zM209 827.7c-1.9-1.8-4.9-1.8-6.8 0-1.8 2-1.8 5.1 0 7.1 1.9 1.8 4.9 1.8 6.8 0 1.8-2 1.8-5.1 0-7.1zm-16.3 46c-1.9-1.9-5-1.9-6.9 0-1.9 2-1.9 5.1 0 7.1 1.9 1.9 5 1.9 6.9 0 1.9-2 1.9-5.1 0-7.1zm-4.8-92c-1.9-1.8-4.9-1.8-6.8 0-1.9 2-1.9 5.1 0 7.1 1.9 1.8 4.9 1.8 6.8 0 1.9-2 1.9-5.1 0-7.1zm-20.2 91.8c-2-1.8-5.1-1.8-7.1 0-1.8 2.1-1.8 5.3 0 7.4 2 1.8 5.1 1.8 7.1 0 1.9-2.1 1.9-5.2 0-7.4zm-4.8-92c-2-1.8-5.1-1.8-7.1 0-1.9 2.1-1.9 5.3 0 7.4 2 1.9 5.1 1.9 7.1 0 1.9-2.1 1.9-5.2 0-7.4zm-28.4 44.3c-2.1-.2-4.1 1.2-4.6 3.3h9c-.4-2.1-2.3-3.5-4.4-3.3zm1.9-38.3h-4.6v3h4.6c1.2 0 1.8-.5 1.8-1.5s-.6-1.5-1.8-1.5zm-.7-7.7h-3.9v2.9h3.9c1.2 0 1.8-.5 1.8-1.4.1-.9-.5-1.5-1.8-1.5zm98.4 0c-2.1-.2-4 1.2-4.5 3.2h9c-.5-2-2.4-3.4-4.5-3.2zM209 827.7c-1.9-1.8-4.9-1.8-6.8 0-1.8 2-1.8 5.1 0 7.1 1.9 1.8 4.9 1.8 6.8 0 1.8-2 1.8-5.1 0-7.1zm-21.1-46c-1.9-1.8-4.9-1.8-6.8 0-1.9 2-1.9 5.1 0 7.1 1.9 1.8 4.9 1.8 6.8 0 1.9-2 1.9-5.1 0-7.1zm-25-.2c-2-1.8-5.1-1.8-7.1 0-1.9 2.1-1.9 5.3 0 7.4 2 1.9 5.1 1.9 7.1 0 1.9-2.1 1.9-5.2 0-7.4zm-28.4 44.3c-2.1-.2-4.1 1.2-4.6 3.3h9c-.4-2.1-2.3-3.5-4.4-3.3zm1.2-46h-3.9v2.9h3.9c1.2 0 1.8-.5 1.8-1.4.1-.9-.5-1.5-1.8-1.5zm.7 7.7h-4.6v3h4.6c1.2 0 1.8-.5 1.8-1.5s-.6-1.5-1.8-1.5zm31.3 86c-2-1.8-5.1-1.8-7.1 0-1.8 2.1-1.8 5.3 0 7.4 2 1.8 5.1 1.8 7.1 0 1.9-2.1 1.9-5.2 0-7.4zm89.3-45.8c-1.9-1.8-4.9-1.8-6.8 0-1.8 2-1.8 5.1 0 7.1 1.9 1.8 4.9 1.8 6.8 0 1.9-2 1.9-5.1 0-7.1zm96.1-47.9c-2.1-.2-4.1 1.2-4.5 3.2h9c-.5-2-2.4-3.4-4.5-3.2zm0 0c-2.1-.2-4.1 1.2-4.5 3.2h9c-.5-2-2.4-3.4-4.5-3.2zM257 827.7c-1.9-1.8-4.9-1.8-6.8 0-1.8 2-1.8 5.1 0 7.1 1.9 1.8 4.9 1.8 6.8 0 1.9-2 1.9-5.1 0-7.1zm-22.9-47.9c-2.1-.2-4 1.2-4.5 3.2h9c-.5-2-2.4-3.4-4.5-3.2zM209 827.7c-1.9-1.8-4.9-1.8-6.8 0-1.8 2-1.8 5.1 0 7.1 1.9 1.8 4.9 1.8 6.8 0 1.8-2 1.8-5.1 0-7.1zm-21.1-46c-1.9-1.8-4.9-1.8-6.8 0-1.9 2-1.9 5.1 0 7.1 1.9 1.8 4.9 1.8 6.8 0 1.9-2 1.9-5.1 0-7.1zm-20.2 91.8c-2-1.8-5.1-1.8-7.1 0-1.8 2.1-1.8 5.3 0 7.4 2 1.8 5.1 1.8 7.1 0 1.9-2.1 1.9-5.2 0-7.4zm-4.8-92c-2-1.8-5.1-1.8-7.1 0-1.9 2.1-1.9 5.3 0 7.4 2 1.9 5.1 1.9 7.1 0 1.9-2.1 1.9-5.2 0-7.4zm-28.4 44.3c-2.1-.2-4.1 1.2-4.6 3.3h9c-.4-2.1-2.3-3.5-4.4-3.3zm1.9-38.3h-4.6v3h4.6c1.2 0 1.8-.5 1.8-1.5s-.6-1.5-1.8-1.5zm-.7-7.7h-3.9v2.9h3.9c1.2 0 1.8-.5 1.8-1.4.1-.9-.5-1.5-1.8-1.5zm98.4 0c-2.1-.2-4 1.2-4.5 3.2h9c-.5-2-2.4-3.4-4.5-3.2zM209 827.7c-1.9-1.8-4.9-1.8-6.8 0-1.8 2-1.8 5.1 0 7.1 1.9 1.8 4.9 1.8 6.8 0 1.8-2 1.8-5.1 0-7.1zm-21.1-46c-1.9-1.8-4.9-1.8-6.8 0-1.9 2-1.9 5.1 0 7.1 1.9 1.8 4.9 1.8 6.8 0 1.9-2 1.9-5.1 0-7.1zm-25-.2c-2-1.8-5.1-1.8-7.1 0-1.9 2.1-1.9 5.3 0 7.4 2 1.9 5.1 1.9 7.1 0 1.9-2.1 1.9-5.2 0-7.4zm-28.4 44.3c-2.1-.2-4.1 1.2-4.6 3.3h9c-.4-2.1-2.3-3.5-4.4-3.3zm1.2-46h-3.9v2.9h3.9c1.2 0 1.8-.5 1.8-1.4.1-.9-.5-1.5-1.8-1.5zm.7 7.7h-4.6v3h4.6c1.2 0 1.8-.5 1.8-1.5s-.6-1.5-1.8-1.5zM257 827.7c-1.9-1.8-4.9-1.8-6.8 0-1.8 2-1.8 5.1 0 7.1 1.9 1.8 4.9 1.8 6.8 0 1.9-2 1.9-5.1 0-7.1zm96.1-47.9c-2.1-.2-4.1 1.2-4.5 3.2h9c-.5-2-2.4-3.4-4.5-3.2zm0 0c-2.1-.2-4.1 1.2-4.5 3.2h9c-.5-2-2.4-3.4-4.5-3.2zM257 827.7c-1.9-1.8-4.9-1.8-6.8 0-1.8 2-1.8 5.1 0 7.1 1.9 1.8 4.9 1.8 6.8 0 1.9-2 1.9-5.1 0-7.1zm-22.9-47.9c-2.1-.2-4 1.2-4.5 3.2h9c-.5-2-2.4-3.4-4.5-3.2zM209 827.7c-1.9-1.8-4.9-1.8-6.8 0-1.8 2-1.8 5.1 0 7.1 1.9 1.8 4.9 1.8 6.8 0 1.8-2 1.8-5.1 0-7.1zm-21.1-46c-1.9-1.8-4.9-1.8-6.8 0-1.9 2-1.9 5.1 0 7.1 1.9 1.8 4.9 1.8 6.8 0 1.9-2 1.9-5.1 0-7.1zm-25-.2c-2-1.8-5.1-1.8-7.1 0-1.9 2.1-1.9 5.3 0 7.4 2 1.9 5.1 1.9 7.1 0 1.9-2.1 1.9-5.2 0-7.4zm-28.4 44.3c-2.1-.2-4.1 1.2-4.6 3.3h9c-.4-2.1-2.3-3.5-4.4-3.3zm1.9-38.3h-4.6v3h4.6c1.2 0 1.8-.5 1.8-1.5s-.6-1.5-1.8-1.5zm-.7-7.7h-3.9v2.9h3.9c1.2 0 1.8-.5 1.8-1.4.1-.9-.5-1.5-1.8-1.5zm98.4 0c-2.1-.2-4 1.2-4.5 3.2h9c-.5-2-2.4-3.4-4.5-3.2zM209 827.7c-1.9-1.8-4.9-1.8-6.8 0-1.8 2-1.8 5.1 0 7.1 1.9 1.8 4.9 1.8 6.8 0 1.8-2 1.8-5.1 0-7.1zm-21.1-46c-1.9-1.8-4.9-1.8-6.8 0-1.9 2-1.9 5.1 0 7.1 1.9 1.8 4.9 1.8 6.8 0 1.9-2 1.9-5.1 0-7.1zm-25-.2c-2-1.8-5.1-1.8-7.1 0-1.9 2.1-1.9 5.3 0 7.4 2 1.9 5.1 1.9 7.1 0 1.9-2.1 1.9-5.2 0-7.4zm-28.4 44.3c-2.1-.2-4.1 1.2-4.6 3.3h9c-.4-2.1-2.3-3.5-4.4-3.3zm1.2-46h-3.9v2.9h3.9c1.2 0 1.8-.5 1.8-1.4.1-.9-.5-1.5-1.8-1.5zm.7 7.7h-4.6v3h4.6c1.2 0 1.8-.5 1.8-1.5s-.6-1.5-1.8-1.5zM257 827.7c-1.9-1.8-4.9-1.8-6.8 0-1.8 2-1.8 5.1 0 7.1 1.9 1.8 4.9 1.8 6.8 0 1.9-2 1.9-5.1 0-7.1zm96.1-47.9c-2.1-.2-4.1 1.2-4.5 3.2h9c-.5-2-2.4-3.4-4.5-3.2zm0 0c-2.1-.2-4.1 1.2-4.5 3.2h9c-.5-2-2.4-3.4-4.5-3.2zM257 827.7c-1.9-1.8-4.9-1.8-6.8 0-1.8 2-1.8 5.1 0 7.1 1.9 1.8 4.9 1.8 6.8 0 1.9-2 1.9-5.1 0-7.1zm-22.9-47.9c-2.1-.2-4 1.2-4.5 3.2h9c-.5-2-2.4-3.4-4.5-3.2zM209 827.7c-1.9-1.8-4.9-1.8-6.8 0-1.8 2-1.8 5.1 0 7.1 1.9 1.8 4.9 1.8 6.8 0 1.8-2 1.8-5.1 0-7.1zm-21.1-46c-1.9-1.8-4.9-1.8-6.8 0-1.9 2-1.9 5.1 0 7.1 1.9 1.8 4.9 1.8 6.8 0 1.9-2 1.9-5.1 0-7.1zm-25-.2c-2-1.8-5.1-1.8-7.1 0-1.9 2.1-1.9 5.3 0 7.4 2 1.9 5.1 1.9 7.1 0 1.9-2.1 1.9-5.2 0-7.4zm-28.4 44.3c-2.1-.2-4.1 1.2-4.6 3.3h9c-.4-2.1-2.3-3.5-4.4-3.3zm1.9-38.3h-4.6v3h4.6c1.2 0 1.8-.5 1.8-1.5s-.6-1.5-1.8-1.5zm-.7-7.7h-3.9v2.9h3.9c1.2 0 1.8-.5 1.8-1.4.1-.9-.5-1.5-1.8-1.5zm98.4 0c-2.1-.2-4 1.2-4.5 3.2h9c-.5-2-2.4-3.4-4.5-3.2zM209 827.7c-1.9-1.8-4.9-1.8-6.8 0-1.8 2-1.8 5.1 0 7.1 1.9 1.8 4.9 1.8 6.8 0 1.8-2 1.8-5.1 0-7.1zm-21.1-46c-1.9-1.8-4.9-1.8-6.8 0-1.9 2-1.9 5.1 0 7.1 1.9 1.8 4.9 1.8 6.8 0 1.9-2 1.9-5.1 0-7.1zm-25-.2c-2-1.8-5.1-1.8-7.1 0-1.9 2.1-1.9 5.3 0 7.4 2 1.9 5.1 1.9 7.1 0 1.9-2.1 1.9-5.2 0-7.4zm-28.4 44.3c-2.1-.2-4.1 1.2-4.6 3.3h9c-.4-2.1-2.3-3.5-4.4-3.3zm1.2-46h-3.9v2.9h3.9c1.2 0 1.8-.5 1.8-1.4.1-.9-.5-1.5-1.8-1.5zm.7 7.7h-4.6v3h4.6c1.2 0 1.8-.5 1.8-1.5s-.6-1.5-1.8-1.5zM257 827.7c-1.9-1.8-4.9-1.8-6.8 0-1.8 2-1.8 5.1 0 7.1 1.9 1.8 4.9 1.8 6.8 0 1.9-2 1.9-5.1 0-7.1zm96.1-47.9c-2.1-.2-4.1 1.2-4.5 3.2h9c-.5-2-2.4-3.4-4.5-3.2zm0 0c-2.1-.2-4.1 1.2-4.5 3.2h9c-.5-2-2.4-3.4-4.5-3.2zM257 827.7c-1.9-1.8-4.9-1.8-6.8 0-1.8 2-1.8 5.1 0 7.1 1.9 1.8 4.9 1.8 6.8 0 1.9-2 1.9-5.1 0-7.1zm-22.9-47.9c-2.1-.2-4 1.2-4.5 3.2h9c-.5-2-2.4-3.4-4.5-3.2zM209 827.7c-1.9-1.8-4.9-1.8-6.8 0-1.8 2-1.8 5.1 0 7.1 1.9 1.8 4.9 1.8 6.8 0 1.8-2 1.8-5.1 0-7.1zm-21.1-46c-1.9-1.8-4.9-1.8-6.8 0-1.9 2-1.9 5.1 0 7.1 1.9 1.8 4.9 1.8 6.8 0 1.9-2 1.9-5.1 0-7.1zm-25-.2c-2-1.8-5.1-1.8-7.1 0-1.9 2.1-1.9 5.3 0 7.4 2 1.9 5.1 1.9 7.1 0 1.9-2.1 1.9-5.2 0-7.4zm-28.4 44.3c-2.1-.2-4.1 1.2-4.6 3.3h9c-.4-2.1-2.3-3.5-4.4-3.3zm1.9-38.3h-4.6v3h4.6c1.2 0 1.8-.5 1.8-1.5s-.6-1.5-1.8-1.5zm-.7-7.7h-3.9v2.9h3.9c1.2 0 1.8-.5 1.8-1.4.1-.9-.5-1.5-1.8-1.5zm98.4 0c-2.1-.2-4 1.2-4.5 3.2h9c-.5-2-2.4-3.4-4.5-3.2zM209 827.7c-1.9-1.8-4.9-1.8-6.8 0-1.8 2-1.8 5.1 0 7.1 1.9 1.8 4.9 1.8 6.8 0 1.8-2 1.8-5.1 0-7.1zm-21.1-46c-1.9-1.8-4.9-1.8-6.8 0-1.9 2-1.9 5.1 0 7.1 1.9 1.8 4.9 1.8 6.8 0 1.9-2 1.9-5.1 0-7.1zm-25-.2c-2-1.8-5.1-1.8-7.1 0-1.9 2.1-1.9 5.3 0 7.4 2 1.9 5.1 1.9 7.1 0 1.9-2.1 1.9-5.2 0-7.4zm-28.4 44.3c-2.1-.2-4.1 1.2-4.6 3.3h9c-.4-2.1-2.3-3.5-4.4-3.3zm1.2-46h-3.9v2.9h3.9c1.2 0 1.8-.5 1.8-1.4.1-.9-.5-1.5-1.8-1.5zm.7 7.7h-4.6v3h4.6c1.2 0 1.8-.5 1.8-1.5s-.6-1.5-1.8-1.5zm216.7-7.7c-2.1-.2-4.1 1.2-4.5 3.2h9c-.5-2-2.4-3.4-4.5-3.2zm0 0c-2.1-.2-4.1 1.2-4.5 3.2h9c-.5-2-2.4-3.4-4.5-3.2zm-119 0c-2.1-.2-4 1.2-4.5 3.2h9c-.5-2-2.4-3.4-4.5-3.2zM209 827.7c-1.9-1.8-4.9-1.8-6.8 0-1.8 2-1.8 5.1 0 7.1 1.9 1.8 4.9 1.8 6.8 0 1.8-2 1.8-5.1 0-7.1zm-21.1-46c-1.9-1.8-4.9-1.8-6.8 0-1.9 2-1.9 5.1 0 7.1 1.9 1.8 4.9 1.8 6.8 0 1.9-2 1.9-5.1 0-7.1zm-25-.2c-2-1.8-5.1-1.8-7.1 0-1.9 2.1-1.9 5.3 0 7.4 2 1.9 5.1 1.9 7.1 0 1.9-2.1 1.9-5.2 0-7.4zm-28.4 44.3c-2.1-.2-4.1 1.2-4.6 3.3h9c-.4-2.1-2.3-3.5-4.4-3.3zm1.9-38.3h-4.6v3h4.6c1.2 0 1.8-.5 1.8-1.5s-.6-1.5-1.8-1.5zm-.7-7.7h-3.9v2.9h3.9c1.2 0 1.8-.5 1.8-1.4.1-.9-.5-1.5-1.8-1.5zm98.4 0c-2.1-.2-4 1.2-4.5 3.2h9c-.5-2-2.4-3.4-4.5-3.2zm-46.2 1.9c-1.9-1.8-4.9-1.8-6.8 0-1.9 2-1.9 5.1 0 7.1 1.9 1.8 4.9 1.8 6.8 0 1.9-2 1.9-5.1 0-7.1zm-25-.2c-2-1.8-5.1-1.8-7.1 0-1.9 2.1-1.9 5.3 0 7.4 2 1.9 5.1 1.9 7.1 0 1.9-2.1 1.9-5.2 0-7.4zm-28.4 44.3c-2.1-.2-4.1 1.2-4.6 3.3h9c-.4-2.1-2.3-3.5-4.4-3.3zm1.2-46h-3.9v2.9h3.9c1.2 0 1.8-.5 1.8-1.4.1-.9-.5-1.5-1.8-1.5zm.7 7.7h-4.6v3h4.6c1.2 0 1.8-.5 1.8-1.5s-.6-1.5-1.8-1.5zm216.7-7.7c-2.1-.2-4.1 1.2-4.5 3.2h9c-.5-2-2.4-3.4-4.5-3.2zm0 0c-2.1-.2-4.1 1.2-4.5 3.2h9c-.5-2-2.4-3.4-4.5-3.2zm-119 0c-2.1-.2-4 1.2-4.5 3.2h9c-.5-2-2.4-3.4-4.5-3.2zm-46.2 1.9c-1.9-1.8-4.9-1.8-6.8 0-1.9 2-1.9 5.1 0 7.1 1.9 1.8 4.9 1.8 6.8 0 1.9-2 1.9-5.1 0-7.1zm-25-.2c-2-1.8-5.1-1.8-7.1 0-1.9 2.1-1.9 5.3 0 7.4 2 1.9 5.1 1.9 7.1 0 1.9-2.1 1.9-5.2 0-7.4zm-28.4 44.3c-2.1-.2-4.1 1.2-4.6 3.3h9c-.4-2.1-2.3-3.5-4.4-3.3zm1.9-38.3h-4.6v3h4.6c1.2 0 1.8-.5 1.8-1.5s-.6-1.5-1.8-1.5zm-.7-7.7h-3.9v2.9h3.9c1.2 0 1.8-.5 1.8-1.4.1-.9-.5-1.5-1.8-1.5zm98.4 0c-2.1-.2-4 1.2-4.5 3.2h9c-.5-2-2.4-3.4-4.5-3.2zm-46.2 1.9c-1.9-1.8-4.9-1.8-6.8 0-1.9 2-1.9 5.1 0 7.1 1.9 1.8 4.9 1.8 6.8 0 1.9-2 1.9-5.1 0-7.1zm-25-.2c-2-1.8-5.1-1.8-7.1 0-1.9 2.1-1.9 5.3 0 7.4 2 1.9 5.1 1.9 7.1 0 1.9-2.1 1.9-5.2 0-7.4zm-27.2-1.7h-3.9v2.9h3.9c1.2 0 1.8-.5 1.8-1.4.1-.9-.5-1.5-1.8-1.5zm.7 7.7h-4.6v3h4.6c1.2 0 1.8-.5 1.8-1.5s-.6-1.5-1.8-1.5zm216.7-7.7c-2.1-.2-4.1 1.2-4.5 3.2h9c-.5-2-2.4-3.4-4.5-3.2zm0 0c-2.1-.2-4.1 1.2-4.5 3.2h9c-.5-2-2.4-3.4-4.5-3.2zm-119 0c-2.1-.2-4 1.2-4.5 3.2h9c-.5-2-2.4-3.4-4.5-3.2zm-46.2 1.9c-1.9-1.8-4.9-1.8-6.8 0-1.9 2-1.9 5.1 0 7.1 1.9 1.8 4.9 1.8 6.8 0 1.9-2 1.9-5.1 0-7.1zm-25-.2c-2-1.8-5.1-1.8-7.1 0-1.9 2.1-1.9 5.3 0 7.4 2 1.9 5.1 1.9 7.1 0 1.9-2.1 1.9-5.2 0-7.4zm-26.5 6h-4.6v3h4.6c1.2 0 1.8-.5 1.8-1.5s-.6-1.5-1.8-1.5zm-.7-7.7h-3.9v2.9h3.9c1.2 0 1.8-.5 1.8-1.4.1-.9-.5-1.5-1.8-1.5zm98.4 0c-2.1-.2-4 1.2-4.5 3.2h9c-.5-2-2.4-3.4-4.5-3.2zm-46.2 1.9c-1.9-1.8-4.9-1.8-6.8 0-1.9 2-1.9 5.1 0 7.1 1.9 1.8 4.9 1.8 6.8 0 1.9-2 1.9-5.1 0-7.1zm-25-.2c-2-1.8-5.1-1.8-7.1 0-1.9 2.1-1.9 5.3 0 7.4 2 1.9 5.1 1.9 7.1 0 1.9-2.1 1.9-5.2 0-7.4zm-27.2-1.7h-3.9v2.9h3.9c1.2 0 1.8-.5 1.8-1.4.1-.9-.5-1.5-1.8-1.5zm.7 7.7h-4.6v3h4.6c1.2 0 1.8-.5 1.8-1.5s-.6-1.5-1.8-1.5zm97.7-7.7c-2.1-.2-4 1.2-4.5 3.2h9c-.5-2-2.4-3.4-4.5-3.2zm-46.2 1.9c-1.9-1.8-4.9-1.8-6.8 0-1.9 2-1.9 5.1 0 7.1 1.9 1.8 4.9 1.8 6.8 0 1.9-2 1.9-5.1 0-7.1zm-25-.2c-2-1.8-5.1-1.8-7.1 0-1.9 2.1-1.9 5.3 0 7.4 2 1.9 5.1 1.9 7.1 0 1.9-2.1 1.9-5.2 0-7.4zm-26.5 6h-4.6v3h4.6c1.2 0 1.8-.5 1.8-1.5s-.6-1.5-1.8-1.5zm-.7-7.7h-3.9v2.9h3.9c1.2 0 1.8-.5 1.8-1.4.1-.9-.5-1.5-1.8-1.5zm98.4 0c-2.1-.2-4 1.2-4.5 3.2h9c-.5-2-2.4-3.4-4.5-3.2zm-46.2 1.9c-1.9-1.8-4.9-1.8-6.8 0-1.9 2-1.9 5.1 0 7.1 1.9 1.8 4.9 1.8 6.8 0 1.9-2 1.9-5.1 0-7.1zm-25-.2c-2-1.8-5.1-1.8-7.1 0-1.9 2.1-1.9 5.3 0 7.4 2 1.9 5.1 1.9 7.1 0 1.9-2.1 1.9-5.2 0-7.4zm-27.2-1.7h-3.9v2.9h3.9c1.2 0 1.8-.5 1.8-1.4.1-.9-.5-1.5-1.8-1.5zm.7 7.7h-4.6v3h4.6c1.2 0 1.8-.5 1.8-1.5s-.6-1.5-1.8-1.5zm97.7-7.7c-2.1-.2-4 1.2-4.5 3.2h9c-.5-2-2.4-3.4-4.5-3.2zm-46.2 1.9c-1.9-1.8-4.9-1.8-6.8 0-1.9 2-1.9 5.1 0 7.1 1.9 1.8 4.9 1.8 6.8 0 1.9-2 1.9-5.1 0-7.1zm-25-.2c-2-1.8-5.1-1.8-7.1 0-1.9 2.1-1.9 5.3 0 7.4 2 1.9 5.1 1.9 7.1 0 1.9-2.1 1.9-5.2 0-7.4zm-26.5 6h-4.6v3h4.6c1.2 0 1.8-.5 1.8-1.5s-.6-1.5-1.8-1.5zm-.7-7.7h-3.9v2.9h3.9c1.2 0 1.8-.5 1.8-1.4.1-.9-.5-1.5-1.8-1.5zm98.4 0c-2.1-.2-4 1.2-4.5 3.2h9c-.5-2-2.4-3.4-4.5-3.2zm-46.2 1.9c-1.9-1.8-4.9-1.8-6.8 0-1.9 2-1.9 5.1 0 7.1 1.9 1.8 4.9 1.8 6.8 0 1.9-2 1.9-5.1 0-7.1zm-25-.2c-2-1.8-5.1-1.8-7.1 0-1.9 2.1-1.9 5.3 0 7.4 2 1.9 5.1 1.9 7.1 0 1.9-2.1 1.9-5.2 0-7.4zm-27.2-1.7h-3.9v2.9h3.9c1.2 0 1.8-.5 1.8-1.4.1-.9-.5-1.5-1.8-1.5zm.7 7.7h-4.6v3h4.6c1.2 0 1.8-.5 1.8-1.5s-.6-1.5-1.8-1.5zm97.7-7.7c-2.1-.2-4 1.2-4.5 3.2h9c-.5-2-2.4-3.4-4.5-3.2zm-46.2 1.9c-1.9-1.8-4.9-1.8-6.8 0-1.9 2-1.9 5.1 0 7.1 1.9 1.8 4.9 1.8 6.8 0 1.9-2 1.9-5.1 0-7.1zm-25-.2c-2-1.8-5.1-1.8-7.1 0-1.9 2.1-1.9 5.3 0 7.4 2 1.9 5.1 1.9 7.1 0 1.9-2.1 1.9-5.2 0-7.4zm-26.5 6h-4.6v3h4.6c1.2 0 1.8-.5 1.8-1.5s-.6-1.5-1.8-1.5zm-.7-7.7h-3.9v2.9h3.9c1.2 0 1.8-.5 1.8-1.4.1-.9-.5-1.5-1.8-1.5zm52.2 1.9c-1.9-1.8-4.9-1.8-6.8 0-1.9 2-1.9 5.1 0 7.1 1.9 1.8 4.9 1.8 6.8 0 1.9-2 1.9-5.1 0-7.1zm-25-.2c-2-1.8-5.1-1.8-7.1 0-1.9 2.1-1.9 5.3 0 7.4 2 1.9 5.1 1.9 7.1 0 1.9-2.1 1.9-5.2 0-7.4zm-27.2-1.7h-3.9v2.9h3.9c1.2 0 1.8-.5 1.8-1.4.1-.9-.5-1.5-1.8-1.5zm.7 7.7h-4.6v3h4.6c1.2 0 1.8-.5 1.8-1.5s-.6-1.5-1.8-1.5zm51.5-5.8c-1.9-1.8-4.9-1.8-6.8 0-1.9 2-1.9 5.1 0 7.1 1.9 1.8 4.9 1.8 6.8 0 1.9-2 1.9-5.1 0-7.1zm-25-.2c-2-1.8-5.1-1.8-7.1 0-1.9 2.1-1.9 5.3 0 7.4 2 1.9 5.1 1.9 7.1 0 1.9-2.1 1.9-5.2 0-7.4zm-26.5 6h-4.6v3h4.6c1.2 0 1.8-.5 1.8-1.5s-.6-1.5-1.8-1.5zm-.7-7.7h-3.9v2.9h3.9c1.2 0 1.8-.5 1.8-1.4.1-.9-.5-1.5-1.8-1.5zm52.2 1.9c-1.9-1.8-4.9-1.8-6.8 0-1.9 2-1.9 5.1 0 7.1 1.9 1.8 4.9 1.8 6.8 0 1.9-2 1.9-5.1 0-7.1zm-25-.2c-2-1.8-5.1-1.8-7.1 0-1.9 2.1-1.9 5.3 0 7.4 2 1.9 5.1 1.9 7.1 0 1.9-2.1 1.9-5.2 0-7.4zm25 .2c-1.9-1.8-4.9-1.8-6.8 0-1.9 2-1.9 5.1 0 7.1 1.9 1.8 4.9 1.8 6.8 0 1.9-2 1.9-5.1 0-7.1zm-25-.2c-2-1.8-5.1-1.8-7.1 0-1.9 2.1-1.9 5.3 0 7.4 2 1.9 5.1 1.9 7.1 0 1.9-2.1 1.9-5.2 0-7.4z" fill="#435ea9"/></svg>