<svg xmlns="http://www.w3.org/2000/svg" viewBox="0 0 255.1 141.7"><path d="M36.8 45.2H46v36.7h-9.2V78c-3.1 3.3-7.1 5-12.1 5-5.8 0-10.5-1.9-14-5.8s-5.3-8.4-5.3-13.7c0-5.3 1.7-9.8 5.2-13.6 3.5-3.8 8.2-5.7 14.2-5.7 5.2 0 9.2 1.8 12 5.3v-4.3zm-10.6 6.6c-3.3 0-6 1.1-8.1 3.4-2.1 2.3-3.1 5.1-3.1 8.5 0 3.3 1 6 3 8.3 2 2.3 4.7 3.4 8.2 3.4s6.1-1.1 8.2-3.3c2-2.2 3-5 3-8.5 0-3.8-1.1-6.7-3.2-8.7-2.3-2.1-4.9-3.1-8-3.1zm28.4 30V54.5h-4.8v-9.4h14v3.4c2.5-2.9 5.8-4.4 9.9-4.4 4.8 0 8.2 1.8 10.3 5.5 2.6-3.7 6.5-5.5 11.8-5.5 5.1 0 8.9 1.9 11.4 5.8 1.4 2.1 2.1 5.2 2.1 9.2v22.7h-9.2V61.7c0-2.9-.3-5.1-.8-6.6-1-2.2-2.7-3.3-5.3-3.3-2.5 0-4.3.9-5.6 2.8-1.2 1.7-1.8 4.4-1.8 8.3v18.9h-9.2V61.7c0-2.9-.3-5.1-.9-6.6-.9-2.2-2.7-3.3-5.3-3.3-2.3 0-4.2.9-5.6 2.8-1.1 1.6-1.7 4.4-1.7 8.3v18.9h-9.3zm91.3-36.6h9.2v36.7h-9.2V78c-3.1 3.3-7.1 5-12.1 5-5.8 0-10.5-1.9-14-5.8s-5.3-8.4-5.3-13.7c0-5.3 1.7-9.8 5.2-13.6 3.5-3.8 8.2-5.7 14.2-5.7 5.2 0 9.2 1.8 12 5.3v-4.3zm-10.6 6.6c-3.3 0-6 1.1-8.1 3.4-2.1 2.3-3.1 5.1-3.1 8.5 0 3.3 1 6 3 8.3 2 2.3 4.7 3.4 8.2 3.4s6.1-1.1 8.2-3.3c2-2.2 3-5 3-8.5 0-3.8-1.1-6.7-3.2-8.7-2.2-2.1-4.9-3.1-8-3.1zm26.3 30V45.2h9.2v2.6c2.6-2.6 7.5-3.3 9.3-3.3 2.8-.1 5.2.3 7.9.9l-3.8 8.8c-1.7-1-3.8-1.7-5.8-1.5-2.5.2-4.6.6-5.9 2.6-1.1 1.6-1.6 4.1-1.6 7.6V82h-9.3zm30.6-36.6h10.2v36.7h-9.2V54.3h-4.8l3.8-9.1zm47.3 4.3V24.6h9.2v57.3h-9.2V78c-3.1 3.3-7.2 5-12.4 5-5.7 0-10.2-1.9-13.8-5.8-3.5-3.9-5.3-8.5-5.3-13.8 0-5.2 1.7-9.7 5.2-13.5 3.5-3.8 8.2-5.7 14.2-5.7 5.3 0 9.3 1.7 12.1 5.3zm-10.7 2.3c-3.3 0-6 1.1-8 3.4s-3.1 5.1-3.1 8.6c0 3.3 1 6 3 8.3 2 2.2 4.7 3.4 8.1 3.4 3.5 0 6.2-1.1 8.3-3.3 2-2.2 3-5 3-8.3 0-3.8-1.1-6.8-3.3-8.8-2.3-2.3-4.9-3.3-8-3.3zm-126.1 65V92.7H118v1.9h-13.3v8.9h13v1.9h-13v9.6H118v1.9h-15.3zm20.4 0V92.7h2.1V115h11.7v1.9h-13.8zm18.3 0V92.7h15.3v1.9h-13.3v8.9h13v1.9h-13v9.6h13.3v1.9h-15.3zm19.5-12c0-7.4 5.4-12.5 12.2-12.5 3.8 0 6.7 1.7 8.8 4.3l-1.7 1.1c-1.5-2.1-4.2-3.5-7.1-3.5-5.7 0-10.1 4.3-10.1 10.6 0 6.2 4.4 10.6 10.1 10.6 2.9 0 5.5-1.4 7.1-3.5l1.7 1.1c-2.1 2.6-5 4.3-8.8 4.3-6.8-.1-12.2-5.1-12.2-12.5zm31.4 12V94.5h-7.9v-1.9h17.9v1.9h-7.9v22.3h-2.1zm28.4 0l-6.8-10h-5.3v10h-2.1V92.7h9c4.2 0 7.4 2.6 7.4 7.1 0 4.4-3.1 6.8-6.7 7l7 10.1h-2.5zm0-17.1c0-3-2.2-5.2-5.4-5.2h-6.8v10.4h6.8c3.3 0 5.4-2.1 5.4-5.2zm6.5 5.1c0-7.1 4.6-12.5 11.7-12.5s11.7 5.4 11.7 12.5-4.7 12.5-11.7 12.5c-7.1-.1-11.7-5.5-11.7-12.5zm21.2 0c0-6.2-3.8-10.6-9.6-10.6-5.9 0-9.6 4.5-9.6 10.6s3.7 10.6 9.6 10.6c5.9 0 9.6-4.6 9.6-10.6zm-54.7-62.9l12.5-17.5-4.9.1 7.9-10.9-9.3 2.6-6.2 13.4h4.1z" fill="#5590cf"/></svg>