<svg width="733" height="338" fill="none" xmlns="http://www.w3.org/2000/svg"><path d="M657.1 215.3c21.2-5.8 36.8-9.3 48-11.5 4.8-1 8.8-1.7 12-2.3-.8.1-1.6.3-2.4.4-20.7 3.6-40.1 8.4-57.6 13.4zM519 139.9c-.2.5-.3.9-.5 1.3 0 .1.1-.4.5-1.3z" fill="#020203"/><path d="M638 190.5c1.4-1 2.8-2.1 4.2-3.2 6-4.8 11.7-9.9 17.1-15.2-5.5 7.1-11 14.1-16.5 21.2-3 2.2-6 4.3-9.3 6.3-1.1.3-2.3.6-3.4.9 2.7-3.4 5.3-6.7 7.9-10zm-101.6-31.9c.1-.1.2-.3.3-.5l.9-.6c-.6 1-1 1.7-1.3 2.1-.9 1.1-.7.5.1-1zm-135.7 39.8c-.4 1.1-.7 2.4-1.2 3.5-.5 1.2-1.3 2.2-2.4 3.1-1 .8-2.3 1.4-3.5 1.8-1.3.4-2.6.5-3.9.7-1.3.2-2.7.5-4.1.2-1.4-.2-2.8-1-3.6-2.2-.9-1.3-1.1-2.6-.9-4 .2-1.4.7-2.7 1.4-3.9 2.6-4.9 5.4-10.1 8.3-15.5.2-.3.4-.7.5-1 .1-.4-.3-.8-.7-.8-.4 0-.6.4-.9.7l-.8.8c-1.1 1.1-2.2 2.3-3.4 3.4-2.3 2.3-4.5 4.8-7.2 6.9-3.8 3.3-7.6 6.7-12.3 10.1-2.3 1.7-4.7 3.4-7.3 4.9-1.3.8-2.6 1.5-4 2.2-1.4.7-2.8 1.3-4.3 1.7 1.7-.5 3.2-1.3 4.6-2.1 9.5-4.9 17.4-12 26-19.5 2.8-2.7 7.7-7.7 9.8-10 .5-.6 1.4 0 1.1.7l-9 16.8c-3.9 6.7-.3 11.1 4.8 10.5l3.3-.4c8.4-1 8.6-6.7 9.4-8.6 1.4-3.2 3.3-8.3 5.9-14.2-1.8 4.6-3.7 9.3-5.6 14.2zm-193.1 9.7c-2.1 1.1-4.1 2.1-5.9 2.9-1.7.8-3.2 1.5-4.5 2.1-5.2 2.3-7.2 3.2-7.1 3 .1-.1 2.3-1.2 5.5-2.9 1.6-.8 3.5-1.7 5.5-2.7 1-.5 2.1-1.1 3.2-1.7 1.1-.6 2.1-1.2 3.2-1.8.9-.5 1.7-1 2.6-1.5.1.3.1.6.2 1-.9.6-1.8 1.1-2.7 1.6zm-19.9 4.2c.6-.7 1.1-1.5 1.7-2.2 3-1.4 6-2.8 9-4.3 3-1.4 6.9-3.5 11.2-6 0 1.6.1 3.3.3 5-.8.4-1.6.9-2.5 1.3-2.1 1.1-4.5 2.3-7.2 3.6-2.6 1.2-5.5 2.5-8.6 4-2.8 1.3-5.4 2.4-7.7 3.3 1.3-1.5 2.6-3.1 3.8-4.7zm435.9-84.8c.1 0 .1 0 0 0l.1-.1c0 .1 0 .1-.1.1zm15.4 70.7c-.3.1-.5.1-.8.2.4-.3.9-.6 1.3-.9-.1.2-.3.5-.5.7zm-149.3-50.3v-.2c1-4 2.8-7.6 4.7-11 1-1.7 2.1-3.4 3.4-4.8 1.3-1.4 3.2-2.2 4.9-2 .9.1 1.5.5 1.8 1.3l.1.3v.3c0 .2.1.5.1.7 0 .4 0 .8-.1 1.3-.3 1.8-1.2 3.5-2.2 5-2 3.2-4.5 6-7 8.8-1.9 2-3.8 3.9-5.7 5.8-.4-2-.2-3.8 0-5.5zm54 2.6s.1 0 0 0c.1 0 .1 0 0 0zm20.3 138c-.7.7-1.4 1.3-2 2-13.5 13.1-25.2 22.1-33.3 25.9-6.7 3.1-12.5 2.3-15.6-2.8-5.1-8.4 2.1-26.8 11.3-37.2 11.4-12.8 28.4-28.3 76.4-47.6 2.4-.9 5.3-2 8.6-3.2-8.5 11-16 20.7-21.7 28.2 7.9-9.6 15.5-19.2 23.1-28.7 3-1.1 6.3-2.2 10-3.4-.3.4-.7.8-1 1.3-17 21.4-33.7 43.4-53.2 63.2-1 .7-1.8 1.5-2.6 2.3zM251.9 141.8c7.5-7.5 14.2-7.7 15.5-5 1.8 3.8-5.3 11.7-10.4 16.2-4.7 4.1-13.4 11.4-23.1 18.8 1-2.8 2-5.3 3-7.5 4.1-8.4 7.6-15 15-22.5zm-136.2-25.6c-8.3 8.3-18.3 18.9-27.7 29.9-5.2 6.3-10.1 13-14.5 19.5-4.4 6.4-8.2 12.6-11.5 17.9-3.2 5.4-5.8 9.8-7.6 13-1.8 3.2-2.8 5-2.8 5 .4-1.8 6.1-14 16.7-31C73.6 162 80 152.3 88 142.6c8.2-9.6 17.3-19.7 27.1-29.7 1.1-1.1 2.2-2.1 3.2-3.2-.8 2.2-1.7 4.4-2.6 6.5zM24.1 271.6c.2.4.4.8.8 1.1.4.2.9.4 1.4.3 1-.2 1.9-.8 2.7-1.4.8-.7 1.5-1.5 2.2-2.2.7-.8 1.3-1.6 2-2.6l1.2-1.6 1.7-2.4c1.1-1.6 2.2-3.2 3.3-4.7 2.2-3.2 4.2-6.3 6.1-9.3 1.9-3 3.6-5.8 5.2-8.4 1.5-2.6 2.9-4.9 4-6.8 3.6-7.7 4.8-11.3 4.3-11.2-.5 0-2.8 3.6-6.6 9.8-3.8 6.2-9.1 15.1-15.9 25.3-.9 1.3-1.7 2.6-2.6 3.9l-2.1 3c-.3.4-.6.8-.8 1.2-.2.3-.5.7-.8 1-.3.3-.7.7-1.1.9-.4.3-1 .3-1.3-.1-.5-.7-.4-1.8-.3-2.8.1-.5.2-1.1.3-1.7v-.3s0-.1.1-.2l.4-1.4c.3-1 .6-1.9.9-2.9 1.1-3.9 2.5-7.7 3.9-11.6 3-7.8 6.2-15.8 9.9-23.6 7.2-15.8 15.8-31.5 24.7-46.3 4.5-7.3 9.2-14.4 14-21.1 2.4-3.3 4.8-6.5 7.4-9.5 2.5-3 5.2-5.9 7.7-8.8 6.5-7.2 12.8-13.8 18.8-19.6-5.6 13.5-11.3 26.5-17 38.9-15.2 30.9-33.9 66.6-51.4 93.7-2.2 3.4-4.4 6.7-6.5 9.7-1.1 1.6-2.1 3-3.2 4.5-.5.7-1.1 1.4-1.6 2.1-.4.5-.8 1.1-1.2 1.6-1.6 2.1-3.1 3.8-4.7 5.3-.8.7-1.7 1.3-2.5 1.8-.9.4-1.9.7-2.8.4-.9-.3-1.4-1.2-1.6-2-.2-.8-.2-1.7-.2-2.5.1-1.6.4-2.9.7-4 .7-2.2 1.2-3.6 1.6-4.1-.2 1-.4 2.2-.7 3.7-.8 1.5-1 3.2-.4 4.9zm122.6-38.1c.2-.2.5-.4.7-.5.2-.1.4-.1.6-.2-6.7 6-13.3 11-19.6 15-3.5 2.1-6.8 4.2-10.1 5.7-3.3 1.6-6.5 2.9-9.6 3.7-1.5.4-3 .7-4.3.6-.6 0-1.2-.1-1.7-.3-.4-.2-.7-.4-.8-.7-.1-.2-.2-.3-.2-.5v-.3l-.1-.5c-.1-.4 0-.6 0-.8 0-.2 0-.4.1-.7.1-.5.3-.9.5-1.4.3-.4.5-.9 1-1.3 1.5-1.6 3.5-3 5.5-4.1 1-.6 2-1.1 2.9-1.6 1-.5 1.9-.9 2.9-1.4 7.6-3.3 13.6-5.3 18.5-6.9 4.9-1.6 8.8-2.7 12.3-3.7l.9-.3-2.7 2.4 3.2-2.2zm64.1-34.3c.4-.2.8-.4 1.2-.7-.1 1.1-.1 2.1 0 3.1v1c0 .4 0 .8-.1 1.1-.3.1-.5.3-.8.4-.3-1.7-.3-3.4-.3-4.9zm.8 6.7c-.1-.1-.2-.2-.3-.5 0-.1 0-.3-.1-.4.2-.1.5-.3.7-.4v.4c0 .4 0 .7-.1.8 0 0-.1.1-.2.1zm414.2-24.2h.2v.1c-.1-.1-.2-.1-.2-.1zm105.9 9v-.6c0-.5-.1-1.1-.2-1.7-.2-1.1-.7-2.4-1.6-3.5-1-1.2-2.3-1.9-3.4-2.3-1.2-.4-2.2-.5-3.1-.6-1.8-.1-3.5.1-4.8.3-1.4.2-2.8.4-4.1.6-11.1 1.6-22.2 3.6-33.4 5.9-5.5 1.1-10.9 2.3-16.4 3.5 19.5-26.5 38-51.8 50.1-64.7 5.2-5.6 1.7-9.9-.7-11-1.6-.7-9-2.2-20.6 7.2-9.8 8-26.1 25.9-37.8 37.6-7.6 7.6-26.2 23.6-30.2 21.6-3.7-1.8 6.1-17 12.4-23.4l4.8-4.8c-2.5 2.6-4.4 4.7-5.4 5.9-1.5 1.9-1.3 1.9 1.3-.7-2.5 2.5-4.5 5.3-6.4 7.9-1.9 2.6-3.5 5.1-4.8 7.5-.6 1.2-1.2 2.4-1.6 3.5-.4 1.1-.7 2.3-.5 3.1.1.2.1.3.3.5.1.1.3.2.3.2.1 0 .2.1.3.1.4.1.9 0 1.3-.1.9-.2 1.6-.5 2.3-.8 3.9-2 7.5-4.8 11-7.6s6.8-5.7 10.1-8.8c3.3-3 6.4-6.2 9.5-9.4l9.2-9.7c6.2-6.5 12.3-12.9 18.8-19.1 3.3-3.1 6.6-6 10.7-8.5 4.2-2.5 8.9-4.3 13.6-3.8 1.1.1 2.2.4 3.1 1.1.9.7 1.7 1.6 2.2 2.6.5 1 .7 2.2.6 3.3-.1 1.1-.5 2.2-.9 3.2-1 1.9-2.7 3.6-4.2 5.4-1.5 1.8-3.1 3.7-4.4 5.2-5.5 6.5-10.6 13.4-15.8 20.2 0 0 2.9-3.4 5.8-6.9 2.9-3.4 5.9-6.8 5.9-6.8 1.9-2.2 3.8-4.3 5.7-6.4 1.1-1.2 2.2-2.5 3.2-3.7 1.1-1.3 2.3-2.7 3.4-4 .3-.3.6-.7.8-1l.6-1c.4-.7.7-1.3 1-2 .5-1.4.7-3 .4-4.5-.6-3.1-3.3-5.6-6.3-6.1-3-.6-6.3-.1-9.5 1-1.6.5-3.2 1.3-4.7 2.1-.8.4-1.5.9-2.2 1.3-.7.4-1.2.8-1.8 1.2-2.3 1.7-4.4 3.5-6.4 5.4-2 1.9-3.9 3.8-5.8 5.7-7.6 7.7-14.8 15.5-22.6 23.2.5-.8-.3-.2-2.2 1.5-1.9 1.7-4.8 4.6-8.6 8-3.9 3.4-8.7 7.6-14.4 11.7-1.4 1-2.9 2.1-4.4 3-.8.5-1.7 1-2.6 1.4.5-1.4 1.3-2.9 2.1-4.3 2-3.5 4.4-6.9 7-10.2 1.3-1.7 2.7-3 4.3-4.6l4.7-4.7c3.1-3.2 6.3-6.4 9.4-9.6l2.3-2.5 1.2-1.3.3-.3.3-.4c.2-.3.5-.6.7-.9.8-1.3 1.4-2.8 1.6-4.5.2-1.7-.3-3.7-1.4-5.2-1.1-1.5-2.7-2.5-4.1-3-.4-.1-.7-.3-1.1-.3l-.5-.1-.3-.1h-.4c-.3 0-.5-.1-.9-.1h-1.2c-2.8.1-5.2 1-7.4 2.2-.5.3-1.1.7-1.7 1.1l-1.3 1-2.4 2.1c-1.5 1.4-3 2.7-4.3 4.1-5.5 5.4-10.3 10.5-14.3 14.6-1.6 1.7-3.2 3.3-4.7 4.8-1.6 1.6-3.2 3.1-4.8 4.6-3.2 3-6.2 5.9-9.2 8.8-3 2.8-5.9 5.4-8.8 7.8-1.4 1.2-2.9 2.3-4.3 3.3-.7.5-1.4 1-2.2 1.4l-1.1.7-.8.5c-.4.3-.9.5-1.4.6-.5.1-1 0-1.5-.1s-.9-.2-1.4-.4c-.2-.1-.5-.2-.7-.4-.3-.1-.6-.3-.8-.5-2.2-1.3-4.4-3.1-6.2-4.9-1.8-1.8-3.4-3.9-4.9-6l-.5-.8-.5-.7c-.2-.4-.4-.7-.7-1.1-.4-.7-.8-1.5-1.2-2.2-.3-.5-.5-1-.7-1.5-.1-.3-.2-.5-.3-.7.1-.1.4-.1.6-.2 1-.3 1.9-.8 2.6-1.1.6-.3 1.1-.6 1.9-1.2.5-.3.9-.6 1.4-1l1.2-.9c1.5-1.2 3.1-2.4 4.5-3.5 2.9-2.3 5.7-4.4 8.4-6.5 2.6-2.1 5.2-4 7.5-5.8 2.3-1.9 4.5-3.6 6.6-5.2 8.4-6.2 15.5-10.2 21-11.8 1.3-.4 2.7-.5 3.3-.3h.1l.1.1.3.4c.5.7 1.1 1.3 1.8 1.7 1.4.9 2.9.9 4 .7 1.1-.2 2-.6 2.8-.9.8-.4 1.4-.7 1.9-1.1.1-.1.3-.2.4-.3l.3-.2.2-.1c.2-.2.4-.4.6-.5.4-.3.7-.9 1-1.2.2-.4.4-.8.5-1.1.3-.9.2-1.6.1-2.1.5-3.9-2.6-8.4-3.8-9.4-1.7-1.5-4.9-4.1-13.6-1.2-17.5 5.9-38.4 23.7-49.9 32.2-5.6 4.1-9.6 4.7-9.6 4.7l.6-1c8.6-9.9 23.6-33.7 32.2-47.1 1.1-1.7 2.2-3.3 3.3-5 4.1-6.7 8.2-13.5 12.3-20.3 4.1-6.8 8.2-13.7 12.3-20.6l3.1-5.1c1-1.7 2.1-3.4 2.9-5.3.8-1.9 1.4-3.8 1.3-6-.1-1-.4-2.1-1.1-3-.7-.8-1.7-1.3-2.7-1.6-3.1-1.3-6.8-1.4-9.7.3-1.6 1-2.8 2.6-3.8 4.1-1 1.5-1.9 3.1-2.8 4.7l-5.1 9.6c-3.4 6.3-7 12.4-10.6 18.4-2.7 4.5-5.4 9-8.1 13.4-10.2 16.2-21.5 33-31.7 44.4-6 7.2-11.9 10.3-28.5 23.2-7.3 5.7-15.3 12-22.5 17.8l-5-5c2.3-2.3 4.7-4.5 7-6.8 1.8-1.8 3.5-3.5 5.2-5.4 1.7-1.8 3.6-4 5-6.3 2.9-4.5 5-9.4 5.7-15 .3-2.8.2-5.9-1-8.9-.3-.7-.7-1.5-1.1-2.2-.4-.6-.8-1.3-1.3-1.9-.9-1.2-2-2.3-3.2-3.2-2.4-1.8-5.2-2.9-8-3.3-2.8-.5-5.5-.3-8 .2-2 .4-3.9 1-5.7 1.8-1.2.6-2.4 1.3-3.5 2.1s-2.3 1.6-3.3 2.5c-2.1 1.8-4 3.8-5.8 6-3.5 4.3-6.4 9.3-8.5 14.8-1.1 2.8-1.9 5.6-2.5 8.8-.2 1.5-.4 3.3-.4 4.9 0 1.6.1 3.2.3 4.9.4 3.3 1.7 6.9 3.7 9.8.2.3.4.6.6.8-3.2 2.9-6.4 5.7-9.7 8.6-4.2 3.7-8.4 7.4-12.8 11.1-2.1 1.7-3.7 3-4.6 3.7-5.6 4.1-7.3 1.5-5.7-2.3 1.9-4.8 17.5-24.4 23-40.2 3.5-10-.1-11.7-7.9-13-.7-.1-1.9-.1-3.2.1h.2c1-.1 2.1-.3 3.2-.2 1.9.3 4 .6 5.7 1.3 1.8.7 2.9 2 3.2 2.9.2.4.3.7.3.8 0 .1.1-.1-.1-.5-.1-.7-1-2.8-4.3-4-1.6-.5-3.3-.9-4.8-1.1-1.1-.2-2.3 0-3.4.1s-2.2.3-3.2.6c-1.1.3-2.1.5-3.1.9-.5.2-1.1.5-1.5.7l-1.3.7c-3.5 2-6.9 4.4-10 7-4 3.3-7.8 7.1-12.3 10.1l-.8.6c-.3.2-.7.4-.9.1-.1-.3.2-.6.3-.9l.5-.8 1.8-3.4 3.7-6.8 3.8-6.9c.6-1.2 1.3-2.3 1.8-3.6.2-.5.4-1 .5-1.6v-.2c.1-.2.1-.5.1-.7v-.4c0-1.1-.3-2-1.2-2.8-2-2-10.9-2.4-13.3-.8-2.9 1.8-3.1 3.6-5.6 7.7 0 0-7.5 12.6-9.7 16.2 0 0-13.8 22.7-40.8 41-5.6 3.8-10.2 3.5-9.5-.6.9-5.1 11.3-17.7 17.6-26.9 11.1-16.4 15.3-21.8 19-27.4 2.1-3.2 2.9-5.6.8-7.5-2.1-1.9-4.7-2.2-8.2-2.1-2.8.1-4.8 1.3-5.9 2-3.4 2.1-5.3 4.8-13.7 17C355 155.3 344 172 344 172c-1.3 1.2-2.6 2.3-3.9 3.5-.5.4-.9.8-1.4 1.2-11.9 10.3-23.9 18.5-31.3 20.8-6.4 2-11.3 1.5-12.1-6.5-.7-7.3 23.2-34.7 32-45.9 25-31.9 34.8-47 40.3-56.4 7.4-12.8 7.2-18.9 4.1-24.7-2.8-5.1-12.5-8.8-20.2.9-6.8 8.7-18.7 28.4-28.6 45-10.7 17.9-29.4 50.6-31.5 53-5.5 6.2-11.5 12.2-17.1 17-23.5 19.6-37.6 26.6-44.1 22.5-2.1-1.3-1.9-7.4-.6-14.7 16-10.3 32.9-22.5 41.8-31.6 15.7-16.1 23.4-30.1 7.1-32.2-22.2-2.8-39.7 10.7-57.6 46.4-2.9 5.8-5 11-6.5 15.6-.4.3-.9.6-1.3.8.3-1.2.7-2.3 1.1-3.3 1.7-4.9 3.2-8.2 4.9-12.1-.7 1.4-1.6 3-2.3 4.4-.7 1.4-1.2 2.4-1.3 2.5-.1 0 .2-1 1.3-3.7.6-1.3 1.4-3.1 2.4-5.3 1.1-2.2 2.4-4.9 4.2-8.1 0 0-.9 1.6-2.4 4.4-1.5 2.8-3.7 6.9-5.8 12-1.3 3-2.6 6.4-3.6 10.2-3.4 2.1-6.6 4-9.4 5.4-.7.3-1.4.7-2.1 1 .7-1.2 1.4-2.5 2.1-3.7 1-1.9 2-3.9 3-5.9.8-2.1 1.8-4 2.6-6.2 1.7-4.1 2.8-8.5 3.6-12.9.8-4.4.9-9.1.2-13.6-.1-1.1-.4-2.3-.8-3.4-.2-.6-.3-1.1-.5-1.7l-.7-1.6c-.8-2.2-2.1-4.2-3.6-6-2.9-3.7-6.9-6.4-11.2-8.2-2.1-.9-4.5-1.6-6.5-2-1.8-.4-3.7-.6-5.5-.8-3.2-.2-6.4-.1-9.5.3-1.4.4 0-.5.4-1l1.8-1.7 3.6-3.3c5.6-5.2 13.5-12.9 20.4-20.1 7-7.3 13.9-14.7 20.2-22.7 6.2-8 12-16.2 17-25 2.5-4.4 4.7-9 6.4-13.8.8-2.5 1.5-4.9 1.6-7.8.1-1.5-.1-3-.5-4.4-.5-1.4-1.3-2.6-2.4-3.6-1.3-1.1-2.9-1.7-4.6-2.1-.8-.2-1.7-.3-2.5-.3-.8-.1-1.5 0-2.3 0-3 .1-5.9.6-8.7 1.2-5.6 1.3-11 3.2-16.3 5.3-10.5 4.3-20.4 9.5-29.8 15.3-2.2 1.4-4.3 2.7-6.5 4.1.4-1.1.9-2.2 1.4-3.3 3.1-7.7 6-15.2 8.9-22.7.7-1.9 1.4-3.7 2.1-5.6l.3-.7.2-.5.1-.2.1-.4c.1-.4.3-1.2.4-1.8 0-.5.1-1.1.1-1.6 0-2.2-.7-4.4-2-6.1-1.2-1.8-3-3.2-5-4-1-.4-2-.6-3-.7h-1.8c-1.1-.1-2.7-.1-4.3.3-.8.2-1.6.4-2.3.7-.7.3-1.3.6-2.1 1-1.5.8-2.8 1.9-3.9 3.1-1 1.2-1.8 2.3-2.5 3.5l-.9 1.8c-.1.3-.3.6-.4.9l-.3.8-1 2.7c-1.3 3.6-2.6 7.2-4 10.8-2.7 7.1-5.3 14.1-7.9 20.9-3.6 9.4-7.1 18.4-10.5 27.3-2.8 2.1-5.5 4.2-8.2 6.3-11.6 9.6-21.8 19.2-31.1 28.6-9.2 9.5-17.4 18.7-24.9 27.5-3.7 4.4-7.2 8.8-10.6 13-1.7 2.2-3.3 4.3-4.9 6.4-1.6 2.1-3.1 4.2-4.6 6.3-6 8.3-11.2 16.5-15.9 24.3-9.3 15.8-16.2 30.6-21.5 45-2.6 7.2-4.9 14.3-6.6 21.4-1.7 7.1-3.1 14.2-3.5 21.5-.3 3.6-.2 7.4.2 11.2.1 1 .3 1.9.5 2.9s.5 2 .8 3c.3 1 .8 2 1.3 3.2.7 1.1 1.4 2.2 2.3 3.1.2.2.4.5.7.7l.8.5c.5.4 1.1.7 1.7.9.6.2 1.2.5 1.8.7.6.2 1.2.3 1.8.4 2.4.5 4.7.2 6.9-.2 4.4-1 8-3 11.4-5.3 6.6-4.6 12.1-10.3 17.4-16.5 5.3-6.2 10.3-12.9 15.3-20.1 10-14.5 20-31.1 30.7-50.3 5.3-9.6 10.8-20 16.5-31.1 5.6-11.2 11.4-23.2 17.3-36.1 0-.1.1-.2.1-.3-.2.8-.3 1.7-.2 2.3 0 .8.1 1.3.1 1.3-.1-1.8.2-2.7.3-3 .1-.3.2-.2.1.5 0 .6 0 1.8.4 3.5.4 1.6 1.3 3.8 3 5.4 1.7 1.6 4.1 2.4 5.7 2.3 1.6-.2 3.4-.3 6.3-.7.4-.1.6-.1 1.1-.2l1.3-.3 1.3-.3.6-.2.8-.3c2.1-.9 4.1-1.8 6.2-2.6 2-.9 4-1.5 5.9-2.3.9-.3 1.7-.5 2.6-.8.4-.1.8-.3 1.2-.4l.6-.2.4-.1c4.2-1.1 7.7-1.5 9.7-1.5 1 0 1.7 0 2 .1.3 0 .3 0-.2-.2-1-.2-3.9-.8-10.2.5l-1.2.3c-.2 0-.4.1-.6.1-.2 0-.6.2-.9.2-.6.2-1.2.3-1.9.5-.6.2-1.3.4-2.1.6-2.9.9-6.3 2.3-9.9 3.8-3.5 1.3-6.3 1.6-8.7 2-.6.1-1.1.2-1.7.3-.6.1-1.1.3-1.7.3-1.3 0-2.9-.4-4.4-1.4-.6-.4-1.5-1-2.3-2.3-.8-1.2-1.5-3-1.5-4.9 0-1 .1-2 .4-2.9.3-.9.9-1.2 1.4-1.9 1.1-1.2 2.1-2.6 4-4.7.9-1 2.3-2.2 4.2-3.5 1.9-1.3 4-2.5 5.9-3.9 1.9-1.3 3.8-2.7 5.6-4.3 1.2-1.1 2.5-2.2 3.7-3.3 4.6-4.1 9.4-8.5 13.9-13 9.2-8.9 17.6-18 23.5-24.7 5.9-6.8 9.2-11.2 8.5-10.9 0 0-3.9 4.7-10.1 11.5-6.2 6.8-14.8 15.6-23.8 24.1-4.5 4.2-9 8.3-13.4 12.1-1.2 1-2.4 2.1-3.6 3.1-1.9 1.6-3.8 3-5.8 4.3-2 1.4-4 2.7-6.1 3.9-2 1.3-4 2.5-5 3.6-2.1 2.2-2.9 3.7-3.7 4.9-.3.5-.5.8-.7 1.2 7.4-15.3 9.2-18.7 11.1-21.9 1.9-3.4 3.9-6.9 11.8-24.5 3.1-6.9 6-13.8 8.8-20.5 5.2-3.9 10.4-7.5 15.6-10.9 11.6-7.3 23.3-13.6 35.2-18.8 14.6-6.4 18.8-2.9 12.9 7.2-2.9 5-7 10.7-11.7 16.8-.1 0 0-.2.1-.4.4-.9 1.8-3.1 3.5-5.7 1.7-2.7 3.4-5.6 4.5-7.7 1-2.1 1.6-3.5 1.4-3.7-.1-.2-.9 1-2.8 3.6-.4.6-1.1 1.6-1.8 2.6-.4.5-.8 1-1.2 1.6-.5.7-1.1 1.4-1.7 2.2-2.3 3.1-5.4 6.9-9.2 11.4-7.6 9-18.4 20.9-33.9 35.7-3.9 4.1-8.7 8.8-14.3 13.9-1.5 1.3-3 2.6-4.5 4-2 1.7-4.2 3.3-6.5 4.9-2.3 1.6-5 3.2-6.6 4.7-1.7 1.5-3.2 2.8-4.6 4-.7.6-1.4 1.1-2.1 1.8-.7.7-1.1 1.8-1.2 3-.1 1.2 0 2.5.4 3.7.4 1.2 1.1 2.4 2 3.2 1.9 1.7 4.6 2.1 6.5 1.4 1.9-.6 3.9-1.2 6.5-1.9.6-.1 1.3-.4 2-.6l1-.3c.3-.1.7-.2 1.1-.4 1.6-.6 3.2-1.3 4.8-1.9 1.6-.7 3.2-1.2 4.8-1.7.8-.3 1.5-.4 2.3-.7.7-.2 1.6-.5 2.1-.6 2.4-.6 4.9-1 7.3-1.2 2.4-.1 4.8 0 6.9.6.5.2 1 .3 1.5.6l1.6.8 1.5.9.7.5.7.6c1 .7 1.7 1.6 2.5 2.4.7.9 1.4 1.8 1.8 2.9 1 2.1 1.7 4.3 1.8 6.7.1.6.1 1.2.1 1.8v1.8c-.2 1.2-.2 2.5-.5 3.7-1.8 9.9-6.8 19.4-11.9 28.1-3.1 5.1-6.4 10-9.9 14.5-2.3.9-4.2 1.7-5.8 2.2-7 2.9-19.5 7.5-34 12.6-7.2 2.5-15 5.1-22.6 8.5-3.8 1.7-7.5 3.5-11 5.7s-6.8 4.8-9.3 8c-1.3 1.6-2.3 3.3-3.2 5.1-.8 1.8-1.5 3.7-1.7 5.7-.2 1.9-.1 3.9.5 5.7.6 1.8 1.5 3.4 2.7 4.8 2.4 2.7 5.5 4 8.3 4.7 1.4.4 2.8.5 4.1.7 1.3.1 2.5.1 3.6.1 1.1-.1 2.1-.2 3.1-.2.9-.2 1.7-.3 2.5-.4 1.5-.2 2.5-.5 3.1-.7 1.2-.4.6-.4-2.3 0 8-1.3 15.7-4.3 23-8 7.4-3.7 14.4-8.3 21-13.4 6.7-5.1 13.1-10.7 19.1-16.9 1.5-1.5 3-3.1 4.5-4.6 1.4-1.6 3-3.1 4.4-4.8.3-.4.6-.8 1-1.1 3-1.3 6.3-2.7 10-4.4 2.2-1 4.5-2.1 6.9-3.2 1.2-.6 2.5-1.2 3.8-1.8 1.3-.7 2.7-1.4 4.1-2.1 1.7-.9 3.5-1.9 5.3-2.9 0 .1.1.3.1.4 1.1 3.8 3.4 7.8 7.3 10 .9.6 1.9 1 3 1.4l1.6.4c.5.1 1 .1 1.6.2 2.1.2 4 .1 5.9-.1 3.8-.4 7.3-1.4 10.7-2.4 6.7-2.2 12.6-5 17.5-7.6 2.5-1.3 4.6-2.7 6.6-3.8 1-.6 1.8-1.2 2.7-1.7.8-.5 1.5-1 2.1-1.4 1.8-1.2 2.8-2 2.8-2s-.7.9-1.2 1.6c-.5.8-.9 1.4-.9 1.4l3.6-2.7c.6-.5 1.1-.9 1.7-1.3l.4-.3s.2-.2.2-.1v1.1c0 1.7.3 3.5 1.1 5.1.4.7.9 1.5 1.3 2.3.5.8 1.1 1.5 1.6 2.2 1.2 1.4 2.5 2.6 4 3.6 5.9 4.1 13.2 5.1 19.6 3.5 1.6-.5 3.2-1 4.4-1.5 1.3-.5 2.6-1.1 3.9-1.7 2.6-1.2 5.1-2.4 7.4-3.8 1.2-.7 2.4-1.4 3.5-2.1l1.7-1.1.9-.6c1.2-.8 2.4-1.7 3.6-2.6 1.2-.9 2.3-1.8 3.3-2.6.5-.4 1.1-.9 1.6-1.3l.1-.1-.1.2-.2.4c-.1.3-.3.6-.4.9-.9 2.2-1.8 4.4-1.6 6.5 0 .4.1.7.2 1.1l.1.5v.1l.1.3.3.7c.1.4.5.9.8 1.3.3.5.7.8 1.1 1.2.8.7 1.6 1.2 2.4 1.6 3.2 1.4 6 1.6 8.7 1.5 2.7-.1 5.3-.6 8-1.5l1-.4c.3-.1.6-.3.8-.4l1.6-.8c1.1-.5 2.1-1.1 3.1-1.7 2-1.2 4-2.4 5.9-3.7.9-.7 1.9-1.3 2.8-2 .7-.6 1.5-1.1 2.2-1.7 1.9-1.5 3.6-2.9 5.3-4.3 1.3-1 2.4-2.2 3.5-3.3l1.6-1.6.8-.8.4-.4c.1-.1.4-.1.5.1.1.2 0 .4-.1.6l-.3.6-.6 1.1c-.4.7-.8 1.4-1.2 2.2-.8 1.4-1.5 2.7-2.3 4.1-.7 1.3-1.6 2.6-1.3 4.1l.1.3c0 .1 0 .1.2.5.3.6.5 1.2 1 1.8.8 1.2 1.9 2.2 3.1 2.8 2.4 1.4 5.1 1.6 7.1 1.3l2.1-.2 1.1-.1 1.3-.2c1.8-.3 3.8-.9 5.7-2.1 1.9-1.1 3.5-2.8 4.6-4.7.5-1 1-2 1.3-2.9l.4-1.1c.1-.3.1-.4.2-.5 1.5-3.5 3-6.9 4.5-10.4.7-1.7 1.5-3.4 2.3-5.1l1.2-2.5 1.1-2.3c.1-.4 2.2-2.4 3.9-3.8 1.8-1.5 3.6-3.1 5.6-4.6 1.9-1.5 3.9-3.1 5.9-4.6l1.5-1.2 1.4-1.3c1-.7 1.9-1.6 2.9-2.3 1.6-1.1 2.6-2 4.1-3.3 1.4-1.2 3.3-2.5 4.6-3.4 1-.3 2 1.1 1.2 1.9 0 0-2.9 3.1-4.5 5-3.4 3.8-5.6 7.3-9 11.6-.8 1.1-1.7 2.2-2.5 3.5-.4.6-.8 1.3-1.2 2.1-.5.8-.7 1.3-1 1.9-1.2 2.4-2.9 4.7-3.9 7.3-.5 1.3-1.5 3.1-2 4.6-.2.6-1 1.6-1.2 2.6-.2 1-.4 2.1-.6 3.1-.3 2.1-.2 4.1.3 6 .5 1.9 1.5 3.6 2.9 5s3.2 2.3 5 2.8c1.9.5 3.9.5 5.9.1 1-.2 2-.4 3-.8 1-.3 2.1-.7 2.8-1 1.3-.5 2.6-1.1 4-1.7 5.2-2.5 10-5.6 14.3-8.8 4.4-3.3 8.5-6.8 12.5-10.3 4.1-3.7 8.1-7.3 12-11l3 3 1.2 1.2c-1.6 1.4-3 2.7-3.9 3.7-5.2 5.3-8 15.8 0 17.5 7.9 1.7 14.6-2.2 20.1-6.5 5.5-4.3 7.4-7.9 7.1-12.8-.1-2-.5-3.8-1.2-5.5 5.6-4.4 11.4-9 17.4-13.6 3.1-2.4 6.2-4.8 9.5-7.1.2-.2.4-.3.6-.5-.1.1-.1.2-.2.4-2.6 4.7-5.3 9.5-7.9 14.3-5.3 9.6-10.7 19.2-16 29.1-.6 1.4-1.4 2.2-1.9 4.6-.4 2 .1 4.3 1.3 6 .6.9 1.3 1.6 2.5 2.3l.5.2.7.3c.5.2.9.3 1.3.4 1.8.4 3.4.4 5.1.2.8-.1 1.6-.2 2.4-.4.8-.2 1.6-.4 2.5-.8 1.7-.7 3.1-1.9 4.3-3.3 1.1-1.5 1.7-2.8 2.4-4 .7-1.3 1.3-2.6 2-3.9 2.5-5.1 4.9-10.2 7.4-15.3.9-1.9 1.9-3.8 2.8-5.8.5-1 1-1.9 1.5-2.9.3-.5.5-1 .8-1.4l.2-.4c0-.1.1 0 .1.1l.1.2.4.7c1 1.9 2.1 3.7 3.3 5.5.6.9 1.3 1.8 1.9 2.6.9 1.2 1.9 2.3 2.8 3.4 4 4.4 8.6 8.5 14.8 10.6 6.2 1.7 12.6.8 18.4-1.4 1.5-.5 2.9-1.2 4.2-2 .7-.4 1.3-.8 2-1.2.3-.2.6-.4.9-.7l.9-.6c1.9-1.4 3.7-3 5.5-4.6 1.6-1.4 3.1-2.9 4.6-4.4.8-.8 1.5-1.6 2.3-2.4l.1-.2c.1-.1.1-.1 0 0l-.2.4-.3.7-.6 1.5c-.6 1.5-1.1 3-1.5 4.6-.4 1.6-.6 3.3-.4 4.9.1.7.3 1.3.7 2 .5.9 1.3 1.7 2.3 2.2 1.9 1 3.9 1 5.6.8 3.5-.3 6.8-1.5 9.8-2.9 3.3-1.6 6.5-3.5 9.5-5.5-2.2 2.8-4.3 5.5-6.4 8.2-5 1.3-9.9 2.6-14.8 4-1.1.3-2.2.6-3.3 1-.9-.2-21.1 6.3-29.8 9.3-11 3.8-21.5 8.5-31.6 13.5-10.1 5.1-19.7 10.8-28.6 17.4-2.3 1.6-4.3 3.4-6.5 5.1-1.1.9-2.1 1.8-3.1 2.7-1 .9-2 1.8-3 2.8-4 3.7-7.5 8-10.6 12.5-.7 1.2-1.5 2.3-2.2 3.5-.7 1.2-1.3 2.5-1.9 3.7-.7 1.2-1.1 2.6-1.6 3.9l-.7 2c-.2.6-.3 1.2-.5 1.9-1.4 4.9-2.3 9.8-2.8 14.9-.5 5-.3 10.2.9 15.3 1.2 5.1 4 9.9 7.5 13.5.9.9 1.7 1.6 2.7 2.5 1 .9 2.1 1.6 3.2 2.2 2.2 1.3 4.5 2.1 6.7 2.7 4.5 1.2 8.8 1.3 12.9 1.1 4-.3 7.7-1 11.2-1.9 3.6-1 6.9-2.3 9.7-3.9 5.8-3 10.4-6.4 14.1-9.5 3.7-3.1 6.6-6 8.9-8.3 0 0-.5.5-1.4 1.2-.9.8-2.2 1.9-3.8 3.2-3.2 2.6-7.6 6-12.4 8.9-1.2.7-2.4 1.5-3.6 2.1-1.2.6-2.5 1.2-3.7 1.8-2.5 1-4.8 2-6.9 2.5-2.1.7-3.8 1-5 1.2-1.2.2-1.9.3-1.9.3-5 .6-10.7.8-16.7-.7-2.9-.8-5.9-2-8.6-4-.6-.5-1.4-1.1-1.9-1.6-.6-.5-1.1-1.1-1.7-1.7-1.1-1.2-2.1-2.4-3-3.8-3.6-5.6-4.8-12.3-4.6-18.4.2-6.2 1.4-12 2.8-17.3.4-1.3.7-2.6 1.2-3.9.5-1.3.9-2.6 1.4-3.8.6-1.2 1.2-2.3 1.7-3.4s1.3-2.1 1.9-3.1c2.5-3.9 5.2-7 7.5-9.4 4.6-4.7 7.4-6.7 6.7-5.6 0 0-.4.4-1.3 1.2-.8.8-2 2-3.5 3.6-2.8 3.2-7 7.8-10.3 14.4-.4.8-.8 1.7-1.2 2.5-.4.9-.7 1.8-1 2.7-.7 1.9-1.2 3.8-1.7 5.9-.9 4.1-1.8 8.4-2 13-.2 4.5-.1 9.3 1.4 13.9.4 1.3.9 2.6 1.6 3.8 1.8 3.5 4.1 5.9 6.2 7.7 3.4 3 12.1 7.9 29.3 4 21.9-5 45.6-30.7 74.8-62.2 12.4-13.3 27.8-33.5 43.6-54.7 21.6-6.1 46.6-12.2 69.5-15.8 3.1-.5 9.2-3.7 9.2-6.4 0-4.1-2.1-5.6-8.1-4.8-9.2 1.2-20.1 3.1-31.8 5.4 6.7-1.4 13.2-2.6 19.5-3.8 2.9-.5 5.7-1 8.5-1.4 2.8-.4 5.5-1.1 8.4-.7.7.1 1.4.4 2.1.8.6.4 1.1 1 1.4 1.7.3.7.4 1.4.5 2.1v1.1c-.1.4-.2.8-.4 1.1-.8 1.3-1.9 2.1-3 2.8-1.1.7-2.3 1.3-3.6 1.8-.6.2-1.3.5-1.9.6-.6.1-1.3.2-1.9.4-1.3.2-2.5.5-3.7.7-2.5.4-4.9.9-7.2 1.4-4.8.9-9.3 2-13.7 2.9-17.6 4-32.3 8-44.1 11.4 0 0 13.3-3.7 26.7-7 13.4-3.3 26.9-5.9 26.9-5.9-9.1 2-13.9 3.2-15.7 3.8-1.8.6-.7.5 2.2 0 5.8-1 18.5-3.4 28.1-4.7l1.8-.3c.3 0 .6-.1 1-.1l.4-.1.6-.1c1.4-.4 2.4-.8 3.5-1.2 2-.9 3.5-1.9 4.6-2.8 1.1-.9 1.6-1.7 1.5-1.4-.1.3-1 1.5-2.8 2.8-.9.6-2 1.3-3.3 2-.7.3-1.5.7-2.4 1-.4.1-1 .3-1.6.5-.5.1-.9.2-1.4.3l-1.5.3 1.5-.3 1.1-.2c.3 0 .8-.2 1.3-.3.8-.3 1.6-.5 2.3-.9 1.5-.6 2.9-1.4 4.3-2.4.7-.5 1.4-1.1 2.1-1.9.7-.8 1.5-1.8 1.9-3.7 0-.2.1-.5.1-.7-1.2-.5-1.2-1-1.2-1z" fill="#020203"/><path d="M329.2 251.2c.1-.9.3-1.8.4-2.7.9-5.3 8.1-10.2 9.3-3.9.6 2.6-4.7 4.3-9.7 6.6zm-7.9 28.5c-1.5.9-3 1.8-4.5 2.6-4.5 2.5-5.7-2.6-4.8-6.2 1.4-5.2 6-10.1 10.2-13.6.2 1.1.3 2.1.5 3.1.7 3.6 2.2 7 4.1 10.3-1.7 1.2-3.6 2.5-5.5 3.8zm23.3-37.9c-5.2-10.4-15.4-7.4-20.4 1.3-1.8 3.2-2.5 7.3-2.5 11.4-.6.3-1.1.5-1.4.7-5.8 3.5-10.5 9.8-13.6 15.7-3.2 6-3.9 23 7.9 19.7 5.8-1.6 11.2-4.8 16.2-8.7 1.3 1.9 2.6 3.8 3.7 5.7 2.4 3.8 8.4.3 6-3.5-1.4-2.3-2.9-4.5-4.3-6.8 3.2-3 6.1-6.1 8.6-9.3 2.8-3.4-2.1-8.3-4.9-4.9-2.3 2.8-4.8 5.4-7.4 7.9-1.2-2.4-2.3-4.8-3-7.3-.5-1.6-.7-3.3-.8-4.9 8.3-3.5 20.9-6.9 15.9-17zm-124.4 37.1c6.1.5 22.8-.7 20-10.8-2.5-9-16-6.6-21.4-2.6-6.7 5-8.8 15.2-3.3 21.9 6.7 8.2 18.8 2.3 25.6-1.9 4.5-2.8 3.3-8.8-1.4-6.2-3.6 2-9 4.7-14.3 5.1-6.7.4-7.1-8-5.1-11.6 1.6-2.8 8.9-5.9 11.8-3.4.6.8 1 2.1-.2 3.1-.8.7-3.5.9-4.6.9-2.5.1-4.8.4-7 .2-5.1-.3-5.3 4.9-.1 5.3z" fill="#000"/><path d="M258.6 262.8c-10.6-6.8-26 18.8-18 26 15.9 14.2 31.1-27.1 34.3-36.7 4.3-12.6 10.4-31-6.7-34.3-17.9-3.4-19.8 23.1-10.5 35.7 3.2 4.3 8.6.3 6.1-3.9-1-1.6-2.1-3.7-2.9-5.4-1.2-2.8-1.9-8.4-1.8-11.5 1-8.3 10.3-10.2 12.5-2 .9 4.6-1.4 12.4-4.1 19.1-2.9 7.3-4.9 14-8.5 20.9-1.3 2.3-2.1 4.3-3.8 6.8-1.6 2.3-5.5 8-8.6 7.1-3.9-1.4 6-17.4 8.4-15.6 4.3 3.2 7.3-2.7 4.6-5.4l-1-.8z" fill="#000"/><path d="M284.6 262.8c-6.6.5-11.9 3.8-16.5 8.4-3.7 3.7-8.4 11.2-5.3 16.5 7.7 13.1 25.4-8.6 29.3-14.8 1.7-2.7-.5-6.2-3.5-6.2-6.3 0-9.7 12.8-8.8 18.5 1.4 9.5 14.2 3.8 18.7.5s1.1-8-3.4-5.1c-2.3 1.5-3.6 2.5-7.1 3.2-1.7.5-1-2.7-.7-3.6.5-1.4 1.1-2.7 1.8-3.9 1.5-1.5 1.3-1.9-.5-1.4-1.2-2.1-2.4-4.1-3.5-6.2-3.3 5.3-8.1 14.6-14.6 15.2-2.8.3-.3-5.2-.4-5.1.9-1.6 2-3.2 3.4-4.4 3.1-2.6 7.4-4.5 10.9-4.8 5.3-.2 5.5-7.2.2-6.8zm99.3-23.6c.7-.9 1.4-1.7 2.2-2.6 1.9-3.8 8.4-5.4 7.6-.2-1.4 5.8-8.4 12.1-12.5 16.1-3 2.8-7 5.1-11.2 7.1 4-7.2 8.7-14 13.9-20.4zm94.9 25.4c-3.3-7.5-13.8-4.6-17.7.2-3.3 4.1 2.9 9.6 5.8 5.8 2.5-3.3 6-4 6.4-.9.3 4.7-1.1 8.3-3.5 11.2-3.4 4.2-8.5 4.7-12.4 1-.9-2-1.1-3.9-.8-5.9 1-2 1.9-3.9 2.5-5.4 2.2-4.7-3.5-7.7-6.2-3-.7 1.2-1.2 2.3-1.6 3.5-2 4.3-4.6 9.7-5.7 11.2-1.6 2.2-5.5 4.5-5.8 1.8-.2-2.2 3.4-10.1 5.3-13.8 2.5-4.7-2.9-7.7-5.3-3.6-1.2 2-2.5 4.6-3.9 7.6-1 2.1-4 1.8-6.9 2.5.7-2.3 1.6-5.4 2.4-7.7 1.5-4.4-3.7-6.4-5.9-2.3-1.8 3.3-2.4 7-4.4 10.2-1.6 2.5-5.8 9.6-9.4 8.3-1.9-1.2-.1-4.6.6-6.5 2.2-3.9 3.6-7.5 4.6-9.7 2.1-4.8-3.6-8-5.9-3.1-2.7 5.6-4.3 11-8.7 15.5-3.3 3.4-6 2.4-6 .5-.1-1.7 1.4-4.9 2.2-6.4 1.8-3.5 2.8-4.6 4.7-7.2 3.1-4.3-3.3-7.8-6.4-3.6-.8 1.2-1.9 2.8-2.9 4.6-.5-2.4-2.7-3.9-5.6-2.4-1.3 1-4.6 2.2-6 2.6-2.1-4.4-5.2-5.1-7.9-1.8-1.4 1.7-1.5 3.7-.3 5.5.7 1 3.2 1.9 5.1 2.4 0 .7-.1 2.1-1.4 4-1.4 2-3.3 3.9-7.4 3.9-7.9-.4-9-7.4-6.4-12.7 9.7-4.9 20.6-9.7 27.6-17.5 4.9-5.4 14.2-17.3 8.8-23.9-13.7-16.9-35.6 22.2-39.7 29.7-1 1.9-2 3.7-2.9 5.6-1.3.6-2.6 1.3-3.8 2-3.9 2.2-3.1 9 2 8.2-.3 3.5 0 6.3 1.9 10.1 3.4 6.8 12.4 6.7 16.7 5 4.9-1.9 10.6-5.2 11.2-14.3 1.8-.7 4.4-1.5 6.1-2.5-2.8 6.4-4.3 13.9 1.3 17.2 4.4 2.6 8.9.7 12.9-2.9.7 1.7 2 3 4.2 3.6 3.4 1 8-1.7 10.8-6.3-1.9 4.9-.1 6.5 1.5 6.7 1.5.3 3.4-.8 4.2-3 .2-.7 1-3.1 1.2-3.8 1.2-2.7 3.1-1.7 6.1-2.9-.5 3.8-.3 8.6 4.5 9.3 5.2.7 9.2-1.8 12.7-6.2 3.3 7.8 12.7 10.8 23.1 1.6 6-5.1 7.6-14.8 4.4-22z" fill="#000"/></svg>