<svg xmlns="http://www.w3.org/2000/svg" width="688.027" height="141.631" viewBox="0 0 688.027 141.631"><path d="M30.361,0H6.021V-45.926H29.336v4.868H11.4v15.277h16.59v4.836H11.4V-4.868h18.96ZM60.85-1.505A17.066,17.066,0,0,1,51.883.769,14.847,14.847,0,0,1,40.562-3.8q-4.308-4.564-4.308-11.834,0-8.1,4.644-13.019t12.394-4.916a17.252,17.252,0,0,1,7.622,1.6v5.38A13.355,13.355,0,0,0,53.1-29.144a10.56,10.56,0,0,0-8.247,3.6,13.672,13.672,0,0,0-3.219,9.464q0,5.765,3.027,9.1A10.432,10.432,0,0,0,52.78-3.651,13.164,13.164,0,0,0,60.85-6.5ZM89.386-28.311H79.554V0H74.3V-28.311H64.437V-32.8H89.386Zm32.667,13.227H98.9q.128,5.477,2.946,8.455a10.157,10.157,0,0,0,7.75,2.978A16.114,16.114,0,0,0,119.779-7.3V-2.37Q115.456.769,108.346.769,101.4.769,97.425-3.7t-3.971-12.57q0-7.654,4.34-12.474a13.915,13.915,0,0,1,10.777-4.82q6.437,0,9.96,4.163t3.523,11.562Zm-5.38-4.452a10.687,10.687,0,0,0-2.194-7.078,7.475,7.475,0,0,0-6-2.53,8.484,8.484,0,0,0-6.309,2.658,12.063,12.063,0,0,0-3.2,6.95ZM152.35-1.505A17.066,17.066,0,0,1,143.383.769,14.847,14.847,0,0,1,132.062-3.8q-4.308-4.564-4.308-11.834,0-8.1,4.644-13.019t12.394-4.916a17.252,17.252,0,0,1,7.622,1.6v5.38a13.355,13.355,0,0,0-7.814-2.562,10.56,10.56,0,0,0-8.247,3.6,13.672,13.672,0,0,0-3.219,9.464q0,5.765,3.027,9.1a10.432,10.432,0,0,0,8.119,3.331A13.164,13.164,0,0,0,152.35-6.5Zm28.536-26.806h-9.832V0H165.8V-28.311h-9.864V-32.8h24.949ZM187.2,0V-32.8h14.284a12.273,12.273,0,0,1,7.638,2.146,6.983,6.983,0,0,1,2.8,5.861q0,6.373-6.277,7.75,7.526.961,7.526,7.59a8.611,8.611,0,0,1-3.091,6.726A11.185,11.185,0,0,1,202.408,0Zm5.252-28.311v9.224h7.879q6.341,0,6.341-4.932,0-4.292-5.7-4.292Zm0,13.707v10.12h9.1q6.373,0,6.373-5.156,0-4.964-7.142-4.964Zm55.854-.48H225.147q.128,5.477,2.946,8.455a10.157,10.157,0,0,0,7.75,2.978A16.114,16.114,0,0,0,246.028-7.3V-2.37Q241.7.769,234.595.769q-6.95,0-10.921-4.468T219.7-16.269q0-7.654,4.34-12.474a13.915,13.915,0,0,1,10.777-4.82q6.437,0,9.96,4.163T248.3-17.839Zm-5.38-4.452a10.686,10.686,0,0,0-2.194-7.078,7.475,7.475,0,0,0-6-2.53,8.484,8.484,0,0,0-6.309,2.658,12.063,12.063,0,0,0-3.2,6.95ZM283.467,0h-5.252V-14.892H261.5V0h-5.252V-32.8H261.5v13.451h16.718V-32.8h5.252Zm37.855,0H316.07V-14.892H299.352V0H294.1V-32.8h5.252v13.451H316.07V-32.8h5.252Zm34.108,0h-5.252V-5.124h-.128A11,11,0,0,1,339.962.769q-4.9,0-7.67-2.594a8.988,8.988,0,0,1-2.77-6.886q0-9.192,10.825-10.7l9.832-1.377q0-8.359-6.758-8.359a16.145,16.145,0,0,0-10.7,4.035v-5.38a20.324,20.324,0,0,1,11.145-3.075q11.562,0,11.562,12.234Zm-5.252-16.59L342.268-15.5a12.844,12.844,0,0,0-5.509,1.81q-1.858,1.3-1.858,4.6a5.006,5.006,0,0,0,1.713,3.923,6.621,6.621,0,0,0,4.564,1.521,8.43,8.43,0,0,0,6.453-2.738,9.784,9.784,0,0,0,2.546-6.934ZM387.746,0h-5.252V-13.579h-4.388q-3.171,0-5.765,5.124L368.081,0H362L367.5-10.12a9.739,9.739,0,0,1,4.644-4.644,9.048,9.048,0,0,1-5.861-2.818,8.438,8.438,0,0,1-2.018-5.765,8.4,8.4,0,0,1,3.155-6.9q3.155-2.546,8.855-2.546h11.466Zm-5.252-17.967V-28.311H376.28q-6.63,0-6.63,5.028,0,5.316,6.437,5.316ZM443.5,0h-5.252V-28.311H421.534V0h-5.252V-32.8H443.5Zm24.34.769q-7.27,0-11.61-4.6t-4.34-12.186q0-8.263,4.516-12.907t12.2-4.644q7.334,0,11.449,4.516t4.115,12.522q0,7.847-4.436,12.57T467.844.769Zm.384-29.913a9.99,9.99,0,0,0-8.007,3.443q-2.946,3.443-2.946,9.5,0,5.829,2.978,9.192a10.123,10.123,0,0,0,7.975,3.363q5.092,0,7.83-3.3t2.738-9.384q0-6.149-2.738-9.48A9.56,9.56,0,0,0,468.229-29.144Zm52.94,41.09h-4.452V0h-24.4V11.946h-4.484v-16.4h2.914q8.391-12.106,8.519-28.344H516.3V-4.452h4.868Zm-10.12-16.4V-28.344h-7.27a50.85,50.85,0,0,1-7.462,23.892Zm37.983-23.86H539.2V0h-5.252V-28.311h-9.864V-32.8h24.949ZM577.759,0h-5.252V-13.579h-4.388q-3.171,0-5.765,5.124L558.1,0H552.01l5.509-10.12a9.739,9.739,0,0,1,4.644-4.644,9.048,9.048,0,0,1-5.861-2.818,8.438,8.438,0,0,1-2.018-5.765,8.4,8.4,0,0,1,3.155-6.9q3.155-2.546,8.855-2.546h11.466Zm-5.252-17.967V-28.311h-6.213q-6.629,0-6.629,5.028,0,5.316,6.437,5.316ZM631.884,0h-7.11L610.106-16.205h-.128V0h-5V-16.205h-.128L590.154,0H583.14l16.269-16.91L584.133-32.8h6.694l14.028,15.341h.128V-32.8h5v15.341h.128L624.134-32.8h6.758L615.551-16.91Zm32.6,0h-7.366L642.645-15.757h-.128V0h-5.252V-32.8h5.252v15.02h.128L656.417-32.8H663.3L648.09-16.974Zm28.856,0h-5.252V-5.124h-.128A11,11,0,0,1,677.874.769q-4.9,0-7.67-2.594a8.988,8.988,0,0,1-2.77-6.886q0-9.192,10.825-10.7l9.832-1.377q0-8.359-6.758-8.359a16.145,16.145,0,0,0-10.7,4.035v-5.38a20.324,20.324,0,0,1,11.145-3.075q11.562,0,11.562,12.234Zm-5.252-16.59L680.18-15.5a12.843,12.843,0,0,0-5.509,1.81q-1.858,1.3-1.858,4.6a5.006,5.006,0,0,0,1.713,3.923,6.621,6.621,0,0,0,4.564,1.521,8.43,8.43,0,0,0,6.453-2.738,9.783,9.783,0,0,0,2.546-6.934ZM32.539,83.759H25.173L10.7,68h-.128V83.759H5.316v-32.8h5.252v15.02H10.7l13.771-15.02h6.886L16.141,66.784Zm19.088.769q-7.27,0-11.61-4.6t-4.34-12.186q0-8.263,4.516-12.907t12.2-4.644q7.334,0,11.45,4.516T67.96,67.233q0,7.847-4.436,12.57T51.627,84.527Zm.384-29.913A9.99,9.99,0,0,0,44,58.057q-2.946,3.443-2.946,9.5,0,5.829,2.978,9.192a10.123,10.123,0,0,0,7.975,3.363q5.092,0,7.83-3.3t2.738-9.384q0-6.149-2.738-9.48A9.56,9.56,0,0,0,52.011,54.614Zm67.9,29.144H112.8L98.129,67.553H98V83.759h-5V67.553h-.128l-14.7,16.205H71.163l16.27-16.91L72.156,50.963h6.694L92.877,66.3h.128V50.963h5V66.3h.128l14.028-15.341h6.758L103.574,66.848Zm32.859,0h-4.74V57.593q-.7,1.377-2.146,3.875l-15.149,22.29h-5.445v-32.8h4.8V76.809a33.311,33.311,0,0,1,1.665-3.171l15.565-22.675h5.445Zm52.524,0h-5.22V55.415h-7.622q-1.313,15.917-4.5,22.355t-8.567,6.437a7.965,7.965,0,0,1-2.818-.448V79.243a5.244,5.244,0,0,0,2.434.576q7.046,0,9.064-28.856h17.23Zm38.112,0h-4.74V57.593q-.7,1.377-2.146,3.875l-15.149,22.29h-5.445v-32.8h4.8V76.809a33.311,33.311,0,0,1,1.665-3.171l15.565-22.675H243.4ZM286.093,95.7h-4.516V83.759H254.035v-32.8h5.252V79.307h16.718V50.963h5.252V79.307h4.836Zm30.778-11.946h-5.252V78.634h-.128A11,11,0,0,1,301.4,84.527q-4.9,0-7.67-2.594a8.988,8.988,0,0,1-2.77-6.886q0-9.192,10.825-10.7l9.832-1.377q0-8.359-6.758-8.359a16.145,16.145,0,0,0-10.7,4.035v-5.38a20.324,20.324,0,0,1,11.145-3.075q11.562,0,11.562,12.234Zm-5.252-16.59-7.911,1.089a12.844,12.844,0,0,0-5.509,1.81q-1.858,1.3-1.858,4.6a5.006,5.006,0,0,0,1.713,3.923,6.621,6.621,0,0,0,4.564,1.521,8.43,8.43,0,0,0,6.453-2.738,9.784,9.784,0,0,0,2.546-6.934Zm60.594,16.59h-4.74V57.593q-.7,1.377-2.146,3.875l-15.149,22.29h-5.445v-32.8h4.8V76.809a33.317,33.317,0,0,1,1.665-3.171l15.565-22.675h5.445Zm49.193-28.311h-9.832V83.759h-5.252V55.447h-9.864V50.963h24.949Zm32.667,13.227H430.918q.128,5.477,2.946,8.455a10.157,10.157,0,0,0,7.75,2.978A16.114,16.114,0,0,0,451.8,76.456v4.932q-4.324,3.139-11.433,3.139-6.95,0-10.921-4.468t-3.971-12.57q0-7.654,4.34-12.474a13.915,13.915,0,0,1,10.777-4.82q6.437,0,9.96,4.163t3.523,11.562Zm-5.38-4.452a10.687,10.687,0,0,0-2.194-7.078,7.475,7.475,0,0,0-6.005-2.53,8.484,8.484,0,0,0-6.309,2.658,12.063,12.063,0,0,0-3.2,6.95Zm37.247,19.536h-5.22V55.415H473.1q-1.313,15.917-4.5,22.355t-8.567,6.437a7.965,7.965,0,0,1-2.818-.448V79.243a5.244,5.244,0,0,0,2.434.576q7.046,0,9.064-28.856h17.23Zm34.108,0H514.8V78.634h-.128a11,11,0,0,1-10.088,5.893q-4.9,0-7.67-2.594a8.988,8.988,0,0,1-2.77-6.886q0-9.192,10.825-10.7l9.832-1.377q0-8.359-6.758-8.359a16.145,16.145,0,0,0-10.7,4.035v-5.38a20.324,20.324,0,0,1,11.145-3.075q11.562,0,11.562,12.234ZM514.8,67.169l-7.911,1.089a12.844,12.844,0,0,0-5.509,1.81q-1.858,1.3-1.858,4.6a5.006,5.006,0,0,0,1.713,3.923,6.621,6.621,0,0,0,4.564,1.521,8.43,8.43,0,0,0,6.453-2.738,9.784,9.784,0,0,0,2.546-6.934Z" transform="translate(-5.316 45.926)" fill="#fff"/></svg>