<svg xmlns="http://www.w3.org/2000/svg" width="432.553" height="17.035" viewBox="0 0 432.553 17.035"><path d="M10.432,0H8.957V-11.257H5.462Q4.856-6.5,4.5-4.531a16.961,16.961,0,0,1-.711,2.9A3,3,0,0,1,2.819-.25,2.42,2.42,0,0,1,1.344.2,3.536,3.536,0,0,1,.14.018V-1.37a1.972,1.972,0,0,0,.992.255,1.315,1.315,0,0,0,1.023-.65A10.245,10.245,0,0,0,3.13-5.146q.5-2.731,1.1-7.446h6.2ZM21.164-8.992,17.028,1.44Q15.922,4.233,13.92,4.233a3.3,3.3,0,0,1-.94-.114V2.828a2.669,2.669,0,0,0,.852.158,1.765,1.765,0,0,0,1.633-1.3l.72-1.7L12.673-8.992h1.6L16.7-2.072q.044.132.184.685h.053q.044-.211.176-.667l2.555-6.937ZM30.4,0H28.973V-3.618a6.171,6.171,0,0,1-2.915.861q-3.021,0-3.021-3.2V-8.992h1.44v2.968q0,1.976,1.7,1.976A6.224,6.224,0,0,0,28.973-4.8V-8.992H30.4ZM45.237,0H33.769V-8.992h1.44v7.763h3.583V-8.992h1.431v7.763H43.8V-8.992h1.44Zm9.8,0H53.6V-1.4h-.035A3.015,3.015,0,0,1,50.8.211a2.956,2.956,0,0,1-2.1-.711,2.464,2.464,0,0,1-.76-1.888q0-2.52,2.968-2.933L53.6-5.7q0-2.292-1.853-2.292a4.427,4.427,0,0,0-2.933,1.106V-8.36A5.572,5.572,0,0,1,51.869-9.2q3.17,0,3.17,3.354ZM53.6-4.549l-2.169.3a3.521,3.521,0,0,0-1.51.5,1.431,1.431,0,0,0-.509,1.26,1.372,1.372,0,0,0,.47,1.076A1.815,1.815,0,0,0,51.131-1,2.311,2.311,0,0,0,52.9-1.752a2.682,2.682,0,0,0,.7-1.9ZM64.348,0h-1.44V-3.723h-1.2q-.869,0-1.581,1.4L58.957,0H57.288L58.8-2.775a2.67,2.67,0,0,1,1.273-1.273,2.481,2.481,0,0,1-1.607-.773A2.314,2.314,0,0,1,57.912-6.4a2.3,2.3,0,0,1,.865-1.892,3.771,3.771,0,0,1,2.428-.7h3.144Zm-1.44-4.926V-7.763H61.2q-1.818,0-1.818,1.379,0,1.458,1.765,1.458ZM80.536,0H79.1V-7.763H74.512V0h-1.44V-8.992h7.464Zm4.84-1.3h-.035V4.136H83.9V-8.992h1.44v1.581h.035A3.405,3.405,0,0,1,88.484-9.2,3.293,3.293,0,0,1,91.2-8a5,5,0,0,1,.975,3.236,5.573,5.573,0,0,1-1.1,3.613,3.655,3.655,0,0,1-3,1.357A3.008,3.008,0,0,1,85.376-1.3Zm-.035-3.627v1.256a2.674,2.674,0,0,0,.724,1.892A2.406,2.406,0,0,0,87.9-1a2.41,2.41,0,0,0,2.05-1A4.593,4.593,0,0,0,90.7-4.786,3.625,3.625,0,0,0,90-7.139a2.3,2.3,0,0,0-1.879-.852,2.552,2.552,0,0,0-2.02.874A3.208,3.208,0,0,0,85.341-4.926ZM98.681.211A4.171,4.171,0,0,1,95.5-1.049a4.667,4.667,0,0,1-1.19-3.341,4.862,4.862,0,0,1,1.238-3.539A4.451,4.451,0,0,1,98.892-9.2a4.033,4.033,0,0,1,3.139,1.238,4.909,4.909,0,0,1,1.128,3.433,4.831,4.831,0,0,1-1.216,3.447A4.262,4.262,0,0,1,98.681.211Zm.105-8.2a2.739,2.739,0,0,0-2.2.944,3.877,3.877,0,0,0-.808,2.6,3.667,3.667,0,0,0,.817,2.52A2.775,2.775,0,0,0,98.786-1a2.633,2.633,0,0,0,2.147-.9,3.925,3.925,0,0,0,.751-2.573,3.992,3.992,0,0,0-.751-2.6A2.621,2.621,0,0,0,98.786-7.991ZM114.7,3.275h-1.238V0H105.91V-8.992h1.44v7.771h4.584V-8.992h1.44v7.771H114.7Zm9.679-7.411h-6.349a3.363,3.363,0,0,0,.808,2.318A2.785,2.785,0,0,0,120.962-1a4.418,4.418,0,0,0,2.792-1V-.65a5.219,5.219,0,0,1-3.135.861,3.8,3.8,0,0,1-2.994-1.225,5.014,5.014,0,0,1-1.089-3.447,4.917,4.917,0,0,1,1.19-3.42A3.815,3.815,0,0,1,120.681-9.2a3.381,3.381,0,0,1,2.731,1.142,4.759,4.759,0,0,1,.966,3.17ZM122.9-5.357a2.93,2.93,0,0,0-.6-1.941,2.049,2.049,0,0,0-1.646-.694,2.326,2.326,0,0,0-1.73.729,3.308,3.308,0,0,0-.878,1.906Zm11.944,8.632h-1.221V0h-6.691V3.275h-1.229v-4.5h.8a13.5,13.5,0,0,0,2.336-7.771h4.672v7.771h1.335Zm-2.775-4.5V-7.771h-1.993a13.942,13.942,0,0,1-2.046,6.551Zm12.374-7.771L140.311,1.44Q139.2,4.233,137.2,4.233a3.3,3.3,0,0,1-.94-.114V2.828a2.669,2.669,0,0,0,.852.158,1.765,1.765,0,0,0,1.633-1.3l.72-1.7-3.512-8.974h1.6l2.432,6.92q.044.132.184.685h.053q.044-.211.176-.667l2.555-6.937Zm3.47,7.692h-.035V4.136h-1.44V-8.992h1.44v1.581h.035A3.405,3.405,0,0,1,151.025-9.2,3.293,3.293,0,0,1,153.739-8a5,5,0,0,1,.975,3.236,5.573,5.573,0,0,1-1.1,3.613,3.655,3.655,0,0,1-3,1.357A3.008,3.008,0,0,1,147.917-1.3Zm-.035-3.627v1.256a2.674,2.674,0,0,0,.724,1.892,2.406,2.406,0,0,0,1.84.777,2.41,2.41,0,0,0,2.05-1,4.593,4.593,0,0,0,.742-2.784,3.625,3.625,0,0,0-.694-2.353,2.3,2.3,0,0,0-1.879-.852,2.552,2.552,0,0,0-2.02.874A3.208,3.208,0,0,0,147.882-4.926ZM163.9,0h-1.44V-1.4h-.035A3.015,3.015,0,0,1,159.659.211a2.956,2.956,0,0,1-2.1-.711,2.464,2.464,0,0,1-.76-1.888q0-2.52,2.968-2.933l2.7-.378q0-2.292-1.853-2.292a4.427,4.427,0,0,0-2.933,1.106V-8.36A5.572,5.572,0,0,1,160.73-9.2q3.17,0,3.17,3.354Zm-1.44-4.549-2.169.3a3.521,3.521,0,0,0-1.51.5,1.431,1.431,0,0,0-.509,1.26,1.372,1.372,0,0,0,.47,1.076A1.815,1.815,0,0,0,159.993-1a2.311,2.311,0,0,0,1.769-.751,2.683,2.683,0,0,0,.7-1.9ZM179.9,0h-1.44V-7.763h-4.584V0h-1.44V-8.992H179.9Zm7.123.211a4.171,4.171,0,0,1-3.183-1.26,4.667,4.667,0,0,1-1.19-3.341,4.862,4.862,0,0,1,1.238-3.539A4.451,4.451,0,0,1,187.237-9.2a4.033,4.033,0,0,1,3.139,1.238A4.909,4.909,0,0,1,191.5-4.531a4.831,4.831,0,0,1-1.216,3.447A4.262,4.262,0,0,1,187.026.211Zm.105-8.2a2.739,2.739,0,0,0-2.2.944,3.877,3.877,0,0,0-.808,2.6,3.666,3.666,0,0,0,.817,2.52A2.775,2.775,0,0,0,187.132-1a2.633,2.633,0,0,0,2.147-.9,3.925,3.925,0,0,0,.751-2.573,3.992,3.992,0,0,0-.751-2.6A2.621,2.621,0,0,0,187.132-7.991ZM199.631,0V-8.992h3.916a3.365,3.365,0,0,1,2.094.588A1.915,1.915,0,0,1,206.41-6.8a1.975,1.975,0,0,1-1.721,2.125q2.064.263,2.064,2.081a2.361,2.361,0,0,1-.847,1.844A3.067,3.067,0,0,1,203.8,0Zm1.44-7.763v2.529h2.16q1.739,0,1.739-1.352,0-1.177-1.563-1.177Zm0,3.758v2.775h2.494q1.747,0,1.747-1.414Q205.312-4,203.354-4Zm15.764-.132h-6.349a3.363,3.363,0,0,0,.808,2.318A2.785,2.785,0,0,0,213.419-1a4.418,4.418,0,0,0,2.792-1V-.65a5.219,5.219,0,0,1-3.135.861,3.8,3.8,0,0,1-2.994-1.225,5.014,5.014,0,0,1-1.089-3.447,4.917,4.917,0,0,1,1.19-3.42A3.815,3.815,0,0,1,213.138-9.2a3.381,3.381,0,0,1,2.731,1.142,4.759,4.759,0,0,1,.966,3.17ZM215.36-5.357a2.93,2.93,0,0,0-.6-1.941,2.049,2.049,0,0,0-1.646-.694,2.326,2.326,0,0,0-1.73.729,3.307,3.307,0,0,0-.878,1.906ZM220.938-1.3H220.9V4.136h-1.44V-8.992h1.44v1.581h.035A3.405,3.405,0,0,1,224.046-9.2,3.293,3.293,0,0,1,226.759-8a5,5,0,0,1,.975,3.236,5.573,5.573,0,0,1-1.1,3.613,3.655,3.655,0,0,1-3,1.357A3.008,3.008,0,0,1,220.938-1.3ZM220.9-4.926v1.256a2.674,2.674,0,0,0,.724,1.892,2.406,2.406,0,0,0,1.84.777,2.41,2.41,0,0,0,2.05-1,4.593,4.593,0,0,0,.742-2.784,3.625,3.625,0,0,0-.694-2.353,2.3,2.3,0,0,0-1.879-.852,2.552,2.552,0,0,0-2.02.874A3.208,3.208,0,0,0,220.9-4.926ZM236.614-.413a4.679,4.679,0,0,1-2.459.623,4.071,4.071,0,0,1-3.1-1.251,4.535,4.535,0,0,1-1.181-3.245,4.985,4.985,0,0,1,1.273-3.57,4.454,4.454,0,0,1,3.4-1.348,4.73,4.73,0,0,1,2.09.439v1.475a3.662,3.662,0,0,0-2.143-.7A2.9,2.9,0,0,0,232.227-7a3.749,3.749,0,0,0-.883,2.595,3.569,3.569,0,0,0,.83,2.494A2.86,2.86,0,0,0,234.4-1a3.609,3.609,0,0,0,2.213-.782ZM246.775,0h-1.3V-7.174q-.193.378-.588,1.063L240.734,0h-1.493V-8.992h1.317v7.086a9.135,9.135,0,0,1,.457-.869l4.268-6.217h1.493Zm10.9,0h-1.3V-7.174q-.193.378-.588,1.063L251.633,0H250.14V-8.992h1.317v7.086a9.135,9.135,0,0,1,.457-.869l4.268-6.217h1.493Zm20.683,0h-1.949l-4.022-4.443h-.035V0h-1.37V-4.443h-.035L266.916,0h-1.923l4.461-4.636-4.189-4.355H267.1l3.846,4.206h.035V-8.992h1.37v4.206h.035l3.846-4.206h1.853l-4.206,4.355Zm9.081-8.992L283.3,1.44q-1.106,2.792-3.109,2.792a3.3,3.3,0,0,1-.94-.114V2.828a2.669,2.669,0,0,0,.852.158,1.765,1.765,0,0,0,1.633-1.3l.72-1.7-3.512-8.974h1.6l2.432,6.92q.044.132.184.685h.053q.044-.211.176-.667l2.555-6.937Zm3.47,7.692h-.035V4.136h-1.44V-8.992h1.44v1.581h.035A3.405,3.405,0,0,1,294.018-9.2,3.293,3.293,0,0,1,296.731-8a5,5,0,0,1,.975,3.236,5.573,5.573,0,0,1-1.1,3.613,3.655,3.655,0,0,1-3,1.357A3.008,3.008,0,0,1,290.909-1.3Zm-.035-3.627v1.256a2.674,2.674,0,0,0,.724,1.892,2.406,2.406,0,0,0,1.84.777,2.411,2.411,0,0,0,2.05-1,4.593,4.593,0,0,0,.742-2.784,3.625,3.625,0,0,0-.694-2.353,2.3,2.3,0,0,0-1.879-.852,2.552,2.552,0,0,0-2.02.874A3.208,3.208,0,0,0,290.874-4.926ZM307.92,0h-1.44V-4.083H301.9V0h-1.44V-8.992h1.44V-5.3h4.584V-8.992h1.44Zm9.8,0h-1.44V-1.4h-.035A3.015,3.015,0,0,1,313.48.211a2.956,2.956,0,0,1-2.1-.711,2.464,2.464,0,0,1-.76-1.888q0-2.52,2.968-2.933l2.7-.378q0-2.292-1.853-2.292A4.427,4.427,0,0,0,311.5-6.884V-8.36a5.572,5.572,0,0,1,3.056-.843q3.17,0,3.17,3.354Zm-1.44-4.549-2.169.3a3.521,3.521,0,0,0-1.51.5,1.431,1.431,0,0,0-.509,1.26,1.372,1.372,0,0,0,.47,1.076A1.815,1.815,0,0,0,313.814-1a2.311,2.311,0,0,0,1.769-.751,2.682,2.682,0,0,0,.7-1.9ZM327.444,0h-1.431V-7.771h-2.09a18.629,18.629,0,0,1-1.234,6.129A2.637,2.637,0,0,1,320.34.123,2.184,2.184,0,0,1,319.568,0V-1.238a1.438,1.438,0,0,0,.667.158q1.932,0,2.485-7.912h4.724Zm9.8,0h-1.44V-1.4h-.035A3.015,3.015,0,0,1,333,.211,2.956,2.956,0,0,1,330.9-.5a2.464,2.464,0,0,1-.76-1.888q0-2.52,2.968-2.933l2.7-.378q0-2.292-1.853-2.292a4.427,4.427,0,0,0-2.933,1.106V-8.36a5.572,5.572,0,0,1,3.056-.843q3.17,0,3.17,3.354Zm-1.44-4.549-2.169.3a3.521,3.521,0,0,0-1.51.5,1.431,1.431,0,0,0-.509,1.26,1.372,1.372,0,0,0,.47,1.076A1.815,1.815,0,0,0,333.338-1a2.311,2.311,0,0,0,1.769-.751,2.682,2.682,0,0,0,.7-1.9ZM355.391-.861A8.421,8.421,0,0,1,351.176.211a5.76,5.76,0,0,1-4.36-1.739,6.377,6.377,0,0,1-1.664-4.6,6.548,6.548,0,0,1,1.848-4.8,6.3,6.3,0,0,1,4.685-1.875,7.972,7.972,0,0,1,3.451.667V-10.5a6.628,6.628,0,0,0-3.618-.966,4.52,4.52,0,0,0-3.469,1.458A5.331,5.331,0,0,0,346.7-6.235a5.334,5.334,0,0,0,1.256,3.754,4.4,4.4,0,0,0,3.407,1.365,5.264,5.264,0,0,0,2.555-.588v-3.53h-2.757V-6.568h4.233ZM365.3,0h-6.533V-12.592h1.475V-1.335H365.3Zm12.655,0H376.32l-1.335-3.53h-5.339L368.391,0h-1.642l4.83-12.592h1.528ZM374.5-4.856l-1.976-5.365a5.138,5.138,0,0,1-.193-.843H372.3a4.707,4.707,0,0,1-.2.843l-1.958,5.365ZM393.094,0h-1.466V-8.447q0-1,.123-2.45h-.035a7.829,7.829,0,0,1-.378,1.221L387.035,0h-.72l-4.294-9.607a7.529,7.529,0,0,1-.378-1.291h-.035q.07.755.07,2.468V0h-1.423V-12.592h1.949l3.864,8.781a11.243,11.243,0,0,1,.58,1.51h.053q.378-1.036.606-1.545l3.943-8.746h1.844Zm8.836.211a5.527,5.527,0,0,1-4.29-1.765,6.547,6.547,0,0,1-1.611-4.593,6.936,6.936,0,0,1,1.642-4.847,5.735,5.735,0,0,1,4.47-1.809,5.4,5.4,0,0,1,4.2,1.756,6.57,6.57,0,0,1,1.594,4.593A6.959,6.959,0,0,1,406.3-1.581,5.629,5.629,0,0,1,401.93.211Zm.105-11.679a4.06,4.06,0,0,0-3.223,1.431,5.541,5.541,0,0,0-1.238,3.758,5.58,5.58,0,0,0,1.207,3.745,3.938,3.938,0,0,0,3.148,1.418A4.134,4.134,0,0,0,405.2-2.468a5.527,5.527,0,0,0,1.194-3.785,5.775,5.775,0,0,0-1.159-3.855A3.975,3.975,0,0,0,402.035-11.468Zm18.038,6.375q0,5.3-4.786,5.3-4.584,0-4.584-5.1v-7.7h1.475v7.6q0,3.872,3.267,3.872,3.152,0,3.152-3.741v-7.736h1.475ZM432.694,0h-1.756L428.83-3.53a7.686,7.686,0,0,0-.562-.839,3.2,3.2,0,0,0-.558-.566,1.931,1.931,0,0,0-.615-.321,2.527,2.527,0,0,0-.742-.1h-1.212V0h-1.475V-12.592h3.758a5.356,5.356,0,0,1,1.524.206,3.409,3.409,0,0,1,1.212.628,2.917,2.917,0,0,1,.8,1.049,3.479,3.479,0,0,1,.29,1.471,3.541,3.541,0,0,1-.2,1.207,3.153,3.153,0,0,1-.562.979,3.407,3.407,0,0,1-.878.733,4.483,4.483,0,0,1-1.155.47v.035a2.655,2.655,0,0,1,.549.321,3.021,3.021,0,0,1,.443.426,5.636,5.636,0,0,1,.417.558q.206.312.461.724Zm-7.552-11.257v4.566h2a3.037,3.037,0,0,0,1.023-.167,2.368,2.368,0,0,0,.812-.479,2.17,2.17,0,0,0,.536-.764,2.558,2.558,0,0,0,.193-1.014,1.974,1.974,0,0,0-.654-1.576,2.81,2.81,0,0,0-1.892-.566Z" transform="translate(-0.14 12.803)" fill="#fff"/></svg>