<svg version="1.1" id="Слой_1" xmlns="http://www.w3.org/2000/svg" x="0" y="0" viewBox="0 0 297.6 419.5" xml:space="preserve"><style>.st0{fill:#d92132}</style><path class="st0" d="M83.3 220c.4.9.4.9-.5.9H58c4.5-9 8.9-17.8 13.3-26.8.2.4.3.7.5.9 3.8 8.3 7.6 16.6 11.5 25z"/><path class="st0" d="M294.3 206.7c-.1-.1-.1-.3-.1-.4.1-1.9-.1-3.8-.1-5.7 0-1.6 0-3.2-.2-4.8-.3-2.8-.7-5.7-1.1-8.5-1.1-7.2-2.8-14.2-5.1-21.2-2.4-7.6-5.5-14.9-9.1-21.9-2.2-4.3-4.6-8.5-7.3-12.5-5.8-8.9-12.5-17.2-20.2-24.6-2.2-2.1-4.5-4.3-6.8-6.3-3.9-3.4-8-6.6-12.3-9.5-6.5-4.4-13.2-8.3-20.3-11.7-5.2-2.4-10.4-4.6-15.8-6.4-6.2-2.1-12.4-3.7-18.8-4.9-6-1.1-11.9-1.9-18-2-1.4 0-2.7.1-4.1-.1h-10c-1.4.2-2.8.1-4.2.1-4.5.1-8.9.5-13.3 1.2-6.9 1.1-13.7 2.6-20.3 4.7-8.4 2.6-16.5 5.9-24.2 10-4 2.1-7.9 4.3-11.6 6.8-7.2 4.6-13.8 9.9-20 15.7-3.6 3.4-7.1 6.9-10.4 10.7-3.1 3.6-6 7.3-8.8 11.1-3.8 5.3-7.2 10.8-10.2 16.5-1.7 3.3-3.4 6.7-4.9 10.2-2.7 6.4-5.1 12.9-6.9 19.7-1.4 5.3-2.6 10.7-3.4 16.2-.5 3.4-.9 6.9-1 10.4 0 2.5-.2 5.1-.1 7.6 0 .1 0 .2-.1.3v6.2c.1.1.1.3.1.4 0 2.1 0 4.2.1 6.3 0 1.5.1 3.1.2 4.6.3 3 .7 5.9 1.1 8.8 1.1 6.9 2.7 13.7 4.8 20.3 2.6 8.1 5.8 16 9.8 23.6 2.2 4.2 4.5 8.2 7.1 12.1 3.1 4.7 6.5 9.3 10.1 13.6 2.4 2.9 4.9 5.6 7.5 8.3 3 3.1 6.1 5.9 9.3 8.7 3.6 3.2 7.4 6.1 11.4 8.8 7.7 5.4 15.9 10 24.6 13.8 6.9 3 14 5.5 21.3 7.4 5.6 1.5 11.2 2.6 16.9 3.4 2.7.4 5.4.7 8.2.8 3.6.1 7.3.2 10.9.2.1 0 .3 0 .4.1h.7c.2-.2.4-.1.7-.1 3.2 0 6.3-.1 9.5-.1 4.7-.1 9.4-.8 14-1.5 6.4-1.1 12.7-2.6 18.8-4.5 8.3-2.6 16.2-5.9 23.9-10 6.4-3.4 12.6-7.2 18.4-11.6 5.5-4 10.6-8.4 15.5-13.2 1.5-1.4 2.9-2.9 4.3-4.4 2.4-2.5 4.7-5.2 6.9-7.9 3.5-4.3 6.7-8.7 9.6-13.4 4.3-6.8 8.1-14 11.3-21.5 2.2-5.3 4.1-10.7 5.7-16.2 1.7-5.7 2.9-11.6 3.9-17.5.6-3.7 1.1-7.5 1.1-11.2 0-2.4.2-4.8.2-7.2 0-.1 0-.3.1-.4v-7.4zm-191.7 41.9c-2.7.2-5-1.1-6.3-3.7l-4.5-9c-.3-.6-.6-.8-1.2-.8H52.2c-.6 0-1 .2-1.2.8-1.3 2.7-2.7 5.3-3.9 8-1.8 4.1-5.1 4.8-8.6 4.7-3-.1-6-4.1-5.8-7.1 0-1.4.4-2.7 1-3.9 8.3-16.2 16.6-32.5 24.9-48.7 2-4 4-8 6.1-11.9 1.3-2.4 3.3-4 6-4.3 3.1-.4 5.8 1.2 7.2 4 5.2 10.2 10.3 20.5 15.4 30.7 5 10 10 20.1 15.1 30 3.3 6.2-1.5 10.8-5.8 11.2zm80.7-8c0 4-1.6 6.4-5.1 7.6-1.9.6-3.9.1-5.6-.7-1.7-.8-3.2-2-4.4-3.5-11.6-14.7-23.1-29.3-34.7-44-.2-.2-.4-.4-.6-.7-.2.4-.1.7-.1 1.1v40.2c0 1 0 1.9-.3 2.9-.9 3.2-3.3 5-6.7 5-3.5 0-6.2-2.2-7-5.4-.2-.8-.2-1.5-.2-2.3v-59.9c0-1 0-1.9.2-2.9.5-2.8 2.3-4.3 5.1-4.7 4-.5 6.9 1.3 9.2 4.2 9.5 11.9 19 23.7 28.5 35.6 2.2 2.7 4.3 5.4 6.5 8.1.1.2.2.4.6.5v-41.4c0-2.9 1.2-5.1 3.5-6.8 1.6-1.1 3.3-1.4 5.1-.8 3 .9 6 4.1 5.9 7.8.1 19.9.2 40 .1 60.1zm64.7-43.1c-4.9 7-9.8 14-14.8 21-.3.4-.5.9-.5 1.4 0 7.4 0 14.9.1 22.3 0 4-3.3 6.8-7.6 6.3-3.8-.4-6.9-3-6.8-7.6.1-3.3 0-6.7 0-10v-11c0-.5-.1-1-.4-1.4-8.2-11.8-16.3-23.6-24.5-35.5-1.8-2.6-1.6-5.6.6-7.9 3.6-3.8 9.2-3.4 12.1.9 6.4 9.5 12.8 19.1 19.2 28.6.6.8.6.8 1.1 0 6.5-9.5 13-19.1 19.6-28.6 2.7-3.9 7.3-4.7 11-1.9 2.9 2.2 3.4 5.7 1.3 8.7-3.5 4.9-6.9 9.8-10.4 14.7zm11.7 51.1c-4.2 0-7.6-3.4-7.7-7.6 0-4.3 3.4-7.7 7.7-7.7 4.2 0 7.6 3.4 7.7 7.6 0 4.3-3.4 7.7-7.7 7.7z"/><path d="M82.7 220.8H58c4.5-9 8.9-17.8 13.3-26.8.2.4.3.7.5.9 3.8 8.3 7.6 16.6 11.4 25 .5.9.5.9-.5.9z" fill="#fefefe"/><path d="M82.7 220.8H58c4.5-9 8.9-17.8 13.3-26.8.2.4.3.7.5.9 3.8 8.3 7.6 16.6 11.4 25 .5.9.5.9-.5.9z" fill="#dc2233"/></svg>