<svg width="136" height="85" fill="none" xmlns="http://www.w3.org/2000/svg"><path fill-rule="evenodd" clip-rule="evenodd" d="M65.3.1c19-.9 36 5 47.8 13.2 10.2 7.1 22.7 20.9 22.6 38.8-.1 12-6.4 21.6-13.8 27.4-4.8 3.8-8.4 5.1-8.5 5.1H22.5C9.8 79.7 0 67 .1 52c.1-18.9 11.7-30.5 21.1-37.6C32.3 6.1 46.6.9 65.3.1zm63.2 56.1c1.9-11.8-3.5-22-9.3-28.5-11.3-13-30.9-22.4-55.3-21.1-21.6 1.1-39.4 10.4-49 23.6C10 36.9 5.6 46.9 8 57.9c2.1 9.7 10.5 17.5 17.1 19.9h87c8.3-5 14.7-11.1 16.4-21.6z" fill="#363636"/><path fill-rule="evenodd" clip-rule="evenodd" d="M61.1 73.1V11.9c.1 0 10.7-.2 13-.1 3.7.1 5.6 2.2 5.6 5.7l.1 52.1c-.1 2.1-1.3 3.3-2.8 3.4-.8.1-15.8 0-15.9.1zM71 19h-2.8v47h2.9c1 0 1.4-.5 1.4-1.7l.1-43.5c0-.9-.5-1.8-1.6-1.8zM56.5 35.3c0 1.8 0 3.7-2.5 4.7 2.6.5 2.5 2.3 2.5 4.4V73h-7.1c-.2-7.7-.1-27.3-.1-27.3 0-.7-.5-1-1.2-.8-.1 0-3.2.8-3.2.9V73h-7.1V18.7c4.1-2.5 11.4-5.1 14.6-5.7 1.8-.3 4 0 4.1 2.7v19.6zM45.1 24.1v14.4s3.2-1 3.3-1c.5-.1 1-.5 1-1.4V23.8c0-.9 0-1.1-.7-1-1.6.5-2.6.9-3.6 1.3zm39.1-11c5.2 1 9.6 2.8 14 4.7v8.6c-3-1.3-6.8-2.5-6.8-2.5v14.6c3.4.7 10 2.9 12.8 4.1v7.1c-3.1-1.2-8.9-3-12.6-3.7v20.7h5.7v6.5h-13c-.1-19.3-.1-40.3-.1-60.1z" fill="#363636"/><path fill-rule="evenodd" clip-rule="evenodd" d="M101.3 19.5c3.7 2.1 6.4 3.7 9.3 5.9 0 .2 2.9 11.1 3 11.2.1-.1 2.3-5.7 2.4-5.7 1.7 2 3.8 4.6 4.9 6.9 0 .1-3.9 10.7-3.9 10.8 0 .1 4.6 13.6 4.7 13.8-1.1 2.5-4 5.6-5.9 7.1-.1-.2-3.2-11-3.2-11 0 .1-5.6 14.4-5.7 14.6h-7.5c2.1-6.5 4.6-12.2 7.3-18.9.8-1.9 2.6-6.1 2.6-6.1-.1.1-8-28.6-8-28.6zM33.2 72.7h-6.9V52s-6.5 3.5-6.4 3.5c.6 2.2 2.6 6.2 4.8 8.5 0 .2-3.5 6.5-3.5 6.5-3.4-3.2-9.1-9.4-9.1-18.9C12 34 29.8 22.3 33.3 20.5c.1 0-.1 52.2-.1 52.2zm-13.7-25c.1-.1 6.5-3.8 6.7-3.9 0 0 .1-9 .1-9.1-2.4 1.8-6.3 7.7-6.8 13z" fill="#363636"/></svg>