<svg width="244" height="27" fill="none" xmlns="http://www.w3.org/2000/svg"><path d="M14.6 13c2.1 1.3 3.1 3.3 3.1 5.9 0 2.2-.7 4-2.1 5.4-1.4 1.4-3.2 2.1-5.3 2.1H.3V.7h9.4c2 0 3.7.7 5.1 2 1.4 1.4 2.1 3.1 2.1 5.2s-.8 3.8-2.3 5.1zm-5-7.6H5V11h4.7c.7 0 1.3-.3 1.8-.8s.7-1.2.7-2-.2-1.5-.7-2c-.5-.5-1.1-.8-1.9-.8zm.8 16.2c.8 0 1.4-.3 2-.9.5-.6.8-1.3.8-2.2 0-.9-.3-1.6-.8-2.1-.5-.6-1.2-.9-2-.9H5v6.1h5.4zm37.1 4.8l-1.4-4.6h-9.5l-1.4 4.6h-5.1L38.4.7h5.8l8.3 25.7h-5zM38.1 17h6.5L41.3 6.5 38.1 17zm36.4 9.9c-2.6 0-4.8-.8-6.5-2.4-1.7-1.6-2.5-3.8-2.5-6.5V.7h4.6v16.9c0 1.3.4 2.4 1.1 3.2.7.8 1.8 1.2 3.3 1.2 1.5 0 2.6-.4 3.3-1.2.7-.8 1.1-1.8 1.1-3.2V.7h4.7V18c0 2.7-.8 4.9-2.5 6.5-1.7 1.6-3.9 2.4-6.6 2.4zm38.7-23.8h-11v9.5h10.5V15h-10.5v11.4h-2.4V.7h13.4v2.4zm30.3 23.3l-2.2-6.3H130l-2.2 6.3h-2.5L134.4.7h2.4l9.1 25.7h-2.4zm-12.6-8.8h9.6l-4.8-13.8-4.8 13.8zm36.4 9.2c-2.2 0-4-.6-5.6-1.7-1.6-1.1-2.6-2.6-3.2-4.6l2-1.3c.4 1.6 1.2 2.8 2.4 3.7 1.2.9 2.6 1.3 4.4 1.3 1.8 0 3.1-.4 4.1-1.3 1-.8 1.5-2 1.5-3.4 0-1.3-.5-2.4-1.4-3-.9-.7-2.4-1.4-4.5-2.1-2.5-.9-4.1-1.6-4.9-2.1-1.8-1.2-2.7-2.9-2.7-5.1 0-2.2.7-3.9 2.1-5.2 1.4-1.3 3.1-1.9 5.2-1.9 1.9 0 3.5.5 4.8 1.6 1.4 1 2.4 2.4 3 4l-2 1.2c-1.1-2.8-3-4.3-5.8-4.3-1.5 0-2.7.4-3.6 1.2-.9.8-1.4 1.9-1.4 3.3 0 1.3.4 2.2 1.2 2.9.8.6 2.2 1.3 4 1.9.9.3 1.5.5 1.8.7.4.1.9.4 1.6.7.7.3 1.2.6 1.6.8.3.2.8.6 1.2 1 .5.4.8.8 1.1 1.2.2.4.4.9.6 1.5.2.6.3 1.2.3 1.9 0 2.2-.7 3.9-2.2 5.2-1.3 1.2-3.2 1.9-5.6 1.9zm39-.4l-2.2-6.3h-11.3l-2.2 6.3h-2.5L197.2.7h2.4l9.1 25.7h-2.4zm-12.6-8.8h9.6l-4.8-13.8-4.8 13.8zM232.4.7c3.2 0 5.9 1.2 8 3.7 2.1 2.5 3.2 5.5 3.2 9.1 0 3.6-1.1 6.6-3.2 9.1s-4.8 3.7-8 3.7h-9.2V.7h9.2zm0 23.2c2.6 0 4.7-1 6.4-3 1.7-2 2.5-4.5 2.5-7.4 0-2.9-.8-5.4-2.5-7.4s-3.8-3-6.4-3h-6.8v20.8h6.8z" fill="#0E0F0F"/></svg>