<svg version="1.1" id="Слой_1" xmlns="http://www.w3.org/2000/svg" xmlns:xlink="http://www.w3.org/1999/xlink" x="0" y="0" viewBox="0 0 1133.9 637.8" xml:space="preserve"><style>.st0{fill:#a61c20}.st1{fill:none;stroke:#a6192e;stroke-miterlimit:10}.st3,.st4{clip-path:url(#SVGID_2_);fill:#a61c20}.st4{fill:none;stroke:#a6192e;stroke-miterlimit:10}</style><path class="st0" d="M597 129.9c-1.1.9-2.2-.5-4.8.4-19.7 6.7-34.4 15.2-46.1 27.6-8.2 8.7-12.5 15.7-19.3 25-3.4 4.6-8.8 13.9-22.1 33.4-34.4 50.3-65.8 83.6-85 102.8-15.8 15.8-33.6 27.4-61.2 43.9-13.2 7.5-28.5 13.9-46.9 13.3-14.1-.5-19-8.2-19.4-11.5-.5-3.4.3-6.3 1.8-9.1 3.2-5.6 9.1-9.1 15.7-11.3 9.8-3.3 21.4-4.2 32.5-4.1 21.9.5 43.4 5.1 65.2 5.4 21.8.2 43.2-7.1 62.1-18.7 19-11.6 35.5-27.3 49.5-45.1 13.6-17.8 24.2-38.5 28.7-60.5 2.1-11 2.7-22.4.1-33-2.5-10.6-8.9-20.2-18.5-25-9.9-4.9-20.8-7.2-31.8-8-5.5-.3-11.1-.3-16.6.1-5.5.4-11 1.2-16.4 2.2-35.5 6.1-66.1 31.9-78.5 42.1-9.6 7.9-26.3 26.7-36.1 40.4S331.1 282 345 288c12.7 5.5 38.6-10.5 44.5-14.1 6-3.7 17.1-10.5 40.1-30.8 23-20.4 41.7-55.2 44-62.8 2.4-7.6 3.1-15.2.5-22.1-2.4-6.9-7.2-12.7-12.8-16.9-5.7-4.2-10.8-6.2-19.5-7.9-11.2-2.2-26.1-2.2-37.9.2-11.7 2.3-21.3 5-30.3 8.9-18.1 8.1-33.6 18.8-41.7 27.3-2.7 2.9-.5 5.7-3.6 7.6-2.4 1.4-5.4-1.6-4.3-4.2 1-2.7 3.7-6.4 7.9-9.9 8.3-7 21.4-16.6 40.1-24.7 9.4-3.9 19.3-6.7 31.3-9.1 12.4-2.4 26.1-2.2 39.7-.3 7.6 1.1 14.9 4 21.1 8.6 6.2 4.6 11.6 11.1 14.5 18.9.7 2 1.3 4 1.6 6.1.2 1 .3 2.2.4 3.3 0 .9.1 2.1 0 3.1-.1 4.3-1 8.5-2.1 12.6-2.4 8.2-6.2 16-10.5 23.6-8.9 15.1-22 31.3-44.3 50.9-30.6 26.8-56.3 35.9-67.4 37.2-5.6.5-26 3.1-33.4-17.6-4.3-12.1-.7-24.7 3.6-35.5 8.1-18.7 29.3-42.4 59.1-60.4 21.8-13.1 54.8-27.5 77.7-30.3 22.8-2.4 47-1.9 68.6 8.9 11 5.6 18.4 16.9 21 28.5 2.8 11.7 2 23.7-.3 35.2-4.9 23-15.9 44-30 62.3-14.1 18.2-31 34.3-50.5 46.3-9.7 6-20.2 10.9-31 14.3-5.4 1.8-11 3-16.6 4.1-5.4.8-11.3 1.4-16.9 1.4-22.5-.1-43.6-5.2-64.7-5.4-10.3-.1-20.3.7-30.6 5.6-4.4 1.9-7.9 5.8-9 8.8-1.1 2.9-1.2 8.4 3.3 10.7 7 3.6 19.9.3 24.5-1.2 10.9-3.5 17.2-6.9 26-12.9 16.4-10.6 29.8-23.8 42.9-36.5 36.1-37.5 83.3-102.1 91.4-113.3 4-5.7 22.3-29.5 24.3-31.9 7.5-9.6 13-14.1 24.7-23 9.2-7 29.6-17.8 50.7-22.7 3.6-.8 5.1-1.2 6.2-.9-.4.1 1 .8-.3 1.9"/><path class="st1" d="M597 129.9c-1.1.9-2.2-.5-4.8.4-19.7 6.7-34.4 15.2-46.1 27.6-8.2 8.7-12.5 15.7-19.3 25-3.4 4.6-8.8 13.9-22.1 33.4-34.4 50.3-65.8 83.6-85 102.8-15.8 15.8-33.6 27.4-61.2 43.9-13.2 7.5-28.5 13.9-46.9 13.3-14.1-.5-19-8.2-19.4-11.5-.5-3.4.3-6.3 1.8-9.1 3.2-5.6 9.1-9.1 15.7-11.3 9.8-3.3 21.4-4.2 32.5-4.1 21.9.5 43.4 5.1 65.2 5.4 21.8.2 43.2-7.1 62.1-18.7 19-11.6 35.5-27.3 49.5-45.1 13.6-17.8 24.2-38.5 28.7-60.5 2.1-11 2.7-22.4.1-33-2.5-10.6-8.9-20.2-18.5-25-9.9-4.9-20.8-7.2-31.8-8-5.5-.3-11.1-.3-16.6.1-5.5.4-11 1.2-16.4 2.2-35.5 6.1-66.1 31.9-78.5 42.1-9.6 7.9-26.3 26.7-36.1 40.4S331.1 282 345 288c12.7 5.5 38.6-10.5 44.5-14.1 6-3.7 17.1-10.5 40.1-30.8 23-20.4 41.7-55.2 44-62.8 2.4-7.6 3.1-15.2.5-22.1-2.4-6.9-7.2-12.7-12.8-16.9-5.7-4.2-10.8-6.2-19.5-7.9-11.2-2.2-26.1-2.2-37.9.2-11.7 2.3-21.3 5-30.3 8.9-18.1 8.1-33.6 18.8-41.7 27.3-2.7 2.9-.5 5.7-3.6 7.6-2.4 1.4-5.4-1.6-4.3-4.2 1-2.7 3.7-6.4 7.9-9.9 8.3-7 21.4-16.6 40.1-24.7 9.4-3.9 19.3-6.7 31.3-9.1 12.4-2.4 26.1-2.2 39.7-.3 7.6 1.1 14.9 4 21.1 8.6 6.2 4.6 11.6 11.1 14.5 18.9.7 2 1.3 4 1.6 6.1.2 1 .3 2.2.4 3.3 0 .9.1 2.1 0 3.1-.1 4.3-1 8.5-2.1 12.6-2.4 8.2-6.2 16-10.5 23.6-8.9 15.1-22 31.3-44.3 50.9-30.6 26.8-56.3 35.9-67.4 37.2-5.6.5-26 3.1-33.4-17.6-4.3-12.1-.7-24.7 3.6-35.5 8.1-18.7 29.3-42.4 59.1-60.4 21.8-13.1 54.8-27.5 77.7-30.3 22.8-2.4 47-1.9 68.6 8.9 11 5.6 18.4 16.9 21 28.5 2.8 11.7 2 23.7-.3 35.2-4.9 23-15.9 44-30 62.3-14.1 18.2-31 34.3-50.5 46.3-9.7 6-20.2 10.9-31 14.3-5.4 1.8-11 3-16.6 4.1-5.4.8-11.3 1.4-16.9 1.4-22.5-.1-43.6-5.2-64.7-5.4-10.3-.1-20.3.7-30.6 5.6-4.4 1.9-7.9 5.8-9 8.8-1.1 2.9-1.2 8.4 3.3 10.7 7 3.6 19.9.3 24.5-1.2 10.9-3.5 17.2-6.9 26-12.9 16.4-10.6 29.8-23.8 42.9-36.5 36.1-37.5 83.3-102.1 91.4-113.3 4-5.7 22.3-29.5 24.3-31.9 7.5-9.6 13-14.1 24.7-23 9.2-7 29.6-17.8 50.7-22.7 3.6-.8 5.1-1.2 6.2-.9-.4.1 1 .8-.3 1.9z"/><path class="st0" d="M780.1 260.2c5.1 0 5.3 5.6 3.2 8.4-3 3.9-2.4 3-5.3 6.6-5.1 6.4-23.3 27.7-30.6 36.6-17.5 21.4-30.1 43.1-31.2 54.8-1 10.5-.3 23 15.2 25 8.6.6 18.4.2 34.8-5.9 29.8-11.1 65.6-35.2 72.6-40.6 5.3-4 7-6.1 8.3-6.8 1.3-.7 2.3 1.2 1.8 2.1-2.9 4.5-42.8 31.9-64.8 42.1-18.5 8.7-38.3 18.1-59.6 14.4-21.7-3.8-22.4-26.2-22.4-31-.2-5.6 2.2-16.9 12-33.1 3-5 12.6-19.4 15-22.6 4.9-6.6 8.8-15.2 13.2-20.7 8.9-11.1 13.2-15.4 18.7-21.7 3-3.5 5.6-5.4 7.4-6.4 1.2-.7 2.6-1 4-1h7.7z"/><path class="st1" d="M780.1 260.2c5.1 0 5.3 5.6 3.2 8.4-3 3.9-2.4 3-5.3 6.6-5.1 6.4-23.3 27.7-30.6 36.6-17.5 21.4-30.1 43.1-31.2 54.8-1 10.5-.3 23 15.2 25 8.6.6 18.4.2 34.8-5.9 29.8-11.1 65.6-35.2 72.6-40.6 5.3-4 7-6.1 8.3-6.8 1.3-.7 2.3 1.2 1.8 2.1-2.9 4.5-42.8 31.9-64.8 42.1-18.5 8.7-38.3 18.1-59.6 14.4-21.7-3.8-22.4-26.2-22.4-31-.2-5.6 2.2-16.9 12-33.1 3-5 12.6-19.4 15-22.6 4.9-6.6 8.8-15.2 13.2-20.7 8.9-11.1 13.2-15.4 18.7-21.7 3-3.5 5.6-5.4 7.4-6.4 1.2-.7 2.6-1 4-1h7.7z"/><path class="st0" d="M591.5 264.1c-6.7 3.2-9 5.9-17.9 14.9-7.3 7.4-15.9 18-22.8 26.8-9.7 10.7-19.1 26.6-15.3 34.9 3.6 8 20.5 1.9 28.1-2.1 5.3-2.7 19.1-10.4 28.9-21.3 4.1-4.4 7.3-9.7 10.7-14.6 3.3-4.9 6.4-10.2 7.8-15.8.6-2.7 1.3-6.8-1.4-7.4-3.5-.7-8.7 7.7-10.2 11.2-2.1 4.8-4.5 15.2 3.5 17.1 7.3 1.8 9.6.6 15.4.1 0 0 3.5-6.5 6.4-7.2 5.5-1.4 9.6-1 12.7-.4 3.1.6 3.1 3.5 1.8 5.1-6.5 8-17.4 17-21.6 25.8-5.4 11.7 6.2 10.7 13.2 5.6 6.4-4.6 18.6-15.7 24-21.7 11-12 20.6-22.2 31.9-34.1 5.6-6.1 12.1-12.1 19-17.2 1.7-1.3 7.6-5.6 11.9-3.8 5.4 2.3 5.5 9.3 4.6 14.7-1.4 8.6-5.8 13.5-11.9 21.8-5.1 7-15.6 18.8-21.3 25.8-5.7 7-9.5 11.1-6.6 15.9 2.2 3.7 9.9 1.9 19.9-7.2 17-15.3 42.6-44.4 42.6-44.4s-8.9 16.9-15.2 22.4c-27.9 31.6-36.3 34.2-42 35.9-6.3 1.9-11.3-.5-13.6-3.8-3.7-5.4-5.7-11.6.2-22 5.5-9.5 10.9-17.2 21.5-29.2 5.4-6.1 12.3-13.9 15.2-17.8 1.6-2.2 2.3-4.3 1.2-5.5-.9-.9-3.8-1.8-7.4 1s-10.9 9.7-16.5 15.4c-11.3 11.5-19.3 21.5-30.5 33.3-5.7 5.9-19.4 21.1-29.2 25.8-4 1.9-8.1 2.8-13.8 1.3-5.5-1.4-13.4-7.2-5.3-22.9 4.1-7.2 6.4-9.6 6.4-9.6s-18 4.2-23.1-6.9c-3.7-8.1-.1-15.6 2.4-19.8 2.8-4.7 8.7-9.9 14.5-8.4 6.2 1.5 4.6 9.9 4.2 11.5-1.6 6.2-4.9 11.6-8.4 16.6-3.6 5-6.6 10.3-10.8 14.7-6.8 7.8-17.2 16.3-29.6 22.7-7.7 4-22 9.6-30.4 3.9-13-8.7-9.6-24-7.9-30.3 1.7-6.4 5-13.9 19.7-29.3 11.8-12.4 26.1-19.2 34.4-22.2 7.7-2.8 13.2-2.9 13.4-1.6 0 1.5-.7 1.2-2.8 2.3"/><path class="st1" d="M591.5 264.1c-6.7 3.2-9 5.9-17.9 14.9-7.3 7.4-15.9 18-22.8 26.8-9.7 10.7-19.1 26.6-15.3 34.9 3.6 8 20.5 1.9 28.1-2.1 5.3-2.7 19.1-10.4 28.9-21.3 4.1-4.4 7.3-9.7 10.7-14.6 3.3-4.9 6.4-10.2 7.8-15.8.6-2.7 1.3-6.8-1.4-7.4-3.5-.7-8.7 7.7-10.2 11.2-2.1 4.8-4.5 15.2 3.5 17.1 7.3 1.8 9.6.6 15.4.1 0 0 3.5-6.5 6.4-7.2 5.5-1.4 9.6-1 12.7-.4 3.1.6 3.1 3.5 1.8 5.1-6.5 8-17.4 17-21.6 25.8-5.4 11.7 6.2 10.7 13.2 5.6 6.4-4.6 18.6-15.7 24-21.7 11-12 20.6-22.2 31.9-34.1 5.6-6.1 12.1-12.1 19-17.2 1.7-1.3 7.6-5.6 11.9-3.8 5.4 2.3 5.5 9.3 4.6 14.7-1.4 8.6-5.8 13.5-11.9 21.8-5.1 7-15.6 18.8-21.3 25.8-5.7 7-9.5 11.1-6.6 15.9 2.2 3.7 9.9 1.9 19.9-7.2 17-15.3 42.6-44.4 42.6-44.4s-8.9 16.9-15.2 22.4c-27.9 31.6-36.3 34.2-42 35.9-6.3 1.9-11.3-.5-13.6-3.8-3.7-5.4-5.7-11.6.2-22 5.5-9.5 10.9-17.2 21.5-29.2 5.4-6.1 12.3-13.9 15.2-17.8 1.6-2.2 2.3-4.3 1.2-5.5-.9-.9-3.8-1.8-7.4 1s-10.9 9.7-16.5 15.4c-11.3 11.5-19.3 21.5-30.5 33.3-5.7 5.9-19.4 21.1-29.2 25.8-4 1.9-8.1 2.8-13.8 1.3-5.5-1.4-13.4-7.2-5.3-22.9 4.1-7.2 6.4-9.6 6.4-9.6s-18 4.2-23.1-6.9c-3.7-8.1-.1-15.6 2.4-19.8 2.8-4.7 8.7-9.9 14.5-8.4 6.2 1.5 4.6 9.9 4.2 11.5-1.6 6.2-4.9 11.6-8.4 16.6-3.6 5-6.6 10.3-10.8 14.7-6.8 7.8-17.2 16.3-29.6 22.7-7.7 4-22 9.6-30.4 3.9-13-8.7-9.6-24-7.9-30.3 1.7-6.4 5-13.9 19.7-29.3 11.8-12.4 26.1-19.2 34.4-22.2 7.7-2.8 13.2-2.9 13.4-1.6 0 1.5-.7 1.2-2.8 2.3z"/><path class="st0" d="M613.3 202.6c0-5.3-3.6-8.7-7.9-8.7-4.2 0-8.1 3.5-8.1 8.7s4 8.7 8.1 8.7c4.3 0 7.9-3.2 7.9-8.7m-19.2-11.2h3.3v4.5c1.8-2.7 4.5-5 8.6-5 5.4 0 10.7 4.3 10.7 11.7 0 7.3-5.3 11.7-10.7 11.7-4.2 0-6.9-2.3-8.6-4.8v11.2h-3.3v-29.3z"/><path class="st1" d="M613.3 202.6c0-5.3-3.6-8.7-7.9-8.7-4.2 0-8.1 3.5-8.1 8.7s4 8.7 8.1 8.7c4.3 0 7.9-3.2 7.9-8.7zm-19.2-11.2h3.3v4.5c1.8-2.7 4.5-5 8.6-5 5.4 0 10.7 4.3 10.7 11.7 0 7.3-5.3 11.7-10.7 11.7-4.2 0-6.9-2.3-8.6-4.8v11.2h-3.3v-29.3z"/><path class="st0" d="M642.9 201.3c-.4-4.1-2.7-7.6-7.2-7.6-3.9 0-6.8 3.2-7.3 7.6h14.5zm-17.9 1.3c0-6.5 4.6-11.7 10.8-11.7 6.6 0 10.5 5.3 10.5 11.9v1.2h-17.8c.5 4.7 4 7.5 7.9 7.5 3.1 0 5.3-1.3 7.1-3.2l2.1 1.9c-2.3 2.5-5 4.2-9.3 4.2-6.3-.1-11.3-4.8-11.3-11.8"/><path class="st1" d="M642.9 201.3c-.4-4.1-2.7-7.6-7.2-7.6-3.9 0-6.8 3.2-7.3 7.6h14.5zm-17.9 1.3c0-6.5 4.6-11.7 10.8-11.7 6.6 0 10.5 5.3 10.5 11.9v1.2h-17.8c.5 4.7 4 7.5 7.9 7.5 3.1 0 5.3-1.3 7.1-3.2l2.1 1.9c-2.3 2.5-5 4.2-9.3 4.2-6.3-.1-11.3-4.8-11.3-11.8z"/><path class="st0" d="M654.3 202.6c0-6.3 5-11.7 11.5-11.7 4.3 0 6.9 1.8 9 4l-2.1 2.3c-1.8-1.9-3.9-3.3-6.9-3.3-4.6 0-8 3.9-8 8.8s3.6 8.7 8.3 8.7c2.9 0 5-1.5 6.8-3.4l2.2 2c-2.3 2.5-5 4.3-9.2 4.3-6.6 0-11.6-5.3-11.6-11.7"/><path class="st1" d="M654.3 202.6c0-6.3 5-11.7 11.5-11.7 4.3 0 6.9 1.8 9 4l-2.1 2.3c-1.8-1.9-3.9-3.3-6.9-3.3-4.6 0-8 3.9-8 8.8s3.6 8.7 8.3 8.7c2.9 0 5-1.5 6.8-3.4l2.2 2c-2.3 2.5-5 4.3-9.2 4.3-6.6 0-11.6-5.3-11.6-11.7z"/><path fill="none" d="M0 0h1133.9v637.8H0z"/><path class="st0" d="M690.2 194.3h-8v-2.9h19.4v2.9h-8v19.5h-3.4z"/><path class="st1" d="M690.2 194.3h-8v-2.9h19.4v2.9h-8v19.5h-3.4z"/><defs><path id="SVGID_1_" d="M0 0h1133.9v637.8H0z"/></defs><clipPath id="SVGID_2_"><use xlink:href="#SVGID_1_" overflow="visible"/></clipPath><path class="st3" d="M727.8 202.6c0-4.8-3.6-8.8-8.3-8.8-4.9 0-8.2 4-8.2 8.8 0 4.8 3.6 8.7 8.3 8.7 4.8 0 8.2-3.9 8.2-8.7m-20 0c0-6.3 5-11.7 11.7-11.7 6.7 0 11.7 5.3 11.7 11.7 0 6.3-5 11.7-11.8 11.7-6.7 0-11.6-5.3-11.6-11.7"/><path class="st4" d="M727.8 202.6c0-4.8-3.6-8.8-8.3-8.8-4.9 0-8.2 4-8.2 8.8 0 4.8 3.6 8.7 8.3 8.7 4.8 0 8.2-3.9 8.2-8.7zm-20 0c0-6.3 5-11.7 11.7-11.7 6.7 0 11.7 5.3 11.7 11.7 0 6.3-5 11.7-11.8 11.7-6.7 0-11.6-5.3-11.6-11.7z"/><path class="st3" d="M759.9 202.6c0-5.3-3.6-8.7-7.9-8.7-4.2 0-8.1 3.5-8.1 8.7s4 8.7 8.1 8.7c4.4 0 7.9-3.2 7.9-8.7m-19.2-11.2h3.3v4.5c1.8-2.7 4.5-5 8.6-5 5.4 0 10.7 4.3 10.7 11.7 0 7.3-5.3 11.7-10.7 11.7-4.2 0-6.9-2.3-8.6-4.8v11.2h-3.3v-29.3z"/><path class="st4" d="M759.9 202.6c0-5.3-3.6-8.7-7.9-8.7-4.2 0-8.1 3.5-8.1 8.7s4 8.7 8.1 8.7c4.4 0 7.9-3.2 7.9-8.7zm-19.2-11.2h3.3v4.5c1.8-2.7 4.5-5 8.6-5 5.4 0 10.7 4.3 10.7 11.7 0 7.3-5.3 11.7-10.7 11.7-4.2 0-6.9-2.3-8.6-4.8v11.2h-3.3v-29.3z"/><path class="st3" d="M787.8 205.6v-2.1c-1.7-.5-3.8-1-6.6-1-4.2 0-6.6 1.8-6.6 4.6s2.6 4.5 5.6 4.5c4.3 0 7.6-2.5 7.6-6m-16.5 1.6c0-4.8 3.9-7.3 9.6-7.3 2.9 0 4.9.4 6.9 1v-.7c0-4-2.4-6.1-6.6-6.1-2.6 0-4.7.7-6.8 1.6l-1-2.7c2.5-1.1 4.9-1.9 8.2-1.9 3.2 0 5.6.9 7.3 2.5 1.6 1.6 2.3 3.7 2.3 6.6v13.7h-3.3v-3.3c-1.6 2-4.1 3.8-8.1 3.8-4.3-.1-8.5-2.5-8.5-7.2"/><path class="st4" d="M787.8 205.6v-2.1c-1.7-.5-3.8-1-6.6-1-4.2 0-6.6 1.8-6.6 4.6s2.6 4.5 5.6 4.5c4.3 0 7.6-2.5 7.6-6zm-16.5 1.6c0-4.8 3.9-7.3 9.6-7.3 2.9 0 4.9.4 6.9 1v-.7c0-4-2.4-6.1-6.6-6.1-2.6 0-4.7.7-6.8 1.6l-1-2.7c2.5-1.1 4.9-1.9 8.2-1.9 3.2 0 5.6.9 7.3 2.5 1.6 1.6 2.3 3.7 2.3 6.6v13.7h-3.3v-3.3c-1.6 2-4.1 3.8-8.1 3.8-4.3-.1-8.5-2.5-8.5-7.2z"/><path class="st0" d="M801.8 191.4h3.3v9.6h13v-9.6h3.3v22.4h-3.3V204h-13v9.8h-3.3z"/><path class="st1" d="M801.8 191.4h3.3v9.6h13v-9.6h3.3v22.4h-3.3V204h-13v9.8h-3.3z"/></svg>