<svg xmlns="http://www.w3.org/2000/svg" width="159.001" height="44"><path d="M92.321 27.586a10.62 10.62 0 0 1-16.081 1.719 10.364 10.364 0 0 1 14.7-14.607 10.054 10.054 0 0 1 1.381 1.719l8.513-8.528A23.525 23.525 0 0 0 99.4 6.343a22.88 22.88 0 0 0-31.621 0 21.091 21.091 0 0 0-6.45 15.659 21.088 21.088 0 0 0 6.45 15.659 22.88 22.88 0 0 0 31.621 0c.509-.5.985-1.017 1.434-1.546zM30.61 1.024v11.661h9.9v30.284h12V12.685h3.8l6.1-6.114V1.024zM0 1.024v41.945h21.5l6.1-6.114v-5.547H12v-3.48h7.666l6.1-6.115v-5.548H12v-3.48h9.5l6.1-6.114V1.024zm111.427 24.658h1.887v1.04h-2.966v-4.726h2.932v1.04h-1.853v.783h1.685v1.026h-1.685zm5.084-.688a.809.809 0 0 1 .452.763.891.891 0 0 1-.3.7 1.23 1.23 0 0 1-.846.267h-1.82v-3.378h1.689a1.23 1.23 0 0 1 .846.267.892.892 0 0 1 .3.7.8.8 0 0 1-.317.682m-.937-.837h-.633v.473h.633q.3 0 .3-.23t-.3-.243m.108 1.728q.3 0 .3-.25t-.3-.236h-.741v.486zm3.908-2.633a1.488 1.488 0 0 1 1.139.516 1.935 1.935 0 0 1 0 2.532 1.488 1.488 0 0 1-1.139.517 1.259 1.259 0 0 1-1-.412v1.668h-1.011v-4.728h1.003v.317a1.259 1.259 0 0 1 1-.412m-.778 2.383a.857.857 0 0 0 1.153 0 .912.912 0 0 0 0-1.2.857.857 0 0 0-1.153 0 .912.912 0 0 0 0 1.2m5.909.666a1.8 1.8 0 1 1 .519-1.266 1.727 1.727 0 0 1-.519 1.266m-1.82-.692a.8.8 0 0 0 1.105 0 .852.852 0 0 0 0-1.148.8.8 0 0 0-1.105 0 .852.852 0 0 0 0 1.148m6.14-2.262v3.376h-1.011v-2.431h-1.146v2.431h-1.011v-3.376zm1.708 2.093a.762.762 0 0 0 .809.473.835.835 0 0 0 .647-.257l.809.466a1.693 1.693 0 0 1-1.469.7 1.842 1.842 0 0 1-1.355-.511 1.781 1.781 0 0 1 1.28-3.057 1.625 1.625 0 0 1 1.223.51 1.767 1.767 0 0 1 .489 1.273 1.906 1.906 0 0 1-.041.405zm-.02-.756h1.449a.672.672 0 0 0-.714-.534.685.685 0 0 0-.735.534m5.513-1.337h.741v3.376h-.984v-1.688l-1.443 1.688h-.741v-3.376h.984v1.688zm-1.852-1.276h2.022v.878h-2.022zm5 4.746a1.783 1.783 0 1 1 0-3.565 1.75 1.75 0 0 1 .893.236 1.675 1.675 0 0 1 .63.628l-.883.513a.661.661 0 0 0-.654-.378.733.733 0 0 0-.546.219.844.844 0 0 0 0 1.128.731.731 0 0 0 .546.219.654.654 0 0 0 .654-.378l.883.506a1.663 1.663 0 0 1-.627.635 1.746 1.746 0 0 1-.9.236m5.281-.093h-1.146l-1.078-1.489v1.489h-1.011v-3.376h1.011v1.479l1.011-1.479h1.18l-1.227 1.688zm2.862-3.376h.741v3.376h-.98v-1.688l-1.442 1.688h-.742v-3.376h.984v1.688zm2.45 2.093a.762.762 0 0 0 .809.473.836.836 0 0 0 .647-.257l.809.466a1.693 1.693 0 0 1-1.469.7 1.843 1.843 0 0 1-1.358-.506 1.781 1.781 0 0 1 1.283-3.062 1.624 1.624 0 0 1 1.223.51 1.767 1.767 0 0 1 .489 1.273 1.906 1.906 0 0 1-.041.405zm-.02-.756h1.449a.672.672 0 0 0-.714-.534.685.685 0 0 0-.735.534m-36.285 4.761v1.04h-1.213v3.686h-1.078v-3.686h-1.213v-1.04zm.995 3.443a.762.762 0 0 0 .809.473.836.836 0 0 0 .647-.257l.808.466a1.692 1.692 0 0 1-1.469.7 1.842 1.842 0 0 1-1.358-.506 1.782 1.782 0 0 1 1.284-3.059 1.625 1.625 0 0 1 1.223.51 1.766 1.766 0 0 1 .489 1.273 1.9 1.9 0 0 1-.041.4zm-.02-.756h1.449a.672.672 0 0 0-.714-.534.685.685 0 0 0-.735.534m6.178 2.039h-1.154l-.632-.9-.632.9h-1.154l1.209-1.716-1.169-1.66h1.154l.592.84.592-.84h1.157l-1.169 1.66zm2.594-3.376h1.011v3.376h-1.011v-1.217h-1.146v1.215h-1.011v-3.376h1.011v1.215h1.146zm4.701 2.954a1.8 1.8 0 1 1 .519-1.266 1.727 1.727 0 0 1-.519 1.266m-1.82-.692a.8.8 0 0 0 1.105 0 .852.852 0 0 0 0-1.148.8.8 0 0 0-1.105 0 .852.852 0 0 0 0 1.148m5.899-2.262v3.376h-1.011v-2.4h-.728v1.006a1.483 1.483 0 0 1-.381 1.127 1.327 1.327 0 0 1-1.116.27v-.945a.331.331 0 0 0 .361-.068.659.659 0 0 0 .125-.452v-1.911zm3.689 2.954a1.8 1.8 0 1 1 .519-1.266 1.727 1.727 0 0 1-.519 1.266m-1.82-.692a.8.8 0 0 0 1.105 0 .853.853 0 0 0 0-1.148.8.8 0 0 0-1.105 0 .852.852 0 0 0 0 1.148m5.329-2.262v.972h-1.349v2.4h-1.01V30.79zm2.897 0h.741v3.376h-.984v-1.688l-1.442 1.688h-.742v-3.376h.984v1.688zm3.987 0h.741v3.376h-.984v-1.688l-1.443 1.688h-.741v-3.376h.984v1.688zm-33.68 10.918a2.365 2.365 0 0 1-1.755-.706 2.548 2.548 0 0 1 0-3.5 2.366 2.366 0 0 1 1.755-.706 2.415 2.415 0 0 1 1.173.294 2.22 2.22 0 0 1 .849.8l-.93.54a1.064 1.064 0 0 0-.445-.429 1.377 1.377 0 0 0-.647-.152 1.332 1.332 0 0 0-1 .385 1.576 1.576 0 0 0 0 2.039 1.331 1.331 0 0 0 1 .385 1.366 1.366 0 0 0 .651-.155 1.05 1.05 0 0 0 .441-.425l.93.54a2.168 2.168 0 0 1-.842.8 2.428 2.428 0 0 1-1.18.294m5.26-3.474v.972h-1v2.4h-1.011v-2.4h-1.022v-.972zm2.5-.095a1.489 1.489 0 0 1 1.139.517 1.935 1.935 0 0 1 0 2.532 1.489 1.489 0 0 1-1.139.517 1.258 1.258 0 0 1-1-.412v1.668h-1.011v-4.727h1.011v.318a1.258 1.258 0 0 1 1-.412m-.778 2.383a.856.856 0 0 0 1.153 0 .912.912 0 0 0 0-1.2.857.857 0 0 0-1.153 0 .912.912 0 0 0 0 1.2m5.905.665a1.8 1.8 0 1 1 .519-1.266 1.728 1.728 0 0 1-.519 1.266m-1.82-.692a.8.8 0 0 0 1.105 0 .852.852 0 0 0 0-1.148.8.8 0 0 0-1.105 0 .852.852 0 0 0 0 1.148m5.394-2.262h.741v3.376h-.984V39.93l-1.442 1.688h-.742v-3.376h.984v1.688zm4.262 0v.972h-1v2.4h-1.011v-2.4h-1.025v-.972zm1.413 2.093a.762.762 0 0 0 .809.473.835.835 0 0 0 .642-.255l.809.466a1.693 1.693 0 0 1-1.469.7 1.843 1.843 0 0 1-1.358-.506 1.781 1.781 0 0 1 1.284-3.059 1.624 1.624 0 0 1 1.223.51 1.767 1.767 0 0 1 .489 1.273 1.906 1.906 0 0 1-.041.405zm-.02-.756h1.449a.672.672 0 0 0-.714-.533.684.684 0 0 0-.735.533m6.002-1.337v3.376h-1.011v-2.4h-.728v1.006a1.481 1.481 0 0 1-.381 1.127 1.327 1.327 0 0 1-1.115.27v-.945a.33.33 0 0 0 .36-.068.656.656 0 0 0 .125-.452v-1.911zm2.391 1.011a1.38 1.38 0 0 1 .964.324 1.208 1.208 0 0 1 0 1.715 1.38 1.38 0 0 1-.964.324h-1.577V38.24h1.011v1.013zm.007 1.485a.338.338 0 0 0 .24-.085.31.31 0 0 0 0-.439.338.338 0 0 0-.24-.085h-.573v.608zm3.511.974a1.783 1.783 0 1 1 0-3.565 1.752 1.752 0 0 1 .893.236 1.68 1.68 0 0 1 .63.628l-.883.513a.662.662 0 0 0-.654-.378.734.734 0 0 0-.546.219.844.844 0 0 0 0 1.128.732.732 0 0 0 .546.22.654.654 0 0 0 .654-.378l.883.506a1.664 1.664 0 0 1-.627.634 1.74 1.74 0 0 1-.9.237m4.879-3.47v.972h-1v2.4h-1.015v-2.4h-1.018v-.972zm2.999 1.647a.808.808 0 0 1 .452.763.892.892 0 0 1-.3.7 1.23 1.23 0 0 1-.846.267h-1.82v-3.376h1.685a1.229 1.229 0 0 1 .846.267.89.89 0 0 1 .3.7.8.8 0 0 1-.317.682m-.937-.837h-.634v.473h.634q.3 0 .3-.229t-.3-.243m.108 1.728q.3 0 .3-.25c0-.157-.1-.236-.3-.236h-.741v.486zm4.315-2.542h1.011v3.376h-1.011V41.3a1.257 1.257 0 0 1-1 .412 1.488 1.488 0 0 1-1.139-.517 1.935 1.935 0 0 1 0-2.532 1.488 1.488 0 0 1 1.139-.517 1.258 1.258 0 0 1 1 .412zm-1.382 2.289a.864.864 0 0 0 1.159 0 .923.923 0 0 0 0-1.2.865.865 0 0 0-1.159 0 .922.922 0 0 0 0 1.2" fill="#244d9b"/><path d="M67.78 37.659a22.229 22.229 0 0 1 0-31.317 22.879 22.879 0 0 1 31.619 0q.764.752 1.434 1.546l-8.512 8.527a10.1 10.1 0 0 0-1.381-1.718 10.344 10.344 0 1 0 1.381 12.888l8.512 8.53a23.208 23.208 0 0 1-1.434 1.544 22.876 22.876 0 0 1-31.619 0zm-27.268 5.31V12.685h-9.9V1.023h31.8v5.548l-6.1 6.114h-3.8v30.284zm-40.511 0V1.023h27.6v5.548l-6.1 6.114H12v3.481h13.768v5.546l-6.1 6.114H12v3.481h15.6v5.546l-6.1 6.116zm118.342 0v-4.725h1.011v.318a1.258 1.258 0 0 1 1.005-.413 1.484 1.484 0 0 1 1.137.517 1.931 1.931 0 0 1 0 2.532 1.483 1.483 0 0 1-1.137.516 1.253 1.253 0 0 1-1.005-.413v1.668zm1.238-3.638a.908.908 0 0 0 0 1.2.848.848 0 0 0 1.151 0 .908.908 0 0 0 0-1.2.853.853 0 0 0-1.151 0zm36.265 1.867a1.937 1.937 0 0 1 0-2.532 1.488 1.488 0 0 1 1.139-.517 1.251 1.251 0 0 1 1 .413v-.318H159v3.375h-1.013v-.317a1.247 1.247 0 0 1-1 .413 1.486 1.486 0 0 1-1.141-.515zm.761-1.867a.926.926 0 0 0 0 1.2.86.86 0 0 0 1.16 0 .926.926 0 0 0 0-1.2.866.866 0 0 0-1.16 0zM145.35 41.2a1.794 1.794 0 0 1 2.17-2.814 1.671 1.671 0 0 1 .63.627l-.883.513a.661.661 0 0 0-.653-.377.736.736 0 0 0-.546.219.846.846 0 0 0 0 1.127.729.729 0 0 0 .546.221.651.651 0 0 0 .653-.377l.883.5a1.658 1.658 0 0 1-.626.636 1.741 1.741 0 0 1-.9.236 1.719 1.719 0 0 1-1.274-.511zm-11.178.008a1.719 1.719 0 0 1-.51-1.276 1.729 1.729 0 0 1 1.794-1.782 1.628 1.628 0 0 1 1.222.509 1.769 1.769 0 0 1 .49 1.273 1.81 1.81 0 0 1-.043.407h-2.392a.765.765 0 0 0 .81.471.838.838 0 0 0 .647-.256l.808.465a1.691 1.691 0 0 1-1.468.7 1.843 1.843 0 0 1-1.358-.513zm.542-1.627h1.449a.672.672 0 0 0-.715-.533.684.684 0 0 0-.734.53zm-11.767 1.618a1.814 1.814 0 1 1 1.267.516 1.717 1.717 0 0 1-1.266-.515zm.715-1.842a.785.785 0 0 0-.223.576.771.771 0 0 0 .223.573.8.8 0 0 0 1.1 0 .778.778 0 0 0 .223-.573.793.793 0 0 0-.223-.576.8.8 0 0 0-1.1 0zm-12.819 1.652a2.55 2.55 0 0 1 0-3.5 2.364 2.364 0 0 1 1.755-.705 2.4 2.4 0 0 1 1.174.294 2.207 2.207 0 0 1 .849.8l-.93.539a1.055 1.055 0 0 0-.446-.428 1.375 1.375 0 0 0-.647-.151 1.335 1.335 0 0 0-1 .383 1.585 1.585 0 0 0 0 2.04 1.337 1.337 0 0 0 1 .383 1.358 1.358 0 0 0 .651-.155 1.039 1.039 0 0 0 .442-.424l.93.539a2.183 2.183 0 0 1-.843.8 2.43 2.43 0 0 1-1.18.292 2.362 2.362 0 0 1-1.754-.71zm26.639.61v-.943a.33.33 0 0 0 .36-.07.655.655 0 0 0 .124-.451v-1.91h2.751v3.375h-1.011v-2.4h-.728v1.005a1.483 1.483 0 0 1-.382 1.127 1.181 1.181 0 0 1-.839.289 2.3 2.3 0 0 1-.274-.025zm14.5 0v-3.375h1.683a1.229 1.229 0 0 1 .847.267.89.89 0 0 1 .3.7.8.8 0 0 1-.318.682.807.807 0 0 1 .451.763.892.892 0 0 1-.3.7 1.232 1.232 0 0 1-.847.265zm.943-.837h.74c.2 0 .3-.083.3-.25s-.1-.234-.3-.234h-.74zm0-1.255h.633c.2 0 .3-.077.3-.229s-.1-.244-.3-.244h-.633zm-3.444 2.092v-2.4h-1.017v-.973h3.034v.973h-.998v2.4zm-7.954 0v-3.375h1.011v1.013h.566a1.387 1.387 0 0 1 .965.323 1.209 1.209 0 0 1 0 1.715 1.378 1.378 0 0 1-.965.323zm1.011-.875h.573a.335.335 0 0 0 .238-.085.288.288 0 0 0 .091-.221.284.284 0 0 0-.091-.217.327.327 0 0 0-.238-.085h-.573zm-11.236.875v-2.4h-1.017v-.973h3.034v.973h-1.005v2.4zm-2.489 0v-1.687l-1.441 1.687h-.742v-3.375h.984v1.688l1.441-1.687h.742v3.375zm-12.974 0v-2.4h-1.017v-.973h3.032v.973h-1v2.4zm-1.743-7.859a1.781 1.781 0 0 1 1.284-3.057 1.629 1.629 0 0 1 1.224.509 1.766 1.766 0 0 1 .488 1.273 1.909 1.909 0 0 1-.041.4h-2.392a.761.761 0 0 0 .808.473.827.827 0 0 0 .647-.256l.81.467a1.7 1.7 0 0 1-1.47.7 1.837 1.837 0 0 1-1.354-.512zm.544-1.627h1.449a.673.673 0 0 0-.715-.533.684.684 0 0 0-.729.53zm18.7 1.618a1.816 1.816 0 1 1 1.269.515 1.725 1.725 0 0 1-1.26-.518zm.715-1.84a.851.851 0 0 0 0 1.148.8.8 0 0 0 1.106 0 .857.857 0 0 0 0-1.148.8.8 0 0 0-1.106 0zm-8.479 1.84a1.816 1.816 0 1 1 1.267.515 1.717 1.717 0 0 1-1.259-.518zm.715-1.84a.851.851 0 0 0 0 1.148.8.8 0 0 0 1.1 0 .851.851 0 0 0 0-1.148.795.795 0 0 0-1.1 0zm2.662 2.262v-.945a.329.329 0 0 0 .36-.067.659.659 0 0 0 .126-.452v-1.912h2.749v3.376h-1.009v-2.4h-.728v1.007a1.488 1.488 0 0 1-.382 1.127 1.172 1.172 0 0 1-.839.287 2.318 2.318 0 0 1-.269-.025zm17.077 0v-1.687l-1.443 1.687h-.742v-3.376h.984v1.689l1.443-1.689h.742v3.376zm-3.987 0v-1.687l-1.443 1.687h-.742v-3.376h.984v1.689l1.443-1.689h.74v3.376zm-5.015 0v-3.376h2.359v.973h-1.348v2.4zm-13.619 0v-1.216h-1.145v1.216h-1.011v-3.376h1.011v1.217h1.145v-1.217h1.011v3.376zm-3.748 0l-.632-.9-.632.9h-1.147l1.209-1.716-1.168-1.66h1.155l.591.841.591-.841h1.155l-1.168 1.66 1.209 1.716zm-8.289 0v-3.687h-1.213v-1.04h3.5v1.04h-1.213v3.687zm6.2-6.1v-4.727h1.009v.317a1.264 1.264 0 0 1 1.005-.411 1.489 1.489 0 0 1 1.139.515 1.938 1.938 0 0 1 0 2.532 1.491 1.491 0 0 1-1.139.517 1.259 1.259 0 0 1-1.005-.413v1.668zm1.236-3.638a.8.8 0 0 0-.227.6.806.806 0 0 0 .227.6.857.857 0 0 0 1.153 0 .806.806 0 0 0 .227-.6.8.8 0 0 0-.227-.6.852.852 0 0 0-1.153 0zm30.6 1.877a1.782 1.782 0 0 1 1.284-3.059 1.616 1.616 0 0 1 1.222.51 1.763 1.763 0 0 1 .488 1.271 1.934 1.934 0 0 1-.039.407h-2.392a.76.76 0 0 0 .808.473.835.835 0 0 0 .647-.255l.81.465a1.7 1.7 0 0 1-1.47.7 1.85 1.85 0 0 1-1.354-.513zm.542-1.629h1.449a.671.671 0 0 0-.713-.533.686.686 0 0 0-.732.531zm-11.842 1.622a1.782 1.782 0 0 1 1.277-3.051 1.769 1.769 0 0 1 .893.234 1.7 1.7 0 0 1 .632.63l-.883.513a.662.662 0 0 0-.655-.38.728.728 0 0 0-.544.221.76.76 0 0 0-.217.562.771.771 0 0 0 .217.566.728.728 0 0 0 .544.219.654.654 0 0 0 .655-.378l.883.506a1.675 1.675 0 0 1-.628.635 1.745 1.745 0 0 1-.9.236 1.722 1.722 0 0 1-1.27-.518zm-7.929.008a1.781 1.781 0 0 1 1.282-3.059 1.623 1.623 0 0 1 1.224.51 1.763 1.763 0 0 1 .488 1.271 1.93 1.93 0 0 1-.041.407h-2.392a.761.761 0 0 0 .81.473.841.841 0 0 0 .647-.255l.808.465a1.693 1.693 0 0 1-1.468.7 1.847 1.847 0 0 1-1.354-.514zm.54-1.629h1.451a.673.673 0 0 0-.715-.533.686.686 0 0 0-.731.53zm-8.541 1.618a1.811 1.811 0 1 1 1.267.517 1.717 1.717 0 0 1-1.262-.519zm.715-1.838a.85.85 0 0 0 0 1.147.8.8 0 0 0 1.1 0 .85.85 0 0 0 0-1.147.8.8 0 0 0-1.1 0zm24.384 2.261v-1.689l-1.441 1.689h-.742v-3.376h.984v1.687l1.443-1.687h.74v3.376zm-3.764 0l-1.079-1.488v1.488h-1.009v-3.376h1.009v1.48l1.011-1.48h1.18l-1.226 1.689 1.259 1.688zm-7.522 0v-1.689l-1.441 1.689h-.742v-3.376h.984v1.687l1.441-1.687h.742v3.376zm-7.97 0v-2.431h-1.145v2.431h-1.011v-3.376h3.167v3.376zm-14.027 0v-3.376h1.685a1.227 1.227 0 0 1 .845.267.887.887 0 0 1 .3.7.881.881 0 0 0 .136 1.445.893.893 0 0 1-.3.7 1.232 1.232 0 0 1-.847.266zm.943-.837h.742c.2 0 .3-.083.3-.25s-.1-.236-.3-.236h-.742zm0-1.255h.633c.2 0 .3-.078.3-.229s-.1-.244-.3-.244h-.633zm-4.593 2.092V22h2.933v1.039h-1.854v.783h1.683v1.026h-1.683v.837h1.887v1.041zm24.037-3.774v-.877h2.021v.877z" fill="#0035ba"/></svg>