<svg version="1.1" id="Слой_1" xmlns="http://www.w3.org/2000/svg" x="0" y="0" viewBox="0 0 87.1 40.7" xml:space="preserve"><style>.st0{fill:#48558a}</style><path class="st0" d="M21.5 18h-5V7.2h-4v14h9zM32.6 7.2h3.5v14h-3.5zm-.6 3h-.9V7.6h-3.6v2.6h-.9V13h.9v8.2h3.6V13h.9zm-9.7 0h3.5v11h-3.5z"/><path fill="none" stroke="#48558a" stroke-width=".75" stroke-miterlimit="10" d="M12.5 24.7H77"/><path fill="#dc7d43" d="M12.5 28.2H16v3.5h-3.5z"/><path class="st0" d="M77 29.2h-.6v.3c-.1-.3-.4-.4-.8-.4-.7 0-1.2.6-1.2 1.3 0 .7.3 1.3 1.1 1.3.3 0 .6-.2.8-.4v.4c0 .4-.2.7-.7.7-.3 0-.5-.1-.6-.4h-.6c0 .6.6.8 1.1.8.8 0 1.3-.4 1.3-1.1v-2.5zm-1.3 2.1c-.5 0-.7-.4-.7-.8s.2-.9.7-.9c.5 0 .7.4.7.8 0 .5-.2.9-.7.9m-3.9.5h.6v-1.5c0-.4.2-.7.6-.7.3 0 .5.2.5.6v1.6h.5V30c0-.6-.4-.9-.9-.9-.3 0-.6.2-.8.5v-.4h-.5v2.6zm-.6-2.6h-.6v1.5c0 .4-.2.7-.6.7-.3 0-.5-.2-.5-.6v-1.6h-.6v1.6c0 .7.3 1 1 1 .3 0 .6-.2.7-.4v.4h.6v-2.6zm-5 1.8c0 .6.5.9 1.1.9.5 0 1.1-.2 1.1-.8 0-.5-.4-.7-.8-.7-.4-.1-.8-.1-.8-.4 0-.2.3-.3.5-.3s.5.1.5.3h.6c-.1-.6-.5-.8-1.1-.8-.5 0-1.1.2-1.1.7 0 .5.4.7.8.8.4.1.8.1.8.4 0 .3-.4.3-.6.3-.3 0-.5-.1-.6-.4h-.4zm-1.7-2.7h-.6v.5h.6v-.5zm.3.5h.6v-.5h-.6v.5zm-.2 3c.8 0 1.3-.6 1.3-1.3 0-.8-.5-1.3-1.3-1.3s-1.3.6-1.3 1.3c0 .8.5 1.3 1.3 1.3m0-.4c-.5 0-.7-.5-.7-.9s.2-.9.7-.9.7.5.7.9-.2.9-.7.9m-3.9.4h2.4v-.5h-1.8v-3h-.6v3.5zm-3.8-1.5c0-.4.3-.7.7-.7.4 0 .6.3.6.7h-1.3zm1.9.3c.1-.8-.4-1.5-1.2-1.5-.8 0-1.2.6-1.2 1.3 0 .8.4 1.3 1.2 1.3.6 0 1-.3 1.2-.9h-.5c-.1.3-.3.4-.6.4-.5 0-.7-.4-.7-.8h1.8zm-3.5 1.2h.6v-3.5h-.6v3.5zm-1.2 0h.6v-3.5h-.6v3.5zm-2.3-1.5c0-.4.3-.7.7-.7.4 0 .6.3.6.7h-1.3zm1.9.3c.1-.8-.4-1.5-1.2-1.5-.8 0-1.2.6-1.2 1.3 0 .8.4 1.3 1.2 1.3.6 0 1-.3 1.2-.9h-.5c-.1.3-.3.4-.6.4-.5 0-.7-.4-.7-.8h1.8zm-5.1 1.2h.6v-1.5c0-.4.2-.7.6-.7.3 0 .5.2.5.6v1.6h.6V30c0-.6-.4-.9-.9-.9-.3 0-.6.2-.8.5v-.4h-.5v2.6zm-1.8 0c.8 0 1.3-.6 1.3-1.3 0-.8-.5-1.3-1.3-1.3s-1.3.6-1.3 1.3c0 .8.5 1.3 1.3 1.3m0-.4c-.5 0-.7-.5-.7-.9s.2-.9.7-.9c.5 0 .7.5.7.9s-.2.9-.7.9m-2.3-2.6h.5v-.5h-.6v.5zm0 3h.5v-2.5h-.6v2.5zm-2.8-.8c0 .6.5.9 1.1.9.5 0 1.1-.2 1.1-.8 0-.5-.4-.7-.8-.7-.4-.1-.8-.1-.8-.4 0-.2.3-.3.5-.3s.5.1.5.3h.6c-.1-.6-.5-.8-1.1-.8-.5 0-1.1.2-1.1.7 0 .5.4.7.8.8.4.1.8.1.8.4 0 .3-.4.3-.6.3-.3 0-.5-.1-.6-.4h-.4zm-2.5 0c0 .6.5.9 1.1.9.5 0 1.1-.2 1.1-.8 0-.5-.4-.7-.8-.7-.4-.1-.8-.1-.8-.4 0-.2.3-.3.5-.3s.5.1.5.3h.6c-.1-.6-.5-.8-1.1-.8-.5 0-1.1.2-1.1.7 0 .5.4.7.8.8.4.1.8.1.8.4 0 .3-.4.3-.6.3-.3 0-.5-.1-.6-.4h-.4zm-2.2-.7c0-.4.3-.7.7-.7.4 0 .6.3.6.7H37zm1.9.3c.1-.8-.4-1.5-1.2-1.5-.8 0-1.2.6-1.2 1.3 0 .8.4 1.3 1.2 1.3.6 0 1-.3 1.2-.9h-.5c-.1.3-.3.4-.6.4-.5 0-.7-.4-.7-.8h1.8zm-4.1-1h.4v2.1h.6v-2.1h.5v-.4h-.5V29c0-.2.1-.3.3-.3h.3v-.4H36c-.4 0-.7.1-.7.8v.2h-.4v.3zm-1.5 2.2c.8 0 1.3-.6 1.3-1.3 0-.8-.5-1.3-1.3-1.3s-1.3.6-1.3 1.3c0 .8.4 1.3 1.3 1.3m0-.4c-.5 0-.7-.5-.7-.9s.2-.9.7-.9c.5 0 .7.5.7.9s-.2.9-.7.9m-2.9.4h.6v-1.2c0-.6.3-.9.7-.9h.2v-.5h-.2c-.3 0-.7.3-.7.6v-.5h-.5v2.5zm-3 .9h.6v-1.3c.2.3.5.4.9.4.8 0 1.1-.6 1.1-1.3 0-.7-.4-1.4-1.2-1.4-.3 0-.6.1-.8.4v-.3h-.5v3.5zm1.9-2.2c0 .4-.2.9-.7.9-.5 0-.7-.4-.7-.9s.2-.9.7-.9c.5 0 .7.4.7.9m-5.6-.2c0-.4.3-.7.7-.7.4 0 .6.3.6.7h-1.3zm1.8.3c.1-.8-.4-1.5-1.2-1.5-.8 0-1.2.6-1.2 1.3 0 .8.4 1.3 1.2 1.3.6 0 1-.3 1.2-.9H25c-.1.3-.3.4-.6.4-.5 0-.7-.4-.7-.8h1.8zm-3.4-1.8h.6v-.5h-.6v.5zm0 3h.6v-2.5h-.6v2.5zm-3.5 0H20c1.1 0 1.6-.8 1.6-1.8s-.5-1.8-1.6-1.8h-1.5v3.6zm.6-3h.6c1 0 1.2.6 1.2 1.3 0 .7-.2 1.3-1.2 1.3h-.6v-2.6zM74.6 9.3c0-.6.5-1.2 1.2-1.2.6 0 1.2.5 1.2 1.2 0 .6-.5 1.2-1.2 1.2-.7-.1-1.2-.6-1.2-1.2m1.2 1c.6 0 1-.5 1-1 0-.6-.5-1-1-1-.6 0-1 .5-1 1s.4 1 1 1m-23.4 1c.5.5.9 1 1.2 1.6.6 1 .6 2.3.5 3.4-.1 1.9-1.5 3.8-3.3 4.6-1.1.5-2.3.6-3.8.2-.8-.2-1.8-.9-1.9-1-.2-.3-.5-.5-.7-.8-1.6-2-1.6-4.5-.7-6.4.7-1.6 2.4-2.8 4.1-2.9 1.8-.2 3.4.1 4.6 1.3m-2.1 2.5c-.1-.3-.4-.5-.6-.7-.5-.4-1.3-.4-1.8 0-1 .7-1.2 2-1.1 3.1.1.9.5 1.9 1.4 2.2.7.2 1.4 0 1.9-.6.7-1.2.7-2.8.2-4m-10.2-3.2c2.2 1.2 2.5 3.7 2.5 6.1 0 1.6-.5 3.1-.9 4.5h-3.6c.3-.7.5-1.5.7-2.3.2-1 .4-2 .3-3 0-1.1-.4-2.3-1.5-2.7-.3-.1-.6-.1-.8-.1v-2.7c1-.4 2.3-.4 3.3.2"/><path class="st0" d="M75.6 8.8h.2c.1 0 .3 0 .3.2s-.2.2-.4.2h-.1v-.4zm-.2 1.1h.1v-.6h.2l.3.6h.2l-.4-.6c.2 0 .3-.1.3-.3 0-.3-.3-.3-.5-.3h-.3v1.2zm-3.7 10.9c-.1.2-.1.3-.2.5h3.6c0-.1.1-.3.1-.5h-3.5zm.5-1.9s0 .1 0 0l3.5.1c0-.2.1-.3.1-.5h-3.5c0 .1-.1.3-.1.4m3.3.9c0-.2.1-.3.1-.5h-3.5c0 .2-.1.3-.1.5h3.5zm-3.1-2.1c0 .2-.1.3-.1.5h3.5c0-.2.1-.3.1-.5h-3.5zm.1-.7c0 .2 0 .3-.1.5H76c0-.2 0-.3.1-.5h-3.6zm-.7 3.5h3.6c0-.2.1-.3.1-.5H72c-.1.2-.2.4-.2.5m-1.6-10h3.4c-1-.6-2.3-.6-3.4-.2v.2zm0 .8h4.4c-.2-.2-.4-.3-.6-.5h-3.8v.5zm0 .8h5c-.1-.2-.2-.3-.4-.5h-4.6v.5zm0 .7h5.4c-.1-.2-.1-.3-.2-.5h-5.1v.5zm1.5.8h4c0-.2-.1-.3-.1-.5h-4.7.1c.3.1.5.3.7.5m.5.8h3.7c0-.2-.1-.3-.1-.5h-3.9c.1.1.2.3.3.5m.2.8H76v-.5h-3.7c0 .1.1.3.1.5m.1.7H76v-.5h-3.6c.1.2.1.3.1.5m0 .8H76v-.5h-3.5v.5m-16.7 4.6h3.4v-.5h-3.4v.5zm3.4-7.4h-3.4v.5h3.4v-.5zm0 .8h-3.4v.5h3.4v-.5zm0 .7h-3.4v.5h3.4v-.5zm0 .8h-3.4v.5h3.4v-.5zm0 .8h-3.4v.5h3.4V17zm0 .7h-3.4v.5h3.4v-.5zm0 .8h-3.4v.5h3.4v-.5zm0 .8h-3.4v.5h3.4v-.5zm0 .7h-3.4v.5h3.4V20zm.9-10H56c-.1.2-.1.4-.1.5h3.7l.5-.5m-1.5-2.5h2.6v-.2c-1.1-.1-2 0-2.6.2m-1.5.7h4v-.5h-3.2c-.3.2-.5.4-.8.5m-.6.8h4.6v-.5h-4.3c-.1.2-.2.3-.3.5m-.4.8h5v-.5h-4.8c-.1.1-.2.3-.2.5m-1.3 1.5h6.4v-.5h-6.4v.5zm0 .8h6.4v-.5h-6.4v.5zm0 .7h6.4v-.5h-6.4v.5zm4.4.8h1.9v-.5h-6.4v.5h4.5zm2.8 7.7h3.4v-.5H62v.5zm0-10.8h3.4v-.3H62v.3zm0 .8h3.4v-.5H62v.5zm0 .8h3.4v-.5H62v.5zm0 .7h3.4v-.5H62v.5zm0 .8h3.4v-.5H62v.5zm0 .8h3.4v-.5H62v.5zm0 .8h3.4v-.5H62v.5zm0 .7h3.4v-.5H62v.5zm0 .8h3.4v-.5H62v.5zm0 .8h3.4V17H62v.5zm0 .7h3.4v-.5H62v.5zm0 .8h3.4v-.5H62v.5zm0 .8h3.4v-.5H62v.5zm3.4.2H62v.5h3.4V20zm.8 1.3h3.4v-.5h-3.4v.5zm0-10.8h3.4v-.3h-3.4v.3zm0 .8h3.4v-.5h-3.4v.5zm0 .8h3.4v-.5h-3.4v.5zm0 .7h3.4v-.5h-3.4v.5zm0 .8h3.4v-.5h-3.4v.5zm0 .8h3.4v-.5h-3.4v.5zm0 .8h3.4v-.5h-3.4v.5zm0 .7h3.4v-.5h-3.4v.5zm0 .8h3.4v-.5h-3.4v.5zm0 .8h3.4V17h-3.4v.5zm0 .7h3.4v-.5h-3.4v.5zm0 .8h3.4v-.5h-3.4v.5zm0 .8h3.4v-.5h-3.4v.5zm3.4.2h-3.4v.5h3.4V20zM22.1 7.1H26s-.5 2.3-2 2.3c-1.4 0-1.9-2.3-1.9-2.3m41 2.2c.2.1.4.2.6.2.2 0 .4-.1.6-.2h-1.2zm2.3-1.6h-3.5c.1.2.1.4.2.5h3.1c.1-.1.2-.3.2-.5M62.7 9h1.9c.2-.1.3-.3.4-.5h-2.8l.5.5m2.8-1.5c.1-.2.1-.4.1-.4h-3.9s0 .1.1.4h3.7z"/></svg>