<svg version="1.1" id="Слой_1" xmlns="http://www.w3.org/2000/svg" x="0" y="0" viewBox="0 0 841.9 595.3" xml:space="preserve"><style>.st0{fill:#335143}</style><path class="st0" d="M425.7 241.1c2.5-.1 4.8.5 6.6 1.8 1.2.9 3.1 3.4 3.5 4.6 1.1 3.3-1.3 6.4-3 7.4-5.1 1.7-12.9 1.5-13.6-3.6-.8-4.9 2.6-9.2 6.5-10.2m-4.4 18.4c3.1.7 6.5-.2 8.9-.5 9.2-1.5 9.4-11.2 8.2-12.8-2.4-3.8-4.5-7.4-11.5-8.6-2.3-.4-5.1.2-7.4 1.3-1 .5-2.9 2.8-3.4 3.6-1.6 2.7-2.5 8-1.2 11.5.9 2 4.3 5 6.4 5.5m6.3-12.9c1.1.1 1.6.8 2.5 1.2-.2 1.2.2 2.5-.8 3.2-1.2.6-3 .8-4.3-.2-.3-2.4.6-3.9 2.6-4.2m-2.7 7.5c2.2-.2 4.6.4 6.3-.5 1.7-.8 3.5-2.8 2.8-5-.5-1.5-2.6-3.2-4.8-4.3-1.3-.7-3.7-.3-5.4 1.3-.9.9-1.5 1.9-1.5 3.4 0 .4.3 1 .4 1.6.4 2 .5 2.8 2.2 3.5m-13-4c-.6-5.5 1.6-9 5-12 2-2 7.2-3 8.6-3 3.7.1 8.9 1.7 11.2 3.8 5.5 5.2 5.6 11.8 4 14.8-3 6.7-7.8 7.5-12.5 8.5-3.6.1-6.9-.5-9.3-1.7-2.5-1.2-4.4-2.3-5.7-5-.5-1-1.1-3.7-1.3-5.4m8.9 15.3c1.8.2 7.4.7 10.5 0 5-1.5 7.7-4.4 10.5-7.8 2.6-3.7 3.2-7.6 1.3-14.8-.5-2-2.6-7.1-9.7-9.7-7.1-2.6-15.2-.9-18.5 1.5-.8.6-1.6 1.7-2.4 2.6-1.8 2.1-4.2 4.5-4.7 7.9-1.4 9 3.1 12.9 6.6 18.1 1.7 1.4 4 1.8 6.4 2.2m-200.1 55.2l1.4 3.5 19.4-9-20.8 5.5zm-3-6.4l1.8 2.9 20.8-8.6-22.6 5.7zm26.8 7.8l-21.2 4.6.7 2.5 20.5-7.1zm155.1-81.3c3.4-11.4 13.9-16 15.6-16.8 9.7-4.5 18.7-1 22.5.4 10.4 3.7 14.4 13.3 14.7 14.6 1.2 4.3 1.5 10-.1 14.2-.6 1.8-1.7 4.5-2.4 6.4-.9 2.3-2.7 5.2-3.4 6.6-.9 1.8-5.9 10-21.8 9.1-10.1-.5-17.6-4.9-19.2-6.8-4-4.6-6.6-8.9-7.3-16.6-.3-3.5.3-7.3 1.4-11.1m6.6 34.5c1.9 1.4 15.3 6.4 25.3 4.1 9.2-2.2 12.7-4.8 15.7-7.8 2.3-2.4 4-4.3 5.7-7.6 1.7-3.3 2.8-4.7 3.6-7.9.8-3.3.9-7 .6-10.7-.5-4.4-.9-7.8-2.3-11.2-1.4-3.2-2.7-4.5-4.9-6.6-2.5-2.3-4.5-3.2-7.8-4.9-4.3-2.2-9.2-5.2-15.7-4.5-4.3.5-8.3 1-11.4 2.3-3.8 1.6-7.6 4.2-10.3 6.9-1 1-2.2 1.7-3.1 2.6-1.6 1.6-2.9 3.9-4.3 6.2-1.5 2.4-2.6 4.6-3 7.5-1 7.3.3 16.9 3.5 22 1.9 3 5.6 7.5 8.4 9.6m-.4-29c.7-2.9.8-5.5 4-9.5 3.3-4.1 6.3-6.2 11.3-7.4 1.6-.3 4.3-.3 5.5-.2 1.4.2 3 .8 4.6.9.9.1 1.6 0 2.3.2 2 1 3.8 2.3 5.9 3.9 2 1.5 4.9 3.6 5.7 5.3.6 1.3.8 2.7 1.1 4.4.2 1 .5 2.4.6 3.3.2 4.4-.9 7-1.3 8.3-.8 2.6-1.7 6.1-8.9 10.1-2.3 1.3-12.5 6.1-24.1-2-2.8-2-4.6-4.9-5.9-8.8-.7-2.1-1.3-6.3-.8-8.5m5.3 22.3c1.4.8 3 1 4.7 1.8.9.4 1.6 1.4 2.7 1.8 1.9.6 6.4 1.1 8.1.8 2.4-.3 5.4-.7 7.7-1 10.9-2.9 14.6-13.8 17-21.9.3-1 .2-5.5 0-6.5-.8-3.5-2.2-8-5-10.3-1.5-1.2-2.9-2.2-4.6-3.6-1.6-1.3-3.4-3.1-5.2-3.8-4.3-1.6-14.5-3.7-24.1 2.6-1.9 1.2-6.5 3.9-9.3 12-2.4 7.1-1.4 17.1 2.3 22.9 1.3 2.2 3.8 4 5.7 5.2m219.7 67.4c-6.8-1.3-15.4-3.6-22.2-4.8 6.5 2.2 14.8 5.9 21.4 7.9l.8-3.1zm-1.1 7.7c-6.9-.8-13.9-2.1-20.7-2.7 6.7 1.7 13 4.7 19.8 6 .1-.8.7-2.5.9-3.3m-402.8-1.9l20.4-5.6-20.3 3-.1 2.6zM562 302.8c-1-.2-4.7-.8-5.4-.4-.5.3-1.1 1.7-1.5 2.8-1.4 3-2.8 6.3-4.1 8.9-2.1 4.3-5.7 14.4-7.3 14-1.4-1-1.9-4.9-2.6-8-1.6-6.9-2.7-13.7-4.4-20.2-1.7-.7-4.5-1.5-7-1.7-1.3-.1-3.1-.4-3.6.5-.8 1.3.7 2.1 1.8 3.1.9.7 2.6 1.4 2.6 2.6 0 .7-.5 3.1-.6 3.7-.5 4-1.9 12.7-1.9 12.7s-2.8 20.9-3.7 29c-1 .6-4.6 1.4-5.2 1.7-2.3.9-2.6 1.8-2.6 2.7.1 1.1 1.8 1.3 3.1 1.3 2.3 0 4.2-1.2 6.6-.6 1.3.3 6.9 3.4 7.9 1 .8-2-1.9-2.2-2.8-2.8-1.2-.8-2-1.5-2.2-1.9-.3-.7.1-3.3.2-4.7.1-1.2 1.9-14.1 2.3-16.5.4-2.8.6-4.3 1-7.4.3-1.8.4-5.5 1.6-5.4 1.3.1 2 5.6 2.3 6.9.4 1.9.8 3.8 1.1 5.2.5 2.2.7 3.2 1.2 5.1.3 1.1 1 7.8 2.2 7.9 1.6.1 3.1-3 3.8-4.5 2.4-5.7 7.3-15.1 9.4-20.7.3-.8.8-2.6 2.1-1.7.4.2.8.3.3 3.4-.5 4.5-2.6 14.3-2.9 17.6-.4 4.8-1.3 9.3-1.6 13.3-.1 1.6 0 4-.7 5.1-.7 1.2-5.3 2.2-5.2 3.6 0 1.3 1.7 1.1 2.5 1.1 2.3.2 3.5 0 4.9.1 3.3.2 6.1 1.7 8.7 2 1.2 0 1.5-1.1 1.3-2-.4-1.7-3.5-2.2-4.3-3.6-.7-1.2-.3-3.5 0-5.6.8-5.5 1.6-12 2.2-17.3.2-1.5 1.1-8.7 1.5-10.8.4-2.2.7-4.7 1-7.1.2-1.8 1.2-7.1 1.4-7.8.4-.9 2.7-.4 3.1-2.3.3-1.5-4-1.9-6.5-2.3m66.5 48.2c-6.9-.7-13.6-.5-20.5-1.1 6.7 1.6 13.4 3 20.1 4.4l.4-3.3zm1.6 28.8l-16.8-.5c6.7 1.2 10.3 1.9 17 3.1l-.2-2.6zm-14.9-8.1c6.6 1.9 7.2 2.2 13.8 4.1l-.3-2.9-13.5-1.2zm13.1-6.1l-16.8-.5c6.7 1.2 10.3 1.9 17.1 3.1l-.3-2.6zm.6-8.4c-6.9-.5-13-.7-19.9-1.1 6.7 1.4 12.9 3.3 19.7 4.6l.2-3.5zm4.5-25.2l.8-3.1c-6.8-1.4-15.4-3.6-22.2-4.9 6.5 2.3 14.8 6 21.4 8m-15.3 54c6.6 1.9 7.2 2.3 13.8 4.1l-.3-2.9-13.5-1.2zM268.4 276.1l-57.2 1.1v1.8l57.2-2.9zm354.3 22.4l38-.9v-2l-50.6 1.5 12.6 1.4zm-412-23.8l31.1-2.8-31.1.7v2.1zm427.6 43.2l1-2.4-15.9-5.1c6.2 3 8.6 4.7 14.9 7.5m-455.4-4.8l23.7-3.2-23.6.4-.1 2.8zm453 11.5l1.1-2.9-19.5-6c6.3 2.9 12 6.3 18.4 8.9m-.3 70.8s-82-32.6-206.8-32.7c-123.9-.2-182.8 26.1-209.5 33.6l-.2-.2s5.5-16.1 4.6-43.7c-.6-18.4-11-39.4-11-39.6l-.8-1.3c-.1-.5 112.9-29.2 216.2-27.3 163.7 3.1 216.5 29.3 216 30 0 0-12.2 18.9-12.2 42.7.1 9.5 3.8 38.4 3.7 38.5M287.2 289.5c1.5-2.6 2.9-6.7 3.3-10.2.5-4.2-.4-6.8-2.1-10.4-2.2-4.7-9.2-11.5-9.2-19.1 1.7 1.2 3.4 2.3 5.2 3.3 1.8 5.3 5.1 10.8 7.5 16 1.4 3.1 2.5 5.7 2.3 10.2-.2 3.5-2 8.6-4.3 12.9-1.6.3-3.2.5-4.7.8.9-1.5 1.8-3.1 2-3.5m10.3-33.9c1.3 3.2 2.2 6.6 3.4 9.9 1.4 4 2.7 9.3 1.8 14.1-.7 4-2.2 7.8-4 11.2-1 .2-2 .3-2.9.5 2.5-4.7 4.4-10.4 3.6-15.7-.9-6.5-6.7-20.5-6.7-20.6 1.5.1 3.4.1 4.8.6m12.6 2.9c1.6 8.1 3.3 18.1-.3 26.2-.7 1.7-1.9 3.4-3.2 5-1.5.2-3 .4-4.6.7.2-.3.4-.7.6-1 2.2-3.6 4-7.4 4.9-12.1.6-5.2.8-13.6-1.4-18.9-.1-.1-.2-.3-.1-.5 1.6.3 2.5.3 4.1.6m3.6 28.4l14.3-.2c-5.2.6-10.4 1.3-15.5 2 .5-.5.9-1.1 1.2-1.8m81.6-22.1c-1.2-2.2-2.7-4.5-3.4-6.6-1.9-5.4-1.3-12.6.4-17.8 1.1-3.3 2.2-6.2 4.1-8.9 2-2.7 4.9-4.7 8.3-7.5 2.9-2.3 6.7-4.8 9.9-5.8.8-.3 1.6-.2 2.3-.5 1.1-.4 2.2-1.1 3.3-1.5 1.1-.3 2.4-.4 3.5-.6 1.4-.3 2.5-.5 4-.5 2.4.1 6.6 1.8 9.4 2.7 1.1.3 2.2.4 3.1.7 1.3.4 3.2 1.4 4.3 1.9 1.7.8 3.6 2.5 5.2 3.7 2.3 1.8 3.7 4.1 5.1 6.9 1 1.9 2.4 3.8 3.1 5.9 1.3 4.2 1.7 10.8 1.4 16.1-.3 5.8-2.2 9.2-4.5 13.3-2.4 4.3-5.6 7.6-9.8 10.3-2.2 1.4-4.4 3.1-6.4 4h-1.9c-1.1 0-2 0-2.9-.1h-5c-6.5-.1-13.1-.1-19.7.1l-.6-.3c-1.7-.9-3.5-2.8-5.2-4.3-3.3-3-5.7-7-8-11.2m114.8 4.4c-.1.1-.1.3-.2.4-1.7 4-2.9 9-2.1 14.5-22.1-1.8-41.8-2.7-56.1-3.1 3.9-3.4 6.8-7.7 9.1-11.9l49.3.1zm20 16.9c1.3-.5 2.3-1.3 2.7-2.5-1.3-.7-3.1-1-4.7-1.5-1.5-.5-3.6-1.1-4.1-2.9 3.5-1 6.4 3.7 10.5 1.9.7-.6 1.2-1.4 2-2-2.4-1.3-7.4-1.6-7.2-4.3h.1c12.6 4.2 21.7 2.9 26.2 1.6l-.4-.2c-1.2-.5-2.4-.8-3.8-1-1.5-.3-3.1-.7-4.6-1.4-1.8-.8-3.2-2.1-4.5-3.3-.5-.4-1-.8-1.4-1.1h.3c-.5-.5-1.1-1-1.6-1.5h-.5c-.7-.6-1.4-1.1-2.2-1.5-.2-.2-.5-.3-.9-.5-1-.4-2.1-.8-3.1-1.2-2.9-1.1-5.9-2.2-8.6-3.9-2.2-1.1-3.8-2.2-4.1-3.2-4.8 3.4-7.6 6.7-9.5 10.6l-49.7.7c1.7-3.3 3-6.5 3.9-9.4.8-2.5.2-5.3.5-7.8.2-2.9 1-5.5.7-8.3-.3-2.3-1.4-4.9-2.1-7.2-.8-2.4-1.6-5-2.8-7.1-1.4-2.5-3.9-4.6-6.2-6.9-2.2-2.1-4-5.1-6.5-6.7-3.1-2-7.7-3.5-11.9-4.5-4.5-1.1-9.9-1.5-15.1-1.1-7 .6-12.2 2.4-16.7 5.9-2.1 1.7-4.5 2.8-6.5 4.5-1.8 1.6-7.4 9.9-7.8 10.6-3.2 5.8-6.1 14.5-5.2 22.7.2 1.9.8 3.9 1.1 6 1.4 9.2 5.3 16.4 11.3 21.2l.2.2c-23.6.9-47.3 3.1-69.6 5.9l-14.2-.1c1.8-3.2 3-6.6 3.2-10.3.1-2.5-.1-5-.4-7.5l43-.3.5-1.3-43.7-.2c-.5-3.1-1.1-6.1-1.8-9 1.5-.6 3.1-1.3 3.9-2.4-1.9-2.3-3.2-5-4.4-9.1-7.7.3-22-8.6-20-12.4 4.7 4.8 17.1 10.9 21.3 9.5.2-1 .7-1.6.8-2.5-4.2-1.1-18.1-8.8-16.6-15.2 3.4 4.7 9 9.5 16.8 11 1.8-4.1 3.1-7 4.3-9.9-.8-1.2-1.6-2.4-2.3-3.7-3.2-5.9-6.2-17.7-2.7-24 1.6-2.8 4.6-4.5 8.2-4.5 2.3 0 4.5.7 6.2 2 1.3.9 2.6 2.6 4 4.9.8 1.3 1.6 3.2 2.5 5.2 1.9-3 3.1-8.2 2.8-11.3-3.4-.5-6.5-2.6-8.6-4.5-3-2.7-5.2-7-5.6-9.7-4.3-.5-13.2 2.5-15.6 3.7-1.6.8-11.5 6.6-18.5 12.9-3 2.7-5.7 5.6-6.4 8.1-.7 2.4.6 4.4 1.7 5.7 1.6 1.9 2.8 2.6 4.1 4.4 2.5 3-4.7 9.9-9.3 10.5-3.1.4-4.7-1.2-5.4-3.6-.5-1.6-.7-3.3-1.4-5.1-3.5 2.4-6.6 7.6-7.8 12.7-.6 2.4-1 5.3-.1 7.7.5.5 1 .6 1.6.8.7-3 1.8-6.6 3.6-8.9-1 3.9-3.3 8.9-2.1 13.5.9.4 2 .9 2.6 1.3-.8 7.1 1.9 11.7 4.8 16.2 1.3 2 2.9 3.8 4.4 5.6l-71-.2-.5 2.8 73.1-.5c.7 1 1.4 2.1 1.9 3.3.6 1.4 1.5 3.3 1.7 5 .1 1 0 2-.2 3l-75.4.8v1.8l75.3-2.1c-.5 2-1.6 3.9-2.3 5.1-.1.2-.3.5-.4.7l-73.2-.2v1.8l72.7-.9c-1.8 2.8-3.1 4.7-5.3 6.9-1.9.3-3.8.7-5.7 1l-64.2.4.9-24.3-3.9 25.8h2v.3l57.1-.8c-21.3 3.9-38.1 7.6-47.9 9.8l-33.8-.6-.5 1.6 33.9-.9c-5.7 1.3-8.8 2.1-8.8 2.1s1.2 2.5 2.9 6.6l-27.3 1.9-.5 2 28-3.3c.8 1.8 1.6 3.9 2.4 6.2l-29.6.3-.5 2 30.2-1.9c.6 1.5 1.1 3.1 1.7 4.9l-34.3 1 34.5-.5c2.7 8.4 5.2 18.4 5.3 27.5.3 23.3-7.4 44.1-7.4 44.1.9 1.2 4.2 4.8 5.2 6.1 30-10.1 95.7-38.6 210.7-38.3 92.9.3 184.3 24.5 206 37.1l5-4.2c.2 0-4.7-34-4.7-43.2 0-23 14-45.4 14-45.4-31.9-13.7-77.4-21.3-118.7-25.6m-32.2 54.2c-.3 2.2-.9 4.4-2 5.2-1.4 1.1-5.3 2.6-6.6 1.9-1.5-.7-2.5-3-2.2-7.4.2-2.4.7-5.2 1.4-7.5.5-1.8 1.5-4.4 3.4-4.4.5 0 1.8.7 2.6 1.3 1.7 1.4 3.1 2.3 4.2 4.6.1 1.4-.5 4.2-.8 6.3m13.6 6.7c-.7.2-1.9.6-2.8.5-2.9-.2-4.8-2.9-4.6-5.5.3-3.4 1.9-8.5 2.5-12.5.5-2.9 2.5-10 2.6-12.6.1-2.7-.7-6.6-2.7-8.9-2.1-2.4-5.9-4.3-9.2-4.5-2.6-.2-5.3.3-7.5 1-2 .6-5.2 2.6-6.4 4-1.1 1.4-1.8 2.7-2.1 3.5-.4.9-.8 3.6-.2 5 1 2.3 3.7 1.8 4.6.9 1.5-1.4 2-3.7 1.4-5.7-.2-.5-.8-1.1-.4-1.8.5-1.1 1.7-2 2.9-2.7 1.5-.8 5.4-1.5 8-1.2 1.4.2 3.3.8 3.9 1.5.6.7 1.1 1.8 1.3 3.2.1 1.3-.4 4.3-.6 5.6-.4 2.2-.6 3.7-1.1 6.4-.3 1.9-.4 4.2-.9 5.6-1 2.5-2.5.7-3.9-.1-1-.5-2.3-1.2-3-1.4-6.9-2.5-11.2 2.5-12.7 8.3-1.3 4.8-.8 8.2-.8 9.1.1 2.9 2.3 6 5.5 6.9 2.1.6 5.7.8 9.1-1.1 1.5-.8 3.5-2 4.7-1.5.8.3 1.2 1.6 1.9 2.2 1.4 1.2 2.3 1.4 3.9 1.4s2.7-.6 3.5-.9c1.7-.8 2.6-1.4 4.1-2.2 1.1-.6 4.4-2.9 3.9-4-1.8-.3-3.2 1.1-4.9 1.5m-283.6 17.9l21.4-6.8-20.9 2.9-.5 3.9zm.3-8.2l21.4-6.8-21.5 2.7.1 4.1zm-1.4 17.2l19.5-6.2-19 2.3-.5 3.9zm-1.1 7.7l18.4-6.6-17.9 2.7-.5 3.9zm364.9-27.1c-2.9 1-6.3 2.7-10.2 1.6-1.9-.5-2.4-1.6-2.8-2.8-.8-2.4 1.5-4.3 1.9-4.6 1-.9 4.3-1.6 6-1.5 2.1.2 5.2 1.1 6.8 2.8-.2 1.2-.7 3.1-1.7 4.5m14.9 3.9c-1.3-.6-2.8 1.7-4 3.2-1.3 1.5-2.9 2.8-4.7 1.6-.6-.4-1-2.1-.9-3 .2-2.6 2.7-7.3 4-10.3.8-1.8 3.2-5.9 3.6-8 .4-2.1 1.5-5 .7-9-.6-3.1-2.4-7.5-7.2-10.8-2.6-1.8-5.9-2.7-8.6-3-2.2-.3-4.6-.2-6.7 0-3.5.4-6.1 1.1-8.6 3.1-.6.5-1.7 1.8-2 2.3-1.5 2.5-.1 5.5 2.8 5.8 1.9.2 2.9-1.3 3.3-2.4.5-1.3-.1-2.1.3-2.9.2-.4 1.5-1.4 2-1.7 1-.6 2.8-1.3 4.6-1.3 1.8-.1 3.4.1 4.6.6 3.7 1.4 5.7 4.1 6.4 5.9 1.1 2.9 2 5.8 1.1 10.1-.6 2.7-1.3 5.3-2.5 7.8-.8.5-1.9-.5-2.8-.9-3.7-1.4-7.7-1.3-10.6-.3-2.8 1-4.3 2.2-5.9 4.3-1.7 2.2-2.4 4.5-2 6.6.4 2.3 2 4.3 3.8 5.2 1.7.9 4.9 1.3 7.1.6 1.9-.6 3.1-2.8 5.4-2.3.9.4-.4 2.6-.2 4 .5 2.3 1.8 5.2 7 4.7 4.2-.4 6.6-2.4 8.2-4.2 1.4-1.7 3-5.1 1.8-5.7m-382.3 32.2l14.5-7-13.9 4.1-.6 2.9zm2.5-55.3l20.7-6.9-21 4.4.3 2.5zm23.6 8.7l-21.4.8-.3 3 21.7-3.8zm46.9 16.7c-.3-.7-.9-3.7-.9-4.2 0-.6-1.4-9.5-1.7-11.8-.7-5.6-1.6-10.6-2.3-16.2-.4-2.9-1.3-5.6-1.4-8 0-.7-3-10.1.5-10.4 2.5-.1 3.2-1.3 2.6-2.6-.6-1.4-3.3-.5-4.9-.2-5.4 1-11.3 2.4-17.3 3-7.9.8-15.6 2.2-23.4 3.4-2.1.4-1.7 1.1-1.6 2 .7 1.2 3.8-.4 4.8 1.9.4.9.4 3.2.6 4.9.5 3.8.7 6.4 1.2 9.9.2 1.7 3.5 25.8 3.8 27.7.1 1.3.5 5 .7 6.8-.1 2.4-5 3.3-4.1 4.9.9 1.3 3.7.2 5-.1 1.3-.4 3.2-.6 5.5-.6s5.3.6 5.6-1.2c.4-1.9-3.3-2.8-4.2-5.4-.3-1-.5-2.3-.7-3.4-.4-3.6-.3-7.6-.7-11.3-1.1-9-2.1-17.7-3.4-26.3-.2-1.3.5-2.1 1.4-2.4.9-.3 3-.6 4.3-.7.6 0 7.9-1.4 10.4-1.9 1.8-.4 4.9-1 5.8.2.9 1.2 3.5 22.8 5.4 33.6.1.7.8 6.1.6 7.7-.4 2.4-.5 4.5-2.4 6.3-.8.8-1.9 1.1-1.5 2.1.5 1.4 2.1 0 3.5-.5 3.3-1 6.3-1.4 8.6-1.7 1.9-.2 4.1.2 3.9-1.4-.3-1.8-3-2.7-3.7-4.1M468 310.5c-1 8.1-5.2 10.4-6.1 10.8-.6.3-2.2 1.2-4.1.9-1.1-.1-2.3-.7-2.9-1.9-1-2.1-.6-14.9.2-20.3.2-1.3.7-2.8 1.7-3 2.8-.4 5.7-.4 7.6.9 2 1.4 4.3 7.7 3.6 12.6m3-10.7c-1.5-1.8-3.1-2.7-4.7-3.5-1.6-.8-3.4-1.3-5.1-1.4-2.7-.2-5.5.2-8.1-.1-.9-.1-1.8-.1-2.8-.2-1.2-.1-2.6-.3-3.7-.6s-1.3-.1-1.5.4c-.3 1.5 1.7 1.2 2.3 1.9.5.5.6 1.4.6 2.2v25.1c-.1 3.8.4 7.4.2 10.7-.1 2.9.2 7.1-.5 9.3-.3.9-.6 2.2-2 3.4-.8.7-2 .7-2.5 1.1-1.1 1-.4 3 .6 3.2.7.1 1.9-.3 2.7-.7 2.7-1.3 6.2-1.3 8.9-1.1.9.1 1.8.7 2.5 0 .7-1.1-1.5-2-2.1-3-.6-1-1.5-3.3-1.7-5.3-.3-3.7.6-6.9.8-10.3.2-2.1.1-5.5 1.2-6.5.8-.7 6.5.8 11.9-2.9 4.3-2.9 5.8-6.7 6.1-9.1.2-2.1.2-4.2 0-5.6-.1-.9-.3-3.8-3.1-7m-123.8 47.9c-1.4-2.4-1.2-7.2-1.6-11.2-.3-3.4-1.2-12.2-1.2-12.5 0-.5-.4-6.7-.3-7.6.1-.7 0-3.1 0-3.7 0-1-.2-2.7-.1-4.4.1-1.7 3.7-2.5 2.7-3.3-.4-.9-3.1-.4-4.2-.4-1.2 0-3.6-.2-5.3-.2-1 0-4.6.1-4.1 1.4.3.9 1.2 1 2.3 1.1 1.1.1 1.6 1.2 1.9 2.4.2.6.8 2.7.8 3.9-1 1-9.1 5.6-10.1 6-1.9.9-3.8 1.8-5.5 2.6-.6.3-5.6 2.5-7.5 3.1-1-1.1-1.2-4.8-1.3-6.5-.2-3-.1-6.4.3-8.9.6-.8 2.3-.6 2.2-1.8-.1-.9-3.5-.2-5.2-.2-2.5 0-5.8-.7-6.3-.3-1.4 1.4 1.1 1.5 1.6 3.3.4 1.3 1.1 11.7 1.1 12.2.2 2.1.6 8.4.8 9.4.3 1.8 1.1 15 1.1 16.1 0 3.8-2.4 4.7-1.8 5.8.8.6 2.3-.9 4.8-1.2 2.2-.3 5.8.8 6.3-.2 0-1.8-3.2-1.7-3.4-4.2-.1-.6-.7-9.9-.7-10.3-.3-2.2-.4-5.4.3-6.1.8-.8 5.6-3.4 8.9-4.8 3.8-1.6 12.7-7 13.8-6.8 1.1.2 1.4 1.9 1.7 4.2.4 2.4.4 5 .7 8 .7 6.4 2.7 13.5 0 16.8-.6.7-1.7 1.1-1.5 2 .6.7 1.8.2 2.7.1 2.4-.4 3.9-.6 6.4-.3.8.1 1.7.5 2.1-.3 0-1.4-1.6-1.9-2.4-3.2m79.5-36.4c-.1 1.8-.1 3.8-.4 5.3-.1.3-.3 2.2-.3 2.8-.1.5-.2 4-.4 4.8-.1.4-.1 2.8-.2 3.3-.1.8-.5 7.1-.8 9.2-.4 2.2-.2 4.1-.7 6-.7 2.8-3.2 5.1-4.2 5.6-1 .6-2.1.3-3-.1-1-.3-2.4-2-3.2-3.6-.5-1-.8-3.5-.8-3.9 0-.4.4-4.6.7-6.1.1-.5 1-13.1 1.4-16.4.1-.4.4-6.1.7-8.4.6-4.1.9-10 3.9-11 2.1-.7 3.8-.1 4.9.3 1.1.4 2.1 1.5 2.4 2.1.9 2.3.2 6.7 0 10.1m5.9-3.9c-.5-2-1.1-3.4-1.9-4.8-1.1-1.8-2.9-4.2-4.7-5-.4-.2-2.8-1.8-6.7-1.5-2.5.6-3.6 1.3-4.9 2.3-1 .9-2.5 2.8-2.5 2.8s-1.5 3-2.1 4.9c-.6 1.9-2.5 11-2.8 13.4-.7 4.4-.8 9.9-.7 13.7.5 12 3.4 13.2 5.2 15.1.9 1 4.2 2.4 5.9 2.6 6.5.7 9-3.4 10-4.7.7-1 2.7-5.9 3.2-7.2.7-2.1 1.9-9.9 2.1-11.2.3-1.3 1-7.4 1-8.2.1-1.7 0-6.7-.1-7.4 0-.5-.7-3.7-1-4.8m-48 43.5c-.8 2.5-4 3.4-6.9 4.1-.9.3-3.7.8-4.2.9-1.9.3-4.9.7-6.5-.1-.7-1-.6-2.3-.5-3.4.1-1.1.3-4.9.3-5.6 0-.5-.2-6.9-.3-8.5-.1-.6-.3-7.2-.3-7.6 0-2-.3-5.6 1.2-6.3.7-.3 2.6-.3 3.7-.4 1.4 0 3.2 0 4.7.1 1.2.1 2.7.2 3.8.6.4.1 2.8 1.2 3.8 3.6 1 2.2 1.7 6.5 1.8 7.7.2 2.8.4 4.6.4 7.5.1 2.6-.3 5.1-1 7.4m-19.1-55.7c.2-1.3 1.1-1.1 2.4-1.1 1 .1 4.4-.2 7 1.3 2 1.1 3.6 3.9 3.9 4.7.6 1.8 1.2 4 1.3 6.3.2 3.9-.1 7.2-.6 8.9-.5 1.6-1.1 3.1-2.3 4.2-1.6 1.5-4.8 2.2-7.4 2.2-.9 0-2.3-.1-2.7-.6-.5-.6-.5-4.9-.6-6.3-.1-.3-1.2-18.8-1-19.6m28.9 37.7c-.7-1.3-1.9-3.4-4.1-5.3-1.4-1.2-3.9-3.6-9.2-4.9-1.7-.4-2.5.1-2.6-.6 1.3-1 2.3-2.2 3.5-3.2.4-.3.8-1 1.2-1.5.9-1.1 1.5-2 2.1-3.4.3-.7 1.8-3.4 1.7-7.7 0-1-.9-4.2-1.4-5-2.1-3.6-4.9-5.8-8.8-7.4-1-.4-2.8-.9-3.6-1-1-.1-7-.5-10.6-.4-.9 0-3.2.1-3.6.1-.4 0-2.2.1-2.6.1-.6 0-2.5-.2-3.1-.1-1 .1-1 1-.8 1.3 1.2.5 4-.6 5 .4.7.6.7 3.2.8 4.4 0 2.1.2 4 .4 6.1.1 1.9.1 10.3.3 12.3.1 1.5.9 18.8.9 20.5 0 2.6.5 9.7.5 10.9 0 2.7.1 4.8.2 7.1-.9.6-2.8.2-4 .6-.6.2-1 .3-1 1.2 0 1.6 4.5 1.3 6 1.3.6 0 8.4-.2 10.1-.3 2.4-.2 4.8-.6 7-1.1 2.2-.6 2.5-.4 4.6-.9 2.1-.5 5-1.8 6.9-3.2 1.9-1.5 1.9-1.6 2.7-3 .8-1.5 2.4-5.1 2.5-8.2 0-.5.3-3.3.2-4.4-.2-1.4-.6-3.5-1.2-4.7m-38-132.6c-.3 1-.2 1.9-.4 2.9-.4 1.4-.5 2.4-1.3 4.3 1.2 1.9 5.8 5.1 7.5 5.7 2.5-.6 1.4-4.2 1.2-7.4-.1-1.7.2-9.3.6-11.4-2.8.7-6.8 2.9-7.6 5.9m215.7 24.9c-.2-1 .5-2 1.6-2.1 1-.2 2 .5 2.1 1.6.2 1-.5 2-1.5 2.1-1 .1-2-.6-2.2-1.6m-1.3 27c-1 .2-2-.5-2.2-1.6-.1-1 .5-2 1.6-2.1 1-.2 2 .5 2.1 1.6.2 1-.5 1.9-1.5 2.1m-2.8-12.5c-.2-1 .5-2 1.5-2.1 1-.2 2 .5 2.1 1.5.2 1-.5 2-1.5 2.1-.9.2-1.9-.4-2.1-1.5m7.1-36.9c1-.2 2 .5 2.2 1.5.1 1.1-.5 2-1.5 2.1-1 .2-2-.5-2.2-1.5-.2-1 .5-1.9 1.5-2.1M561 233.5c-1 .2-2-.5-2.1-1.5-.2-1 .5-2 1.5-2.2 1-.2 2 .5 2.2 1.6.1.9-.6 1.9-1.6 2.1m-2.2 12.9c-1 .2-2-.5-2.1-1.5-.2-1 .5-2 1.6-2.2 1-.2 2 .5 2.1 1.6.2 1-.5 1.9-1.6 2.1m-10.5-9.5c-1 .2-2-.5-2.1-1.5-.2-1 .5-2 1.5-2.1 1-.2 2 .5 2.2 1.5.1 1-.6 2-1.6 2.1m32.1-23.9c1-.2 2 .5 2.1 1.6.2 1-.5 1.9-1.5 2.1-1 .1-2-.5-2.1-1.6-.2-1 .5-2 1.5-2.1m.8 22.4c-1 .1-2-.6-2.1-1.6-.2-1 .5-2 1.5-2.1 1-.2 2 .5 2.1 1.5.2 1.1-.5 2-1.5 2.2m-7.2 20.4c1.8-.6 2.6-2.3 3.6-3.7 2.7-4.1 5.3-9.8 6.7-14.1 2.6-8.2 3.1-20.9 1.7-29.7-.1 0 0 0 0-.1-.7-.2-1.3-.7-1.5-1.5-.1-.7.2-1.3.7-1.7-1.2-3.2-3.3-7-4.9-7.9-2.1.7-7.4 1.3-12.8 1.5.4.1.7.4.8.7 0 0 .1.1.1.2.1.1.1.2.1.3 0 .1.1.1.1.2.2 1-.5 2-1.6 2.1-.9.1-1.8-.5-2.1-1.4 0-.1-.1-.3-.1-.4 0-.7.4-1.3 1-1.7-4.3.1-8.4-.1-10.9-.7-.6.9-1.5 2.1-1.8 2.9 4.1 0 9 1 11.5 3.4 1.7 1.6 3.1 4.6 3.1 7.6.3-.2.6-.4 1-.5 1-.1 2 .6 2.1 1.6.2 1-.5 2-1.5 2.1-.7.1-1.4-.2-1.8-.8-.6 3.1-2.4 6.7-5.7 8.5-3.4 1.8-11.2 4-20.9.6-.5 1-1.2 2.2-2 3.3.5.2 1 .7 1.1 1.4.1 1-.5 2-1.5 2.1-.7.1-1.3-.2-1.7-.6-.6.8-1.2 1.6-1.8 2.3-.7.9-1.9 2-2.2 2.7-1 2.8.3 5.7 2.2 7.4.9.5 1.9 1.1 2.8 1.6-.2-1 .6-2 1.6-2.2 1-.2 2 .5 2.1 1.5.1.9-.4 1.8-1.3 2.1.1.1.4.3.2.1 3.4 2.1 5.9 3.7 10.2 5.4 2.7 1.1 5.4 2.2 8.4 3.4 2.6 1.1 6.3 2.6 9.2 2.5.5-.1 1.2-.4 1.8-.4 1.4-.2 2.7.4 4-.1m-209.2-14.7c.4-.3.8-1.1.7-2-2 .3-5 .5-6.7-.1-.1-.1.1-.5.1-.8 3.3.1 5.9-.2 7.7-.9.7-.3.8-1.1.6-1.9-.2-.6-1.1 0-2.3.3-1.3.3-3.5.4-4.8 0-.1-.6 0-.9 0-1 2.3-.2 5.3-.9 7.4-1.9.1-.5 0-1.4-.5-2-2.6 1.3-6.7 1.5-7.2 1.2-.2-.2-.2-.7-.1-1 .8 0 5.1-.4 6.2-1.6.3-.3-.6-1.7-.9-1.7-1 .2-2.8.6-4 .8-2.4.3-4.4-.5-6.4 1 1.6 4.1.3 8.7-2 11.4 3.1 2.4 8.4 1.8 12.2.2m8.1-56.6c.7-3 8.7.1 12.7.3 1-.7 1.7-.6 2.5-.2.9.5.9 2.3-.4 2.8-5.4 2.2-11.8 2.5-17.9 1.9-.4.2 0 .6-.4 1-.9.5-2.4 1-3.2-.1-1.7-3.6 3.3-4.4 7.7-2.2.3-1.2-1.6-1.8-1-3.5m15.3 24.7c-2.6-9.2-4-12-6-14.1 2.2 9 2 17.2 2 17.2s-1.7.8-2.5.6c-1.4-13.4-4.9-19.9-4.9-19.9s.1 9.3-.7 16.3c-2-4-3.6-10.6-4.3-17.2 2.7-.1 4.7-.3 11.2-.9 0 0 5.7 7 5.2 18m-19.3 3.3c-1.2-4.4-1.4-11.3-.6-15.9 1 7 2.3 13.3 4.9 16.8-.8.1-3.1 0-4.3-.9m1.3-29c-.4 1.5.8 1.8.4 2.3-3.1-1.3-7.1.4-6.9 3.4.1 1.6 1.4 2.8 2.5 3.1-1.1 6.1-1.8 19.7.9 22.3 2.2 1.9 7.5 2.8 12.8 2.3 5.4-.4 10.3-2.8 11.2-4.3 1.6-1.8-.8-16.4-3.5-22.1 2.9.3 5.4-1.9 4.4-4.3-1.2-2.6-5.9-5.5-8.6-4.1-2.3 1.1-4.4-.4-7-.7-3.5-.4-5.8.3-6.2 2.1m154.1 74.1c.1.1.1.1 0 0m46.1 16.3zm16.8-112.1c-.1 1.6-1.6 3.8-2.2 4.5-1.6 1.5-3.2 1.9-5.2 1.6.2 2.3.7 4.3 1.9 6.9-1.2 2.8-1.3 8.2 1.2 12.4 1.4 2.3 6.5 6.2 9 5.2 2.1-.8 3.9-4.8 3.9-7.2-.1-2.2-2-2.2-3.4-2.1-.9 0-2.1 0-2.9-.7-1-.8-.5-1.8.3-4 7-3.9 2.5-13.5 1.2-17.3-1.3-3.6-3.2-6-5.1-5.2.8 1.7 1.5 3.1 1.3 5.9m-234.7 46.1c-3.8-.3-5.6 7.4-12.7 6.5-.1.2-.1.5-.1.7.2.6.3 1 .4 1.2.4 1.3.5 2.6.6 3.9 0 .1.1.2.1.4-.1 0-.1 0-.1-.1v.1l.8.2 1.3.3 1.2.3.1-1 .3-2.3h16.3c1.2-1.8 1.7-3.3.5-3.9-1.5-.7-6-3.3-8.7-6.3M508 159.5c7.1-1.9 14.5-2.6 20.6-1.5.1 1 .3 1.9.2 2.4-7.4.6-14 2.5-21.1 3.8-.2-1.8 0-3.2.3-4.7m22 7c-8.2 1.7-15.2 4.3-20.9 7.9-.7-1.3-.7-4.6-.7-4.7 5.9-2.8 12.7-5 21.2-5.9.3 1.4.3 1.4.4 2.7m3.9-15.6c1.3 0 3 2.9 3.1 4.7.1 2.1-1 3.6-2.1 4.3 1.7 1.7 4.6 4.8 3.1 8-.3.6-.9 1.1-.9 1.9 0 .8.7 1.2 1 2.1.7 2.2 1.1 5.6-1.2 5.3-2.8-.1-2.8-7.2-3.2-11.1-.5-4.2-3.1-8.1-2.8-11.4.3-1.8.9-3.8 3-3.8m-26.1 32.5c2.7-.6 4.9-1.3 7.3-2.4-.2-2.6.3-4.6 2.3-6 3.4-2.3 9.5-2.6 11.9-1.6 2.7 1.1 2.9 2.9 3.8 4.7.8 1.7 2.5 2.3 4.1 2.1 3.8-.4 4.8-3.9 4.5-6.9-.3-2.2-1.4-2.8-1.5-5 0-1.1.8-2.5 1.1-4.1.6-3-2-4.3-2-5.2-.1-1.5 1-3.4.6-5.8-.5-2.9-2.9-4.9-5-5.3-4.7-.9-6.9 2.7-7.1 6.4-7.2-.8-16.3-1.1-23.8.6-.8 4.4-1 9.3-.5 14.2.6 4.9 2 10.3 4.3 14.3m31.9 32.2c-1 .2-2-.5-2.1-1.5-.2-1 .5-2 1.5-2.2 1-.1 2 .5 2.2 1.6.1 1-.6 2-1.6 2.1m16.6-6.2c1-.1 2 .6 2.1 1.6.2 1-.5 2-1.5 2.1-1 .2-2-.5-2.2-1.6-.1-.9.6-1.9 1.6-2.1m-24.9-3.8c-1 .2-2-.5-2.2-1.6-.1-1 .5-2 1.5-2.1 1-.2 2 .5 2.2 1.5.2 1.1-.5 2-1.5 2.2m9.1-4.3c.1 0-1.5-.4-2 0 .6 2 2.3 5.4 1.5 8.1-.4-.3-1.1-.1-1.5-.4-.6-5-1.8-9-4.1-13.2 0 0-.2-.3 0 0-.1 0-.2.1-.3.1-1 .1-2-.6-2.1-1.6-.1-.6.1-1.2.6-1.6.1.2-.6-1.1-1.2-1.9-3.5-2.3-13.3.1-11.6 5.8.9-1.9 4.7-3.6 5.4-2.2-2.6 1.4-4.4 3.8-4.5 5.3-.1.8.8 2 1.2 2.9.5-2.1 3.2-5.5 5.4-6.7 1.4-.8 2.6-.8 3.1.6-5.2 3.7-7.2 9-6.8 9.8.4.9 2.3 3.9 5.6 7l.1.1c-.1-1 .6-1.9 1.6-2.1 1-.2 2 .5 2.1 1.5.2 1-.5 2-1.6 2.1h-.3c0 .1.1.1.1.1 1.2 1.1 1.7 1.4 3.1 2.3 3.3 2.1 8.3 3.5 13 4.1h.2c-.5-.3-.9-.7-1-1.4-.2-1 .6-2 1.6-2.1 1-.2 2 .5 2.1 1.5.2 1-.5 1.8-1.3 2.1h.2c3.6.2 7.2 0 9.9-1.1 2.6-1.2 4.4-3.8 4.9-6.7.9-5.1-1.8-7.4-4.5-9-2.1-1.2-4.4-1.5-7.3-1.7-.4 0-.8 0-1.2-.1.4.3.6.7.7 1.2.2 1.2-.6 2.2-1.8 2.4-1.1.2-2.2-.6-2.4-1.7-.1-.8.2-1.5.8-1.9-1.2 0-2.3.2-3.2.5.9 3.4 1.1 7.5-.8 9.6-.3-.1-.7-.1-.9-.3.9-3.6-.5-8.9-2.8-11.4M517.9 191c3.4-3.2 8.7-3.7 12.9-3-.3-2.1 2.4-12-1.7-12.7 0 2-.6 7.6-.6 7.6h-1.2l-.4-8.2h-2.2l.1 8.2-1.9.3-.5-8.1-1.8.6s-.6 2.8-.1 8c-.1-.1-1.1.2-1.6.5-.4-2.1-.5-6.3-.2-7.8-3.6 1.2-1.5 10.6-.8 14.6M339 238.6c0-.1-.2-.1-.1 0 1.5.6 2.6 1.1 3.6 1.2 3-1.4 3.2-3.5 5-5.4 1 2.9-.6 4.6-2 6.3 1 .1 1.5.2 2.3.2 4.4.1 5.9-8.4 5.2-10.5-1.6-5-8.3-6.1-12.2-7.1.1 3-1.5 5.2-4.2 6.9-.4-.2-.7-.9-1-1.4 2-2.7 3.2-7.1 1.9-11.8-.3-1-3.4-10.3-5.5-13.6-.9-1.4-2.1-3.3-3.3-4.2-3-2.2-8.5-2.1-10.6 1.7-2.9 5.1-.4 15.7 2.7 21.5 5.4 10.1 12.3 13.6 14.8 14.8 3.5-.3 6-2.6 7.8-4.7 1.2 1.8-2.5 4.9-4.4 6.1m209.4 21.2c-1 .2-2-.5-2.1-1.5-.2-1 .5-2 1.6-2.2 1-.2 2 .5 2.1 1.6.1 1-.6 1.9-1.6 2.1m-12.1-3.4c-1 .2-1.9-.5-2.1-1.6-.2-1 .5-2 1.5-2.2 1-.2 2 .5 2.2 1.6.1 1-.6 2-1.6 2.2m24.2 8c1-.2 2 .5 2.1 1.5.2 1-.5 2-1.5 2.1-1 .2-2-.5-2.1-1.5-.2-.9.5-1.9 1.5-2.1m-7.2 8.4c1 .3 2 .5 3 1 2.6 1.2 5.1 2.4 7.8 3.2 2.4.9 5 2.2 6.6 1.9.4-1.4 0-3.2-.2-5-.2.1-.3.1-.5.2-1 .1-2-.5-2.1-1.5-.2-1 .5-2 1.5-2.2.4-.1.7 0 1 .2v.2c1.3-8.7-1.2-11.9-1.6-12.3-1.6-.4-3.2-.9-4.5-.8.3 1.8 1 4 1 5.4-1.4-2.2-1.7-4.3-3.5-6.3-2.5 0-4.6-.7-6.7-1.8-.7 2.1.1 4.5.5 6.7-1.4-1.8-2.8-4.7-2.3-7.5-3.1-1.2-6.9-2.7-10.2-4.3-1.3 2.1-2.4 4.4-2.8 7.3-1.3-3.1-.4-6.5.3-8.9-2.8-1.4-5.2-3.2-7-5.9-1.9.6-3.7 2.1-5.1 3 .4.3.7.7.8 1.2.2 1-.5 2-1.6 2.2-1 .1-2-.6-2.1-1.6v-.5c-2.3.7-4.9 1-6.9 2.4 1 3.9 2.9 6.5 5.5 8.4 0-.1-.1-.2-.1-.3-.2-1 .5-2 1.5-2.1 1-.2 2 .5 2.1 1.6.2 1-.5 1.9-1.6 2.1 0 0 7.9 3.2 12.1 5 .7.3 1.3.6 1.9 1.1 0-.9.6-1.7 1.5-1.9 1-.2 2 .5 2.2 1.5.2 1-.5 1.9-1.5 2.1 1.7 1.7 3.4 3.5 5.5 4.5 1.3.6 2.6.9 4 1.2h-.1c-.4-.3-.6-.7-.7-1.2-.2-1 .5-2 1.5-2.2 1-.2 2 .5 2.1 1.6.3 1.2-.4 2.1-1.3 2.3m-90-45.1c1.3 2.2 2.1 4.8 2.9 7.3l.7 1.9c.7 1.9 1.4 4.1 1.6 6.2.3 2.2 0 4.2-.3 6.1-.1.4-.1.8-.2 1.2l4.4 7.1 6.4-11.7 8 12 6.4-11.1 6.6 9.8 6.3-11.4 7 10.4 4.9-10.4.9 1c.7-.3 3.5-1.2 4.1-1.3 1.4-.4 2.8-.7 3.9-1.3.3-.2.7-.5 1.1-.8.9-.6 1.9-1.4 3.1-1.9-1.2-2.1-1.7-4.8-.7-7.4.3-.9 1.1-1.7 1.8-2.6l.8-.8.7-.9c1-1.3 2.1-2.7 3-4l-.5-4.8-79.2.1.7.7c2 2 4.2 4.1 5.6 6.6m107.2-39.3c-.5.5-.6.9 0 1.3 1.6.6 5.6-.8 6.1-2.3.3-1-1.2-.7-.7-1.8.8-1.7 3.7 0 2.8 2.3-.8 2.9-8 5.2-9.7 2.6-.6-1.1.5-2 1.5-2.1m.9-20.1c3.6 1.8 4.4 5.6 4 9-3.7-.3-6.9-5.1-4-9m-22 19c3.8 2.2 7.9 3.7 11.8 3.7 1.1 0 2.4-.5 2.7.6.3.9-2.9 1.1-4.2 1.1-.3.5-.9 3-.9 3.5 5.7 1 16.3-.2 19.3-1.3 0-1.9.1-4 .7-4.8 1.2-.7 2.7-1.1 2.8-1.4-3.8-5.3-2.3-12.8-2.1-14.1-1.2-2.1-1.1-2.8-1.6-6.5-3.7-5-3.4-8.5-3.5-8.4-3.8.9-4.4 5.3-7.9 6.4-3.3 1-6.4-2.8-8.5-.9-1.5 1.3.3 4 1.6 4.7-.1.8-.8 4 .9 4.2 3.1.4 2-2.5 2.2-2.4.5.1 1.1 2.5 0 3.3-1.1.8-3 .9-3.9-.4-.7-1.1-.7-2.8-.6-3.7-.3-.2-2 .7-2.3 1-.3 4.7 3.8 7.7 2.7 8.6-1.2 1-5.9-.9-7.2-3.4-.4-.7-.4-2.6-2-1.9.2 2-1.9 3.1-4 3.1-2.9 2.6 1.6 7.7 4 9m-155 33.3l-47.8.1-.2 1.4c2.8.9 5.7 2.3 7.6 4.8 1.4-.7 2.8-.9 4-.9h1.5c.4 0 .8 0 1.1-.1.7-.1 1.7-.3 2.5-.5l1.4-.3.2-.1h.2c1.9 0 5.1 2.7 5 8.1-.1 7.3-4.2 10.2-4.2 10.2-2.5 1-5.3 1.6-7.8 1.6-2.8 0-5.2-.7-6.9-2l-.4-.3c-1 .5-2 .7-2.8.7h-.1c-.6 0-1-.1-1.5-.1-.3 0-.6-.1-.9-.1l-1.1-.1-1.2 11.2 7-7 4.9 8.7 7.7-10.3 5.8 12 8.3-10.8 4.6 10.8 1.6-2c-.1-.6-.3-1.2-.3-1.9-1.2-10.9 3.9-21.3 5.5-24.3.3-.4 3.7-5.6 6.3-8.8m179 57.6l82.8 1.2v-1.6l-82.8-.2c.1.2.1.4 0 .6m-369.6 22.4l-27.2-.9 1.3 29.9 2.3-.7-.4-25.4 24-2.9zm75.9-76.4c2 1.6 9.3-3.2 8.8-6.5-.4-2.3-3.2-2.9-4.7-5.6-1-1.9-1.7-3.7-1.9-6.1-2.2 1.2-4.5 3.7-5.5 4.7-.9.9.1 4.3.6 6.3.8 3.5.9 5.8 2.7 7.2m299.4-57.8c2.5-.4 4.2-1 5.5-3.6 1.9-3.5-1.3-9.7-3.1-10.1-2.6 0-4.8 1.4-6 2.7-.8 2.5 1.9 9.2 3.6 11m-5.9 103l84.2.3 5.8 26.3-1.8-29.9-88 1.2c-.1.7-.1 1.4-.2 2.1m.1-111.6c.1-1.1.9-3.6.9-3.6s1-1.3 1.9-1.7c-1-.3-2.5-1.4-2.9-2.2-1-1.8-.6-3.5-.4-4.1-2.2-2.7-8.2.1-8.2 3.5.1 4.1 4.1 8.3 8.7 8.1m.6 16.2c1.2-.8-.2-4.3-1.9-2.5-.8 1 1 2.8 1.9 2.5m-223.4-10c-.8-1.5-2.7-1.1-2.8.2-.1 1 2.5 1.7 2.8-.2m-15.7-3.5c1.1.1 2 1.2 2.2 2.7-2.6-1.4-2.3.6-2.2 2.6.1 2-.4 4 .7 4.2.4 0 .9-.7 1.2-1.1 1 .5.5 2 .1 2.4-.6.6-1.2.7-2.1.6-3.3-.4-3.5-11.6.1-11.4M354 165c-3.3 2.4-8.5.9-10.5-2.1 3.2-2.3 8.9-.5 10.5 2.1m-26.4 16.2c.1.8 1.5 4.7 4.4 7.7 2.9 3.1 6.2 4.6 8.6 5.4 1.5-1.8-1.1-2.6-3.3-5.6-1.1-1.6-2.6-4-3.5-6.4-.7-2.2-1.4-6.4.7-7.7-.7 9.2 4.6 15.2 13 17.4.8.2 2 .3 2.8.2 2.5-.6 1.9-3.1 1-4.9.1-.8 1.1-.7 1.3-1.4-2.1-1.6-4.7-2.7-5.9-5.2 2.5 0 5.2.2 7 .4.3-.8.5-1.7.8-2.6-1.6-.8-4.8-.1-5.5-2.2-.3-.9-.2-2.1 1.1-3.1.6-.4 1.7-.9 2.1-1-.6 1.2-2 1.4-1.8 2.9.2 1.5 2.1 2.3 4.3 1.8.6 2.3 5.5 3.3 5.6.4 0-1.4-1.9-2.8-2.2-4.3-1-5.4 3.7-6.5 6-9.2-2.8-2.4-6.5-4-7.8-8.1-3-.3-6.8-.6-10.8-.9-2.7 2.4-4.6 8.3-5.9 8.2-2.4-.5 2.1-5.9 3.8-8.7-1.8-.2-3.6-.5-5.1-.7-2 .2-7.7 2.2-8 5.3 2.5-1.7 5.5-2.9 8.5-2.9-2.4 1.2-4.1 1.4-6.4 2.8-1.7 1.1-3.9 2.6-3.9 4.6.8-.3 1.3-.6 2.4-.6-.4 2.2-2.8 2.4-2.3 5.4 3.7-.3 1.2 4.4.6 7-.5 2.1-1.6 6-1.6 6m41.4-23c-3.1-1.2-7.1-2.2-10.4-2.7.8 2 2.2 3.4 3.9 4.8 2.7 2.3 5 3.5 7.4 3.9 2-1.7.2-4.5-.9-6m-3.1-2.8c1.9.6 3.9 1.4 5.3 1.2 3.7-.6 1.9-4.3-.1-6.1-5.6-5.1-22.9-3.1-26.3-2.2-3.4 1-4.6 1.4-5 3.3 3.3.4 7.7.7 11.4 1 5.4.5 10.1 1.5 14.7 2.8m245.2 117.9l43.8 1.2-.4-2-43.4.8zm43.6 9.3c-1.9-.4-44 2.4-44 2.4l45-.4-1-2zm2.8 6.1l-28 1.9 28.4-.3-.4-1.6z"/><path class="st0" d="M269.3 409.2c-.1 0-1.4.5-1.3.9.3.8 1.6.4 2.2.2.3-.1 1.3-.5 2-1-1.2-.5-2.3-.3-2.9-.1m5.4 14c-1.5.5-2.4 0-3.3.3-.9.3-1.1 2.2-1.1 2.2l-.8.3-2.8-8.2 1-.3c1.3 3.7 3.4 5.7 6.2 4.8s2.9-5.8 2.1-8.2c-.5-1.6-1.2-3-2.7-4.2-.9.9-1.6 1.5-2.7 1.8-1.4.5-3.7.4-4.2-1.3-.5-1.5 1.5-2.4 2.6-2.8 1.3-.5 2.1-.4 3.4-.3.8-.9.5-3.4.1-4.4-.8-2.3-3-5.1-5.8-4.1-4 1.4-4.2 4.1-3.2 7.2l-.7.3-3.1-8.1 1-.3c.5.8 1.3 1.9 2.4 1.5 1.2-.4 1-1.1 3.1-1.8 4-1.4 8.3.3 9.6 4.3.7 2.1.1 4.4-1.2 6.3 2.3.8 4.7 2.4 5.5 4.7 1.4 4.2-1.3 8.9-5.4 10.3m18.1-11.2c-.8-3-2-6.7-2.9-9.4-.3 0-1.4.3-1.6.4-.7.2-1.7 1.2-1.6 2.2.3 3.6.6 8.9-.7 12.4l7.7-2.1-.9-3.5zm7.9 9.3c-2.4-4.9-4.5-5.2-5.7-4.8-3.6 1-6.6 1.9-8.1 2.4-3.2.9-1.5 7.2-1.5 7.2l-1 .3-2.4-7.5.5-.1c3.3-.9 3.5-8.2 2.8-10.7-.6-2-1.1-3.9-3.8-3.1l-.3-1 13.9-3.8.3 1-2.2.7.5 2c.9 3.4 2.2 7.5 3.2 10.9 1-.2 1.6-.4 2.5-.7.7 2.4 1.6 4.7 2.2 7.1l-.9.1zm3.9-22.2c-2.1.5-2.8 2.8-2.5 4.5l5.4-1.2c-.4-1.7-1.3-3.6-2.9-3.3m5.6 4.1l-8 1.8c.1 1.2.3 2.3.5 3.5.5 2.1 1.6 5.4 4.4 4.8 1-.2 2.3-1.7 2-2.9-.5-.5-.6-.5-.8-1.2-.1-.7.2-1.3.9-1.4.8-.2 1.3.4 1.5 1.1.6 2.7-1.6 4.9-4.1 5.4-3.5.8-6.5-2.2-7.2-5.4-.8-3.8-.2-9.8 4.3-10.8 2.9-.7 5.7 1.2 6.4 4 .2.1.4 1 .1 1.1m10.4 8.1c-4.5.9-7.6-.6-8.6-5.5-.9-4.9.6-10 6.1-11 2.2-.4 4.2-.1 4.6 2.4.3 1.8-.1 3.4-2.2 3.8-1.5.3-2.2-.3-2.5-1.7-.3-1.6.4-2.7 1-3.7-3.9.7-4.3 4.6-3.7 8.2.6 3.2 1.8 7 5.7 6.3 2.6-.5 3.9-3.6 4.1-6.1l1 .3c.1 3-2.1 6.4-5.5 7m11.5-11.4l1.2 7.8s.6.1.7.1c2-.3 3.1-2.5 2.8-4.3-.3-2.9-2.2-4-4.7-3.6m3.5 8.5l-7.5 1.2-.2-.7 2.4-.4-2.2-13.7-2.4.5v-1.2l7.7-1.2.1.9-2.2.4.7 4.7.7-.1c3.5-.6 6.5.6 7.1 4.1.3 2.1-1.5 5-4.2 5.5m34.9-5l-8.3.9-.1-.9 2.5-.3c.1-1.3 0-2.6-.1-3.8l-.5-4.6c-.2-1.5-.3-3-.8-4.4l-1.4.1c-2.1.2-1.8 1.1-1.8 3.1-.1 3.3-.8 12.4-5.4 12.9-1.5.2-3.1-.9-3.2-2.5-.1-1.3.7-2.2 2-2.3 1.6-.2 2.2.9 2.6 2.3 2.7-.3 2.8-7.5 2.6-9.5l-.1-.9c-.1-1.1-.3-2.4-1.4-2.8h-2l-.1-.8.5-.1c4.5-.5 8.9-.8 13.4-1.2l.2 1-2.3.3 1.4 13c.7 0 1.5.1 2.2 0h.2l-.1.5zm17.7-16.3c-3 .2-3.3 5.5-3.1 7.6.2 2.7.7 7.5 4.3 7.3 3.1-.2 3.1-5.7 3-8-.2-2-1.3-7.1-4.2-6.9m1 15.8c-4.4.3-7.2-2.9-7.8-7.1l-4.9.4.4 5.9 3.2-.2.1 1.3c-3 .2-6.1.5-9.2.4l-.1-.8 2.8-.4-1-13.3-2.8.1v-.9l8.3-.3.1 1-2.4.2.4 5.1 4.9-.1c.2-3.8 2.4-7.5 6.5-7.8 4.5-.3 7.8 2.9 8.1 7.3.5 4.2-1.8 8.9-6.6 9.2m18.3-6.4c-.2-3.1-.5-6.9-.7-9.8h-1.7c-.8 0-1.9.8-2 1.8-.5 3.6-1.4 8.8-3.4 12l8-.4-.2-3.6zm5.7 10.8c-1.3-5.3-3.2-6-4.6-6-3.8.2-6.8.5-8.4.5-3.3.2-3 6.7-3 6.7h-1l-.6-7.9h.5c3.4-.2 5.2-7.2 5.1-9.9-.1-2.1-.2-4-3-3.9l-.1-1 14.4-.7.1 1.1-2.3.2.1 2c.2 3.5.5 7.8.8 11.3 1 0 1.6 0 2.6-.1.2 2.5.5 4.9.6 7.4l-1.2.3zm11.1-6.4v-1.1l2.2-.1v-2.1c-.1-1-.5-6.4-.6-7.4l-6 8v1.7l2.5.1v1l-7.9.2v-1.1l2.5-.1c-.3-2.9-.4-8.4-.5-11.3l-.1-1.9h-2.1v-1l7.6-.2v1c-.1 0-1.4.1-2.3.1l.3 9.2 5.9-7.7v-1.5l-2 .1v-.9l7.5-.2v1l-1.9.1.4 13.3 1.9-.1v.9h-7.4zm26.9-14.9c-3.7-.1-3.9 5.1-4 7.3-.1 2.2-.2 7 3.5 7.1 3.2.1 3.6-5.5 3.7-7.5 0-2.1.1-6.8-3.2-6.9m-1.1 15.2c-4.4-.1-6.4-3.9-6.3-7.6.1-4.6 2.5-8.7 8-8.6 4.4.1 6 4.6 5.9 8.1-.1 4.3-2.6 8.3-7.6 8.1m22.5-8.7c-.4-1.9-1.9-5.4-4.2-5.6-.4 4.4-.7 7.4-.9 11.1 0 .3-.1 2.2-.1 2.4.2 0 2.4.3 2.9.4l-.1.6-9.3-.5v-.8l3.3.2.8-13.6c-2.5-.1-4.8 1.7-5.4 4.2h-.7l.3-5.6c4.9.3 9.9.7 14.6 1.1l-.3 6.1h-.9zm13.2 5.6c.3-3.1.5-6.9.6-9.8-.3-.1-1.4-.2-1.7-.2-.8-.1-2 .5-2.2 1.5-.9 3.5-2.6 8.5-5 11.4l8 .7.3-3.6zm4.2 11.4c-.6-5.4-2.4-6.4-3.7-6.5-3.8-.3-6.8-.5-8.4-.6-3.3-.3-3.9 6.2-3.9 6.2l-1-.1.4-7.9.5.1c3.4.3 6.1-6.5 6.3-9.1.2-2.1.3-4-2.5-4.3v-1l14.3 1.2-.1 1.1-2.3-.1-.2 2c-.3 3.5-.6 7.8-.7 11.3 1 .1 1.6.2 2.6.3-.1 2.5-.2 4.9-.4 7.4h-.9zm16.7-4.2l.1-.9 2.3.1 1.6-13.5c-.3-.1-.6-.2-1-.3l-1-.1.1-1 7.6.9-.1.9-1.8-.1-1.7 13.6c.9.1 2.8.6 2.8.6l-.1.8-8.8-1zm-7.8-9.8l-.9 7.6s.5.3.7.3c2.2.3 4-1.3 4.3-3.2.4-3.3-1.3-4.4-4.1-4.7m1.4 9.1l-8.3-1 .2-.9 2.8.1 1.6-13.1-2.7-.3.4-1.2 8.1 1-.1 1.1-2.5-.2s-.3 3-.5 4.5c3.4.4 7.8 1.2 7.2 6-.5 2-3.6 4.3-6.2 4m33.2 4.8l-8.5-1.3.1-1 2.4.2-2-5.9c-3.1 2.9-4.3 6.5-7.2 6.1-1.5-.2-2.3-1.2-2.1-2.6.2-1.3 1-2.1 2.3-1.9.9.1 1.5.6 1.3 1.6-.1.4-.2.9-.5 1.5 1.2.2 3.7-3.9 5.6-5.9l-2.3-7-2.7-.4.2-1.3 8.2 1.3-.4.9-1.6-.2 1.4 4.9 3.4-3.9-1.2-.2.2-1.2 6 1-.1.9s-2.6-.4-3.8.4l-4.1 4.3 2.9 8.1 2.8.9-.3.7zm5-2.9c-.2.9-.5 3 .8 3.3 1 .2 2.5-.4 3.2-1.2.5-1.9 1.2-3.8 1.6-5.8-3.3-.6-4.9.1-5.6 3.7m7.1 6.6c-1.3-.2-2.3-2-2.5-3.2-1.4.5-2.8 1.5-4.3 1.2-2.2-.4-4.6-1.7-4.1-4.3.9-5.1 4.7-5 8.7-5.1 1.5 0 1.8-1.2 2-2.4.4-1.9.1-3.6-2.1-4-1.6-.3-1.8 0-3 .7.6.5.9 1.4.7 2.1-.2 1.1-1.1 1.9-2.3 1.7-1.3-.2-2-1-1.8-2.4.6-3 3.9-3.5 6.4-3.1 4.9.9 5.3 3.8 4.5 8.2l-2.1 8.3c-.1.6-.2 1.3.5 1.5 1.4.3 1.8-1.3 2-2.3l.9.1c-.3 1.5-1.6 3.3-3.5 3m24.6-12.1c-2.9-.6-4.7 4.4-5.2 6.4-.6 2.6-1.5 7.4 2.1 8.2 3 .7 4.6-4.6 5.1-6.8.5-2 .9-7.2-2-7.8m-3.5 15.4c-4.3-.9-6.1-4.9-5.4-9l-4.8-1-1.3 5.8 3.1.7-.3 1.2c-3-.6-6-1.3-8.9-2.3l.2-.8 2.8.4 2.8-13-2.7-.7.2-.9 8 2-.2 1-2.4-.5-1.1 5 4.8 1.3c1.3-3.6 4.4-6.5 8.4-5.6 4.4 1 6.7 5 5.7 9.3-.7 4.3-4.2 8.1-8.9 7.1m23.6-4.4c0-1.9-.8-5.7-3.1-6.3-1.2 4.3-2.1 7.1-3 10.8-.1.3-.5 2.1-.6 2.4.2 0 2.3.8 2.8 1l-.2.6-9-2.3.2-.8 3.2.8 3.3-13.2c-2.4-.6-5.1.8-6.1 3.1l-.7-.2 1.4-5.5c4.7 1.2 9.6 2.6 14.1 3.8l-1.5 5.9-.8-.1zm5.4 1.9l-1.3-.2s.9-9.1 2-13.2c.6-2.2 1.3-3.9 3.8-3.2 2.1.6 1.6 2.3 1.1 4.1-.5 1.6-5.6 12.5-5.6 12.5m-3.1 8.7c-1.4-.4-1.5-1.8-1.2-3 .3-1.3 1.2-2.4 2.6-2 1.4.4 1.8 1.5 1.4 2.9-.3 1.3-1.4 2.5-2.8 2.1"/></svg>