<svg xmlns="http://www.w3.org/2000/svg" width="215" height="46"><path data-name="Path 11" d="M0 17.4V.868h7.73v16.374c0 1.705.316 5.512 4.418 5.512s4.417-3.807 4.417-5.512V.868h7.731V17.4c0 2.973-.631 12.014-12.149 12.014S0 20.374 0 17.4z" fill="#00a3da"/><path data-name="Path 12" d="M28.99.868h8.125l10.1 16.374V.868h7.455v27.754h-8.009L36.445 11.969v16.652H28.99z" fill="#00a3da"/><path data-name="Path 13" d="M59.637.868h7.731v27.754h-7.731z" fill="#00a3da"/><path data-name="Path 14" d="M104.522.868h8.125l10.1 16.374V.868h7.455v27.754h-8.007l-10.218-16.653v16.652h-7.455z" fill="#00a3da"/><path data-name="Path 15" d="M135.17.868h11.636c7.849 0 10.056 5.471 10.056 9.277 0 3.846-2.247 9.317-10.056 9.317H142.9v9.16h-7.729zm7.729 12.489h2.21c3.432 0 3.785-2.022 3.785-3.211 0-1.387-.474-3.172-3.785-3.172h-2.21z" fill="#ef228b"/><path data-name="Path 16" d="M160.452.868h7.73v27.754h-7.73z" fill="#ef228b"/><path data-name="Path 17" d="M173.152.868h11.636c7.849 0 10.057 5.471 10.057 9.277 0 3.846-2.248 9.317-10.057 9.317h-3.906v9.16h-7.73zm7.73 12.489h2.21c3.431 0 3.786-2.022 3.786-3.211 0-1.387-.474-3.172-3.786-3.172h-2.21z" fill="#ef228b"/><path data-name="Path 18" d="M198.433.868H215v6.661h-8.836v3.88h8.008v6.106h-8.008v4.44H215v6.662h-16.567z" fill="#ef228b"/><path data-name="Path 19" d="M100.606 14.666A14.591 14.591 0 1 1 86.015 0a14.631 14.631 0 0 1 14.591 14.666z" fill="#00a3da"/><path data-name="Path 20" d="M96.959 18.334a10.943 10.943 0 1 1-10.943-11 10.974 10.974 0 0 1 10.943 11z" fill="#ef228b"/><path data-name="Path 21" d="M93.311 14.623a7.3 7.3 0 1 1-7.3-7.333 7.315 7.315 0 0 1 7.3 7.333z" fill="#fff"/><g data-name="Group 6" fill="#1b1b1b"><path data-name="Path 22" d="M.861 34.838h6.54v7.571H5.664v-6H2.598v6H.861z"/><path data-name="Path 23" d="M10.288 35.771a4.186 4.186 0 0 1 5.74 0 4.151 4.151 0 0 1 0 5.735 4.186 4.186 0 0 1-5.74 0 4.151 4.151 0 0 1 0-5.735zm1.312 4.691a2.3 2.3 0 0 0 3.117 0 2.343 2.343 0 0 0 .656-1.806 2.39 2.39 0 0 0-.656-1.84 2.3 2.3 0 0 0-3.117 0 2.39 2.39 0 0 0-.656 1.84 2.343 2.343 0 0 0 .656 1.806z"/><path data-name="Path 24" d="M24.774 35.18v2.294a2.683 2.683 0 0 0-.945-.925 2.418 2.418 0 0 0-1.235-.342 2.194 2.194 0 0 0-1.575.651 2.361 2.361 0 0 0-.673 1.781 2.556 2.556 0 0 0 .6 1.729 2.036 2.036 0 0 0 1.626.7 2.551 2.551 0 0 0 2.2-1.284v2.294a4.065 4.065 0 0 1-2.078.565 4.118 4.118 0 0 1-3.083-1.164 3.809 3.809 0 0 1-1.073-2.808 3.857 3.857 0 0 1 4.054-4.041 4.129 4.129 0 0 1 2.182.55z"/><path data-name="Path 25" d="M27.67 42.409v-6h-2.215v-1.575h6.167v1.575h-2.215v6z"/><path data-name="Path 26" d="M38.366 34.838h1.737v7.571h-1.737v-.788a2.844 2.844 0 0 1-2.283 1.028 3.27 3.27 0 0 1-2.648-1.2 4.28 4.28 0 0 1-1-2.825 4.238 4.238 0 0 1 .987-2.815 3.3 3.3 0 0 1 2.674-1.181 2.642 2.642 0 0 1 2.266 1.1zm-2.01 1.369a1.9 1.9 0 0 0-1.524.7 2.871 2.871 0 0 0-.017 3.458 1.882 1.882 0 0 0 1.542.7 1.9 1.9 0 0 0 1.541-.685 2.636 2.636 0 0 0 .571-1.747 2.478 2.478 0 0 0-.613-1.8 2.006 2.006 0 0 0-1.5-.624z"/><path data-name="Path 27" d="M42.215 34.838h2.947a2.8 2.8 0 0 1 1.72.445 1.774 1.774 0 0 1 .681 1.455 1.5 1.5 0 0 1-.886 1.472 2.08 2.08 0 0 1 1.022.514 1.876 1.876 0 0 1 .579 1.456 2.1 2.1 0 0 1-.818 1.729 2.781 2.781 0 0 1-1.738.5h-3.507zm1.737 2.945h.9a1.3 1.3 0 0 0 .7-.154.7.7 0 0 0 .341-.616.661.661 0 0 0-.307-.582 1.4 1.4 0 0 0-.766-.154h-.868zm0 3.184h1.312a1.612 1.612 0 0 0 .92-.223.815.815 0 0 0 .358-.668.755.755 0 0 0-.341-.651 1.492 1.492 0 0 0-.886-.206h-1.363z"/><path data-name="Path 28" d="M50.016 34.838h1.737v2.771l2.538-2.773h2.283l-3.27 3.3 3.458 4.263h-2.216l-2.793-3.49v3.5h-1.737z"/><path data-name="Path 29" d="M57.85 34.838h1.738v4.3l5.178-4.982v8.253h-1.737v-4.4l-5.178 4.982z"/><path data-name="Path 30" d="M70.846 34.838h1.737v4.3l5.178-4.982v8.253h-1.739v-4.4l-5.178 4.982z"/><path data-name="Path 31" d="M79.874 42.409v-7.567h1.737v2.808h3.134v-2.808h1.737v7.567h-1.737v-3.185h-3.134v3.185z"/><path data-name="Path 32" d="M92.239 34.838h1.737v2.808l2.283-2.808h2.112l-2.93 3.458 3.2 4.109h-2.18l-2.487-3.356v3.36h-1.737v-3.36l-2.485 3.36h-2.18l3.2-4.109-2.93-3.458h2.112l2.283 2.808z"/><path data-name="Path 33" d="M105.15 39.614l1.465.822a4.625 4.625 0 0 1-.988 1.284 3.8 3.8 0 0 1-2.623.925 3.614 3.614 0 0 1-2.546-1.028 3.834 3.834 0 0 1-1.1-2.945 4.239 4.239 0 0 1 .988-2.936 3.368 3.368 0 0 1 2.64-1.1 3.215 3.215 0 0 1 2.862 1.387 4.881 4.881 0 0 1 .7 2.757v.274h-5.383a1.9 1.9 0 0 0 .639 1.49 2.084 2.084 0 0 0 1.388.531 1.892 1.892 0 0 0 1.193-.411 2.485 2.485 0 0 0 .765-1.05zm-3.884-2h3.492a1.8 1.8 0 0 0-.622-1.027 1.812 1.812 0 0 0-2.223.008 1.906 1.906 0 0 0-.647 1.014z"/><path data-name="Path 34" d="M108.352 42.409v-7.567h1.737v2.808h3.133v-2.808h1.737v7.567h-1.737v-3.185h-3.135v3.185z"/><path data-name="Path 35" d="M122.489 39.614l1.465.822a4.624 4.624 0 0 1-.988 1.284 3.8 3.8 0 0 1-2.623.925 3.614 3.614 0 0 1-2.546-1.028 3.833 3.833 0 0 1-1.1-2.945 4.239 4.239 0 0 1 .988-2.936 3.367 3.367 0 0 1 2.64-1.1 3.216 3.216 0 0 1 2.861 1.387 4.881 4.881 0 0 1 .7 2.757v.274h-5.382a1.9 1.9 0 0 0 .638 1.49 2.086 2.086 0 0 0 1.389.531 1.89 1.89 0 0 0 1.192-.411 2.479 2.479 0 0 0 .766-1.05zm-3.883-2h3.491a1.8 1.8 0 0 0-.622-1.027 1.812 1.812 0 0 0-2.223.008 1.907 1.907 0 0 0-.647 1.014z"/><path data-name="Path 36" d="M127.428 34.838v.821a2.814 2.814 0 0 1 2.282-1.027 3.466 3.466 0 0 1 2.581 1.1 4.4 4.4 0 0 1-.043 5.787 3.44 3.44 0 0 1-2.521 1.13 2.988 2.988 0 0 1-.613-.068 3.4 3.4 0 0 1-.826-.334 2.719 2.719 0 0 1-.86-.711v4.469h-1.737V34.838zm2.027 1.369a2.017 2.017 0 0 0-1.5.651 2.477 2.477 0 0 0-.63 1.8 2.645 2.645 0 0 0 .562 1.721 1.9 1.9 0 0 0 1.567.693 1.864 1.864 0 0 0 1.524-.7 2.68 2.68 0 0 0 .57-1.746 2.442 2.442 0 0 0-.621-1.772 1.984 1.984 0 0 0-1.472-.645z"/><path data-name="Path 37" d="M135.092 42.409v-7.567h1.738v2.808h3.134v-2.808h1.738v7.567h-1.738v-3.185h-3.134v3.185z"/><path data-name="Path 38" d="M143.813 34.838h1.737v2.688h1.022q.477 0 .767.026a2.963 2.963 0 0 1 .758.205 1.888 1.888 0 0 1 .775.539 2.747 2.747 0 0 1-.119 3.475 2.1 2.1 0 0 1-.716.445 2.446 2.446 0 0 1-.689.171q-.281.017-.792.017h-2.742zm1.737 6.061h.784a1.773 1.773 0 0 0 .9-.171.835.835 0 0 0 .392-.771.855.855 0 0 0-.375-.753 1.775 1.775 0 0 0-.9-.171h-.8zm4.667-6.061h1.737v7.571h-1.732z"/><path data-name="Path 39" d="M157.49 39.58l-2.231 2.825h-2.146l3.321-4.092-2.674-3.475h2.078l1.652 2.209 1.686-2.209h2.146l-2.777 3.475 3.219 4.092h-2.112z"/><path data-name="Path 40" d="M172.751 35.18v2.294a2.679 2.679 0 0 0-.945-.925 2.419 2.419 0 0 0-1.235-.342 2.194 2.194 0 0 0-1.575.651 2.362 2.362 0 0 0-.672 1.781 2.557 2.557 0 0 0 .6 1.729 2.037 2.037 0 0 0 1.627.7 2.551 2.551 0 0 0 2.2-1.284v2.294a4.064 4.064 0 0 1-2.078.565 4.118 4.118 0 0 1-3.083-1.164 3.807 3.807 0 0 1-1.073-2.808 3.857 3.857 0 0 1 4.053-4.041 4.127 4.127 0 0 1 2.181.55z"/><path data-name="Path 41" d="M174.352 34.838h1.738v4.3l5.178-4.982v8.253h-1.737v-4.4l-5.178 4.982z"/><path data-name="Path 42" d="M189.238 35.18v2.294a2.681 2.681 0 0 0-.945-.925 2.418 2.418 0 0 0-1.235-.342 2.195 2.195 0 0 0-1.575.651 2.362 2.362 0 0 0-.673 1.781 2.557 2.557 0 0 0 .6 1.729 2.036 2.036 0 0 0 1.626.7 2.551 2.551 0 0 0 2.2-1.284v2.294a4.064 4.064 0 0 1-2.078.565 4.118 4.118 0 0 1-3.083-1.164 3.807 3.807 0 0 1-1.073-2.808 3.857 3.857 0 0 1 4.053-4.041 4.128 4.128 0 0 1 2.183.55z"/><path data-name="Path 43" d="M192.134 42.409v-6h-2.212v-1.575h6.166v1.575h-2.215v6z"/><path data-name="Path 44" d="M202.694 39.614l1.465.822a4.63 4.63 0 0 1-.988 1.284 3.8 3.8 0 0 1-2.623.925 3.615 3.615 0 0 1-2.547-1.028 3.834 3.834 0 0 1-1.1-2.945 4.24 4.24 0 0 1 .988-2.936 3.368 3.368 0 0 1 2.64-1.1 3.216 3.216 0 0 1 2.861 1.387 4.881 4.881 0 0 1 .7 2.757v.274h-5.382a1.9 1.9 0 0 0 .638 1.49 2.085 2.085 0 0 0 1.388.531 1.891 1.891 0 0 0 1.192-.411 2.482 2.482 0 0 0 .768-1.05zm-3.884-2h3.492a1.8 1.8 0 0 0-.622-1.027 1.812 1.812 0 0 0-2.223.008 1.909 1.909 0 0 0-.647 1.014z"/><path data-name="Path 45" d="M205.078 42.409l1.822-8.252 3.122 5.752 3.117-5.752 1.822 8.252h-1.771l-.767-3.8-2.4 4.383-2.4-4.383-.767 3.8z"/></g></svg>