<svg version="1.1" id="Слой_1" xmlns="http://www.w3.org/2000/svg" x="0" y="0" viewBox="0 0 255.1 141.7" xml:space="preserve"><style>.st0{fill:#1b1b1b}.st2{fill:#ca4c44}.st3{fill:#d27645}</style><path class="st0" d="M106.1 70.6v2.9c0 1-.4 1.9-1.2 2.4-5 3-10.3 4.1-16 1.8-3.5-1.4-5.6-4.1-6.5-7.7-1.1-4.2-.8-8.3 1.5-12 1.9-3.1 4.8-4.6 8.3-5.2 3.6-.6 7.1-.3 10.2 1.9 1.6 1.1 2.9 2.6 2.9 4.7 0 1-.5 1.6-1.4 2-.8.3-1.7.3-2.5-.3-.5-.4-.8-.8-1-1.3-2.4-4.7-10-4-12.1.7-1.7 3.9-1.8 7.9.6 11.5 1.7 2.7 4.6 3.1 7.6 2.8 1.5-.2 3-.7 4.3-1.4.5-.2.6-.5.6-1 0-1.1.4-2.4-.1-3.1-.5-.8-2-.2-3-.3-.7-.1-1.4-.1-2.1-.2-1-.1-1.6-.6-1.6-1.7 0-1 .5-1.7 1.4-2 .8-.2 1.7-.2 2.6-.1 1.7 0 3.5-.1 5.2.1 1.6.2 2.4 1 2.4 2.7-.1.9-.1 1.9-.1 2.8zM146 63c0-.7-.1-1.3-.3-2-.2-1-.9-1.4-1.8-1.5-1.5-.1-2.3.8-2.5 3l-.7-.7c-3.7-3.8-9.9-2.8-12.2 1.9-1.3 2.6-1.3 5.4-.7 8.1.6 2.9 2.1 5.2 5.1 6.1 3.2 1 5.9.2 8.1-2.4 0 0 .1 0 .3-.1v1.8c0 .7-.1 1.5-.2 2.2-.3 1.1-.8 2.1-2 2.5-1.3.5-2.6.5-4 .3-1.5-.2-2.2-1.4-3.2-2.4s-2.3-1.1-3.1-.4c-.8.7-.8 2.1-.1 3.1.6.9 1.5 1.5 2.5 1.9 2.6 1.3 5.4 1.2 8.2.9 2.2-.2 4.2-1 5.4-3 1-1.6 1.3-3.5 1.3-5.3-.1-4.5-.1-9.2-.1-14zm-7.3 11.3c-2.4 1.3-5.1.1-6-2.5-.6-1.8-.6-3.7 0-5.5.8-2.4 2.1-3.2 4.6-3.1 1.7.1 3.3 1.5 3.8 3.5.2.8.3 1.6.2 2.1 0 2.5-.5 4.4-2.6 5.5zM25.5 72.8l6-18c.5-1.6 1.3-2.3 2.6-2.2 1.1 0 2 .8 2.3 1.9.2.8-.1 1.5-.4 2.3-2 5.5-4.1 11-6.1 16.5-.5 1.3-.8 2.6-1.5 3.8-.7 1.2-1.7 1.9-3.1 1.9-1.4 0-2.5-.5-3.2-1.8-1.2-2.4-2-5-2.9-7.6-1.6-4.3-3.1-8.6-4.7-12.8-.4-1.2-.7-2.4.4-3.4 1.4-1.3 3.4-.8 4.1 1 1.1 3.1 2.1 6.2 3.2 9.3 1 3 2 5.9 3 8.9.1-.1.2 0 .3.2zm128.1-10.7c1.5-1.4 3.2-2.3 5.2-2.5 4.1-.3 6.8 2.1 6.9 6.3.1 3.4.1 6.8 0 10.2 0 2.1-1.5 3.3-3.2 2.6-1.1-.4-1.4-1.3-1.5-2.4V68c0-.8-.1-1.6-.3-2.4-.5-2.4-3.3-3.2-5.4-1.5-1 .8-1.5 1.8-1.6 3.1-.2 2.5-.1 5-.1 7.5 0 .6 0 1.3-.1 1.9-.1 1.3-1.1 2.2-2.3 2.2-1.2 0-2.1-.7-2.3-2.1-.1-.6-.1-1.2-.1-1.8v-19c0-.5 0-1.1.2-1.6.3-1.4 1.1-2 2.4-1.9 1.2.1 2.1.9 2.2 2.2.1 1.4.1 2.7.1 4.1-.1 1.2-.1 2.3-.1 3.4zM53.5 76.2c-.7-2-.9-4.2-.7-5.7.1-2.4.1-4.2-.2-6-.3-2.2-1.4-3.8-3.6-4.4-2.5-.7-5.1-.8-7.7-.2-2.2.5-4.1 1.5-4.9 3.8-.4 1.2.1 2.4 1.2 2.7 1.1.2 1.9-.1 2.4-1.1 1-2.1 2.8-2.6 4.9-2.4 2.1.2 2.6.6 3.1 2.7.1.6.1.9-.6 1.1-2.5.7-5.1 1.1-7.7 1.7-2.8.6-4.4 2.7-4.3 5.4.1 2.4 2 4.4 4.6 4.9 2.7.5 5.2-.2 7.3-1.8.8-.6 1.3-.7 1.7.3.2.4.5.8.9 1.1.8.7 1.7.8 2.6.2 1-.6 1.4-1.3 1-2.3zm-10.4-.5c-1 .1-1.8-.3-2.5-1.2-.8-1.1-.5-2.7.9-3.3 2-.9 4.2-1 6.3-1.6.3-.1.3.2.3.4.2 2.9-.9 5.5-5 5.7zm80.5-13.9c-3.3-2.7-7-3-10.8-1.3-3.7 1.6-5 4.8-5 8.6 0 2.8.7 5.4 2.9 7.3 3.1 2.7 6.7 3.1 10.5 1.6 3.6-1.4 5.2-4.3 5.4-8 .2-3.1-.5-6.1-3-8.2zm-3.1 11.9c-2 2.4-5.7 2-7.1-.7-1.2-2.5-1.2-5.1 0-7.6.8-1.7 2.2-2.3 4-2.3 1.9.1 3.2 1.1 3.9 2.8.4 1 .5 2.1.5 2.9 0 2-.2 3.6-1.3 4.9zm-60.3-11c1.7-2.2 3.8-3.2 6.3-3.1 3.2.1 5.6 2.2 5.9 5.4.3 3.7.1 7.3.1 11 0 2.2-1.5 3.3-3.2 2.6-1.1-.4-1.5-1.3-1.5-2.3v-7.9c0-.6-.1-1.3-.1-1.9-.2-1.5-.5-2.8-2.3-3.2-1.4-.3-3.1.4-4.1 1.7-.9 1.2-.9 2.6-.9 4-.1 2.4 0 4.8 0 7.2 0 1.5-.9 2.6-2.2 2.7-1.2.1-2.2-.7-2.5-2.2-.1-.2-.1-.5-.1-.7V62.3c0-1.1.3-2.1 1.4-2.5.9-.3 1.8-.1 2.4.6.6.5.7 1.2.8 2.3z"/><path d="M191 57.6c0-.8-.7-.2-1.1-.2h-.3c-1.3.2-1.3.2-1.4-1.1-.1-3.2-.3-6.3-.4-9.5 0-.7-.3-1-1-1.2-.7-.2-.8.3-1 .7-2.5 4.1-5 8.1-7.5 12.2-.6.9-1.2 1.5-2.2 1.5-1.3 0-.8 1-.9 1.6-.1.9.6.5 1.2.7-.2.4-.4.7-.6 1.1-3 4.7-6.1 9.5-9.1 14.2-.7 1.1.4 1.4.8 1.8.6.5.7-.3.9-.6 3.4-5.4 6.9-10.9 10.3-16.4.2-.4.5-.7 1-.8 1.8-.3 3.7-.7 5.5-1.1 1-.3 1.1.1 1.1 1 .1 4 .3 8.1.5 12.1.1 1.5.2 3.1.2 4.6 0 1 .8.7 1.3.8.6.1 1-.1.9-.8-.3-1.7-.2-3.5-.3-5.2-.2-4.1-.4-8.1-.6-12.2 0-.7.3-.9.8-1 .3-.1.6-.2.9-.2 1.6-.3 1-1.3 1-2zm-5.1.6c-1.9.4-3.7.8-5.9 1.2 2-3.2 3.9-6.1 5.7-9 .1 0 .2 0 .3.1.1 2.4.2 4.7.3 7.1 0 .2-.1.5-.4.6z" fill="#8ebda1"/><path class="st2" d="M243.9 61.5c-1.1-.7-2.3-1.3-3.6-1.5-2.9-.5-5.7 0-8.3 1.5-1.2.8-2.3 1.6-3.4 2.4-1.7 1.2-3.1 2.8-4 4.8-1.6 3.4-.6 8 3.4 9.5 4.4 1.6 8.5.9 12.4-1.6.4-.3 1.1-.5.5-1.2-.5-.6-1-1.1-1.8-.5-.6.4-1.2.9-1.9 1.1-.3.2-.7.4-1 .5s-.7.2-1.1.3c-2.2.3-4.4.5-6.4-.4-1.8-1-2.7-2.6-2.6-4.7 0-.4.1-.7.5-.9 2.6-1.1 5.2-2.3 7.7-3.5 3.2-1.5 6.4-2.9 9.6-4.4.8-.5.9-.9 0-1.4zm-9.1 3.2c-.7.1-1.3.4-1.7.8-1.5.7-3 1.3-4.5 2-.3.1-.6.3-.8.1-.2-.3.1-.5.3-.7 2.9-3.1 6.2-5.5 10.8-5.2.2 0 .5 0 .7.1.2 0 .4.1.7.2-1.7 1.2-3.7 1.8-5.5 2.7z"/><path class="st3" d="M226 60.4c.4.5.1.9-.2 1.3-3.6 4.8-7.2 9.5-10.8 14.2-.6.8-1.2 1.7-1.8 2.5-.3.4-.4 1-1 .8-.5-.2-.9-.7-1-1.3-.3-2.2-.6-4.3-.9-6.5-.5-3.4-.9-6.8-1.4-10.1 0-.4-.4-1 .4-.9.6 0 1.5-.5 1.7.7.6 4.3 1.2 8.7 1.7 13 0 .3 0 .7.3.8.4.1.5-.3.7-.6 3.5-4.7 7.1-9.4 10.6-14.1l.3-.3c.8-.8 1 .1 1.4.5z"/><path d="M192.6 78.8c-.8.1-1-.2-.8-1l4.8-17.7c1.2-4.5 2.4-8.9 3.6-13.4.2-.8 1.3-1.4 2-1 .4.2.2.6.1 1l-2.7 9.9c-1.4 5.1-2.8 10.2-4.1 15.3-.5 2-1.1 4-1.6 6-.2.7-.6 1-1.3.9z" fill="#5996a9"/><path class="st0" d="M155.2 85.5c.7-.2 1-.6 1.6-.8 1.8-.5 3.3.6 3.3 2.4v4.1c0 .7-.2 1.1-.9 1.2-.7 0-1-.5-1-1.1v-3.5c0-.8-.2-1.5-1.1-1.6-.9-.1-1.5.4-1.7 1.3-.3 1.2-.1 2.5-.2 3.7 0 .4 0 .9-.5 1.1-.4.2-.9.3-1.2-.2-.2-.3-.3-.2-.5-.1-.3.3-.7.4-1.1.4-2.1.2-2.8-.4-2.8-2.5v-2.7c0-.5.2-1.1-.7-1.1-.3 0-.3-.3-.3-.6s.1-.6.3-.6c.8 0 .7-.6.7-1.1 0-.3-.1-.6 0-.9.1-.5.4-.9 1-.9.5.1.9.4.9 1v1c-.1.6.1.9.7.8.4 0 .8.1.8.6 0 .6-.4.7-.9.7-.5-.1-.7.1-.6.6v3.1c0 .4 0 .8.4.9.6.1 1.2.2 1.7.1.2 0 .1-.4.1-.7v-7.5c.1-.5.3-1 1-.9.6.1.9.4.9 1 .1 1 .1 1.9.1 2.8zm39 2.6c0-1.4-.6-2.5-1.8-3.1-1.1-.6-2.3-.4-3.3.4-.2.2-.4.4-.5 0-.2-.6-.6-.8-1.1-.7-.7.2-.7.8-.7 1.3v8.1c0 .6.1 1.1.9 1.1s.9-.5.9-1.1v-2.7c2.3 1.9 4.9 1.1 5.5-1.7.2-.5.1-1.1.1-1.6zm-4.1 2.7c-.9-.2-1.6-1.5-1.4-2.7.2-1.4.9-2 2-2 1 0 1.6.9 1.6 2.4 0 1.7-.9 2.7-2.2 2.3z"/><path d="M199.7 79.1c-.9.2-1-.1-.8-1 1.6-5.8 3.2-11.6 4.7-17.4.2-.6 1.5-1.1 2-.8.4.2.1.5 0 .7-1.3 4.7-2.5 9.5-3.8 14.2-.3 1-.6 2.1-.8 3.1-.1.9-.5 1.3-1.3 1.2z" fill="#bfd452"/><path class="st0" d="M200.6 90.2c-.2.2-.5.4-.8.6-1.1.8-2.4.3-2.9-1-.2-.5-.2-.8.5-.8h2.8c.6-.1 1.4.3 1.7-.5.4-.8.1-1.6-.3-2.2-.2-.3-.5-.7-.9-.9-1.3-.9-3.1-.9-4.4 0-1.2.8-1.8 2.7-1.4 4.3.4 1.5 1.3 2.5 2.8 2.7 1.4.2 2.9.2 3.9-1.1.3-.4.5-.9.2-1.3-.4-.4-.8-.2-1.2.2zm-2.2-4.2c.8-.1 1.4.5 1.8 1.8h-3.4c.1-1 .7-1.7 1.6-1.8zm-21 4.5c-1.2 1-2.7.8-3.2-.5-.3-.6-.4-1.2.7-1 .5.1 1 0 1.5 0h1.8c.9 0 1.1-.5 1.1-1.2 0-1.1-1-2.4-2-2.8-1.8-.7-3.8-.1-4.7 1.3-1 1.6-.8 4.1.4 5.2 1.3 1.2 3.8 1.5 5.2.4.6-.4 1.3-1 .7-1.7-.6-.9-1.1-.1-1.5.3zm-1.8-4.5c.7 0 1.3.4 1.6 1.2.2.5.1.8-.5.8H174c.1-1.3.6-2 1.6-2zm43 4c-.4-.3-.8-.2-1.2.1-.3.3-.6.5-.9.7-.9.6-2.1.2-2.6-.7-.5-.9-.3-1.1.7-1.2h3.1c.9 0 1.3-.4 1.2-1.3-.1-1.3-.8-2.3-2-2.7-1.4-.5-2.8-.4-4 .6-1.3 1.2-1.3 2.7-1 4.3.3 1.5 1.4 2.3 2.8 2.6 1.4.2 2.9 0 3.9-1.2.2-.4.5-.8 0-1.2zm-3.1-4c.3.1.7.2.9.5.3.4.6.8.5 1.2-.1.5-.7.1-1 .2h-.8c-.4-.2-1.2.5-1.3-.4 0-.9 1-1.7 1.7-1.5zm-48.7 4.2c-.2.2-.5.4-.8.6-.8.4-1.6.5-2.4-.2-.4-.4-.6-.9-.5-1.4.1-.4.7-.2 1-.2h3c.7 0 1.1-.3 1.1-1.1 0-1.3-.7-2.4-1.8-2.9-3-1.3-5.6.7-5.3 4.1.1 1.5 1 2.8 2.3 3.1 1.6.4 3.1.4 4.4-.9.3-.3.6-.8.2-1.2-.4-.5-.9-.3-1.2.1zm-3.2-3.7c.6-.7 1.6-.7 2.3-.1.3.3.6.8.5 1.2-.2.5-.7.2-1 .2h-1.1c-.3-.1-.8.2-1-.2-.3-.3 0-.8.3-1.1zm77.7 3.7c-.2.2-.5.4-.7.6-1 .6-2.2.3-2.8-.7-.4-.8-.3-1.1.7-1.1h3.2c.7 0 1.1-.3 1.1-1.1 0-2.3-2.3-3.9-4.7-3.1-1.8.6-2.6 2-2.4 4.4.1 1.5 1 2.6 2.5 3 1.5.4 3.3 0 4.1-1 .3-.4.6-.8.2-1.2-.4-.4-.9-.2-1.2.2zm-3.7-3c.3-.8.8-1.4 1.7-1.3 1 .1 1.5.8 1.5 1.9H238c-.4.1-.5-.1-.4-.6zm-15.8-1.5c1.6-1.2 2.9-1.4 4-.5.5.4.9 1 .9 1.7v4.3c0 .6 0 1.2-.9 1.2-.8 0-1-.5-1-1.1-.1-1.2 0-2.4 0-3.5 0-.8-.1-1.5-1.2-1.6-.9 0-1.6.6-1.6 1.6v3c0 .5-.1.9-.3 1.3-.2.3-.6.4-1 .3-.4-.1-.6-.3-.6-.8v-6.1c0-.5.3-.7.7-.8.6-.1.8.4 1 1zm9.5 6.7c-1.8 0-3.1-.9-3.5-2.6-.5-1.8.2-3.8 1.5-4.7 1.4-.8 3.6-.7 4.7.4.2.2.4.4.5.7.3.5.3 1-.2 1.3-.4.3-.9.1-1.2-.3-.4-.5-.8-1.1-1.7-1.1-.7 0-1.2.3-1.5.9-.5.9-.5 1.9-.1 2.8.5 1.3 2.2 1.5 3.1.4.1-.1.1-.2.2-.3.4-.4.6-1.1 1.3-.6.7.5.4 1.2 0 1.7-.7 1.1-1.9 1.4-3.1 1.4zm-48.5-2.7l-1.5 2.1c-.4.5-.9 1-1.5.5-.7-.5-.3-1 .1-1.5.2-.4.5-.7.7-1.1 1-1.5 1-1.5-.1-2.8-.2-.3-.5-.5-.6-.8-.2-.4-.3-.9.1-1.2.4-.3.9-.3 1.3.2s.7.9 1.1 1.4c.3.5.6.7 1 0 .3-.5.7-1 1.1-1.4.4-.5.9-.5 1.3-.2s.4.9 0 1.2c-1.8 1.6-1.5 3.1 0 4.7.4.4.8 1 0 1.5-.6.4-1.1.1-1.5-.5l-1.5-2.1zm22.2-4.2c1.1-1 2-1.1 2.8-.4.3.2.6.6.4 1-.2.4-.5.6-1 .5-1.6-.3-2 0-2.2 1.5-.1 1.1-.1 2.1-.1 3.2 0 .6-.2 1.1-.9 1.1s-1-.4-1-1c0-1.9-.1-3.8 0-5.7 0-.4.2-.9.7-1.1.8-.1 1 .4 1.3.9zm3.8 3v-2.8c0-.6.3-.9.9-1 .6-.1 1 .3 1 .9v6c0 .6-.4.9-1 .9-.6-.1-.8-.4-.8-1-.1-1.1-.1-2.1-.1-3z"/><path d="M205.5 57.2c-.9.2-1.2-.1-.9-1 .4-1.1.6-2.2.9-3.3.3-1.2 1.2-.6 1.9-.6s.3.6.2 1c-.2 1-.6 1.9-.8 2.9-.1.8-.5 1.2-1.3 1z" fill="#bdd152"/><path class="st0" d="M210.7 82.9c-.1.5-.3.9-.9.9-.6 0-1-.3-1-.9 0-.7.4-1 1-1 .5 0 .8.4.9 1z"/><path class="st2" d="M235 76.7c-.1.1-.3.3-.4.3-2 .2-4 .4-5.9-.4-.1 0-.1-.2-.1-.3 2.1.6 4.2.4 6.4.4zm-3-15.2v.4c-1.1.4-1.9 1.4-2.9 2-.1.1-.3 0-.5 0 .9-1.1 2-1.9 3.4-2.4zm5.2 14.4c-.5.7-1.3.9-2.2.8.6-.4 1.4-.6 2.2-.8z"/><path class="st3" d="M226 60.4c-.4-.2-.7-.9-1.4-.5.1-.3.4-.8.7-.7.5.2.6.7.7 1.2z"/><path class="st2" d="M234.8 64.7c-.6.3-1.1.6-1.7.8.4-.4 1-.7 1.7-.8z"/><path class="st2" d="M234.8 64.7c-.4.6-1 .8-1.7.8.4-.4 1-.7 1.7-.8z"/></svg>