<svg xmlns="http://www.w3.org/2000/svg" width="660.985" height="141.869"><path d="M20.858 18.203a16.7 16.7 0 0 1 6.257 1.138 15.1 15.1 0 0 1 4.93 3.148 14.061 14.061 0 0 1 3.223 4.7 14.753 14.753 0 0 1 1.138 5.8 15.03 15.03 0 0 1-1.138 5.84 13.572 13.572 0 0 1-3.223 4.7 15.434 15.434 0 0 1-4.93 3.11 16.7 16.7 0 0 1-6.257 1.143H.759V0h32.234v8.722H9.86v9.481zm-11 8.343v12.893h11a6.308 6.308 0 0 0 4.664-1.782 6.308 6.308 0 0 0 1.782-4.664 6.308 6.308 0 0 0-1.782-4.664 6.308 6.308 0 0 0-4.664-1.782zm47.4-14.031a14.286 14.286 0 0 1 5.461 1.024 13 13 0 0 1 4.328 2.843 13 13 0 0 1 2.844 4.323 14.286 14.286 0 0 1 1.024 5.461v21.616h-6.447l-1.517-3.413a16.8 16.8 0 0 1-2.655 1.9 14.923 14.923 0 0 1-3.109 1.323 13.706 13.706 0 0 1-4.1.569q-5.688 0-8.722-2.768a9.17 9.17 0 0 1-3.034-7.091 10.931 10.931 0 0 1 1.024-4.74 9.083 9.083 0 0 1 3.451-3.716 19.746 19.746 0 0 1 6.409-2.427 47.693 47.693 0 0 1 9.974-.872 6.137 6.137 0 0 0-1.555-4.475 5.514 5.514 0 0 0-4.129-1.59 5.417 5.417 0 0 0-2.768.607 6.8 6.8 0 0 0-1.631 1.289 4.411 4.411 0 0 0-.91 1.9h-8.723a13.439 13.439 0 0 1 1.4-4.551 12.071 12.071 0 0 1 3-3.716 14.753 14.753 0 0 1 4.513-2.541 17.167 17.167 0 0 1 5.877-.956zm-2.65 28.82a7.591 7.591 0 0 0 5.5-2.01 6.894 6.894 0 0 0 2.086-5.2v-1.517a45.154 45.154 0 0 0-6.219.341 12.879 12.879 0 0 0-3.678.986 3.678 3.678 0 0 0-1.782 1.555 4.516 4.516 0 0 0-.455 2.048 3.489 3.489 0 0 0 1.289 2.617 4.655 4.655 0 0 0 3.259 1.18zm55.746-28.442v34.889h-8.725V34.13H87.601v13.652h-8.722V12.894h8.722v12.894h14.028V12.894zm29.2 34.889l-12.135-15.927v15.927h-8.722V12.894h8.722v14.41l10.618-14.41h9.86l-12.514 16.688 14.031 18.2zm31.1-35.268a15.023 15.023 0 0 1 6.219 1.327 16.064 16.064 0 0 1 5.2 3.716 18.217 18.217 0 0 1 3.565 5.65 18.737 18.737 0 0 1 1.327 7.129 18.737 18.737 0 0 1-1.327 7.129 18.217 18.217 0 0 1-3.565 5.65 16.064 16.064 0 0 1-5.2 3.716 15.023 15.023 0 0 1-6.222 1.33 12.4 12.4 0 0 1-3.83-.531 20.778 20.778 0 0 1-2.844-1.138 12.385 12.385 0 0 1-2.427-1.744v15.169h-8.721V12.894h6.447l1.517 3.413a13.161 13.161 0 0 1 2.655-1.9 20.662 20.662 0 0 1 3.11-1.289 12.911 12.911 0 0 1 4.093-.604zm-9.86 17.823a9.487 9.487 0 0 0 2.5 6.9 8.316 8.316 0 0 0 6.219 2.579 8.316 8.316 0 0 0 6.219-2.579 9.487 9.487 0 0 0 2.5-6.9 9.487 9.487 0 0 0-2.5-6.9 8.316 8.316 0 0 0-6.219-2.579 8.316 8.316 0 0 0-6.219 2.579 9.487 9.487 0 0 0-2.503 6.901zm39.439 0a9.487 9.487 0 0 0 2.5 6.9 8.316 8.316 0 0 0 6.219 2.579 8.316 8.316 0 0 0 6.219-2.579 9.487 9.487 0 0 0 2.5-6.9 9.487 9.487 0 0 0-2.5-6.9 8.316 8.316 0 0 0-6.219-2.579 8.316 8.316 0 0 0-6.219 2.579 9.487 9.487 0 0 0-2.504 6.901zm26.166 0a17.2 17.2 0 0 1-1.4 6.94 18.5 18.5 0 0 1-3.792 5.65 17.954 17.954 0 0 1-5.537 3.83 16.3 16.3 0 0 1-6.712 1.4 16.3 16.3 0 0 1-6.712-1.4 17.954 17.954 0 0 1-5.537-3.83 18.5 18.5 0 0 1-3.792-5.65 17.2 17.2 0 0 1-1.4-6.94 17.2 17.2 0 0 1 1.4-6.94 18.5 18.5 0 0 1 3.792-5.65 17.954 17.954 0 0 1 5.537-3.83 16.3 16.3 0 0 1 6.712-1.4 16.3 16.3 0 0 1 6.712 1.4 17.954 17.954 0 0 1 5.537 3.83 18.5 18.5 0 0 1 3.792 5.65 17.2 17.2 0 0 1 1.397 6.941zm2.655-17.444h29.2v8.343h-10.242v26.546h-8.722V21.236h-10.239zm65.605 21.995a17.216 17.216 0 0 1-2.048 4.968 17.9 17.9 0 0 1-3.565 4.247 16.887 16.887 0 0 1-4.854 2.958 15.483 15.483 0 0 1-5.84 1.1 16.3 16.3 0 0 1-6.712-1.4 17.954 17.954 0 0 1-5.537-3.83 18.5 18.5 0 0 1-3.792-5.65 17.2 17.2 0 0 1-1.4-6.94 17.2 17.2 0 0 1 1.4-6.94 18.5 18.5 0 0 1 3.792-5.65 17.954 17.954 0 0 1 5.537-3.83 16.3 16.3 0 0 1 6.712-1.4 15.483 15.483 0 0 1 5.84 1.1 16.887 16.887 0 0 1 4.854 2.958 17.9 17.9 0 0 1 3.565 4.247 17.216 17.216 0 0 1 2.048 4.968h-8.722a8 8 0 0 0-1.669-2.427 10.458 10.458 0 0 0-2.351-1.706 7.288 7.288 0 0 0-3.565-.8 8.316 8.316 0 0 0-6.219 2.579 9.487 9.487 0 0 0-2.5 6.9 9.487 9.487 0 0 0 2.5 6.9 8.316 8.316 0 0 0 6.219 2.579 7.588 7.588 0 0 0 3.565-.758 9.663 9.663 0 0 0 2.351-1.669 7.754 7.754 0 0 0 1.669-2.5zm3.034-21.995h29.2v8.343h-10.242v26.546h-8.722V21.236H297.69zm58.4 16.686a9.828 9.828 0 0 1 2.427 1.9 13.387 13.387 0 0 1 1.706 2.617 8.338 8.338 0 0 1 .8 3.83 9.1 9.1 0 0 1-.8 3.754 9.816 9.816 0 0 1-2.237 3.148 10.668 10.668 0 0 1-3.453 2.154 11.733 11.733 0 0 1-4.361.8h-17.976V12.894h16.837a13.308 13.308 0 0 1 4.513.721 9.92 9.92 0 0 1 3.413 2.01 8.891 8.891 0 0 1 2.162 3.034 9.219 9.219 0 0 1 .758 3.716 7.721 7.721 0 0 1-.607 3.223 12.157 12.157 0 0 1-1.289 2.237 7.716 7.716 0 0 1-1.896 1.747zm-15.169-9.86v7.584h6.447a3.741 3.741 0 0 0 2.768-1.024 3.741 3.741 0 0 0 1.024-2.768 3.741 3.741 0 0 0-1.024-2.768 3.741 3.741 0 0 0-2.768-1.024zm7.584 21.236a3.741 3.741 0 0 0 2.768-1.024 3.741 3.741 0 0 0 1.024-2.768 3.741 3.741 0 0 0-1.024-2.768 3.741 3.741 0 0 0-2.768-1.024h-7.584v7.584zm25.787-10.618a9.487 9.487 0 0 0 2.5 6.9 8.316 8.316 0 0 0 6.219 2.579 8.316 8.316 0 0 0 6.219-2.579 9.487 9.487 0 0 0 2.5-6.9 9.487 9.487 0 0 0-2.5-6.9 8.316 8.316 0 0 0-6.219-2.579 8.316 8.316 0 0 0-6.219 2.579 9.487 9.487 0 0 0-2.502 6.901zm26.166 0a17.2 17.2 0 0 1-1.4 6.94 18.5 18.5 0 0 1-3.792 5.65 17.954 17.954 0 0 1-5.537 3.83 16.3 16.3 0 0 1-6.712 1.4 16.3 16.3 0 0 1-6.712-1.4 17.954 17.954 0 0 1-5.537-3.83 18.5 18.5 0 0 1-3.792-5.65 17.2 17.2 0 0 1-1.4-6.94 17.2 17.2 0 0 1 1.4-6.94 18.5 18.5 0 0 1 3.792-5.65 17.954 17.954 0 0 1 5.537-3.83 16.3 16.3 0 0 1 6.712-1.4 16.3 16.3 0 0 1 6.712 1.4 17.954 17.954 0 0 1 5.537 3.83 18.5 18.5 0 0 1 3.792 5.65 17.2 17.2 0 0 1 1.398 6.941zm9.86 7.964a4.673 4.673 0 0 1 3.451 1.517 5.215 5.215 0 0 1 1.479 3.792 12.973 12.973 0 0 1-1.064 5.572 13.884 13.884 0 0 1-2.351 3.6 12.926 12.926 0 0 1-3.413 2.579l-1.517-1.9a7.894 7.894 0 0 0 1.593-1.365 8.737 8.737 0 0 0 1.138-1.669 6.311 6.311 0 0 0 .682-2.266 4.73 4.73 0 0 1-3.451-1.479 4.73 4.73 0 0 1-1.479-3.451 4.73 4.73 0 0 1 1.479-3.449 4.73 4.73 0 0 1 3.451-1.481zm48.92-8.343a11.51 11.51 0 0 1 2.427 1.972 12.879 12.879 0 0 1 1.706 2.389 6.416 6.416 0 0 1 .8 3.223 9.418 9.418 0 0 1-.91 4.058 9.906 9.906 0 0 1-2.617 3.375 13.234 13.234 0 0 1-4.171 2.313 16.646 16.646 0 0 1-5.575.872q-6.6 0-10.011-3.11a12.772 12.772 0 0 1-4.025-8.268h7.964a4.376 4.376 0 0 0 .834 2.124 5.032 5.032 0 0 0 1.744 1.441 6.66 6.66 0 0 0 3.11.607 5.878 5.878 0 0 0 3.944-1.172 3.42 3.42 0 0 0 1.368-2.618 3.016 3.016 0 0 0-1.214-2.427 6.575 6.575 0 0 0-4.1-.986h-3.413v-6.826h3.413a5.092 5.092 0 0 0 3.413-.986 3.089 3.089 0 0 0 1.138-2.427 3.538 3.538 0 0 0-1.138-2.768 4.962 4.962 0 0 0-3.413-1.024 5.417 5.417 0 0 0-2.768.607 6.8 6.8 0 0 0-1.631 1.289 4.412 4.412 0 0 0-.91 1.9h-7.964a12.42 12.42 0 0 1 3.987-7.934q3.375-3.072 9.67-3.072a13.361 13.361 0 0 1 5.006.91 13.367 13.367 0 0 1 3.944 2.389 11 11 0 0 1 2.617 3.413 8.8 8.8 0 0 1 .948 3.906 6.838 6.838 0 0 1-.645 3.148 8.288 8.288 0 0 1-1.479 2.086 10.579 10.579 0 0 1-2.051 1.597zm25.788-17.444a14.286 14.286 0 0 1 5.461 1.024 13 13 0 0 1 4.323 2.844 13 13 0 0 1 2.844 4.323 14.286 14.286 0 0 1 1.024 5.461v21.616h-6.452l-1.517-3.413a16.8 16.8 0 0 1-2.655 1.9 14.924 14.924 0 0 1-3.11 1.327 13.706 13.706 0 0 1-4.1.569q-5.688 0-8.722-2.768a9.17 9.17 0 0 1-3.034-7.091 10.932 10.932 0 0 1 1.024-4.74 9.082 9.082 0 0 1 3.451-3.716 19.746 19.746 0 0 1 6.409-2.427 47.693 47.693 0 0 1 9.974-.872 6.137 6.137 0 0 0-1.555-4.475 5.514 5.514 0 0 0-4.134-1.593 5.416 5.416 0 0 0-2.768.607 6.8 6.8 0 0 0-1.631 1.289 4.412 4.412 0 0 0-.91 1.9h-8.722a13.439 13.439 0 0 1 1.4-4.551 12.071 12.071 0 0 1 3-3.716 14.753 14.753 0 0 1 4.513-2.541 17.167 17.167 0 0 1 5.887-.957zm-2.658 28.821a7.591 7.591 0 0 0 5.5-2.01 6.894 6.894 0 0 0 2.086-5.2v-1.517a45.155 45.155 0 0 0-6.219.341 12.879 12.879 0 0 0-3.678.986 3.678 3.678 0 0 0-1.782 1.555 4.516 4.516 0 0 0-.455 2.048 3.489 3.489 0 0 0 1.289 2.617 4.655 4.655 0 0 0 3.259 1.18zm65.227 14.031v-7.584h-40.956V12.894h8.722v26.545h9.481V12.894h8.722v26.545h9.481V12.894h8.722v26.545h4.551v15.927zm45.886-42.473v34.889h-8.722V25.787l-14.79 21.995h-8.343V12.894h8.722v21.995l14.79-21.995zm5.309 0h29.2v8.343h-10.239v26.546h-8.725V21.236h-10.236zm48.54-.379a14.286 14.286 0 0 1 5.461 1.024 13 13 0 0 1 4.323 2.844 13 13 0 0 1 2.844 4.323 14.287 14.287 0 0 1 1.024 5.461v21.616h-6.447l-1.517-3.413a16.8 16.8 0 0 1-2.655 1.9 14.923 14.923 0 0 1-3.11 1.327 13.706 13.706 0 0 1-4.1.569q-5.688 0-8.722-2.768a9.17 9.17 0 0 1-3.034-7.091 10.931 10.931 0 0 1 1.024-4.74 9.082 9.082 0 0 1 3.451-3.716 19.745 19.745 0 0 1 6.409-2.427 47.693 47.693 0 0 1 9.974-.872 6.137 6.137 0 0 0-1.555-4.475 5.514 5.514 0 0 0-4.133-1.593 5.417 5.417 0 0 0-2.768.607 6.8 6.8 0 0 0-1.631 1.289 4.411 4.411 0 0 0-.91 1.9h-8.722a13.437 13.437 0 0 1 1.4-4.551 12.07 12.07 0 0 1 3-3.716 14.753 14.753 0 0 1 4.513-2.541 17.167 17.167 0 0 1 5.877-.957zm-2.654 28.821a7.591 7.591 0 0 0 5.5-2.01 6.894 6.894 0 0 0 2.086-5.2v-1.517a45.155 45.155 0 0 0-6.219.341 12.879 12.879 0 0 0-3.678.986 3.678 3.678 0 0 0-1.782 1.555 4.515 4.515 0 0 0-.455 2.048 3.489 3.489 0 0 0 1.289 2.617 4.655 4.655 0 0 0 3.259 1.18zm-613.2 53.51v34.889h-8.725v-26.546H8.723v26.546H0V94.845zm26.166-.379a15.023 15.023 0 0 1 6.219 1.327 16.064 16.064 0 0 1 5.2 3.716 18.217 18.217 0 0 1 3.565 5.65 19.811 19.811 0 0 1 0 14.259 18.217 18.217 0 0 1-3.565 5.65 16.064 16.064 0 0 1-5.202 3.714 15.023 15.023 0 0 1-6.219 1.327 12.4 12.4 0 0 1-3.83-.531 20.778 20.778 0 0 1-2.844-1.138 12.385 12.385 0 0 1-2.427-1.744v15.173h-8.723V94.845h6.447l1.517 3.413a13.161 13.161 0 0 1 2.655-1.9 20.661 20.661 0 0 1 3.11-1.289 12.911 12.911 0 0 1 4.094-.603zm-9.86 17.823a9.487 9.487 0 0 0 2.5 6.9 8.789 8.789 0 0 0 12.438 0 9.487 9.487 0 0 0 2.5-6.9 9.487 9.487 0 0 0-2.5-6.9 8.789 8.789 0 0 0-12.438 0 9.487 9.487 0 0 0-2.503 6.901zm47.021-17.823a14.286 14.286 0 0 1 5.461 1.024 12.8 12.8 0 0 1 7.167 7.167 14.286 14.286 0 0 1 1.024 5.461v21.616h-6.447l-1.517-3.413a16.8 16.8 0 0 1-2.655 1.9 14.923 14.923 0 0 1-3.11 1.327 13.707 13.707 0 0 1-4.1.569q-5.688 0-8.722-2.768a9.17 9.17 0 0 1-3.034-7.091 10.931 10.931 0 0 1 1.024-4.74 9.083 9.083 0 0 1 3.451-3.716 19.746 19.746 0 0 1 6.409-2.427 47.693 47.693 0 0 1 9.974-.872 6.137 6.137 0 0 0-1.555-4.475 5.514 5.514 0 0 0-4.134-1.593 5.417 5.417 0 0 0-2.768.607 6.8 6.8 0 0 0-1.631 1.289 4.411 4.411 0 0 0-.91 1.9h-8.717a13.439 13.439 0 0 1 1.4-4.551 12.071 12.071 0 0 1 3-3.716 14.753 14.753 0 0 1 4.513-2.55 17.167 17.167 0 0 1 5.877-.948zm-2.654 28.821a7.591 7.591 0 0 0 5.5-2.01 6.894 6.894 0 0 0 2.086-5.2v-1.512a45.155 45.155 0 0 0-6.219.341 12.879 12.879 0 0 0-3.678.986 3.678 3.678 0 0 0-1.782 1.555 4.516 4.516 0 0 0-.455 2.048 3.489 3.489 0 0 0 1.289 2.617 4.655 4.655 0 0 0 3.259 1.175zm48.161-11.756a9.827 9.827 0 0 1 2.427 1.9 13.387 13.387 0 0 1 1.707 2.617 8.338 8.338 0 0 1 .8 3.83 9.1 9.1 0 0 1-.8 3.754 9.816 9.816 0 0 1-2.237 3.148 10.668 10.668 0 0 1-3.451 2.162 11.733 11.733 0 0 1-4.361.8h-17.976V94.845h16.837a13.308 13.308 0 0 1 4.513.721 9.92 9.92 0 0 1 3.413 2.01 8.891 8.891 0 0 1 2.162 3.034 9.219 9.219 0 0 1 .758 3.716 7.721 7.721 0 0 1-.607 3.223 12.155 12.155 0 0 1-1.289 2.233 7.715 7.715 0 0 1-1.896 1.749zm-15.169-9.86v7.584h6.447a3.8 3.8 0 1 0 0-7.584zm7.585 21.237a3.8 3.8 0 1 0 0-7.584h-7.584v7.584zm56.125-11a11.51 11.51 0 0 1 2.427 1.972 12.879 12.879 0 0 1 1.706 2.389 6.416 6.416 0 0 1 .8 3.223 9.418 9.418 0 0 1-.91 4.058 9.9 9.9 0 0 1-2.617 3.375 13.234 13.234 0 0 1-4.171 2.313 16.646 16.646 0 0 1-5.575.872q-6.6 0-10.011-3.11a12.772 12.772 0 0 1-4.02-8.267h7.964a4.376 4.376 0 0 0 .834 2.124 5.032 5.032 0 0 0 1.744 1.441 6.66 6.66 0 0 0 3.11.607 5.878 5.878 0 0 0 3.944-1.176 3.42 3.42 0 0 0 1.365-2.617 3.016 3.016 0 0 0-1.214-2.427 6.575 6.575 0 0 0-4.1-.986h-3.413v-6.822h3.412a5.092 5.092 0 0 0 3.413-.986 3.089 3.089 0 0 0 1.138-2.427 3.539 3.539 0 0 0-1.138-2.768 4.962 4.962 0 0 0-3.413-1.024 5.417 5.417 0 0 0-2.768.607 6.8 6.8 0 0 0-1.631 1.289 4.411 4.411 0 0 0-.91 1.9h-7.964a12.42 12.42 0 0 1 3.982-7.926q3.375-3.072 9.67-3.072a13.368 13.368 0 0 1 8.95 3.3 11 11 0 0 1 2.617 3.413 8.8 8.8 0 0 1 .954 3.899 6.838 6.838 0 0 1-.645 3.148 8.288 8.288 0 0 1-1.479 2.086 10.579 10.579 0 0 1-2.052 1.595zm25.787-17.444a14.286 14.286 0 0 1 5.461 1.024 12.8 12.8 0 0 1 7.167 7.167 14.286 14.286 0 0 1 1.024 5.461v21.618h-6.447l-1.517-3.413a16.8 16.8 0 0 1-2.655 1.9 14.923 14.923 0 0 1-3.11 1.327 13.707 13.707 0 0 1-4.1.569q-5.688 0-8.722-2.768a9.17 9.17 0 0 1-3.034-7.091 10.931 10.931 0 0 1 1.024-4.74 9.083 9.083 0 0 1 3.451-3.716 19.746 19.746 0 0 1 6.409-2.427 47.693 47.693 0 0 1 9.974-.872 6.137 6.137 0 0 0-1.555-4.475 5.514 5.514 0 0 0-4.134-1.593 5.417 5.417 0 0 0-2.768.607 6.8 6.8 0 0 0-1.631 1.289 4.411 4.411 0 0 0-.91 1.9h-8.722a13.439 13.439 0 0 1 1.4-4.551 12.071 12.071 0 0 1 3-3.716 14.753 14.753 0 0 1 4.513-2.541 17.167 17.167 0 0 1 5.881-.957zm-2.655 28.821a7.591 7.591 0 0 0 5.5-2.01 6.894 6.894 0 0 0 2.086-5.2v-1.51a45.155 45.155 0 0 0-6.219.341 12.879 12.879 0 0 0-3.678.986 3.678 3.678 0 0 0-1.782 1.555 4.516 4.516 0 0 0-.455 2.048 3.489 3.489 0 0 0 1.291 2.617 4.655 4.655 0 0 0 3.257 1.175zm55.366-4.171a15.684 15.684 0 0 1-2.086 3.944 16.674 16.674 0 0 1-3.413 3.527 18.066 18.066 0 0 1-4.551 2.541 15.069 15.069 0 0 1-5.5.986 16.3 16.3 0 0 1-6.712-1.4 17.954 17.954 0 0 1-5.537-3.83 18.5 18.5 0 0 1-3.792-5.65 17.863 17.863 0 0 1 0-13.88 18.5 18.5 0 0 1 3.792-5.65 17.954 17.954 0 0 1 5.537-3.83 16.759 16.759 0 0 1 13.159-.114 16.045 16.045 0 0 1 5.309 3.641 17.308 17.308 0 0 1 3.6 5.65 19.234 19.234 0 0 1 1.327 7.243 8.888 8.888 0 0 1-.076 1.176q-.076.569-.152 1.1-.076.607-.152 1.138h-24.27a8.119 8.119 0 0 0 2.579 4.323 7.84 7.84 0 0 0 5.385 1.744 9.631 9.631 0 0 0 2.92-.379 8.732 8.732 0 0 0 2.01-.91 6.629 6.629 0 0 0 1.517-1.365zm-15.548-16.305a7.95 7.95 0 0 0-5.575 1.973 8.892 8.892 0 0 0-2.768 4.854h16.686a8.892 8.892 0 0 0-2.768-4.854 7.95 7.95 0 0 0-5.575-1.973zm40.2 26.925l-8.345-17.823v17.823h-8.722V94.845h8.343l11 23.512 11-23.512h8.343v34.889h-8.722v-17.823l-8.343 17.823zm70.915 7.584v-7.584H321.96V94.845h8.722v26.546h9.481V94.845h8.722v26.546h9.481V94.845h8.722v26.546h4.551v15.927zm45.886-42.473v34.889h-8.722v-21.995l-14.79 21.995h-8.343V94.845h8.722v21.995l14.79-21.995zm29.2 34.888l-12.138-15.926v15.927h-8.722V94.845h8.722v14.41l10.618-14.41h9.86l-12.516 16.686 14.031 18.2zm27.683-35.268a14.286 14.286 0 0 1 5.461 1.024 12.8 12.8 0 0 1 7.167 7.167 14.286 14.286 0 0 1 1.024 5.461v21.617h-6.447l-1.517-3.413a16.8 16.8 0 0 1-2.655 1.9 14.923 14.923 0 0 1-3.11 1.327 13.706 13.706 0 0 1-4.1.569q-5.688 0-8.722-2.768a9.17 9.17 0 0 1-3.034-7.091 10.932 10.932 0 0 1 1.024-4.74 9.082 9.082 0 0 1 3.451-3.716 19.746 19.746 0 0 1 6.409-2.427 47.693 47.693 0 0 1 9.974-.872 6.137 6.137 0 0 0-1.555-4.475 5.514 5.514 0 0 0-4.134-1.593 5.417 5.417 0 0 0-2.768.607 6.8 6.8 0 0 0-1.631 1.289 4.412 4.412 0 0 0-.91 1.9h-8.722a13.439 13.439 0 0 1 1.4-4.551 12.071 12.071 0 0 1 3-3.716 14.753 14.753 0 0 1 4.513-2.541 17.167 17.167 0 0 1 5.88-.957zm-2.659 28.822a7.591 7.591 0 0 0 5.5-2.01 6.894 6.894 0 0 0 2.086-5.2v-1.512a45.155 45.155 0 0 0-6.219.341 12.879 12.879 0 0 0-3.678.986 3.678 3.678 0 0 0-1.782 1.555 4.516 4.516 0 0 0-.455 2.048 3.489 3.489 0 0 0 1.289 2.617 4.655 4.655 0 0 0 3.259 1.175z" fill="#fff"/></svg>