<svg xmlns="http://www.w3.org/2000/svg" width="455.492" height="60.311"><path d="M95.891 18.158a10.4 10.4 0 0 1-4.9 1.042 7.9 7.9 0 0 1-6.061-2.44 8.991 8.991 0 0 1-2.276-6.395 9.424 9.424 0 0 1 2.56-6.877A8.69 8.69 0 0 1 91.708.866a10.412 10.412 0 0 1 4.181.73V3.81a8.478 8.478 0 0 0-4.206-1.064 6.453 6.453 0 0 0-4.954 2.041 7.689 7.689 0 0 0-1.9 5.455 7.316 7.316 0 0 0 1.777 5.164 6.04 6.04 0 0 0 4.657 1.923 8.737 8.737 0 0 0 4.628-1.187zm8.632 1.042a5.875 5.875 0 0 1-4.484-1.775 6.575 6.575 0 0 1-1.676-4.707 6.849 6.849 0 0 1 1.744-4.985 6.27 6.27 0 0 1 4.713-1.794 5.681 5.681 0 0 1 4.422 1.744 6.915 6.915 0 0 1 1.589 4.834 6.8 6.8 0 0 1-1.713 4.855 6 6 0 0 1-4.595 1.828zm.148-11.553a3.858 3.858 0 0 0-3.092 1.33 5.461 5.461 0 0 0-1.138 3.664 5.165 5.165 0 0 0 1.15 3.55 3.91 3.91 0 0 0 3.08 1.3 3.708 3.708 0 0 0 3.02-1.275 5.529 5.529 0 0 0 1.058-3.624 5.624 5.624 0 0 0-1.058-3.662 3.692 3.692 0 0 0-3.02-1.286zm19.2-7.644V1.9a3.923 3.923 0 0 1-1.633.557 24.3 24.3 0 0 0-3.89.81 3.405 3.405 0 0 0-1.818 1.664 9.38 9.38 0 0 0-.909 3.723h.049a4.833 4.833 0 0 1 4.23-2.152 5.159 5.159 0 0 1 4.045 1.719 6.564 6.564 0 0 1 1.534 4.54 6.676 6.676 0 0 1-1.6 4.669 5.538 5.538 0 0 1-4.315 1.77 5.315 5.315 0 0 1-4.5-2.072 9.615 9.615 0 0 1-1.573-5.922 19.531 19.531 0 0 1 .569-5.078 7.225 7.225 0 0 1 1.577-3.136 5.371 5.371 0 0 1 2.239-1.447A36.611 36.611 0 0 1 122.1.617 6.4 6.4 0 0 0 123.869 0zm-8.28 10.659v1.756a7.061 7.061 0 0 0 .3 1.942 5.5 5.5 0 0 0 .816 1.682 3.448 3.448 0 0 0 1.255 1.089 3.67 3.67 0 0 0 1.651.359 3.379 3.379 0 0 0 2.74-1.268 4.936 4.936 0 0 0 1.045-3.247 5.222 5.222 0 0 0-1.07-3.457 3.569 3.569 0 0 0-2.888-1.28 4.142 4.142 0 0 0-3.849 2.424zm21.785 7.657a6.591 6.591 0 0 1-3.464.881 5.734 5.734 0 0 1-4.373-1.763 6.388 6.388 0 0 1-1.664-4.57 7.022 7.022 0 0 1 1.794-5.028 6.274 6.274 0 0 1 4.787-1.9 6.663 6.663 0 0 1 2.944.618v2.078a5.158 5.158 0 0 0-3.018-.99 4.079 4.079 0 0 0-3.185 1.392 5.28 5.28 0 0 0-1.243 3.655 5.028 5.028 0 0 0 1.169 3.508 4.029 4.029 0 0 0 3.136 1.29 5.084 5.084 0 0 0 3.117-1.1zm11.021-10.354h-3.8V18.9h-2.026V7.965h-3.81V6.233h9.636zm2.437 10.935V6.234h5.517a4.74 4.74 0 0 1 2.95.829 2.7 2.7 0 0 1 1.082 2.264 2.782 2.782 0 0 1-2.424 2.993q2.907.371 2.907 2.932a3.326 3.326 0 0 1-1.194 2.6 4.32 4.32 0 0 1-2.963 1.048zm2.029-10.935v3.562h3.043q2.449 0 2.449-1.9 0-1.657-2.2-1.657zm0 5.294v3.909h3.513q2.462 0 2.462-1.991 0-1.917-2.758-1.917zm21.572-.186h-8.944a4.738 4.738 0 0 0 1.138 3.267 3.923 3.923 0 0 0 2.993 1.15 6.223 6.223 0 0 0 3.933-1.41v1.9a7.352 7.352 0 0 1-4.415 1.22 5.353 5.353 0 0 1-4.218-1.726 7.063 7.063 0 0 1-1.531-4.858 6.926 6.926 0 0 1 1.674-4.816 5.374 5.374 0 0 1 4.162-1.862 4.762 4.762 0 0 1 3.847 1.608 6.7 6.7 0 0 1 1.361 4.464zm-2.078-1.718a4.127 4.127 0 0 0-.847-2.734 2.887 2.887 0 0 0-2.319-.977 3.277 3.277 0 0 0-2.437 1.027 4.659 4.659 0 0 0-1.237 2.684zm15.659 7.545h-2.025v-5.752h-6.46V18.9h-2.029V6.234h2.029v5.2h6.46v-5.2h2.029zm14.621 0h-2.029v-5.752h-6.457V18.9h-2.029V6.234h2.029v5.2h6.457v-5.2h2.029zm17.96 0h-2V6.234h2zm-13.854 0V6.234h2.029v4.861h3.414a4.484 4.484 0 0 1 3.086 1.014 3.588 3.588 0 0 1 1.144 2.833 3.749 3.749 0 0 1-1.15 2.894 4.115 4.115 0 0 1-2.907 1.064zm2.029-6.061v4.329h3.043q2.523 0 2.523-2.226 0-2.1-2.548-2.1zm26.124.235h-8.943a4.738 4.738 0 0 0 1.138 3.266 3.923 3.923 0 0 0 2.993 1.15 6.223 6.223 0 0 0 3.933-1.41v1.9a7.352 7.352 0 0 1-4.415 1.22 5.353 5.353 0 0 1-4.218-1.726 7.063 7.063 0 0 1-1.534-4.855 6.926 6.926 0 0 1 1.676-4.818 5.374 5.374 0 0 1 4.162-1.862 4.762 4.762 0 0 1 3.847 1.608 6.7 6.7 0 0 1 1.361 4.465zm-2.078-1.719a4.127 4.127 0 0 0-.847-2.734 2.887 2.887 0 0 0-2.319-.977 3.277 3.277 0 0 0-2.437 1.027 4.659 4.659 0 0 0-1.237 2.684zm21.325 7.545h-2.016V7.953h-2.944q-.507 6.148-1.738 8.634t-3.309 2.486a3.076 3.076 0 0 1-1.088-.173v-1.744a2.025 2.025 0 0 0 .94.223q2.721 0 3.5-11.145h6.655zm14.72 0h-1.831V8.794q-.272.532-.829 1.5l-5.851 8.606h-2.1V6.234h1.855v9.982a12.867 12.867 0 0 1 .643-1.225l6.012-8.758h2.1zm16.488 4.614h-1.744V18.9h-10.638V6.234h2.029v10.947h6.457V6.234h2.029v10.947h1.868zm13-10.44h-8.943a4.738 4.738 0 0 0 1.138 3.266 3.923 3.923 0 0 0 2.993 1.15 6.223 6.223 0 0 0 3.933-1.41v1.9a7.352 7.352 0 0 1-4.415 1.22 5.353 5.353 0 0 1-4.218-1.726 7.063 7.063 0 0 1-1.534-4.855 6.926 6.926 0 0 1 1.676-4.819 5.374 5.374 0 0 1 4.162-1.862 4.762 4.762 0 0 1 3.847 1.608 6.7 6.7 0 0 1 1.361 4.464zm-2.078-1.719a4.127 4.127 0 0 0-.847-2.734 2.887 2.887 0 0 0-2.319-.977 3.277 3.277 0 0 0-2.437 1.027 4.659 4.659 0 0 0-1.237 2.684zm15.66 7.545h-2.029v-5.752h-6.457V18.9h-2.029V6.234h2.029v5.2h6.457v-5.2h2.029zm3.043-.359V16.55a7.8 7.8 0 0 0 3.872.928q3.352 0 3.352-2.128 0-2.1-3.674-2.1h-1.249v-1.722h1.187q3.228 0 3.228-2a1.571 1.571 0 0 0-.742-1.361 3.55 3.55 0 0 0-2.029-.507 8.21 8.21 0 0 0-3.7.928V6.695a11.348 11.348 0 0 1 3.859-.767q4.626 0 4.626 3.4a2.816 2.816 0 0 1-.687 1.9 3.354 3.354 0 0 1-1.923 1.058v.062a3.5 3.5 0 0 1 2.264.952 2.862 2.862 0 0 1 .853 2.128 3.25 3.25 0 0 1-1.4 2.758 6.38 6.38 0 0 1-3.842 1.023 9.468 9.468 0 0 1-3.995-.668zm22.969.359h-1.831V8.794q-.272.532-.829 1.5l-5.85 8.606h-2.1V6.234h1.856v9.982a12.867 12.867 0 0 1 .643-1.225l6.012-8.758h2.1zm6.185-1.831h-.049v7.657h-2.029V6.234h2.029V8.46h.049a4.8 4.8 0 0 1 4.379-2.523 4.638 4.638 0 0 1 3.822 1.7 7.044 7.044 0 0 1 1.373 4.563 7.851 7.851 0 0 1-1.546 5.09 5.148 5.148 0 0 1-4.23 1.91 4.238 4.238 0 0 1-3.798-2.131zm-.049-5.109v1.77a3.766 3.766 0 0 0 1.02 2.67 3.389 3.389 0 0 0 2.59 1.09 3.4 3.4 0 0 0 2.888-1.41 6.469 6.469 0 0 0 1.045-3.921 5.107 5.107 0 0 0-.977-3.315 3.234 3.234 0 0 0-2.647-1.2 3.594 3.594 0 0 0-2.845 1.231 4.519 4.519 0 0 0-1.074 3.086zm18.158 7.24a5.875 5.875 0 0 1-4.484-1.775 6.575 6.575 0 0 1-1.676-4.707 6.849 6.849 0 0 1 1.744-4.985 6.27 6.27 0 0 1 4.713-1.794 5.681 5.681 0 0 1 4.422 1.744 6.915 6.915 0 0 1 1.589 4.836 6.8 6.8 0 0 1-1.713 4.855 6 6 0 0 1-4.595 1.826zm.148-11.553a3.858 3.858 0 0 0-3.092 1.33 5.461 5.461 0 0 0-1.138 3.668 5.165 5.165 0 0 0 1.15 3.55 3.91 3.91 0 0 0 3.08 1.3 3.708 3.708 0 0 0 3.024-1.274 5.529 5.529 0 0 0 1.058-3.624 5.624 5.624 0 0 0-1.058-3.661 3.692 3.692 0 0 0-3.02-1.292zm9.404 11.253V6.234h5.517a4.74 4.74 0 0 1 2.95.829 2.7 2.7 0 0 1 1.082 2.264 2.782 2.782 0 0 1-2.424 2.993q2.907.371 2.907 2.932a3.326 3.326 0 0 1-1.194 2.6 4.32 4.32 0 0 1-2.965 1.048zm2.029-10.935v3.562h3.043q2.449 0 2.449-1.9 0-1.657-2.2-1.657zm0 5.294v3.909h3.513q2.462 0 2.462-1.991 0-1.917-2.758-1.917zm20.456 5.641h-2.029v-1.979h-.049a4.247 4.247 0 0 1-3.897 2.279 4.164 4.164 0 0 1-2.962-1 3.471 3.471 0 0 1-1.07-2.659q0-3.55 4.181-4.131l3.8-.532q0-3.228-2.61-3.228a6.235 6.235 0 0 0-4.134 1.55V7.122a7.849 7.849 0 0 1 4.3-1.187q4.465 0 4.465 4.725zm-2.029-6.407l-3.055.421a4.961 4.961 0 0 0-2.128.7 2.016 2.016 0 0 0-.717 1.775 1.933 1.933 0 0 0 .662 1.511 2.557 2.557 0 0 0 1.763.588 3.256 3.256 0 0 0 2.492-1.058 3.779 3.779 0 0 0 .983-2.678zm16.365 6.407h-2.029v-5.752h-6.457V18.9h-2.029V6.234h2.029v5.2h6.457v-5.2h2.029zm14.621 0h-2.029v-5.752h-6.457V18.9h-2.029V6.234h2.029v5.2h6.457v-5.2h2.029zm17.958 0h-2V6.234h2zm-13.852 0V6.234h2.029v4.861h3.414a4.484 4.484 0 0 1 3.086 1.014 3.588 3.588 0 0 1 1.144 2.833 3.749 3.749 0 0 1-1.15 2.894 4.115 4.115 0 0 1-2.907 1.064zm2.029-6.061v4.329h3.043q2.523 0 2.523-2.226 0-2.1-2.548-2.1zm26.123.235h-8.943a4.738 4.738 0 0 0 1.143 3.266 3.923 3.923 0 0 0 2.993 1.15 6.223 6.223 0 0 0 3.933-1.41v1.9a7.352 7.352 0 0 1-4.419 1.22 5.354 5.354 0 0 1-4.218-1.726 7.063 7.063 0 0 1-1.534-4.855 6.926 6.926 0 0 1 1.676-4.818 5.374 5.374 0 0 1 4.162-1.862 4.762 4.762 0 0 1 3.847 1.608 6.7 6.7 0 0 1 1.36 4.463zm-2.078-1.719a4.128 4.128 0 0 0-.847-2.734 2.887 2.887 0 0 0-2.319-.977 3.277 3.277 0 0 0-2.437 1.027 4.659 4.659 0 0 0-1.237 2.684zM92.611 54.349h-2.029V52.37h-.049a4.247 4.247 0 0 1-3.9 2.276 4.164 4.164 0 0 1-2.962-1 3.471 3.471 0 0 1-1.07-2.659q0-3.55 4.181-4.131l3.8-.532q0-3.228-2.61-3.228a6.235 6.235 0 0 0-4.131 1.555v-2.078a7.849 7.849 0 0 1 4.3-1.187q4.465 0 4.465 4.725zm-2.029-6.407l-3.055.421a4.96 4.96 0 0 0-2.128.7 2.016 2.016 0 0 0-.717 1.775 1.933 1.933 0 0 0 .662 1.515 2.557 2.557 0 0 0 1.763.588 3.256 3.256 0 0 0 2.492-1.058 3.779 3.779 0 0 0 .983-2.683zm7.929 4.577h-.049v7.657h-2.029V41.683h2.029v2.226h.049a4.8 4.8 0 0 1 4.38-2.523 4.638 4.638 0 0 1 3.822 1.7 7.044 7.044 0 0 1 1.373 4.558 7.851 7.851 0 0 1-1.546 5.09 5.148 5.148 0 0 1-4.23 1.911 4.238 4.238 0 0 1-3.799-2.127zm-.049-5.109v1.769a3.766 3.766 0 0 0 1.02 2.666 3.389 3.389 0 0 0 2.591 1.095 3.4 3.4 0 0 0 2.888-1.41 6.469 6.469 0 0 0 1.045-3.921 5.107 5.107 0 0 0-.977-3.315 3.234 3.234 0 0 0-2.647-1.2 3.594 3.594 0 0 0-2.845 1.231 4.519 4.519 0 0 0-1.075 3.085zm22.661-11.961v1.9a3.923 3.923 0 0 1-1.632.561 24.3 24.3 0 0 0-3.89.81 3.405 3.405 0 0 0-1.818 1.664 9.38 9.38 0 0 0-.909 3.723h.049a4.833 4.833 0 0 1 4.23-2.152 5.159 5.159 0 0 1 4.045 1.719 6.564 6.564 0 0 1 1.534 4.54 6.676 6.676 0 0 1-1.6 4.669 5.538 5.538 0 0 1-4.311 1.763 5.315 5.315 0 0 1-4.5-2.072 9.615 9.615 0 0 1-1.577-5.919 19.531 19.531 0 0 1 .569-5.078 7.225 7.225 0 0 1 1.578-3.135 5.371 5.371 0 0 1 2.239-1.447 36.611 36.611 0 0 1 4.224-.928 6.4 6.4 0 0 0 1.769-.618zm-8.276 10.662v1.756a7.061 7.061 0 0 0 .3 1.942 5.5 5.5 0 0 0 .816 1.682 3.448 3.448 0 0 0 1.255 1.089 3.67 3.67 0 0 0 1.651.359 3.379 3.379 0 0 0 2.74-1.268 4.936 4.936 0 0 0 1.045-3.247 5.222 5.222 0 0 0-1.07-3.457 3.569 3.569 0 0 0-2.888-1.28 4.142 4.142 0 0 0-3.849 2.424zm23.762 8.238h-1.831V44.243q-.272.532-.829 1.5l-5.851 8.609h-2.1V41.683h1.853v9.982a12.867 12.867 0 0 1 .64-1.225l6.012-8.758h2.1zm12.06-10.935h-3.8v10.935h-2.026V43.414h-3.81v-1.731h9.636zm4.515 9.1h-.049v7.657h-2.029V41.683h2.029v2.226h.049a4.8 4.8 0 0 1 4.379-2.523 4.638 4.638 0 0 1 3.822 1.7 7.044 7.044 0 0 1 1.373 4.558 7.851 7.851 0 0 1-1.546 5.09 5.148 5.148 0 0 1-4.23 1.911 4.238 4.238 0 0 1-3.798-2.127zm-.049-5.109v1.769a3.766 3.766 0 0 0 1.02 2.666 3.641 3.641 0 0 0 5.48-.315 6.469 6.469 0 0 0 1.045-3.921 5.107 5.107 0 0 0-.977-3.315 3.234 3.234 0 0 0-2.647-1.2 3.594 3.594 0 0 0-2.845 1.231 4.519 4.519 0 0 0-1.077 3.09zm21.931 6.939h-2.029V52.37h-.046a4.247 4.247 0 0 1-3.9 2.276 4.164 4.164 0 0 1-2.962-1 3.471 3.471 0 0 1-1.07-2.659q0-3.55 4.181-4.131l3.8-.532q0-3.228-2.61-3.228a6.235 6.235 0 0 0-4.139 1.555v-2.078a7.849 7.849 0 0 1 4.3-1.187q4.465 0 4.465 4.725zm-2.029-6.407l-3.055.421a4.96 4.96 0 0 0-2.128.7 2.016 2.016 0 0 0-.717 1.775 1.933 1.933 0 0 0 .662 1.515 2.557 2.557 0 0 0 1.763.588 3.256 3.256 0 0 0 2.492-1.058 3.779 3.779 0 0 0 .983-2.678zm22.673 6.407h-2.746l-5.665-6.259h-.049v6.259h-1.93V48.09h-.049l-5.68 6.259h-2.707l6.284-6.531-5.9-6.135h2.585l5.418 5.925h.049v-5.925h1.93v5.925h.049l5.418-5.925h2.61l-5.925 6.135zm12.592 0h-2.029V48.6h-6.457v5.752h-2.025V41.683h2.029v5.2h6.457v-5.2h2.029zm17.96 0h-2V41.683h2zm-13.854 0V41.683h2.029v4.861h3.414a4.484 4.484 0 0 1 3.086 1.014 3.588 3.588 0 0 1 1.144 2.833 3.749 3.749 0 0 1-1.15 2.894 4.115 4.115 0 0 1-2.907 1.064zm2.029-6.061v4.329h3.043q2.523 0 2.523-2.226 0-2.1-2.548-2.1zm26.124.235h-8.943a4.738 4.738 0 0 0 1.138 3.266 3.923 3.923 0 0 0 2.993 1.15 6.223 6.223 0 0 0 3.933-1.41v1.9a7.352 7.352 0 0 1-4.416 1.212 5.353 5.353 0 0 1-4.218-1.726 7.063 7.063 0 0 1-1.534-4.855 6.926 6.926 0 0 1 1.676-4.818 5.374 5.374 0 0 1 4.162-1.862 4.762 4.762 0 0 1 3.847 1.608 6.7 6.7 0 0 1 1.361 4.465zm-2.078-1.718a4.127 4.127 0 0 0-.847-2.734 2.887 2.887 0 0 0-2.319-.977 3.277 3.277 0 0 0-2.437 1.027 4.659 4.659 0 0 0-1.237 2.684zm22.166-5.121l-5.826 14.695q-1.559 3.933-4.379 3.933a4.642 4.642 0 0 1-1.324-.161v-1.814a3.76 3.76 0 0 0 1.2.223 2.486 2.486 0 0 0 2.3-1.831l1.014-2.4-4.943-12.641h2.251l3.426 9.747q.062.186.26.965h.074q.062-.3.247-.94l3.6-9.772zm12.691 12.666h-2.029V43.414h-6.457v10.935h-2.029V41.683h10.514zm6.185-1.831h-.049v7.657h-2.029V41.683h2.029v2.226h.049a4.8 4.8 0 0 1 4.379-2.523 4.638 4.638 0 0 1 3.822 1.7 7.044 7.044 0 0 1 1.373 4.558 7.851 7.851 0 0 1-1.546 5.09 5.148 5.148 0 0 1-4.23 1.911 4.238 4.238 0 0 1-3.798-2.127zm-.049-5.109v1.769a3.766 3.766 0 0 0 1.015 2.67 3.641 3.641 0 0 0 5.48-.315 6.469 6.469 0 0 0 1.045-3.921 5.107 5.107 0 0 0-.977-3.315 3.234 3.234 0 0 0-2.647-1.2 3.594 3.594 0 0 0-2.845 1.231 4.519 4.519 0 0 0-1.072 3.086zm21.931 6.939h-2.029V52.37h-.049a4.247 4.247 0 0 1-3.9 2.276 4.164 4.164 0 0 1-2.962-1 3.471 3.471 0 0 1-1.07-2.659q0-3.55 4.181-4.131l3.8-.532q0-3.228-2.61-3.228a6.235 6.235 0 0 0-4.131 1.559v-2.082a7.849 7.849 0 0 1 4.3-1.187q4.465 0 4.465 4.725zm-2.029-6.407l-3.055.421a4.96 4.96 0 0 0-2.128.7 2.016 2.016 0 0 0-.717 1.775 1.933 1.933 0 0 0 .662 1.515 2.557 2.557 0 0 0 1.763.588 3.256 3.256 0 0 0 2.492-1.058 3.779 3.779 0 0 0 .983-2.678zm5.851 6.407V41.683h5.517a4.74 4.74 0 0 1 2.95.829 2.7 2.7 0 0 1 1.082 2.264 2.782 2.782 0 0 1-2.424 2.993q2.907.371 2.907 2.932a3.326 3.326 0 0 1-1.194 2.6 4.32 4.32 0 0 1-2.962 1.051zm2.029-10.935v3.562h3.043q2.449 0 2.449-1.9 0-1.657-2.2-1.657zm0 5.294v3.909h3.513q2.462 0 2.462-1.991 0-1.917-2.758-1.917zm20.632 5.64h-2.016V43.4h-2.944q-.507 6.148-1.738 8.634t-3.309 2.486a3.076 3.076 0 0 1-1.089-.173V52.6a2.025 2.025 0 0 0 .94.223q2.721 0 3.5-11.145h6.657zm12.765 0h-2.029V49.1h-1.695q-1.225 0-2.227 1.979l-1.645 3.266h-2.35l2.128-3.909a3.761 3.761 0 0 1 1.794-1.794 3.5 3.5 0 0 1-2.264-1.089 3.545 3.545 0 0 1 .439-4.892 5.312 5.312 0 0 1 3.42-.983h4.428zm-2.029-6.939v-4h-2.4q-2.56 0-2.56 1.942 0 2.053 2.486 2.053zm11.726 1.196h-3.587v5.752h-2.029V41.683h2.029v5.2h3.612a6.3 6.3 0 0 1 1.911-4.045 5.82 5.82 0 0 1 4.076-1.447 5.278 5.278 0 0 1 4.2 1.707 7.185 7.185 0 0 1 1.491 4.874 7.091 7.091 0 0 1-1.6 4.88 5.566 5.566 0 0 1-4.391 1.8 5.34 5.34 0 0 1-4.113-1.589 6.749 6.749 0 0 1-1.599-4.463zm5.838-5.5q-3.785 0-3.785 4.948 0 4.9 3.835 4.9 3.748 0 3.748-4.9.003-4.955-3.797-4.955zm27.2 15.87h-1.769v-4.621h-16.29V41.683h2.029V52.63h5.031V41.683h2.029V52.63h5.047V41.683h2.029V52.63h1.895zm13.433-4.614h-1.832V44.243q-.272.532-.829 1.5l-5.851 8.609h-2.1V41.683h1.855v9.982a12.867 12.867 0 0 1 .643-1.225l6.012-8.758h2.1zm14.287-5.826h-8.943a4.738 4.738 0 0 0 1.138 3.266 3.923 3.923 0 0 0 2.993 1.15 6.223 6.223 0 0 0 3.933-1.41v1.9a7.352 7.352 0 0 1-4.416 1.212 5.354 5.354 0 0 1-4.218-1.726 7.063 7.063 0 0 1-1.534-4.855 6.926 6.926 0 0 1 1.676-4.818 5.374 5.374 0 0 1 4.162-1.862 4.762 4.762 0 0 1 3.847 1.608 6.7 6.7 0 0 1 1.361 4.465zm-2.078-1.73a4.128 4.128 0 0 0-.847-2.734 2.887 2.887 0 0 0-2.319-.977 3.277 3.277 0 0 0-2.437 1.027 4.659 4.659 0 0 0-1.238 2.684zm5.851 7.817a1.313 1.313 0 0 1-.971-.408 1.344 1.344 0 0 1-.4-.977 1.364 1.364 0 0 1 .4-.983 1.3 1.3 0 0 1 .971-.414 1.338 1.338 0 0 1 .99.414 1.354 1.354 0 0 1 .408.983 1.333 1.333 0 0 1-.408.977 1.348 1.348 0 0 1-.99.412zM0 12.188h69.66v1.26H0z" opacity=".6" fill="#fff"/></svg>