<svg xmlns="http://www.w3.org/2000/svg" width="19.069" height="64.937"><g fill="red"><path d="M12.813.007a.815.815 0 0 1 .742.293.824.824 0 0 1-.1 1.169c-.085.073-8.32 7.066-8.137 14.382.079 3.1 1.692 5.867 4.8 8.222 6.742 5.111 9.085 7.838 8.945 10.419-.158 2.945-3.652 5.039-9.439 8.508l-1.266.761c-3.512 2.118-5.356 4.236-5.624 6.476-.444 3.652 3.408 7.48 7.139 11.186l1.236 1.235a.831.831 0 0 1-1.175 1.175c-.408-.414-.816-.822-1.229-1.229-4.011-3.986-8.155-8.107-7.62-12.562.335-2.781 2.434-5.3 6.415-7.7l1.269-.766c5.131-3.08 8.527-5.112 8.636-7.182.1-1.862-2.3-4.467-8.289-9-3.53-2.678-5.368-5.873-5.459-9.507C3.458 7.779 12.021.5 12.387.2a.813.813 0 0 1 .426-.189z"/><path d="M11.796 52.799a1.272 1.272 0 0 1 .152-.006.83.83 0 0 1 .78.876l-.622 10.487a.85.85 0 0 1-.365.637.822.822 0 0 1-.73.1L.561 61.314a.83.83 0 1 1 .536-1.57l9.415 3.226.56-9.4a.832.832 0 0 1 .724-.771z"/></g></svg>