<svg width="20" height="21" fill="none" xmlns="http://www.w3.org/2000/svg"><path fill-rule="evenodd" clip-rule="evenodd" d="M9.677.762c-.72 0-1.422.08-2.098.23v9.454c0 1.158.945 2.103 2.104 2.103a2.107 2.107 0 0 0 2.102-2.102c0-1.113-.87-2.027-1.963-2.1V6.665a3.792 3.792 0 0 1 3.645 3.783c0 2.084-1.7 3.785-3.784 3.785a3.793 3.793 0 0 1-3.786-3.786V1.528a9.168 9.168 0 0 0-.701.335v8.583a4.495 4.495 0 0 0 4.487 4.485 4.494 4.494 0 0 0 4.485-4.484 4.495 4.495 0 0 0-4.346-4.484V4.28c3.334.075 6.028 2.816 6.028 6.167 0 3.397-2.77 6.167-6.167 6.167-3.398 0-6.17-2.77-6.17-6.168V2.979A9.656 9.656 0 0 0 0 10.439c0 5.344 4.333 9.678 9.677 9.678 5.346 0 9.677-4.334 9.677-9.678A9.676 9.676 0 0 0 9.677.762z" fill="#fff"/></svg>