<svg width="14" height="11" fill="none" xmlns="http://www.w3.org/2000/svg"><path d="M1.905 0c.13 0 .26.04.346.04.303.08.476.241.563.522.52 1.808 1.039 3.576 1.558 5.384 0 .04.044.08.087.08h6.537c.13 0 .26-.04.303-.16.13-.281.303-.522.432-.804.477-1.044.996-2.089 1.472-3.133.043-.121.087-.282.087-.442 0-.08-.043-.121-.13-.121H4.242c-.173 0-.26-.16-.26-.281-.043-.16.087-.281.304-.281h8.787c.13 0 .26 0 .347.04.303.08.476.321.476.643 0 .24-.043.442-.13.642-.52 1.125-1.082 2.29-1.602 3.416-.13.24-.26.442-.39.642-.13.201-.346.322-.649.362H4.59c.043.08.043.12.086.2.087.202.217.403.433.523.13.08.303.12.476.12h5.368c.173 0 .303.121.303.282 0 .16-.13.281-.26.281H5.628c-.606 0-1.04-.24-1.342-.723-.174-.281-.26-.562-.347-.884a44.668 44.668 0 0 0-.692-2.25 121.82 121.82 0 0 0-.996-3.094c-.043-.24-.346-.442-.606-.442H.346C.173.562.086.482 0 .322V.2C.043.12.13.04.216 0h1.689zm8.225 9.522c0 .402.346.764.779.764.433 0 .78-.322.822-.764a.783.783 0 0 0-.779-.763c-.476 0-.822.361-.822.763zm2.12 0c0 .723-.605 1.286-1.341 1.286s-1.342-.603-1.342-1.286c0-.723.606-1.286 1.342-1.286.736 0 1.342.603 1.342 1.286zm-6.839.764c.433 0 .78-.362.78-.764a.783.783 0 0 0-.78-.763.783.783 0 0 0-.78.763c-.042.402.347.764.78.764zm-1.385-.764c0-.723.606-1.286 1.342-1.286.736 0 1.342.563 1.342 1.286 0 .723-.606 1.286-1.342 1.286-.693 0-1.342-.563-1.342-1.286z" fill="#fff"/></svg>