<svg version="1.1" id="OBJECTS" xmlns="http://www.w3.org/2000/svg" x="0" y="0" viewBox="0 0 500 500" xml:space="preserve"><style>.st0{fill:#ffc107}</style><path class="st0" d="M478.3 15.4v74.4c-3.5-.1-7.1-.2-10.7-.2-209.4 0-379.1 169.7-379.1 379.1 0 5.8.1 11.5.4 17.3H14.6c-.2-5.7-.3-11.5-.3-17.3 0-250.4 203-453.4 453.4-453.4 3.5 0 7 .1 10.6.1z"/><path class="st0" d="M467.6 177.6c3.6 0 7.1.1 10.7.2v72.4c-3.5-.2-7.1-.2-10.7-.2-120.8 0-218.8 97.9-218.8 218.8 0 5.8.2 11.6.7 17.3H177c-.3-5.7-.5-11.5-.5-17.3 0-160.9 130.3-291.2 291.1-291.2zm.1 177.2c3.6 0 7.2.2 10.6.5V486H355c-.9-5.6-1.3-11.4-1.3-17.3 0-62.9 51-113.9 114-113.9z"/><path d="M467.6 15.3c-250.4 0-453.4 203-453.4 453.4 0 5.8.1 11.5.3 17.3H89c-.3-5.7-.4-11.5-.4-17.3 0-209.4 169.7-379.1 379.1-379.1 3.6 0 7.1 0 10.7.2V15.4c-3.7 0-7.2-.1-10.8-.1zm10.7 340V486H355c-.9-5.6-1.3-11.4-1.3-17.3 0-62.9 51-114 114-114 3.5.1 7.1.3 10.6.6z" fill="#fff"/><path class="st0" d="M467.6 177.6c-160.8 0-291.2 130.4-291.2 291.2 0 5.8.2 11.6.5 17.3h72.5c-.4-5.7-.7-11.5-.7-17.3 0-120.9 98-218.8 218.8-218.8 3.6 0 7.1.1 10.7.2v-72.4c-3.5-.2-7-.2-10.6-.2z"/></svg>