<svg width="7" height="7" fill="none" xmlns="http://www.w3.org/2000/svg"><path d="M2.636 4.36v.574c-.034.236.101.304.304.304h.203c.169 0 .236-.068.236-.27V3.92c0-.405 0-.405.372-.405.27 0 .338-.102.338-.541 0-.27-.169-.237-.338-.237-.405 0-.44-.033-.405-.473.033-.304.236-.338.473-.338.236 0 .27-.169.27-.338 0-.202-.034-.338-.27-.371-.811-.068-1.217.304-1.183 1.149 0 .27-.068.405-.338.371-.203 0-.203.17-.203.304.034.17-.101.44.17.474.37 0 .37.202.37.506v.338zm.473 2.06C1.386 6.42 0 5.002 0 3.245 0 1.42 1.352 0 3.109 0c1.723 0 3.109 1.42 3.109 3.244 0 1.757-1.386 3.177-3.109 3.177z" fill="#fff"/></svg>