<svg xmlns="http://www.w3.org/2000/svg" width="323" height="125.022"><g data-name="Group 79" fill="#ffc107"><path data-name="Path 318" d="M94.769 71.184a17.9 17.9 0 1 0 17.8 17.882 17.842 17.842 0 0 0-17.8-17.882zm9.853 26.04a13.029 13.029 0 0 1-1.118 1.279 12.384 12.384 0 0 1-8.7 3.71h-.801a12.417 12.417 0 0 1-7.164-2.249.876.876 0 0 0 .009-.1 13.2 13.2 0 0 1-3.547-17.891.062.062 0 0 0 .013-.018 13.079 13.079 0 0 1 10.271-6.026c.138-.009.28-.013.419-.018h.801c.125 0 .249.009.374.018l.361.027c.249.02.49.057.733.089a13.093 13.093 0 0 1 8.376 4.887c.036.049.076.1.116.152a13.2 13.2 0 0 1-.142 16.138z"/><path data-name="Path 319" d="M111.924 70.968a25.438 25.438 0 0 0-35.662 0 24.826 24.826 0 0 0-5.209 7.555.014.014 0 0 1 0 .009 25.493 25.493 0 0 0-2.048 10.318 24.374 24.374 0 0 0 7.261 17.877 25.052 25.052 0 0 0 5.988 4.484 23.6 23.6 0 0 0 7.542 2.486 27.688 27.688 0 0 0 4.27.322 24.313 24.313 0 0 0 17.853-7.3 23.966 23.966 0 0 0 6.718-12.119 27.458 27.458 0 0 0 .592-5.753 24.286 24.286 0 0 0-7.305-17.879z"/><path data-name="Path 320" d="M106.122 76.793a17.149 17.149 0 0 0-24.041 0 16.737 16.737 0 0 0-3.512 5.093.01.01 0 0 1 0 .006 17.19 17.19 0 0 0-1.381 6.955 16.433 16.433 0 0 0 4.9 12.052 16.893 16.893 0 0 0 4.037 3.023 15.9 15.9 0 0 0 5.084 1.676 18.7 18.7 0 0 0 2.878.217 16.39 16.39 0 0 0 12.036-4.918 16.153 16.153 0 0 0 4.529-8.17 18.519 18.519 0 0 0 .4-3.879 16.373 16.373 0 0 0-4.93-12.055z"/><g data-name="Group 52"><path data-name="Path 321" d="M75.686 98.645l.005.026a2.944 2.944 0 0 1-1.083-.443 6.48 6.48 0 0 0 1.078.417z"/><path data-name="Path 322" d="M118.869 94.819a20.045 20.045 0 0 1-11.251 13.729 9.291 9.291 0 0 1-.525.237.643.643 0 0 0 .049-.067 13.165 13.165 0 0 0 2.961-10.546 16.122 16.122 0 0 0-2.11-5.561c-.249-.416-.5-.8-.752-1.171a13.244 13.244 0 0 0-2.48-10.354c-.04-.049-.08-.1-.116-.152a13.093 13.093 0 0 0-8.376-4.887c-.243-.032-.484-.069-.733-.089l-.361-.027c-.125-.009-.249-.013-.374-.018H94c-.138 0-.28.009-.419.018a13.079 13.079 0 0 0-10.271 6.026.062.062 0 0 1-.013.018 13.193 13.193 0 0 0 3.548 17.895.876.876 0 0 1-.009.1 16.61 16.61 0 0 0-.062 1.037 17.492 17.492 0 0 0 .414 4.242 17.937 17.937 0 0 0 1.794 4.908c-2.658-.3-4.577-5.19-4.577-5.19.721 6.867-2.515 3.469.623 5.163-5.766-.907-7.7-1.408-9.341-11.458.1.018.2.04.294.049-.053-.013-.16-.036-.3-.076-.539-3.295-1.042-7.618-1.638-13.308 0 0-3.148 10.416.561 12.893-2.6-1.265-7.5-5.57-3.339-19.482a.014.014 0 0 0 0-.009c2.431-8.109 24.647-35.629 22.052-44.74 0 0 11.869 6.151 12.195 29.907 0 0 5.837-3.576 4.862-13.013.009 0 13.197 25.987 8.495 43.926z"/><path data-name="Path 323" d="M115.661 96.127c-.091.2-4.013 8.874-8.59 12.671-.6 2.325 1.623-2.062 0 0 6.349-5.615 6.731-5.696 8.59-12.671z" opacity=".1"/></g></g><g data-name="Group 80" fill="#ffc107"><path data-name="Path 318" d="M43.769 63.184a17.9 17.9 0 1 0 17.8 17.882 17.842 17.842 0 0 0-17.8-17.882zm9.853 26.04a13.029 13.029 0 0 1-1.118 1.279 12.384 12.384 0 0 1-8.7 3.71h-.801a12.417 12.417 0 0 1-7.164-2.249.876.876 0 0 0 .009-.1 13.2 13.2 0 0 1-3.547-17.891.062.062 0 0 0 .013-.018 13.079 13.079 0 0 1 10.271-6.026c.138-.009.28-.013.419-.018h.801c.125 0 .249.009.374.018l.361.027c.249.02.49.057.733.089a13.093 13.093 0 0 1 8.376 4.887c.036.049.076.1.116.152a13.2 13.2 0 0 1-.142 16.138z"/><path data-name="Path 319" d="M60.924 62.968a25.438 25.438 0 0 0-35.662 0 24.826 24.826 0 0 0-5.209 7.555.014.014 0 0 1 0 .009 25.493 25.493 0 0 0-2.048 10.318 24.374 24.374 0 0 0 7.261 17.877 25.052 25.052 0 0 0 5.988 4.484 23.6 23.6 0 0 0 7.542 2.486 27.688 27.688 0 0 0 4.27.322 24.313 24.313 0 0 0 17.853-7.3A23.966 23.966 0 0 0 67.637 86.6a27.458 27.458 0 0 0 .592-5.753 24.286 24.286 0 0 0-7.305-17.879z"/><path data-name="Path 320" d="M55.122 68.793a17.149 17.149 0 0 0-24.041 0 16.737 16.737 0 0 0-3.512 5.093.01.01 0 0 1 0 .006 17.19 17.19 0 0 0-1.381 6.955 16.433 16.433 0 0 0 4.9 12.052 16.893 16.893 0 0 0 4.037 3.023 15.9 15.9 0 0 0 5.084 1.676 18.7 18.7 0 0 0 2.878.217 16.39 16.39 0 0 0 12.036-4.918 16.153 16.153 0 0 0 4.529-8.17 18.519 18.519 0 0 0 .4-3.879 16.373 16.373 0 0 0-4.93-12.055z"/><g data-name="Group 52"><path data-name="Path 321" d="M24.686 90.645l.005.026a2.944 2.944 0 0 1-1.083-.443 6.48 6.48 0 0 0 1.078.417z"/><path data-name="Path 322" d="M67.869 86.819a20.045 20.045 0 0 1-11.251 13.729 9.291 9.291 0 0 1-.525.237.643.643 0 0 0 .049-.067 13.165 13.165 0 0 0 2.961-10.546 16.122 16.122 0 0 0-2.11-5.561c-.249-.416-.5-.8-.752-1.171a13.244 13.244 0 0 0-2.48-10.354c-.04-.049-.08-.1-.116-.152a13.093 13.093 0 0 0-8.376-4.887c-.243-.032-.484-.069-.733-.089l-.361-.027c-.125-.009-.249-.013-.374-.018H43c-.138 0-.28.009-.419.018a13.079 13.079 0 0 0-10.271 6.026.062.062 0 0 1-.013.018 13.193 13.193 0 0 0 3.548 17.895.876.876 0 0 1-.009.1 16.61 16.61 0 0 0-.062 1.037 17.492 17.492 0 0 0 .414 4.242 17.937 17.937 0 0 0 1.794 4.908c-2.658-.3-4.577-5.19-4.577-5.19.721 6.867-2.515 3.469.623 5.163-5.766-.907-7.7-1.408-9.341-11.458.1.018.2.04.294.049-.053-.013-.16-.036-.3-.076-.539-3.295-1.042-7.618-1.638-13.308 0 0-3.148 10.416.561 12.893-2.6-1.265-7.5-5.57-3.339-19.482a.014.014 0 0 0 0-.009c2.431-8.109 24.647-35.629 22.052-44.74 0 0 11.869 6.151 12.195 29.907 0 0 5.837-3.576 4.862-13.013.009 0 13.197 25.987 8.495 43.926z"/><path data-name="Path 323" d="M64.661 88.127c-.091.2-4.013 8.874-8.59 12.671-.6 2.325 1.623-2.062 0 0 6.349-5.615 6.731-5.696 8.59-12.671z" opacity=".1"/></g></g><g data-name="Group 85" fill="#ffc107"><path data-name="Path 318" d="M162.769 46.184a17.9 17.9 0 1 0 17.8 17.882 17.842 17.842 0 0 0-17.8-17.882zm9.853 26.04a13.029 13.029 0 0 1-1.118 1.279 12.384 12.384 0 0 1-8.7 3.71h-.801a12.417 12.417 0 0 1-7.164-2.249.876.876 0 0 0 .009-.1 13.2 13.2 0 0 1-3.547-17.891.062.062 0 0 0 .013-.018 13.079 13.079 0 0 1 10.271-6.026c.138-.009.28-.013.419-.018h.801c.125 0 .249.009.374.018l.361.027c.249.02.49.057.733.089a13.093 13.093 0 0 1 8.376 4.887c.036.049.076.1.116.152a13.2 13.2 0 0 1-.142 16.138z"/><path data-name="Path 319" d="M179.924 45.968a25.438 25.438 0 0 0-35.662 0 24.826 24.826 0 0 0-5.209 7.555.014.014 0 0 1 0 .009 25.493 25.493 0 0 0-2.048 10.318 24.374 24.374 0 0 0 7.261 17.877 25.052 25.052 0 0 0 5.988 4.484 23.6 23.6 0 0 0 7.542 2.486 27.688 27.688 0 0 0 4.27.322 24.313 24.313 0 0 0 17.853-7.3 23.966 23.966 0 0 0 6.718-12.119 27.458 27.458 0 0 0 .592-5.753 24.286 24.286 0 0 0-7.305-17.879z"/><path data-name="Path 320" d="M174.122 51.793a17.149 17.149 0 0 0-24.041 0 16.737 16.737 0 0 0-3.512 5.093.01.01 0 0 1 0 .006 17.19 17.19 0 0 0-1.381 6.955 16.433 16.433 0 0 0 4.9 12.052 16.893 16.893 0 0 0 4.037 3.023 15.9 15.9 0 0 0 5.084 1.676 18.7 18.7 0 0 0 2.878.217 16.39 16.39 0 0 0 12.036-4.918 16.153 16.153 0 0 0 4.529-8.17 18.519 18.519 0 0 0 .4-3.879 16.373 16.373 0 0 0-4.93-12.055z"/><g data-name="Group 52"><path data-name="Path 321" d="M143.686 73.645l.005.026a2.944 2.944 0 0 1-1.083-.443 6.48 6.48 0 0 0 1.078.417z"/><path data-name="Path 322" d="M186.869 69.819a20.045 20.045 0 0 1-11.251 13.729 9.291 9.291 0 0 1-.525.237.643.643 0 0 0 .049-.067 13.165 13.165 0 0 0 2.961-10.546 16.122 16.122 0 0 0-2.11-5.561c-.249-.416-.5-.8-.752-1.171a13.244 13.244 0 0 0-2.48-10.354c-.04-.049-.08-.1-.116-.152a13.093 13.093 0 0 0-8.376-4.887c-.243-.032-.484-.069-.733-.089l-.361-.027c-.125-.009-.249-.013-.374-.018H162c-.138 0-.28.009-.419.018a13.079 13.079 0 0 0-10.271 6.026.062.062 0 0 1-.013.018 13.193 13.193 0 0 0 3.548 17.895.876.876 0 0 1-.009.1 16.61 16.61 0 0 0-.062 1.037 17.492 17.492 0 0 0 .414 4.242 17.937 17.937 0 0 0 1.794 4.908c-2.658-.3-4.577-5.19-4.577-5.19.721 6.867-2.515 3.469.623 5.163-5.766-.907-7.7-1.408-9.341-11.458.1.018.2.04.294.049-.053-.013-.16-.036-.3-.076-.539-3.295-1.042-7.618-1.638-13.308 0 0-3.148 10.416.561 12.893-2.6-1.265-7.5-5.57-3.339-19.482a.014.014 0 0 0 0-.009c2.431-8.109 24.647-35.629 22.052-44.74 0 0 11.869 6.151 12.195 29.907 0 0 5.837-3.576 4.862-13.013.009 0 13.197 25.987 8.495 43.926z"/><path data-name="Path 323" d="M183.661 71.127c-.091.2-4.013 8.874-8.59 12.671-.6 2.325 1.623-2.062 0 0 6.349-5.615 6.731-5.696 8.59-12.671z" opacity=".1"/></g></g><g data-name="Group 86" fill="#ffc107"><path data-name="Path 318" d="M195.769 82.184a17.9 17.9 0 1 0 17.8 17.882 17.842 17.842 0 0 0-17.8-17.882zm9.853 26.04a13.029 13.029 0 0 1-1.118 1.279 12.384 12.384 0 0 1-8.7 3.71h-.801a12.417 12.417 0 0 1-7.164-2.249.876.876 0 0 0 .009-.1 13.2 13.2 0 0 1-3.547-17.891.062.062 0 0 0 .013-.018 13.079 13.079 0 0 1 10.271-6.026c.138-.009.28-.013.419-.018h.801c.125 0 .249.009.374.018l.361.027c.249.02.49.057.733.089a13.093 13.093 0 0 1 8.376 4.887c.036.049.076.1.116.152a13.2 13.2 0 0 1-.142 16.138z"/><path data-name="Path 319" d="M212.924 81.968a25.438 25.438 0 0 0-35.662 0 24.826 24.826 0 0 0-5.209 7.555.014.014 0 0 1 0 .009 25.493 25.493 0 0 0-2.048 10.318 24.374 24.374 0 0 0 7.261 17.877 25.052 25.052 0 0 0 5.988 4.484 23.6 23.6 0 0 0 7.542 2.486 27.688 27.688 0 0 0 4.27.322 24.313 24.313 0 0 0 17.853-7.3 23.966 23.966 0 0 0 6.718-12.119 27.458 27.458 0 0 0 .592-5.753 24.286 24.286 0 0 0-7.305-17.879z"/><path data-name="Path 320" d="M207.122 87.793a17.149 17.149 0 0 0-24.041 0 16.737 16.737 0 0 0-3.512 5.093.01.01 0 0 1 0 .006 17.19 17.19 0 0 0-1.381 6.955 16.433 16.433 0 0 0 4.9 12.052 16.893 16.893 0 0 0 4.037 3.023 15.9 15.9 0 0 0 5.084 1.676 18.7 18.7 0 0 0 2.878.217 16.39 16.39 0 0 0 12.036-4.918 16.153 16.153 0 0 0 4.529-8.17 18.519 18.519 0 0 0 .4-3.879 16.373 16.373 0 0 0-4.93-12.055z"/><g data-name="Group 52"><path data-name="Path 321" d="M176.686 109.645l.005.026a2.944 2.944 0 0 1-1.083-.443 6.48 6.48 0 0 0 1.078.417z"/><path data-name="Path 322" d="M219.869 105.819a20.045 20.045 0 0 1-11.251 13.729 9.291 9.291 0 0 1-.525.237.643.643 0 0 0 .049-.067 13.165 13.165 0 0 0 2.961-10.546 16.122 16.122 0 0 0-2.11-5.561c-.249-.416-.5-.8-.752-1.171a13.244 13.244 0 0 0-2.48-10.354c-.04-.049-.08-.1-.116-.152a13.093 13.093 0 0 0-8.376-4.887c-.243-.032-.484-.069-.733-.089l-.361-.027c-.125-.009-.249-.013-.374-.018H195c-.138 0-.28.009-.419.018a13.079 13.079 0 0 0-10.271 6.026.062.062 0 0 1-.013.018 13.193 13.193 0 0 0 3.548 17.895.876.876 0 0 1-.009.1 16.61 16.61 0 0 0-.062 1.037 17.492 17.492 0 0 0 .414 4.242 17.937 17.937 0 0 0 1.794 4.908c-2.658-.3-4.577-5.19-4.577-5.19.721 6.867-2.515 3.469.623 5.163-5.766-.907-7.7-1.408-9.341-11.458.1.018.2.04.294.049-.053-.013-.16-.036-.3-.076-.539-3.295-1.042-7.618-1.638-13.308 0 0-3.148 10.416.561 12.893-2.6-1.265-7.5-5.57-3.339-19.482a.014.014 0 0 0 0-.009c2.431-8.109 24.647-35.629 22.052-44.74 0 0 11.869 6.151 12.195 29.907 0 0 5.837-3.576 4.862-13.013.009 0 13.197 25.987 8.495 43.926z"/><path data-name="Path 323" d="M216.661 107.127c-.091.2-4.013 8.874-8.59 12.671-.6 2.325 1.623-2.062 0 0 6.349-5.615 6.731-5.696 8.59-12.671z" opacity=".1"/></g></g><g data-name="Group 87" fill="#ffc107"><path data-name="Path 318" d="M220.769 52.184a17.9 17.9 0 1 0 17.8 17.882 17.842 17.842 0 0 0-17.8-17.882zm9.853 26.04a13.029 13.029 0 0 1-1.118 1.279 12.384 12.384 0 0 1-8.7 3.71h-.801a12.417 12.417 0 0 1-7.164-2.249.876.876 0 0 0 .009-.1 13.2 13.2 0 0 1-3.547-17.891.062.062 0 0 0 .013-.018 13.079 13.079 0 0 1 10.271-6.026c.138-.009.28-.013.419-.018h.801c.125 0 .249.009.374.018l.361.027c.249.02.49.057.733.089a13.093 13.093 0 0 1 8.376 4.887c.036.049.076.1.116.152a13.2 13.2 0 0 1-.142 16.138z"/><path data-name="Path 319" d="M237.924 51.968a25.438 25.438 0 0 0-35.662 0 24.826 24.826 0 0 0-5.209 7.555.014.014 0 0 1 0 .009 25.493 25.493 0 0 0-2.048 10.318 24.374 24.374 0 0 0 7.261 17.877 25.052 25.052 0 0 0 5.988 4.484 23.6 23.6 0 0 0 7.542 2.486 27.688 27.688 0 0 0 4.27.322 24.313 24.313 0 0 0 17.853-7.3 23.966 23.966 0 0 0 6.718-12.119 27.458 27.458 0 0 0 .592-5.753 24.286 24.286 0 0 0-7.305-17.879z"/><path data-name="Path 320" d="M232.122 57.793a17.149 17.149 0 0 0-24.041 0 16.737 16.737 0 0 0-3.512 5.093.01.01 0 0 1 0 .006 17.19 17.19 0 0 0-1.381 6.955 16.433 16.433 0 0 0 4.9 12.052 16.893 16.893 0 0 0 4.037 3.023 15.9 15.9 0 0 0 5.084 1.676 18.7 18.7 0 0 0 2.878.217 16.39 16.39 0 0 0 12.036-4.918 16.153 16.153 0 0 0 4.529-8.17 18.519 18.519 0 0 0 .4-3.879 16.373 16.373 0 0 0-4.93-12.055z"/><g data-name="Group 52"><path data-name="Path 321" d="M201.686 79.645l.005.026a2.944 2.944 0 0 1-1.083-.443 6.48 6.48 0 0 0 1.078.417z"/><path data-name="Path 322" d="M244.869 75.819a20.045 20.045 0 0 1-11.251 13.729 9.291 9.291 0 0 1-.525.237.643.643 0 0 0 .049-.067 13.165 13.165 0 0 0 2.961-10.546 16.122 16.122 0 0 0-2.11-5.561c-.249-.416-.5-.8-.752-1.171a13.244 13.244 0 0 0-2.48-10.354c-.04-.049-.08-.1-.116-.152a13.093 13.093 0 0 0-8.376-4.887c-.243-.032-.484-.069-.733-.089l-.361-.027c-.125-.009-.249-.013-.374-.018H220c-.138 0-.28.009-.419.018a13.079 13.079 0 0 0-10.271 6.026.062.062 0 0 1-.013.018 13.193 13.193 0 0 0 3.548 17.895.876.876 0 0 1-.009.1 16.61 16.61 0 0 0-.062 1.037 17.492 17.492 0 0 0 .414 4.242 17.937 17.937 0 0 0 1.794 4.908c-2.658-.3-4.577-5.19-4.577-5.19.721 6.867-2.515 3.469.623 5.163-5.766-.907-7.7-1.408-9.341-11.458.1.018.2.04.294.049-.053-.013-.16-.036-.3-.076-.539-3.295-1.042-7.618-1.638-13.308 0 0-3.148 10.416.561 12.893-2.6-1.265-7.5-5.57-3.339-19.482a.014.014 0 0 0 0-.009c2.431-8.109 24.647-35.629 22.052-44.74 0 0 11.869 6.151 12.195 29.907 0 0 5.837-3.576 4.862-13.013.009 0 13.197 25.987 8.495 43.926z"/><path data-name="Path 323" d="M241.661 77.127c-.091.2-4.013 8.874-8.59 12.671-.6 2.325 1.623-2.062 0 0 6.349-5.615 6.731-5.696 8.59-12.671z" opacity=".1"/></g></g><g data-name="Group 81" fill="#ffc107"><path data-name="Path 318" d="M76.172 52.184a17.894 17.894 0 1 1-17.85 17.882 17.863 17.863 0 0 1 17.85-17.882zm-9.876 26.04a13.036 13.036 0 0 0 1.12 1.279 12.427 12.427 0 0 0 8.72 3.71h.804a12.466 12.466 0 0 0 7.182-2.24.873.873 0 0 1-.009-.1 13.243 13.243 0 0 0 3.521-3.652 13.186 13.186 0 0 0 .036-14.243.062.062 0 0 1-.013-.018 13.115 13.115 0 0 0-10.295-6.026c-.138-.009-.281-.013-.419-.018h-.804c-.125 0-.25.009-.375.018l-.361.027c-.249.02-.491.057-.735.089a13.129 13.129 0 0 0-8.4 4.887c-.036.049-.076.1-.116.152a13.176 13.176 0 0 0 .143 16.138z"/><path data-name="Path 319" d="M58.977 51.968a25.539 25.539 0 0 1 35.745 0 24.823 24.823 0 0 1 5.221 7.555.014.014 0 0 0 0 .009 25.442 25.442 0 0 1 2.053 10.318 24.345 24.345 0 0 1-7.278 17.877 25.105 25.105 0 0 1-6 4.484 23.7 23.7 0 0 1-7.559 2.486 27.815 27.815 0 0 1-4.28.322 24.4 24.4 0 0 1-17.895-7.3A23.951 23.951 0 0 1 52.25 75.6a27.4 27.4 0 0 1-.594-5.753 24.258 24.258 0 0 1 7.321-17.879z"/><path data-name="Path 320" d="M64.792 57.793a17.217 17.217 0 0 1 24.1 0 16.735 16.735 0 0 1 3.52 5.093.01.01 0 0 0 0 .006 17.156 17.156 0 0 1 1.384 6.955 16.413 16.413 0 0 1-4.907 12.052 16.929 16.929 0 0 1-4.046 3.023 15.963 15.963 0 0 1-5.1 1.676 18.783 18.783 0 0 1-2.885.217 16.447 16.447 0 0 1-12.063-4.918 16.142 16.142 0 0 1-4.54-8.17 18.477 18.477 0 0 1-.4-3.879 16.353 16.353 0 0 1 4.937-12.055z"/><g data-name="Group 52"><path data-name="Path 321" d="M95.298 79.645l-.005.026a2.955 2.955 0 0 0 1.085-.443 6.5 6.5 0 0 1-1.08.417z"/><path data-name="Path 322" d="M52.016 75.819a20.055 20.055 0 0 0 11.277 13.729c.17.085.348.161.527.237a.64.64 0 0 1-.049-.067 13.143 13.143 0 0 1-2.968-10.546 16.1 16.1 0 0 1 2.115-5.561c.25-.416.5-.8.754-1.171a13.218 13.218 0 0 1 2.472-10.358c.04-.049.08-.1.116-.152a13.129 13.129 0 0 1 8.4-4.887c.244-.032.486-.069.735-.089l.361-.027c.125-.009.25-.013.375-.018h.803c.138 0 .281.009.419.018a13.115 13.115 0 0 1 10.295 6.026.062.062 0 0 0 .013.018 13.186 13.186 0 0 1-.036 14.243 13.244 13.244 0 0 1-3.521 3.652.876.876 0 0 0 .009.1c.031.349.054.693.062 1.037a17.453 17.453 0 0 1-.415 4.242 17.911 17.911 0 0 1-1.8 4.908c2.664-.3 4.587-5.19 4.587-5.19-.723 6.867 2.521 3.469-.625 5.163 5.779-.907 7.72-1.408 9.362-11.458-.1.018-.2.04-.295.049.054-.013.161-.036.3-.076.54-3.295 1.044-7.618 1.642-13.308 0 0 3.155 10.416-.562 12.893 2.606-1.265 7.519-5.57 3.347-19.482a.014.014 0 0 1 0-.009c-2.436-8.109-24.7-35.629-22.1-44.74 0 0-11.9 6.151-12.223 29.907 0 0-5.85-3.576-4.873-13.013.001.004-13.215 25.991-8.504 43.93z"/><path data-name="Path 323" d="M55.223 77.127c.091.2 4.022 8.874 8.61 12.671.6 2.325-1.627-2.062 0 0-6.356-5.615-6.738-5.696-8.61-12.671z" opacity=".1"/></g></g><g data-name="Group 91" fill="#ffc107"><path data-name="Path 318" d="M297.172 71.184a17.894 17.894 0 1 1-17.85 17.882 17.863 17.863 0 0 1 17.85-17.882zm-9.876 26.04a13.036 13.036 0 0 0 1.12 1.279 12.427 12.427 0 0 0 8.72 3.71h.804a12.466 12.466 0 0 0 7.182-2.24.873.873 0 0 1-.009-.1 13.243 13.243 0 0 0 3.521-3.652 13.186 13.186 0 0 0 .036-14.243.062.062 0 0 1-.013-.018 13.115 13.115 0 0 0-10.295-6.026c-.138-.009-.281-.013-.419-.018h-.804c-.125 0-.25.009-.375.018l-.361.027c-.249.02-.491.057-.735.089a13.129 13.129 0 0 0-8.4 4.887c-.036.049-.076.1-.116.152a13.176 13.176 0 0 0 .143 16.138z"/><path data-name="Path 319" d="M279.977 70.968a25.539 25.539 0 0 1 35.745 0 24.823 24.823 0 0 1 5.221 7.555.014.014 0 0 0 0 .009 25.442 25.442 0 0 1 2.053 10.318 24.345 24.345 0 0 1-7.278 17.877 25.105 25.105 0 0 1-6 4.484 23.7 23.7 0 0 1-7.559 2.486 27.815 27.815 0 0 1-4.28.322 24.4 24.4 0 0 1-17.895-7.3A23.951 23.951 0 0 1 273.25 94.6a27.4 27.4 0 0 1-.594-5.753 24.258 24.258 0 0 1 7.321-17.879z"/><path data-name="Path 320" d="M285.792 76.793a17.217 17.217 0 0 1 24.1 0 16.735 16.735 0 0 1 3.52 5.093.01.01 0 0 0 0 .006 17.156 17.156 0 0 1 1.384 6.955 16.413 16.413 0 0 1-4.907 12.052 16.929 16.929 0 0 1-4.046 3.023 15.963 15.963 0 0 1-5.1 1.676 18.783 18.783 0 0 1-2.885.217 16.447 16.447 0 0 1-12.063-4.918 16.142 16.142 0 0 1-4.54-8.17 18.477 18.477 0 0 1-.4-3.879 16.353 16.353 0 0 1 4.937-12.055z"/><g data-name="Group 52"><path data-name="Path 321" d="M316.298 98.645l-.005.026a2.955 2.955 0 0 0 1.085-.443 6.5 6.5 0 0 1-1.08.417z"/><path data-name="Path 322" d="M273.016 94.819a20.055 20.055 0 0 0 11.277 13.729c.17.085.348.161.527.237a.64.64 0 0 1-.049-.067 13.143 13.143 0 0 1-2.968-10.546 16.1 16.1 0 0 1 2.115-5.561c.25-.416.5-.8.754-1.171a13.218 13.218 0 0 1 2.472-10.358c.04-.049.08-.1.116-.152a13.129 13.129 0 0 1 8.4-4.887c.244-.032.486-.069.735-.089l.361-.027c.125-.009.25-.013.375-.018h.803c.138 0 .281.009.419.018a13.115 13.115 0 0 1 10.295 6.026.062.062 0 0 0 .013.018 13.186 13.186 0 0 1-.036 14.243 13.244 13.244 0 0 1-3.521 3.652.876.876 0 0 0 .009.1c.031.349.054.693.062 1.037a17.453 17.453 0 0 1-.415 4.242 17.911 17.911 0 0 1-1.8 4.908c2.664-.3 4.587-5.19 4.587-5.19-.723 6.867 2.521 3.469-.625 5.163 5.779-.907 7.72-1.408 9.362-11.458-.1.018-.2.04-.295.049.054-.013.161-.036.3-.076.54-3.295 1.044-7.618 1.642-13.308 0 0 3.155 10.416-.562 12.893 2.606-1.265 7.519-5.57 3.347-19.482a.014.014 0 0 1 0-.009c-2.436-8.109-24.7-35.629-22.1-44.74 0 0-11.9 6.151-12.223 29.907 0 0-5.85-3.576-4.873-13.013.001.004-13.215 25.991-8.504 43.93z"/><path data-name="Path 323" d="M276.223 96.127c.091.2 4.022 8.874 8.61 12.671.6 2.325-1.627-2.062 0 0-6.356-5.615-6.738-5.696-8.61-12.671z" opacity=".1"/></g></g><g data-name="Group 88" fill="#ffc107"><path data-name="Path 318" d="M194.172 52.184a17.894 17.894 0 1 1-17.85 17.882 17.863 17.863 0 0 1 17.85-17.882zm-9.876 26.04a13.036 13.036 0 0 0 1.12 1.279 12.427 12.427 0 0 0 8.72 3.71h.804a12.466 12.466 0 0 0 7.182-2.24.873.873 0 0 1-.009-.1 13.243 13.243 0 0 0 3.521-3.652 13.186 13.186 0 0 0 .036-14.243.062.062 0 0 1-.013-.018 13.115 13.115 0 0 0-10.295-6.026c-.138-.009-.281-.013-.419-.018h-.804c-.125 0-.25.009-.375.018l-.361.027c-.249.02-.491.057-.735.089a13.129 13.129 0 0 0-8.4 4.887c-.036.049-.076.1-.116.152a13.176 13.176 0 0 0 .143 16.138z"/><path data-name="Path 319" d="M176.977 51.968a25.539 25.539 0 0 1 35.745 0 24.823 24.823 0 0 1 5.221 7.555.014.014 0 0 0 0 .009 25.442 25.442 0 0 1 2.053 10.318 24.345 24.345 0 0 1-7.278 17.877 25.105 25.105 0 0 1-6 4.484 23.7 23.7 0 0 1-7.559 2.486 27.815 27.815 0 0 1-4.28.322 24.4 24.4 0 0 1-17.895-7.3A23.951 23.951 0 0 1 170.25 75.6a27.4 27.4 0 0 1-.594-5.753 24.258 24.258 0 0 1 7.321-17.879z"/><path data-name="Path 320" d="M182.792 57.793a17.217 17.217 0 0 1 24.1 0 16.735 16.735 0 0 1 3.52 5.093.01.01 0 0 0 0 .006 17.156 17.156 0 0 1 1.384 6.955 16.413 16.413 0 0 1-4.907 12.052 16.929 16.929 0 0 1-4.046 3.023 15.963 15.963 0 0 1-5.1 1.676 18.783 18.783 0 0 1-2.885.217 16.447 16.447 0 0 1-12.063-4.918 16.142 16.142 0 0 1-4.54-8.17 18.477 18.477 0 0 1-.4-3.879 16.353 16.353 0 0 1 4.937-12.055z"/><g data-name="Group 52"><path data-name="Path 321" d="M213.298 79.645l-.005.026a2.955 2.955 0 0 0 1.085-.443 6.5 6.5 0 0 1-1.08.417z"/><path data-name="Path 322" d="M170.016 75.819a20.055 20.055 0 0 0 11.277 13.729c.17.085.348.161.527.237a.64.64 0 0 1-.049-.067 13.143 13.143 0 0 1-2.968-10.546 16.1 16.1 0 0 1 2.115-5.561c.25-.416.5-.8.754-1.171a13.218 13.218 0 0 1 2.472-10.358c.04-.049.08-.1.116-.152a13.129 13.129 0 0 1 8.4-4.887c.244-.032.486-.069.735-.089l.361-.027c.125-.009.25-.013.375-.018h.803c.138 0 .281.009.419.018a13.115 13.115 0 0 1 10.295 6.026.062.062 0 0 0 .013.018 13.186 13.186 0 0 1-.036 14.243 13.244 13.244 0 0 1-3.521 3.652.876.876 0 0 0 .009.1c.031.349.054.693.062 1.037a17.453 17.453 0 0 1-.415 4.242 17.911 17.911 0 0 1-1.8 4.908c2.664-.3 4.587-5.19 4.587-5.19-.723 6.867 2.521 3.469-.625 5.163 5.779-.907 7.72-1.408 9.362-11.458-.1.018-.2.04-.295.049.054-.013.161-.036.3-.076.54-3.295 1.044-7.618 1.642-13.308 0 0 3.155 10.416-.562 12.893 2.606-1.265 7.519-5.57 3.347-19.482a.014.014 0 0 1 0-.009c-2.436-8.109-24.7-35.629-22.1-44.74 0 0-11.9 6.151-12.223 29.907 0 0-5.85-3.576-4.873-13.013.001.004-13.215 25.991-8.504 43.93z"/><path data-name="Path 323" d="M173.223 77.127c.091.2 4.022 8.874 8.61 12.671.6 2.325-1.627-2.062 0 0-6.356-5.615-6.738-5.696-8.61-12.671z" opacity=".1"/></g></g><g data-name="Group 92" fill="#ffc107"><path data-name="Path 318" d="M205.172 42.184a17.894 17.894 0 1 1-17.85 17.882 17.863 17.863 0 0 1 17.85-17.882zm-9.876 26.04a13.036 13.036 0 0 0 1.12 1.279 12.427 12.427 0 0 0 8.72 3.71h.804a12.466 12.466 0 0 0 7.182-2.24.873.873 0 0 1-.009-.1 13.243 13.243 0 0 0 3.521-3.652 13.186 13.186 0 0 0 .036-14.243.062.062 0 0 1-.013-.018 13.115 13.115 0 0 0-10.295-6.026c-.138-.009-.281-.013-.419-.018h-.804c-.125 0-.25.009-.375.018l-.361.027c-.249.02-.491.057-.735.089a13.129 13.129 0 0 0-8.4 4.887c-.036.049-.076.1-.116.152a13.176 13.176 0 0 0 .143 16.138z"/><path data-name="Path 319" d="M187.977 41.968a25.539 25.539 0 0 1 35.745 0 24.823 24.823 0 0 1 5.221 7.555.014.014 0 0 0 0 .009 25.442 25.442 0 0 1 2.053 10.318 24.345 24.345 0 0 1-7.278 17.877 25.105 25.105 0 0 1-6 4.484 23.7 23.7 0 0 1-7.559 2.486 27.815 27.815 0 0 1-4.28.322 24.4 24.4 0 0 1-17.895-7.3A23.951 23.951 0 0 1 181.25 65.6a27.4 27.4 0 0 1-.594-5.753 24.258 24.258 0 0 1 7.321-17.879z"/><path data-name="Path 320" d="M193.792 47.793a17.217 17.217 0 0 1 24.1 0 16.735 16.735 0 0 1 3.52 5.093.01.01 0 0 0 0 .006 17.156 17.156 0 0 1 1.384 6.955 16.413 16.413 0 0 1-4.907 12.052 16.929 16.929 0 0 1-4.046 3.023 15.963 15.963 0 0 1-5.1 1.676 18.783 18.783 0 0 1-2.885.217 16.447 16.447 0 0 1-12.063-4.918 16.142 16.142 0 0 1-4.54-8.17 18.477 18.477 0 0 1-.4-3.879 16.353 16.353 0 0 1 4.937-12.055z"/><g data-name="Group 52"><path data-name="Path 321" d="M224.298 69.645l-.005.026a2.955 2.955 0 0 0 1.085-.443 6.5 6.5 0 0 1-1.08.417z"/><path data-name="Path 322" d="M181.016 65.819a20.055 20.055 0 0 0 11.277 13.729c.17.085.348.161.527.237a.64.64 0 0 1-.049-.067 13.143 13.143 0 0 1-2.968-10.546 16.1 16.1 0 0 1 2.115-5.561c.25-.416.5-.8.754-1.171a13.218 13.218 0 0 1 2.472-10.358c.04-.049.08-.1.116-.152a13.129 13.129 0 0 1 8.4-4.887c.244-.032.486-.069.735-.089l.361-.027c.125-.009.25-.013.375-.018h.803c.138 0 .281.009.419.018a13.115 13.115 0 0 1 10.295 6.026.062.062 0 0 0 .013.018 13.186 13.186 0 0 1-.036 14.243 13.244 13.244 0 0 1-3.521 3.652.876.876 0 0 0 .009.1c.031.349.054.693.062 1.037a17.453 17.453 0 0 1-.415 4.242 17.911 17.911 0 0 1-1.8 4.908c2.664-.3 4.587-5.19 4.587-5.19-.723 6.867 2.521 3.469-.625 5.163 5.779-.907 7.72-1.408 9.362-11.458-.1.018-.2.04-.295.049.054-.013.161-.036.3-.076.54-3.295 1.044-7.618 1.642-13.308 0 0 3.155 10.416-.562 12.893 2.606-1.265 7.519-5.57 3.347-19.482a.014.014 0 0 1 0-.009c-2.436-8.109-24.7-35.629-22.1-44.74 0 0-11.9 6.151-12.223 29.907 0 0-5.85-3.576-4.873-13.013.001.004-13.215 25.991-8.504 43.93z"/><path data-name="Path 323" d="M184.223 67.127c.091.2 4.022 8.874 8.61 12.671.6 2.325-1.627-2.062 0 0-6.356-5.615-6.738-5.696-8.61-12.671z" opacity=".1"/></g></g><g data-name="Group 93" fill="#ffc107"><path data-name="Path 318" d="M144.172 37.184a17.894 17.894 0 1 1-17.85 17.882 17.863 17.863 0 0 1 17.85-17.882zm-9.876 26.04a13.036 13.036 0 0 0 1.12 1.279 12.427 12.427 0 0 0 8.72 3.71h.804a12.466 12.466 0 0 0 7.182-2.24.873.873 0 0 1-.009-.1 13.243 13.243 0 0 0 3.521-3.652 13.186 13.186 0 0 0 .036-14.243.062.062 0 0 1-.013-.018 13.115 13.115 0 0 0-10.295-6.026c-.138-.009-.281-.013-.419-.018h-.804c-.125 0-.25.009-.375.018l-.361.027c-.249.02-.491.057-.735.089a13.129 13.129 0 0 0-8.4 4.887c-.036.049-.076.1-.116.152a13.176 13.176 0 0 0 .143 16.138z"/><path data-name="Path 319" d="M126.977 36.968a25.539 25.539 0 0 1 35.745 0 24.823 24.823 0 0 1 5.221 7.555.014.014 0 0 0 0 .009 25.442 25.442 0 0 1 2.053 10.318 24.345 24.345 0 0 1-7.278 17.877 25.105 25.105 0 0 1-6 4.484 23.7 23.7 0 0 1-7.559 2.486 27.815 27.815 0 0 1-4.28.322 24.4 24.4 0 0 1-17.895-7.3A23.951 23.951 0 0 1 120.25 60.6a27.4 27.4 0 0 1-.594-5.753 24.258 24.258 0 0 1 7.321-17.879z"/><path data-name="Path 320" d="M132.792 42.793a17.217 17.217 0 0 1 24.1 0 16.735 16.735 0 0 1 3.52 5.093.01.01 0 0 0 0 .006 17.156 17.156 0 0 1 1.384 6.955 16.413 16.413 0 0 1-4.907 12.052 16.929 16.929 0 0 1-4.046 3.023 15.963 15.963 0 0 1-5.1 1.676 18.783 18.783 0 0 1-2.885.217 16.447 16.447 0 0 1-12.063-4.918 16.142 16.142 0 0 1-4.54-8.17 18.477 18.477 0 0 1-.4-3.879 16.353 16.353 0 0 1 4.937-12.055z"/><g data-name="Group 52"><path data-name="Path 321" d="M163.298 64.645l-.005.026a2.955 2.955 0 0 0 1.085-.443 6.5 6.5 0 0 1-1.08.417z"/><path data-name="Path 322" d="M120.016 60.819a20.055 20.055 0 0 0 11.277 13.729c.17.085.348.161.527.237a.64.64 0 0 1-.049-.067 13.143 13.143 0 0 1-2.968-10.546 16.1 16.1 0 0 1 2.115-5.561c.25-.416.5-.8.754-1.171a13.218 13.218 0 0 1 2.472-10.358c.04-.049.08-.1.116-.152a13.129 13.129 0 0 1 8.4-4.887c.244-.032.486-.069.735-.089l.361-.027c.125-.009.25-.013.375-.018h.803c.138 0 .281.009.419.018a13.115 13.115 0 0 1 10.295 6.026.062.062 0 0 0 .013.018 13.186 13.186 0 0 1-.036 14.243 13.244 13.244 0 0 1-3.521 3.652.876.876 0 0 0 .009.1c.031.349.054.693.062 1.037a17.453 17.453 0 0 1-.415 4.242 17.911 17.911 0 0 1-1.8 4.908c2.664-.3 4.587-5.19 4.587-5.19-.723 6.867 2.521 3.469-.625 5.163 5.779-.907 7.72-1.408 9.362-11.458-.1.018-.2.04-.295.049.054-.013.161-.036.3-.076.54-3.295 1.044-7.618 1.642-13.308 0 0 3.155 10.416-.562 12.893 2.606-1.265 7.519-5.57 3.347-19.482a.014.014 0 0 1 0-.009c-2.436-8.109-24.7-35.629-22.1-44.74 0 0-11.9 6.151-12.223 29.907 0 0-5.85-3.576-4.873-13.013.001.004-13.215 25.991-8.504 43.93z"/><path data-name="Path 323" d="M123.223 62.127c.091.2 4.022 8.874 8.61 12.671.6 2.325-1.627-2.062 0 0-6.356-5.615-6.738-5.696-8.61-12.671z" opacity=".1"/></g></g><g data-name="Group 94" fill="#ffc107"><path data-name="Path 318" d="M104.538 46.184c5.788 0 10.478 8.006 10.478 17.882 0 7.153-2.46 13.322-6.019 16.183a7.087 7.087 0 0 1-4.46 1.694c-3.839 0-7.193-3.518-9.019-8.766a27.971 27.971 0 0 1-1.459-9.111c-.003-9.875 4.691-17.882 10.479-17.882zm-5.8 26.04a13.432 13.432 0 0 0 .658 1.279q2.075 3.547 5.12 3.71h.473a5.572 5.572 0 0 0 4.216-2.249c0-.036-.005-.072-.005-.1a12.712 12.712 0 0 0 2.067-3.652 21.291 21.291 0 0 0 .021-14.243.069.069 0 0 1-.008-.018c-1.294-3.438-3.506-5.78-6.045-6.026-.081-.009-.165-.013-.246-.018h-.373a.723.723 0 0 0-.1 0c-.073 0-.147.009-.22.018l-.212.027c-.146.02-.288.057-.432.089-1.991.5-3.739 2.3-4.929 4.887l-.068.152a19.773 19.773 0 0 0-1.577 7.98 22.031 22.031 0 0 0 .126 2.378 18.5 18.5 0 0 0 1.536 5.786z"/><path data-name="Path 319" d="M92.566 45.968q5.185-7.3 12.658-7.3t12.627 7.3a26.883 26.883 0 0 1 3.693 7.555.017.017 0 0 0 0 .009 34.743 34.743 0 0 1 1.452 10.318q0 10.581-5.149 17.877a19.85 19.85 0 0 1-4.246 4.484 13.693 13.693 0 0 1-5.347 2.486 14.057 14.057 0 0 1-3.027.322q-7.477 0-12.658-7.3A27.828 27.828 0 0 1 87.806 69.6a38.368 38.368 0 0 1-.42-5.753q-.007-10.586 5.18-17.879z"/><path data-name="Path 320" d="M98.381 51.793q2.8-4.919 6.827-4.918t6.811 4.918a20.3 20.3 0 0 1 1.992 5.093.014.014 0 0 0 0 .006 28.91 28.91 0 0 1 .783 6.955 24.192 24.192 0 0 1-2.777 12.052 12.621 12.621 0 0 1-2.29 3.023 6.829 6.829 0 0 1-2.884 1.676 6.144 6.144 0 0 1-1.633.217q-4.033 0-6.827-4.918a21.661 21.661 0 0 1-2.569-8.17 32.233 32.233 0 0 1-.227-3.879 24.052 24.052 0 0 1 2.794-12.055z"/><g data-name="Group 52"><path data-name="Path 321" d="M116.297 73.645l-.005.026a2.955 2.955 0 0 0 1.085-.443 6.5 6.5 0 0 1-1.08.417z"/><path data-name="Path 322" d="M87.453 69.819c1.079 5.807 3.491 10.765 7.976 13.729.12.085.246.161.372.237a.681.681 0 0 1-.035-.067 17.282 17.282 0 0 1-2.1-10.546 20.529 20.529 0 0 1 1.5-5.561c.177-.416.357-.8.533-1.171a18.325 18.325 0 0 1-.152-2.378 16.921 16.921 0 0 1 1.9-7.98c.028-.049.057-.1.082-.152a9.275 9.275 0 0 1 5.938-4.887c.172-.032.343-.069.52-.089l.256-.027c.088-.009.177-.013.265-.018a1.048 1.048 0 0 1 .12 0h.448c.1 0 .2.009.3.018 3.059.246 5.723 2.588 7.282 6.026a.064.064 0 0 0 .009.018 17.9 17.9 0 0 1-.025 14.243 12.36 12.36 0 0 1-2.49 3.652 22.768 22.768 0 0 1 .05 1.137 24.448 24.448 0 0 1-.294 4.242 22.8 22.8 0 0 1-1.272 4.908c1.884-.3 3.245-5.19 3.245-5.19-.511 6.867 1.783 3.469-.442 5.163 4.088-.907 5.461-1.408 6.622-11.458a1.758 1.758 0 0 1-.208.049c.038-.013.114-.036.211-.076.382-3.295.739-7.618 1.162-13.308 0 0 2.232 10.416-.4 12.893 1.843-1.265 5.319-5.57 2.367-19.482a.017.017 0 0 1 0-.009c-1.723-8.109-17.474-35.629-15.634-44.74 0 0-8.415 6.151-8.645 29.907 0 0-4.138-3.576-3.447-13.013.002.004-9.347 25.991-6.014 43.93z"/><path data-name="Path 323" d="M90.957 71.127c.091.2 4.022 8.874 8.61 12.671.6 2.325-1.627-2.062 0 0-6.356-5.615-6.738-5.696-8.61-12.671z" opacity=".1"/></g></g><g data-name="Group 89" fill="#ffc107"><path data-name="Path 318" d="M246.172 71.184a17.894 17.894 0 1 1-17.85 17.882 17.863 17.863 0 0 1 17.85-17.882zm-9.876 26.04a13.036 13.036 0 0 0 1.12 1.279 12.427 12.427 0 0 0 8.72 3.71h.804a12.466 12.466 0 0 0 7.182-2.24.873.873 0 0 1-.009-.1 13.243 13.243 0 0 0 3.521-3.652 13.186 13.186 0 0 0 .036-14.243.062.062 0 0 1-.013-.018 13.115 13.115 0 0 0-10.295-6.026c-.138-.009-.281-.013-.419-.018h-.804c-.125 0-.25.009-.375.018l-.361.027c-.249.02-.491.057-.735.089a13.129 13.129 0 0 0-8.4 4.887c-.036.049-.076.1-.116.152a13.176 13.176 0 0 0 .143 16.138z"/><path data-name="Path 319" d="M228.977 70.968a25.539 25.539 0 0 1 35.745 0 24.823 24.823 0 0 1 5.221 7.555.014.014 0 0 0 0 .009 25.442 25.442 0 0 1 2.053 10.318 24.345 24.345 0 0 1-7.278 17.877 25.105 25.105 0 0 1-6 4.484 23.7 23.7 0 0 1-7.559 2.486 27.815 27.815 0 0 1-4.28.322 24.4 24.4 0 0 1-17.895-7.3A23.951 23.951 0 0 1 222.25 94.6a27.4 27.4 0 0 1-.594-5.753 24.258 24.258 0 0 1 7.321-17.879z"/><path data-name="Path 320" d="M234.792 76.793a17.217 17.217 0 0 1 24.1 0 16.735 16.735 0 0 1 3.52 5.093.01.01 0 0 0 0 .006 17.156 17.156 0 0 1 1.384 6.955 16.413 16.413 0 0 1-4.907 12.052 16.929 16.929 0 0 1-4.046 3.023 15.963 15.963 0 0 1-5.1 1.676 18.783 18.783 0 0 1-2.885.217 16.447 16.447 0 0 1-12.063-4.918 16.142 16.142 0 0 1-4.54-8.17 18.477 18.477 0 0 1-.4-3.879 16.353 16.353 0 0 1 4.937-12.055z"/><g data-name="Group 52"><path data-name="Path 321" d="M265.298 98.645l-.005.026a2.955 2.955 0 0 0 1.085-.443 6.5 6.5 0 0 1-1.08.417z"/><path data-name="Path 322" d="M222.016 94.819a20.055 20.055 0 0 0 11.277 13.729c.17.085.348.161.527.237a.64.64 0 0 1-.049-.067 13.143 13.143 0 0 1-2.968-10.546 16.1 16.1 0 0 1 2.115-5.561c.25-.416.5-.8.754-1.171a13.218 13.218 0 0 1 2.472-10.358c.04-.049.08-.1.116-.152a13.129 13.129 0 0 1 8.4-4.887c.244-.032.486-.069.735-.089l.361-.027c.125-.009.25-.013.375-.018h.803c.138 0 .281.009.419.018a13.115 13.115 0 0 1 10.295 6.026.062.062 0 0 0 .013.018 13.186 13.186 0 0 1-.036 14.243 13.244 13.244 0 0 1-3.521 3.652.876.876 0 0 0 .009.1c.031.349.054.693.062 1.037a17.453 17.453 0 0 1-.415 4.242 17.911 17.911 0 0 1-1.8 4.908c2.664-.3 4.587-5.19 4.587-5.19-.723 6.867 2.521 3.469-.625 5.163 5.779-.907 7.72-1.408 9.362-11.458-.1.018-.2.04-.295.049.054-.013.161-.036.3-.076.54-3.295 1.044-7.618 1.642-13.308 0 0 3.155 10.416-.562 12.893 2.606-1.265 7.519-5.57 3.347-19.482a.014.014 0 0 1 0-.009c-2.436-8.109-24.7-35.629-22.1-44.74 0 0-11.9 6.151-12.223 29.907 0 0-5.85-3.576-4.873-13.013.001.004-13.215 25.991-8.504 43.93z"/><path data-name="Path 323" d="M225.223 96.127c.091.2 4.022 8.874 8.61 12.671.6 2.325-1.627-2.062 0 0-6.356-5.615-6.738-5.696-8.61-12.671z" opacity=".1"/></g></g><g data-name="Group 90" fill="#ffc107"><path data-name="Path 318" d="M264.172 46.184a17.894 17.894 0 1 1-17.85 17.882 17.863 17.863 0 0 1 17.85-17.882zm-9.876 26.04a13.036 13.036 0 0 0 1.12 1.279 12.427 12.427 0 0 0 8.72 3.71h.804a12.466 12.466 0 0 0 7.182-2.24.873.873 0 0 1-.009-.1 13.243 13.243 0 0 0 3.521-3.652 13.186 13.186 0 0 0 .036-14.243.062.062 0 0 1-.013-.018 13.115 13.115 0 0 0-10.295-6.026c-.138-.009-.281-.013-.419-.018h-.804c-.125 0-.25.009-.375.018l-.361.027c-.249.02-.491.057-.735.089a13.129 13.129 0 0 0-8.4 4.887c-.036.049-.076.1-.116.152a13.176 13.176 0 0 0 .143 16.138z"/><path data-name="Path 319" d="M246.977 45.968a25.539 25.539 0 0 1 35.745 0 24.823 24.823 0 0 1 5.221 7.555.014.014 0 0 0 0 .009 25.442 25.442 0 0 1 2.053 10.318 24.345 24.345 0 0 1-7.278 17.877 25.105 25.105 0 0 1-6 4.484 23.7 23.7 0 0 1-7.559 2.486 27.815 27.815 0 0 1-4.28.322 24.4 24.4 0 0 1-17.895-7.3A23.951 23.951 0 0 1 240.25 69.6a27.4 27.4 0 0 1-.594-5.753 24.258 24.258 0 0 1 7.321-17.879z"/><path data-name="Path 320" d="M252.792 51.793a17.217 17.217 0 0 1 24.1 0 16.735 16.735 0 0 1 3.52 5.093.01.01 0 0 0 0 .006 17.156 17.156 0 0 1 1.384 6.955 16.413 16.413 0 0 1-4.907 12.052 16.929 16.929 0 0 1-4.046 3.023 15.963 15.963 0 0 1-5.1 1.676 18.783 18.783 0 0 1-2.885.217 16.447 16.447 0 0 1-12.063-4.918 16.142 16.142 0 0 1-4.54-8.17 18.477 18.477 0 0 1-.4-3.879 16.353 16.353 0 0 1 4.937-12.055z"/><g data-name="Group 52"><path data-name="Path 321" d="M283.298 73.645l-.005.026a2.955 2.955 0 0 0 1.085-.443 6.5 6.5 0 0 1-1.08.417z"/><path data-name="Path 322" d="M240.016 69.819a20.055 20.055 0 0 0 11.277 13.729c.17.085.348.161.527.237a.64.64 0 0 1-.049-.067 13.143 13.143 0 0 1-2.968-10.546 16.1 16.1 0 0 1 2.115-5.561c.25-.416.5-.8.754-1.171a13.218 13.218 0 0 1 2.472-10.358c.04-.049.08-.1.116-.152a13.129 13.129 0 0 1 8.4-4.887c.244-.032.486-.069.735-.089l.361-.027c.125-.009.25-.013.375-.018h.803c.138 0 .281.009.419.018a13.115 13.115 0 0 1 10.295 6.026.062.062 0 0 0 .013.018 13.186 13.186 0 0 1-.036 14.243 13.244 13.244 0 0 1-3.521 3.652.876.876 0 0 0 .009.1c.031.349.054.693.062 1.037a17.453 17.453 0 0 1-.415 4.242 17.911 17.911 0 0 1-1.8 4.908c2.664-.3 4.587-5.19 4.587-5.19-.723 6.867 2.521 3.469-.625 5.163 5.779-.907 7.72-1.408 9.362-11.458-.1.018-.2.04-.295.049.054-.013.161-.036.3-.076.54-3.295 1.044-7.618 1.642-13.308 0 0 3.155 10.416-.562 12.893 2.606-1.265 7.519-5.57 3.347-19.482a.014.014 0 0 1 0-.009c-2.436-8.109-24.7-35.629-22.1-44.74 0 0-11.9 6.151-12.223 29.907 0 0-5.85-3.576-4.873-13.013.001.004-13.215 25.991-8.504 43.93z"/><path data-name="Path 323" d="M243.223 71.127c.091.2 4.022 8.874 8.61 12.671.6 2.325-1.627-2.062 0 0-6.356-5.615-6.738-5.696-8.61-12.671z" opacity=".1"/></g></g><g data-name="Group 82" fill="#ffc107"><path data-name="Path 318" d="M25.172 77.184a17.894 17.894 0 1 1-17.85 17.882 17.863 17.863 0 0 1 17.85-17.882zm-9.876 26.04a13.036 13.036 0 0 0 1.12 1.279 12.427 12.427 0 0 0 8.72 3.71h.804a12.466 12.466 0 0 0 7.182-2.24.873.873 0 0 1-.009-.1 13.243 13.243 0 0 0 3.521-3.652 13.186 13.186 0 0 0 .036-14.243.062.062 0 0 1-.013-.018 13.115 13.115 0 0 0-10.295-6.026c-.138-.009-.281-.013-.419-.018h-.804c-.125 0-.25.009-.375.018l-.361.027c-.249.02-.491.057-.735.089a13.129 13.129 0 0 0-8.4 4.887c-.036.049-.076.1-.116.152a13.176 13.176 0 0 0 .143 16.138z"/><path data-name="Path 319" d="M7.977 76.968a25.539 25.539 0 0 1 35.745 0 24.823 24.823 0 0 1 5.221 7.555.014.014 0 0 0 0 .009 25.442 25.442 0 0 1 2.053 10.318 24.345 24.345 0 0 1-7.278 17.877 25.105 25.105 0 0 1-6 4.484 23.7 23.7 0 0 1-7.559 2.486 27.815 27.815 0 0 1-4.28.322 24.4 24.4 0 0 1-17.895-7.3A23.951 23.951 0 0 1 1.25 100.6a27.4 27.4 0 0 1-.594-5.753 24.258 24.258 0 0 1 7.321-17.879z"/><path data-name="Path 320" d="M13.792 82.793a17.217 17.217 0 0 1 24.1 0 16.735 16.735 0 0 1 3.52 5.093.01.01 0 0 0 0 .006 17.156 17.156 0 0 1 1.384 6.955 16.413 16.413 0 0 1-4.907 12.052 16.929 16.929 0 0 1-4.046 3.023 15.963 15.963 0 0 1-5.1 1.676 18.783 18.783 0 0 1-2.885.217 16.447 16.447 0 0 1-12.063-4.918 16.142 16.142 0 0 1-4.54-8.17 18.477 18.477 0 0 1-.4-3.879 16.353 16.353 0 0 1 4.937-12.055z"/><g data-name="Group 52"><path data-name="Path 321" d="M44.298 104.645l-.005.026a2.955 2.955 0 0 0 1.085-.443 6.5 6.5 0 0 1-1.08.417z"/><path data-name="Path 322" d="M1.016 100.819a20.055 20.055 0 0 0 11.277 13.729c.17.085.348.161.527.237a.64.64 0 0 1-.049-.067 13.143 13.143 0 0 1-2.968-10.546 16.1 16.1 0 0 1 2.115-5.561c.25-.416.5-.8.754-1.171a13.218 13.218 0 0 1 2.472-10.358c.04-.049.08-.1.116-.152a13.129 13.129 0 0 1 8.4-4.887c.244-.032.486-.069.735-.089l.361-.027c.125-.009.25-.013.375-.018h.803c.138 0 .281.009.419.018a13.115 13.115 0 0 1 10.295 6.026.062.062 0 0 0 .013.018 13.186 13.186 0 0 1-.036 14.243 13.244 13.244 0 0 1-3.521 3.652.876.876 0 0 0 .009.1c.031.349.054.693.062 1.037a17.453 17.453 0 0 1-.415 4.242 17.911 17.911 0 0 1-1.8 4.908c2.664-.3 4.587-5.19 4.587-5.19-.723 6.867 2.521 3.469-.625 5.163 5.779-.907 7.72-1.408 9.362-11.458-.1.018-.2.04-.295.049.054-.013.161-.036.3-.076.54-3.295 1.044-7.618 1.642-13.308 0 0 3.155 10.416-.562 12.893 2.606-1.265 7.519-5.57 3.347-19.482a.014.014 0 0 1 0-.009c-2.436-8.109-24.7-35.629-22.1-44.74 0 0-11.9 6.151-12.223 29.907 0 0-5.85-3.576-4.873-13.013.001.004-13.215 25.991-8.504 43.93z"/><path data-name="Path 323" d="M4.223 102.127c.091.2 4.022 8.874 8.61 12.671.6 2.325-1.627-2.062 0 0-6.356-5.615-6.738-5.696-8.61-12.671z" opacity=".1"/></g></g><g data-name="Group 83" fill="#ffc107"><path data-name="Path 318" d="M115.485 58.184c-11.7 0-21.189 8.006-21.189 17.882 0 7.153 4.975 13.322 12.171 16.183a24.429 24.429 0 0 0 9.018 1.694c7.763 0 14.545-3.518 18.238-8.766a15.758 15.758 0 0 0 2.951-9.111c.001-9.875-9.482-17.882-21.189-17.882zm11.726 26.04a14.038 14.038 0 0 1-1.33 1.279 16.211 16.211 0 0 1-10.353 3.71h-.95a16.783 16.783 0 0 1-8.526-2.249.738.738 0 0 0 .011-.1 14.608 14.608 0 0 1-4.181-3.652 11.466 11.466 0 0 1-.042-14.243.064.064 0 0 0 .016-.018 16.287 16.287 0 0 1 12.224-6.026c.164-.009.334-.013.5-.018h.95c.148 0 .3.009.445.018l.429.027c.3.02.583.057.873.089a16.386 16.386 0 0 1 9.968 4.887c.042.049.09.1.138.152a11.843 11.843 0 0 1 3.19 7.98 11.061 11.061 0 0 1-.254 2.378 12.248 12.248 0 0 1-3.108 5.786z"/><path data-name="Path 319" d="M135.05 57.968q-8.3-7.3-20.271-7.3t-20.221 7.3a25 25 0 0 0-5.914 7.555.013.013 0 0 1-.005.009 23.684 23.684 0 0 0 5.92 28.195 28.466 28.466 0 0 0 6.8 4.484h.01a29.387 29.387 0 0 0 8.563 2.486 35.615 35.615 0 0 0 4.848.322q11.973 0 20.271-7.3a23.345 23.345 0 0 0 7.628-12.119h.005a24.314 24.314 0 0 0 .672-5.753 22.908 22.908 0 0 0-8.306-17.879z"/><path data-name="Path 320" d="M129.235 63.793a23.6 23.6 0 0 0-28.844 0 17.017 17.017 0 0 0-4.213 5.093.009.009 0 0 1 0 .006 14.754 14.754 0 0 0-1.656 6.955 15.158 15.158 0 0 0 5.874 12.052 20.419 20.419 0 0 0 4.843 3.023 21.823 21.823 0 0 0 6.1 1.676 26.831 26.831 0 0 0 3.453.217 21.83 21.83 0 0 0 14.44-4.918 15.645 15.645 0 0 0 5.434-8.17 15.561 15.561 0 0 0 .479-3.879 15.119 15.119 0 0 0-5.91-12.055z"/><g data-name="Group 52"><path data-name="Path 321" d="M93.015 85.645l.005.026a2.955 2.955 0 0 1-1.085-.443 6.5 6.5 0 0 0 1.08.417z"/><path data-name="Path 322" d="M142.851 81.819h-.005c-1.729 5.807-5.591 10.765-12.775 13.729h-.005c-.192.085-.394.161-.6.237a.653.653 0 0 0 .056-.067c3.326-3.764 3.948-7.407 3.362-10.546a15.018 15.018 0 0 0-2.4-5.561c-.283-.416-.571-.8-.854-1.171a11.574 11.574 0 0 0 .243-2.378 12.156 12.156 0 0 0-3.043-7.98 2.065 2.065 0 0 1-.131-.152 15.377 15.377 0 0 0-9.511-4.887c-.276-.032-.55-.069-.833-.089l-.409-.027c-.142-.009-.283-.013-.425-.018h-.91c-.157 0-.318.009-.475.018a15.306 15.306 0 0 0-11.663 6.026.064.064 0 0 1-.015.018 11.9 11.9 0 0 0 .04 14.243 14.161 14.161 0 0 0 3.989 3.652.773.773 0 0 1-.01.1c-.035.349-.061.693-.071 1.037a15.486 15.486 0 0 0 .47 4.242 16.725 16.725 0 0 0 2.037 4.908c-3.018-.3-5.2-5.19-5.2-5.19.819 6.867-2.856 3.469.708 5.163-6.547-.907-8.746-1.408-10.606-11.458.111.018.222.04.334.049-.061-.013-.182-.036-.339-.076-.612-3.295-1.183-7.618-1.86-13.308 0 0-3.574 10.416.637 12.893-2.952-1.265-8.518-5.57-3.791-19.482a.013.013 0 0 0 .005-.009c2.76-8.109 27.986-35.629 25.039-44.74 0 0 13.477 6.151 13.846 29.907 0 0 6.628-3.576 5.52-13.013.009.004 14.983 25.991 9.645 43.93z"/><path data-name="Path 323" d="M139.773 83.127c-.091.2-4.022 8.874-8.61 12.671-.6 2.325 1.627-2.062 0 0 6.36-5.615 6.742-5.696 8.61-12.671z" opacity=".1"/></g></g><g data-name="Group 84" fill="#ffc107"><path data-name="Path 318" d="M144.172 77.184a17.894 17.894 0 1 1-17.85 17.882 17.863 17.863 0 0 1 17.85-17.882zm-9.876 26.04a13.036 13.036 0 0 0 1.12 1.279 12.427 12.427 0 0 0 8.72 3.71h.804a12.466 12.466 0 0 0 7.182-2.24.873.873 0 0 1-.009-.1 13.243 13.243 0 0 0 3.521-3.652 13.186 13.186 0 0 0 .036-14.243.062.062 0 0 1-.013-.018 13.115 13.115 0 0 0-10.295-6.026c-.138-.009-.281-.013-.419-.018h-.804c-.125 0-.25.009-.375.018l-.361.027c-.249.02-.491.057-.735.089a13.129 13.129 0 0 0-8.4 4.887c-.036.049-.076.1-.116.152a13.176 13.176 0 0 0 .143 16.138z"/><path data-name="Path 319" d="M126.977 76.968a25.539 25.539 0 0 1 35.745 0 24.823 24.823 0 0 1 5.221 7.555.014.014 0 0 0 0 .009 25.442 25.442 0 0 1 2.053 10.318 24.345 24.345 0 0 1-7.278 17.877 25.105 25.105 0 0 1-6 4.484 23.7 23.7 0 0 1-7.559 2.486 27.815 27.815 0 0 1-4.28.322 24.4 24.4 0 0 1-17.895-7.3 23.951 23.951 0 0 1-6.734-12.119 27.4 27.4 0 0 1-.594-5.753 24.258 24.258 0 0 1 7.321-17.879z"/><path data-name="Path 320" d="M132.792 82.793a17.217 17.217 0 0 1 24.1 0 16.735 16.735 0 0 1 3.52 5.093.01.01 0 0 0 0 .006 17.156 17.156 0 0 1 1.384 6.955 16.413 16.413 0 0 1-4.907 12.052 16.929 16.929 0 0 1-4.046 3.023 15.963 15.963 0 0 1-5.1 1.676 18.783 18.783 0 0 1-2.885.217 16.447 16.447 0 0 1-12.063-4.918 16.142 16.142 0 0 1-4.54-8.17 18.477 18.477 0 0 1-.4-3.879 16.353 16.353 0 0 1 4.937-12.055z"/><g data-name="Group 52"><path data-name="Path 321" d="M163.298 104.645l-.005.026a2.955 2.955 0 0 0 1.085-.443 6.5 6.5 0 0 1-1.08.417z"/><path data-name="Path 322" d="M120.016 100.819a20.055 20.055 0 0 0 11.277 13.729c.17.085.348.161.527.237a.64.64 0 0 1-.049-.067 13.143 13.143 0 0 1-2.968-10.546 16.1 16.1 0 0 1 2.115-5.561c.25-.416.5-.8.754-1.171a13.218 13.218 0 0 1 2.472-10.358c.04-.049.08-.1.116-.152a13.129 13.129 0 0 1 8.4-4.887c.244-.032.486-.069.735-.089l.361-.027c.125-.009.25-.013.375-.018h.803c.138 0 .281.009.419.018a13.115 13.115 0 0 1 10.295 6.026.062.062 0 0 0 .013.018 13.186 13.186 0 0 1-.036 14.243 13.244 13.244 0 0 1-3.521 3.652.876.876 0 0 0 .009.1c.031.349.054.693.062 1.037a17.453 17.453 0 0 1-.415 4.242 17.911 17.911 0 0 1-1.8 4.908c2.664-.3 4.587-5.19 4.587-5.19-.723 6.867 2.521 3.469-.625 5.163 5.779-.907 7.72-1.408 9.362-11.458-.1.018-.2.04-.295.049.054-.013.161-.036.3-.076.54-3.295 1.044-7.618 1.642-13.308 0 0 3.155 10.416-.562 12.893 2.606-1.265 7.519-5.57 3.347-19.482a.014.014 0 0 1 0-.009c-2.436-8.109-24.7-35.629-22.1-44.74 0 0-11.9 6.151-12.223 29.907 0 0-5.85-3.576-4.873-13.013.001.004-13.215 25.991-8.504 43.93z"/><path data-name="Path 323" d="M123.223 102.127c.091.2 4.022 8.874 8.61 12.671.6 2.325-1.627-2.062 0 0-6.356-5.615-6.738-5.696-8.61-12.671z" opacity=".1"/></g></g></svg>