<svg xmlns="http://www.w3.org/2000/svg" viewBox="0 0 93.27 34.26"><defs><style>.cls-1{fill:#fed834;fill-rule:evenodd}</style></defs><g id="Слой_2" data-name="Слой 2"><g id="_1" data-name="???? 1"><path class="cls-1" d="M22.84 11.42a11.42 11.42 0 0 1-22.84 0A11.46 11.46 0 0 1 .87 7a12.37 12.37 0 0 0 1.59 2 11.74 11.74 0 0 0 1.8 1.5 7.48 7.48 0 0 0-.07 1 7.23 7.23 0 1 0 14.45 0 7.5 7.5 0 0 0-.06-1 11.74 11.74 0 0 0 1.8-1.5A12.37 12.37 0 0 0 22 7a11.46 11.46 0 0 1 .87 4.39zm-5.66-9.86a11.41 11.41 0 0 0-11.52 0 4.79 4.79 0 0 0 .24.73 6 6 0 0 0 1.3 1.93 6.06 6.06 0 0 0 .93.78 7.25 7.25 0 0 1 6.58 0 6.06 6.06 0 0 0 .93-.76 6.14 6.14 0 0 0 1.3-1.93 6.23 6.23 0 0 0 .24-.75z"/><path class="cls-1" d="M22.84 0a11.36 11.36 0 0 1-3.35 8.07 11.35 11.35 0 0 1-6 3.16V17a6 6 0 0 1-4.2 0v-5.77a11.42 11.42 0 0 1-6-3.16A11.39 11.39 0 0 1 0 0h4.19a7.19 7.19 0 0 0 2.12 5.11 7.19 7.19 0 0 0 5.11 2.12 7.21 7.21 0 0 0 5.11-2.12A7.19 7.19 0 0 0 18.64 0h4.2z"/><path class="cls-1" d="M22.84 22.84a11.42 11.42 0 0 1-22.84 0v-5.92a12.37 12.37 0 0 0 2.46 3.46 12.73 12.73 0 0 0 1.73 1.46v1a7.23 7.23 0 1 0 14.45 0v-1a12.23 12.23 0 0 0 1.74-1.46 12.58 12.58 0 0 0 2.46-3.46z"/><path d="M39.57 17.33h-2.9l-2.58-4-.25-.05v4h-2.32V7H35a4 4 0 0 1 2.7.83 2.92 2.92 0 0 1 1 2.34A3 3 0 0 1 38 12a2.62 2.62 0 0 1-1.69 1l3.26 4.32zm-3.32-7.14c0-.95-.64-1.43-1.94-1.43h-.47v2.91h.48c1.29 0 1.93-.49 1.93-1.48zm10.62 4.4A2.77 2.77 0 0 1 46 16.8a3.84 3.84 0 0 1-2.58.77q-3.51 0-3.51-3.16v-4H42v3.7q0 1.65 1.35 1.65a1.26 1.26 0 0 0 1-.38 2 2 0 0 0 .31-1.26v-3.68h2.15v4.15zM57.2 7l-3.72 5.51v4.87h-2.33v-4.91L47.44 7h2.78l2.09 3.25L54.43 7zm6.44 6.94a3.43 3.43 0 0 0-1.14-2.63 4.52 4.52 0 0 0-5.77 0 3.46 3.46 0 0 0-1.13 2.63 3.37 3.37 0 0 0 1.13 2.61 4 4 0 0 0 2.89 1.07 4.1 4.1 0 0 0 2.89-1.07 3.4 3.4 0 0 0 1.13-2.61zm-2.26 0a1.74 1.74 0 0 1-.5 1.26 1.78 1.78 0 1 1-1.26-3 1.71 1.71 0 0 1 1.76 1.76zm10.34.7a2.77 2.77 0 0 1-.89 2.21 3.84 3.84 0 0 1-2.58.77q-3.51 0-3.51-3.16v-4h2.14v3.7q0 1.65 1.35 1.65a1.27 1.27 0 0 0 1-.38 2.08 2.08 0 0 0 .31-1.26v-3.73h2.15v4.15zm4.44 1.61a1.4 1.4 0 0 1-2.79 0 1.39 1.39 0 0 1 2.38-1 1.31 1.31 0 0 1 .41 1zM86 17.33h-2.9l-2.58-4-.25-.05v4h-2.36V7h3.46a4 4 0 0 1 2.7.83 2.92 2.92 0 0 1 1 2.34 3 3 0 0 1-.63 1.83 2.62 2.62 0 0 1-1.73 1L86 17.33zm-3.32-7.14c0-.95-.65-1.43-1.94-1.43h-.47v2.91h.48c1.29 0 1.93-.49 1.93-1.48zm10.62 4.4a2.77 2.77 0 0 1-.89 2.21 3.84 3.84 0 0 1-2.58.77q-3.51 0-3.51-3.16v-4h2.14v3.7q0 1.65 1.35 1.65a1.27 1.27 0 0 0 1-.38 2 2 0 0 0 .31-1.26v-3.68h2.15z" fill="#2d2d2d" fill-rule="evenodd"/><path class="cls-1" d="M36.79 21.76l-1.14 3.65h-.8l-.7-2.41-.73 2.37h-.8l-1.1-3.65h.85l.69 2.45.73-2.45h.72l.72 2.45.7-2.45zm2.37 3.65h-2.1v-3.65h2.1v.7h-1.28v.72h1.17v.71h-1.17v.82h1.28v.7zm3.12-1a.91.91 0 0 1-.34.77 1.6 1.6 0 0 1-1 .27h-1.26v-3.69h1.16a1.29 1.29 0 0 1 .85.25.86.86 0 0 1 .3.71.77.77 0 0 1-.12.43.86.86 0 0 1-.33.3.94.94 0 0 1 .55.35.87.87 0 0 1 .19.57zm-1.08-1.59c0-.28-.18-.42-.55-.42h-.15v.84h.16q.54 0 .54-.42zm.27 1.5c0-.31-.22-.47-.64-.47h-.33v.93h.29c.45 0 .68-.15.68-.46zm2.16.7a.49.49 0 0 1-.14.34.49.49 0 0 1-.35.15.45.45 0 0 1-.34-.15.46.46 0 0 1-.15-.34.47.47 0 0 1 .15-.35.48.48 0 0 1 .34-.14.46.46 0 0 1 .35.14.48.48 0 0 1 .14.35zm6.37.39h-.82l-.31-2.28-.87 2.28h-.48l-.83-2.28-.33 2.28h-.81l.6-3.65H47l.78 2.35.8-2.35h.84l.58 3.65zm4.16-1.82a1.82 1.82 0 0 1-.57 1.41 2.08 2.08 0 0 1-2.84 0 1.92 1.92 0 0 1 0-2.73 2.11 2.11 0 0 1 2.84 0 1.83 1.83 0 0 1 .57 1.37zm-.84 0a1.1 1.1 0 0 0-.33-.81 1.14 1.14 0 0 0-.82-.33 1.14 1.14 0 1 0 0 2.27 1.12 1.12 0 0 0 .82-.33 1.09 1.09 0 0 0 .33-.8zm3.89.78a.92.92 0 0 1-.35.77 1.58 1.58 0 0 1-1 .27H54.6v-3.65h1.16a1.27 1.27 0 0 1 .85.25.86.86 0 0 1 .3.71.77.77 0 0 1-.12.43.8.8 0 0 1-.33.3.91.91 0 0 1 .55.35.88.88 0 0 1 .2.57zm-1.08-1.55c0-.28-.19-.42-.56-.42h-.15v.84h.16c.36 0 .55-.14.55-.42zm.26 1.5c0-.31-.21-.47-.64-.47h-.33v.93h.29c.45 0 .68-.15.68-.46zm2.11 1.09h-.81v-3.65h.81v3.65zm2.58 0h-1.95v-3.65H60v2.95h1.13v.7zm2.46 0h-2.1v-3.65h2.1v.7h-1.28v.72h1.18v.71h-1.18v.82h1.28v.7zM65 25a.46.46 0 0 1-.15.34.45.45 0 0 1-.34.15.47.47 0 0 1-.35-.15.46.46 0 0 1-.15-.34.47.47 0 0 1 .15-.35.5.5 0 0 1 .35-.14.44.44 0 0 1 .34.14.45.45 0 0 1 .15.35zm5.31.39h-.82v-1.54h-1.43v1.56h-.82v-3.65h.82v1.42h1.47v-1.42h.82v3.65zm1.44 0H71v-3.63h.82v3.65zM76 23.58a1.91 1.91 0 0 1-.54 1.42 1.78 1.78 0 0 1-1.31.5 1.94 1.94 0 0 1-1.36-3.3 2.07 2.07 0 0 1 2.36-.3 1.58 1.58 0 0 1 .65.68l-.74.36a1 1 0 0 0-.91-.59 1 1 0 0 0-.76.36 1.28 1.28 0 0 0-.31.87 1.32 1.32 0 0 0 .31.89 1 1 0 0 0 .77.36 1 1 0 0 0 .62-.22.65.65 0 0 0 .27-.54h-.83v-.65H76v.15zm3.55 1.83h-.82v-1.56h-1.48v1.56h-.81v-3.65h.81v1.42h1.47v-1.42h.82v3.65zm2.57 0h-1.95v-3.65H81v2.95h1.13v.7zm4.06-1.82a1.79 1.79 0 0 1-.59 1.41 2.07 2.07 0 0 1-2.83 0 1.92 1.92 0 0 1 0-2.73 2.1 2.1 0 0 1 2.83 0 1.8 1.8 0 0 1 .58 1.37zm-.85 0a1.13 1.13 0 0 0-1.14-1.14 1.14 1.14 0 0 0-.82.33 1.15 1.15 0 0 0 0 1.61 1.14 1.14 0 0 0 .82.33 1.13 1.13 0 0 0 1.14-1.13zm4.59 1.82l-1.42-3.65h-.92l-1.41 3.65H87l.28-.76h1.46l.28.76zM88.52 24h-1l.5-1.36.5 1.36zm4.75-.41a1.7 1.7 0 0 1-.54 1.31 2 2 0 0 1-1.44.51h-1.11v-3.65h1.16a1.89 1.89 0 0 1 1.4.52 1.76 1.76 0 0 1 .53 1.31zm-.85 0a1.07 1.07 0 0 0-.32-.83 1.22 1.22 0 0 0-.88-.3H91v2.25h.19a1.34 1.34 0 0 0 .91-.29 1.08 1.08 0 0 0 .32-.83z"/></g></g></svg>