<svg version="1.1" id="Слой_1" xmlns="http://www.w3.org/2000/svg" x="0" y="0" viewBox="0 0 372.4 272.2" xml:space="preserve"><style>.st0{fill:#ffc107}</style><path class="st0" d="M119.7 101.5c-22.1 0-40 17.9-40 40 0 16 9.4 29.8 23 36.2 5.2 2.4 10.9 3.8 17 3.8 14.7 0 27.5-7.9 34.4-19.6 3.5-6 5.6-12.9 5.6-20.4 0-22.1-17.9-40-40-40zm22.2 58.2c-.8 1-1.6 2-2.5 2.9-5.3 5.3-11.8 8-19.5 8.3H118c-6.2-.1-11.5-1.8-16.1-5v-.2c-3.1-2.2-5.8-5-7.9-8.2-3-4.6-4.7-10.1-4.7-16 0-5.8 1.7-11.3 4.6-15.9 4.9-7.7 13.4-12.9 23.1-13.5h3.6c.3 0 .5 0 .8.1.6 0 1.1.1 1.6.2 7.6 1.1 14.3 5.2 18.8 10.9l.3.3c3.8 5 6 11.1 6 17.9 0 1.8-.2 3.6-.5 5.3-.8 4.8-2.8 9.2-5.7 12.9z"/><path class="st0" d="M158.3 101c-11-10.9-24.3-16.3-40.1-16.3s-29.1 5.4-40 16.3c-5.1 5.1-9 10.7-11.7 16.9-3.1 7-4.6 14.7-4.6 23.1 0 15.8 5.4 29.1 16.3 40 4.1 4.1 8.6 7.5 13.5 10 5.2 2.8 10.9 4.6 16.9 5.6 3.1.5 6.3.7 9.6.7 15.8 0 29.2-5.4 40.1-16.3 7.8-7.8 12.9-16.8 15.1-27.1.9-4.1 1.3-8.4 1.3-12.9 0-15.8-5.5-29.1-16.4-40z"/><path class="st0" d="M145.2 114c-7.4-7.3-16.4-11-27-11-10.6 0-19.6 3.7-27 11-3.4 3.4-6.1 7.2-7.9 11.4-2.1 4.7-3.1 9.9-3.1 15.6 0 10.6 3.7 19.6 11 27 2.8 2.8 5.8 5 9.1 6.8 3.5 1.9 7.3 3.1 11.4 3.7 2.1.3 4.2.5 6.5.5 10.6 0 19.7-3.7 27-11 5.3-5.2 8.7-11.3 10.2-18.3.6-2.8.9-5.7.9-8.7 0-10.7-3.7-19.6-11.1-27zm-68.3 48.9c-.9-.1-1.7-.5-2.4-.9.9.5 1.8.7 2.4.9z"/><path class="st0" d="M173.9 154.3c-.1 0-.1.1 0 0-3.4 13-11.1 24.1-25.3 30.7-.4.2-.8.4-1.2.5 0 0 .1-.1.1-.2 6.6-8.4 7.8-16.6 6.6-23.6-.8-4.8-2.7-9-4.7-12.4-.6-.9-1.1-1.8-1.7-2.6.3-1.7.5-3.5.5-5.3 0-6.7-2.2-12.9-6-17.9l-.3-.3c-4.5-5.8-11.2-9.8-18.8-10.9-.5-.1-1.1-.2-1.6-.2-.3 0-.5 0-.8-.1h-3.6c-9.7.5-18.1 5.8-23.1 13.5-2.9 4.6-4.6 10-4.6 15.9s1.7 11.4 4.7 16c2.1 3.2 4.8 6 7.9 8.2v.2c-.1.8-.1 1.6-.1 2.3-.1 3.5.3 6.7.9 9.5 1.4 6.6 4 11 4 11-6-.7-10.3-11.6-10.3-11.6 1.6 15.4-5.7 7.8 1.4 11.5-13-2-17.3-3.2-21-25.6.2 0 .4.1.7.1-.1 0-.4-.1-.7-.2-1.2-7.4-2.3-17-3.7-29.8 0 0-7.1 23.3 1.3 28.8-5.8-2.8-16.9-12.5-7.5-43.6 5.5-18.1 55.4-79.7 49.5-100.1 0 0 26.7 13.8 27.4 66.9 0 0 13.1-8 10.9-29.1 0 .2 29.6 58.3 19.1 98.4z"/><path d="M166.7 157.3c-.2.5-9 19.9-19.3 28.3-1.3 5.2 3.6-4.6 0 0 14.2-12.5 15.1-12.7 19.3-28.3z" opacity=".1" fill="#ffc107"/><path d="M248.4 127.7V200c0 9.4-4.3 17.7-12.7 22.4-6.9 3.9-13.2 4.8-19.1 4.8-4.4 0-10.2-1.3-14.2-3-4.9-2.4-9.9-6.5-12.8-11.5l15.8-7.6c.9 1.6 2.1 2.9 3.6 4 2.1 1.5 5.5 2.1 7.6 2.1 3.9 0 7.9-1.1 10.4-3 3.1-2.4 4.3-4.9 4.1-8.4v-7c-4.9 3-10.9 4.5-17.4 4.5-8.9 0-17.8-3.9-23.3-10.8-5.8-7-7.9-15.7-7.9-24.9 0-9.4 2.6-18.3 7.9-24.9 5.8-7.1 14.8-10.8 24.2-10.8 6.9 0 13.5 2.3 18.7 6.1v-4.3h15.1zm-19.7 49.7c3.3-3.6 4.8-9.7 4.8-15.8 0-6.1-1.5-12-4.8-15.8-2.8-3.3-6.8-4.8-11.4-4.8-5.6 0-10 1.6-12.9 6-2.4 3.5-3.6 8.8-3.6 14.5s1 11 3.4 14.5c2.9 4.4 7.8 6 12.5 6 4.9.1 9-1.4 12-4.6zm39.6 8.6c-5.8-7-8.3-15.2-8.3-24.4 0-9.5 2.9-17.9 8.3-24.4 6.3-7.4 16-11.3 26-11.3s19.7 3.8 26 11.3c6 7.1 8.4 15.3 8.4 24.4 0 9.7-2.6 17.3-8.4 24.4-6.4 7.5-15.8 11.3-26 11.3-10.1 0-19.8-3.9-26-11.3zm42.2-24.4c0-5.1-1-10.4-3.9-14.2-2.8-3.8-7.4-5.6-12.4-5.6s-9.7 1.9-12.4 5.6c-2.9 3.8-3.8 9-3.8 14.2 0 5.1.9 10.3 3.8 14 2.8 3.8 7.4 5.8 12.4 5.8s9.7-2 12.4-5.8c2.9-3.7 3.9-8.9 3.9-14z" fill="#fff"/></svg>