<svg xmlns="http://www.w3.org/2000/svg" width="26" height="26"><path d="M25.941 2.259A2.818 2.818 0 0 0 23.572.026.884.884 0 0 1 23.427 0H2.569c-.127.026-.247.042-.375.068a2.825 2.825 0 0 0-2.173 2.36c0 .051-.017.094-.017.145v20.862c.017.128.043.264.068.392a2.819 2.819 0 0 0 2.36 2.148l.17.025h20.8c.128-.017.264-.042.4-.068a2.82 2.82 0 0 0 2.139-2.181c.016-.111.034-.23.06-.35v-20.8c-.026-.112-.032-.232-.06-.342zm-12.945 5.47A5.272 5.272 0 1 1 7.73 12.92a5.281 5.281 0 0 1 5.266-5.191zM23.18 22.157a1.053 1.053 0 0 1-1.031 1.031H3.844a1.052 1.052 0 0 1-1.031-1.031V10.542h2.471a8.054 8.054 0 0 0 .631 6.349 7.933 7.933 0 0 0 3.145 3.171 8.09 8.09 0 0 0 11.965-6.094 8.2 8.2 0 0 0-.324-3.426h2.48zm0-16.524a1.048 1.048 0 0 1-1 1.04c-.426.008-.861 0-1.287 0v.008h-1.185a1.067 1.067 0 0 1-1.031-.707 1.268 1.268 0 0 1-.059-.358c-.009-.818 0-1.628 0-2.446a1.044 1.044 0 0 1 1.048-1.057h2.463a1.05 1.05 0 0 1 1.049 1.057z" fill="#fff"/></svg>