<svg width="31" height="31" fill="none" xmlns="http://www.w3.org/2000/svg"><path d="M15.3 24.468h2.61c.815 0 1.63 0 2.445-.163 2.12-.49 3.26-1.63 3.75-3.75.163-.816.163-1.631.163-2.61v-5.217c0-.815 0-1.63-.163-2.445-.49-1.957-1.63-3.261-3.424-3.75-.815-.163-1.63-.326-2.446-.326h-6.032c-.652 0-1.304 0-2.12.163-1.956.489-3.098 1.467-3.75 3.424-.163.815-.326 1.63-.326 2.445v5.38c0 .816 0 1.794.163 2.61.326 1.956 1.794 3.423 3.75 3.912.815.164 1.63.164 2.609.164.978.163 1.793.163 2.772.163zm0-24.13c8.316 0 15 6.684 15 15 0 8.314-6.684 15-15 15-8.315 0-15-6.686-15-15 0-8.153 6.685-15 15-15z" fill="#fff"/><path d="M20.029 11.587c.652 0 1.14-.49 1.14-1.141 0-.653-.488-1.142-1.14-1.142-.653 0-1.142.49-1.142 1.142.163.652.652 1.14 1.142 1.14zm-9.457 3.75c0 2.609 2.12 4.728 4.565 4.728a4.732 4.732 0 0 0 4.729-4.728 4.732 4.732 0 0 0-4.729-4.728c-2.445.163-4.565 2.282-4.565 4.728zM15.3 8c1.305 0 2.609 0 3.75.163.652 0 1.305.163 1.957.49.815.488 1.304 1.14 1.467 2.119.163.489.163 1.141.163 1.63v6.359c0 .652 0 1.141-.163 1.793-.326 1.305-1.304 2.12-2.608 2.283-.49.163-.979.163-1.468.163h-6.522c-.489 0-1.14 0-1.63-.163-1.304-.326-2.12-1.305-2.283-2.609-.163-.815-.163-1.467-.163-2.282v-5.544c0-.652 0-1.141.163-1.793.326-1.305 1.305-2.12 2.61-2.283.814-.163 1.63-.163 2.445-.163C13.833 8 14.485 8 15.3 8z" fill="#fff"/><path d="M12.202 15.337c0-1.63 1.305-3.098 3.098-3.098 1.63 0 3.098 1.304 3.098 3.098 0 1.63-1.305 3.098-3.098 3.098s-3.098-1.304-3.098-3.098z" fill="#fff"/></svg>