<svg xmlns="http://www.w3.org/2000/svg" width="569" height="5.75"><g fill="none" stroke="red" stroke-linecap="round" stroke-miterlimit="10" stroke-width="2"><path d="M1 4.75C4.415 4.75 4.188 1 7.667 1s3.188 3.75 6.667 3.75S17.521 1 21 1s3.188 3.75 6.667 3.75S30.854 1 34.333 1 37.521 4.75 41 4.75 44.188 1 47.667 1s3.188 3.75 6.667 3.75S57.521 1 61 1s3.188 3.75 6.667 3.75S70.854 1 74.333 1 77.521 4.75 81 4.75 84.188 1 87.667 1s3.188 3.75 6.667 3.75S97.521 1 101 1"/><path d="M95 4.75c3.415 0 3.188-3.75 6.667-3.75s3.188 3.75 6.667 3.75S111.521 1 115 1s3.188 3.75 6.667 3.75S124.854 1 128.333 1s3.188 3.75 6.667 3.75S138.188 1 141.667 1s3.188 3.75 6.667 3.75S151.521 1 155 1s3.188 3.75 6.667 3.75S164.854 1 168.333 1s3.188 3.75 6.667 3.75S178.188 1 181.667 1s3.188 3.75 6.667 3.75S191.521 1 195 1"/><path d="M188 4.75c3.415 0 3.188-3.75 6.667-3.75s3.188 3.75 6.667 3.75S204.521 1 208 1s3.188 3.75 6.667 3.75S217.854 1 221.333 1s3.188 3.75 6.667 3.75S231.188 1 234.667 1s3.188 3.75 6.667 3.75S244.521 1 248 1s3.188 3.75 6.667 3.75S257.854 1 261.333 1s3.188 3.75 6.667 3.75S271.188 1 274.667 1s3.188 3.75 6.667 3.75S284.521 1 288 1"/><path d="M281 4.75c3.415 0 3.188-3.75 6.667-3.75s3.188 3.75 6.667 3.75S297.521 1 301 1s3.188 3.75 6.667 3.75S310.854 1 314.333 1s3.188 3.75 6.667 3.75S324.188 1 327.667 1s3.188 3.75 6.667 3.75S337.521 1 341 1s3.188 3.75 6.667 3.75S350.854 1 354.333 1s3.188 3.75 6.667 3.75S364.188 1 367.667 1s3.188 3.75 6.667 3.75S377.521 1 381 1"/><path d="M375 4.75c3.415 0 3.188-3.75 6.667-3.75s3.188 3.75 6.667 3.75S391.521 1 395 1s3.188 3.75 6.667 3.75S404.854 1 408.333 1s3.188 3.75 6.667 3.75S418.188 1 421.667 1s3.188 3.75 6.667 3.75S431.521 1 435 1s3.188 3.75 6.667 3.75S444.854 1 448.333 1s3.188 3.75 6.667 3.75S458.188 1 461.667 1s3.188 3.75 6.667 3.75S471.521 1 475 1"/><path d="M468 4.75c3.415 0 3.188-3.75 6.667-3.75s3.188 3.75 6.667 3.75S484.521 1 488 1s3.188 3.75 6.667 3.75S497.854 1 501.333 1s3.188 3.75 6.667 3.75S511.188 1 514.667 1s3.188 3.75 6.667 3.75S524.521 1 528 1s3.188 3.75 6.667 3.75S537.854 1 541.333 1s3.188 3.75 6.667 3.75S551.188 1 554.667 1s3.188 3.75 6.667 3.75S564.521 1 568 1"/></g></svg>