<svg xmlns="http://www.w3.org/2000/svg" width="139.216" height="85.553"><path d="M23.594 34.086a16.408 16.408 0 0 0-6.938 31.226 16.269 16.269 0 0 0 20.969-6.483 16.414 16.414 0 0 0-14.031-24.743zm9.021 23.87a11.941 11.941 0 0 1-1.023 1.172 11.333 11.333 0 0 1-7.965 3.4h-.734a11.36 11.36 0 0 1-6.559-2.061.8.8 0 0 0 .008-.094 12.112 12.112 0 0 1-3.249-16.4.057.057 0 0 0 .012-.016 11.973 11.973 0 0 1 9.4-5.524c.126-.008.257-.012.383-.016h.734c.114 0 .228.008.342.016l.33.025c.228.018.449.052.671.082a11.985 11.985 0 0 1 7.669 4.479c.033.045.069.094.106.139a12.11 12.11 0 0 1-.13 14.793z" fill="#fff"/><path d="M39.3 33.887a23.271 23.271 0 0 0-32.652 0 22.758 22.758 0 0 0-4.769 6.925.013.013 0 0 1 0 .008 23.392 23.392 0 0 0-1.875 9.458 22.357 22.357 0 0 0 6.648 16.387 22.939 22.939 0 0 0 5.483 4.11 21.593 21.593 0 0 0 6.905 2.278 25.319 25.319 0 0 0 3.909.3 22.247 22.247 0 0 0 16.346-6.688 21.976 21.976 0 0 0 6.151-11.109 25.2 25.2 0 0 0 .542-5.274A22.276 22.276 0 0 0 39.3 33.887z" fill="#fff"/><path d="M33.988 39.227a15.688 15.688 0 0 0-22.012 0 15.342 15.342 0 0 0-3.215 4.669.009.009 0 0 1 0 .006 15.773 15.773 0 0 0-1.264 6.376 15.072 15.072 0 0 0 4.482 11.048 15.468 15.468 0 0 0 3.7 2.771 14.546 14.546 0 0 0 4.655 1.536 17.1 17.1 0 0 0 2.635.2 15 15 0 0 0 11.02-4.508 14.812 14.812 0 0 0 4.147-7.489 16.994 16.994 0 0 0 .366-3.556 15.017 15.017 0 0 0-4.514-11.053zM6.121 59.258v.024a2.694 2.694 0 0 1-.991-.406 5.929 5.929 0 0 0 .991.382z" fill="#fff"/><path d="M45.659 55.751a18.37 18.37 0 0 1-10.3 12.584 8.077 8.077 0 0 1-.481.217.593.593 0 0 0 .045-.061 12.078 12.078 0 0 0 2.711-9.667 14.789 14.789 0 0 0-1.932-5.1 22.33 22.33 0 0 0-.689-1.074 12.152 12.152 0 0 0-2.258-9.495 3.203 3.203 0 0 1-.106-.139 11.985 11.985 0 0 0-7.679-4.474c-.223-.029-.443-.063-.671-.082l-.33-.025a9.78 9.78 0 0 0-.342-.016h-.734a6.13 6.13 0 0 0-.383.016 11.973 11.973 0 0 0-9.4 5.524.057.057 0 0 1-.012.016 12.1 12.1 0 0 0 3.249 16.4.8.8 0 0 1-.008.094c-.029.32-.049.635-.057.951a16.053 16.053 0 0 0 .379 3.889 16.453 16.453 0 0 0 1.643 4.5c-2.434-.275-4.19-4.758-4.19-4.758.66 6.294-2.3 3.18.571 4.733-5.279-.832-7.052-1.291-8.552-10.5.09.016.179.037.269.045-.049-.012-.147-.033-.273-.07-.493-3.02-.954-6.983-1.5-12.2 0 0-2.882 9.548.514 11.818-2.381-1.16-6.869-5.106-3.057-17.858a.013.013 0 0 0 0-.008C4.312 33.578 24.653 8.351 22.276 0c0 0 10.868 5.639 11.165 27.415 0 0 5.344-3.278 4.451-11.929-.003 0 12.071 23.82 7.767 40.265z" fill="#fff"/><path d="M42.721 56.95c-.083.185-3.674 8.135-7.865 11.615-.549 2.131 1.486-1.89 0 0 5.814-5.147 6.165-5.223 7.865-11.615z" fill="#fff" opacity=".1"/><path d="M69.93 45.026v1.735a12.7 12.7 0 0 0-7.605-2.5 12.5 12.5 0 0 0-9.851 4.39 16.313 16.313 0 0 0-3.216 10.156 15.51 15.51 0 0 0 3.215 10.157 12.25 12.25 0 0 0 9.494 4.39 13.479 13.479 0 0 0 7.095-1.838v2.858a3.734 3.734 0 0 1-1.684 3.42 7.418 7.418 0 0 1-4.236 1.225 6 6 0 0 1-3.114-.868 5.026 5.026 0 0 1-1.48-1.633l-6.432 3.114a12.451 12.451 0 0 0 5.206 4.7 16 16 0 0 0 5.768 1.225 15.038 15.038 0 0 0 7.758-1.94 10.123 10.123 0 0 0 5.155-9.136V45.026zm-6.84 22.152a5.866 5.866 0 0 1-5.1-2.45 10.831 10.831 0 0 1-1.378-5.921 10.821 10.821 0 0 1 1.48-5.921c1.174-1.786 2.96-2.45 5.257-2.45a5.838 5.838 0 0 1 4.645 1.94 9.957 9.957 0 0 1 1.94 6.431c0 2.5-.612 4.951-1.94 6.431a6.386 6.386 0 0 1-4.904 1.94zm31.58 6.176a13.58 13.58 0 0 0 10.566-4.594 14.942 14.942 0 0 0 3.42-9.953 14.781 14.781 0 0 0-3.42-9.953A13.58 13.58 0 0 0 94.67 44.26a13.827 13.827 0 0 0-10.566 4.594 15.339 15.339 0 0 0-3.369 9.953 15.085 15.085 0 0 0 3.369 9.953 13.75 13.75 0 0 0 10.566 4.594zm5.053-8.83a6.157 6.157 0 0 1-5.053 2.348 6.157 6.157 0 0 1-5.054-2.349 9.358 9.358 0 0 1-1.531-5.717 9.515 9.515 0 0 1 1.531-5.767 6.117 6.117 0 0 1 5.053-2.3 6.117 6.117 0 0 1 5.053 2.3 9.543 9.543 0 0 1 1.582 5.768 9.387 9.387 0 0 1-1.58 5.716zm35.766-17.2a12.508 12.508 0 0 0-8.524-3.063 13.009 13.009 0 0 0-7.449 2.653v-1.889h-6.128v27.563h6.993V60.593a28.142 28.142 0 0 1 .306-5 5.684 5.684 0 0 1 2.042-3.522 5.807 5.807 0 0 1 3.267-1.072 5.763 5.763 0 0 1 4.339 1.531c1.429 1.429 1.838 3.777 1.838 6.278v13.78h7.043V58.807c0-4.798-.46-8.473-3.727-11.485z" fill="#2d2d2d"/></svg>