<svg xmlns="http://www.w3.org/2000/svg" width="94.106" height="58.223"><path d="M16.061 23.24a11.19 11.19 0 0 0-4.724 21.29 11.067 11.067 0 0 0 14.277-4.42 11.194 11.194 0 0 0-9.553-16.87zm6.142 16.275a8.138 8.138 0 0 1-.7.8 7.71 7.71 0 0 1-5.423 2.319h-.499a7.727 7.727 0 0 1-4.46-1.401.548.548 0 0 0 .006-.064 8.266 8.266 0 0 1-2.212-11.184.039.039 0 0 0 .008-.011 8.15 8.15 0 0 1 6.4-3.766c.086-.006.175-.008.261-.011h.499c.078 0 .155.006.233.011l.225.017c.155.013.306.035.457.056a8.157 8.157 0 0 1 5.221 3.054c.022.031.047.064.072.095a8.266 8.266 0 0 1-.089 10.086z" fill="#ffc107"/><path d="M26.761 23.105a15.828 15.828 0 0 0-22.231 0 15.517 15.517 0 0 0-3.247 4.722.009.009 0 0 1 0 .006 15.969 15.969 0 0 0-1.277 6.449 15.255 15.255 0 0 0 4.527 11.173 15.62 15.62 0 0 0 3.733 2.8 14.687 14.687 0 0 0 4.7 1.553 17.214 17.214 0 0 0 2.662.2 15.6 15.6 0 0 0 15.317-12.134 17.2 17.2 0 0 0 .369-3.6 15.2 15.2 0 0 0-4.553-11.169z" fill="#ffc107"/><path d="M23.141 26.746a10.67 10.67 0 0 0-14.987 0 10.461 10.461 0 0 0-2.193 3.187A10.768 10.768 0 0 0 5.1 34.28a10.284 10.284 0 0 0 3.052 7.533 10.533 10.533 0 0 0 2.516 1.889 9.894 9.894 0 0 0 3.169 1.047 11.626 11.626 0 0 0 1.794.136 10.516 10.516 0 0 0 10.326-8.18 11.6 11.6 0 0 0 .249-2.424 10.247 10.247 0 0 0-3.065-7.535zM4.168 40.403v.016a1.833 1.833 0 0 1-.675-.277 4.033 4.033 0 0 0 .675.261z" fill="#ffc107"/><path d="M31.087 38.012a12.521 12.521 0 0 1-7.013 8.58c-.105.053-.216.1-.327.148a.4.4 0 0 0 .031-.042 8.243 8.243 0 0 0 1.846-6.591 10.092 10.092 0 0 0-1.316-3.476c-.155-.26-.314-.5-.469-.732a8.3 8.3 0 0 0-1.538-6.474 1.981 1.981 0 0 1-.072-.095 8.157 8.157 0 0 0-5.221-3.054c-.152-.02-.3-.043-.457-.056l-.225-.017c-.078-.006-.155-.008-.233-.011h-.499c-.086 0-.175.006-.261.011a8.15 8.15 0 0 0-6.4 3.766.039.039 0 0 1-.008.011 8.256 8.256 0 0 0 2.212 11.184.548.548 0 0 1-.006.064 10.98 10.98 0 0 0-.039.648 10.96 10.96 0 0 0 .258 2.652 11.228 11.228 0 0 0 1.111 3.07c-1.657-.187-2.853-3.244-2.853-3.244.45 4.292-1.568 2.168.389 3.227-3.594-.567-4.8-.88-5.823-7.161.061.011.122.025.183.031-.033-.008-.1-.022-.186-.048-.336-2.059-.649-4.761-1.021-8.318 0 0-1.962 6.51.35 8.058-1.621-.791-4.676-3.481-2.082-12.176a.009.009 0 0 0 0-.006C2.933 22.893 16.783 5.693 15.164-.001c0 0 7.4 3.845 7.6 18.692 0 0 3.639-2.235 3.031-8.133.002 0 8.223 16.242 5.292 27.454z" fill="#ffc107"/><path d="M29.089 38.833c-.057.126-2.5 5.546-5.355 7.919-.374 1.453 1.012-1.289 0 0 3.956-3.513 4.194-3.563 5.355-7.919z" fill="#ffc107" opacity=".1"/><path d="M47.447 30.929v1.169a8.55 8.55 0 0 0-5.122-1.684 8.42 8.42 0 0 0-6.634 2.956 10.987 10.987 0 0 0-2.169 6.84 10.445 10.445 0 0 0 2.166 6.84 8.25 8.25 0 0 0 6.393 2.957 9.078 9.078 0 0 0 4.779-1.238v1.922a2.515 2.515 0 0 1-1.134 2.3 5 5 0 0 1-2.853.825 4.044 4.044 0 0 1-2.1-.584 3.385 3.385 0 0 1-1-1.1l-4.326 2.103a8.386 8.386 0 0 0 3.506 3.162 10.772 10.772 0 0 0 3.884.825 10.128 10.128 0 0 0 5.225-1.306 6.818 6.818 0 0 0 3.472-6.153V30.929zm-4.609 14.918a3.951 3.951 0 0 1-3.437-1.65 7.294 7.294 0 0 1-.928-3.987 7.288 7.288 0 0 1 1-3.988 3.868 3.868 0 0 1 3.541-1.65 3.932 3.932 0 0 1 3.128 1.306 6.706 6.706 0 0 1 1.305 4.332 6.642 6.642 0 0 1-1.309 4.331 4.3 4.3 0 0 1-3.3 1.306zm21.268 4.16a9.146 9.146 0 0 0 7.116-3.094 10.063 10.063 0 0 0 2.3-6.7 9.954 9.954 0 0 0-2.3-6.7 9.146 9.146 0 0 0-7.116-3.094 9.312 9.312 0 0 0-7.116 3.094 10.33 10.33 0 0 0-2.269 6.7 10.159 10.159 0 0 0 2.269 6.7 9.261 9.261 0 0 0 7.116 3.094zm3.4-5.947a4.147 4.147 0 0 1-3.4 1.581 4.147 4.147 0 0 1-3.4-1.581 6.3 6.3 0 0 1-1.031-3.85 6.408 6.408 0 0 1 1.031-3.884 4.12 4.12 0 0 1 3.4-1.547 4.12 4.12 0 0 1 3.4 1.547 6.427 6.427 0 0 1 1.066 3.884 6.322 6.322 0 0 1-1.063 3.85zm24.091-11.585a8.424 8.424 0 0 0-5.741-2.063 8.761 8.761 0 0 0-5.019 1.788v-1.272h-4.125v18.563h4.709v-8.078a18.953 18.953 0 0 1 .206-3.369 3.828 3.828 0 0 1 1.375-2.372 3.911 3.911 0 0 1 2.2-.722 3.881 3.881 0 0 1 2.922 1.031 5.927 5.927 0 0 1 1.238 4.228v9.282h4.744V40.21c0-3.232-.309-5.707-2.509-7.735z" fill="#2d2d2d"/></svg>