<svg xmlns="http://www.w3.org/2000/svg" viewBox="0 0 61.7 64.7"><defs><style>.cls-1{fill:#fed634;fill-rule:evenodd}</style></defs><g id="Слой_2" data-name="Слой 2"><g id="_1" data-name="???? 1"><path class="cls-1" d="M44.1 13.5a13.64 13.64 0 0 1-3.9 9.5 13.46 13.46 0 0 1-9.5 3.9 13.64 13.64 0 0 1-9.5-3.9 13.46 13.46 0 0 1-3.9-9.5 14 14 0 0 1 1-5.1 13.65 13.65 0 0 0 1.9 2.3c.6.6 1.4 1.2 2.1 1.8 0 .4-.1.7-.1 1.1a8.22 8.22 0 0 0 2.5 6 8.46 8.46 0 0 0 6 2.5 8.22 8.22 0 0 0 6-2.5 8.46 8.46 0 0 0 2.5-6 3.75 3.75 0 0 0-.1-1.1 9.09 9.09 0 0 0 2.1-1.8 14.54 14.54 0 0 0 1.9-2.3 11.91 11.91 0 0 1 1 5.1zM37.5 1.9A13 13 0 0 0 30.7.1a14.06 14.06 0 0 0-6.8 1.8l.3.9a11.35 11.35 0 0 0 1.5 2.3 10.63 10.63 0 0 0 1.1.9 8.9 8.9 0 0 1 7.8 0 10.63 10.63 0 0 0 1.1-.9 5.74 5.74 0 0 0 1.5-2.3z"/><path class="cls-1" d="M44.1.1a13.64 13.64 0 0 1-3.9 9.5 13.27 13.27 0 0 1-7 3.7v6.8a6.9 6.9 0 0 1-2.5.4 10.05 10.05 0 0 1-2.5-.4v-6.9a13.27 13.27 0 0 1-7-3.7A13.46 13.46 0 0 1 17.3 0h4.9a8.22 8.22 0 0 0 2.5 6 8.46 8.46 0 0 0 6 2.5 8.22 8.22 0 0 0 6-2.5 8.46 8.46 0 0 0 2.5-6h4.9z"/><path class="cls-1" d="M44.1 26.8a13.64 13.64 0 0 1-3.9 9.5 13.46 13.46 0 0 1-9.5 3.9 13.64 13.64 0 0 1-9.5-3.9 13.46 13.46 0 0 1-3.9-9.5v-6.9a14.57 14.57 0 0 0 2.9 4.1 16.32 16.32 0 0 0 2 1.7v1.2a8.22 8.22 0 0 0 2.5 6 8.46 8.46 0 0 0 6 2.5 8.22 8.22 0 0 0 6-2.5 8.46 8.46 0 0 0 2.5-6v-1.2a16.32 16.32 0 0 0 2-1.7 15.18 15.18 0 0 0 2.9-4.1z"/><path d="M8 56.4H5.1l-2.6-4h-.2v4H0V46h3.5a4.14 4.14 0 0 1 2.7.8 2.93 2.93 0 0 1 1 2.3 2.79 2.79 0 0 1-.6 1.8A2.83 2.83 0 0 1 4.9 52L8 56.4zm-3.3-7.1c0-1-.6-1.4-1.9-1.4h-.5v2.9h.5c1.3-.1 1.9-.5 1.9-1.5zm10.6 4.4a2.66 2.66 0 0 1-.9 2.2 4 4 0 0 1-2.6.8c-2.3 0-3.5-1.1-3.5-3.2v-4h2.1v3.7c0 1.1.4 1.7 1.3 1.7a1.05 1.05 0 0 0 1-.4 2.27 2.27 0 0 0 .3-1.3v-3.7h2.1v4.2zM25.7 46L22 51.5v4.9h-2.3v-4.9L16 46h2.8l2.1 3.2L23 46zm6.4 7a3.47 3.47 0 0 0-1.1-2.6 4.1 4.1 0 0 0-2.9-1 4.1 4.1 0 0 0-2.9 1 3.27 3.27 0 0 0-1.1 2.6 3.63 3.63 0 0 0 1.1 2.6 4.37 4.37 0 0 0 5.8 0 3.63 3.63 0 0 0 1.1-2.6zm-2.3 0a2.11 2.11 0 0 1-.5 1.3 1.9 1.9 0 0 1-1.3.5 2.11 2.11 0 0 1-1.3-.5 1.9 1.9 0 0 1-.5-1.3 2.11 2.11 0 0 1 .5-1.3 1.9 1.9 0 0 1 1.3-.5 2.11 2.11 0 0 1 1.3.5 1.54 1.54 0 0 1 .5 1.3zm10.4.7a2.66 2.66 0 0 1-.9 2.2 4 4 0 0 1-2.6.8c-2.3 0-3.5-1.1-3.5-3.2v-4h2.1v3.7c0 1.1.4 1.7 1.3 1.7a1.05 1.05 0 0 0 1-.4 2.27 2.27 0 0 0 .3-1.3v-3.7H40v4.2zm4.4 1.6a1.37 1.37 0 1 1-.4-1 1.28 1.28 0 0 1 .4 1zm9.8 1.1h-2.9l-2.6-4-.2-.1v4h-2.3V46h3.5a4.14 4.14 0 0 1 2.7.8 2.93 2.93 0 0 1 1 2.3 2.79 2.79 0 0 1-.6 1.8 2.83 2.83 0 0 1-1.7 1.1l3.1 4.4zm-3.3-7.1c0-1-.6-1.4-1.9-1.4h-.5v2.9h.5c1.3-.1 1.9-.5 1.9-1.5zm10.6 4.4a2.66 2.66 0 0 1-.9 2.2 4 4 0 0 1-2.6.8c-2.3 0-3.5-1.1-3.5-3.2v-4h2.1v3.7c0 1.1.4 1.7 1.3 1.7a1.05 1.05 0 0 0 1-.4 2.27 2.27 0 0 0 .3-1.3v-3.7h2.1v4.2z" fill="#fff" fill-rule="evenodd"/><path class="cls-1" d="M5.3 60.8l-1.1 3.7h-.9l-.7-2.4-.7 2.4h-.8L0 60.8h.9l.7 2.5.7-2.5H3l.7 2.5.7-2.5zm2.3 3.7H5.5v-3.7h2.1v.7H6.3v.7h1.2v.7H6.3v.8h1.3v.8zm3.2-1.1a1.14 1.14 0 0 1-.3.8 1.49 1.49 0 0 1-1 .3H8.2v-3.7h1.2a2 2 0 0 1 .9.2.91.91 0 0 1 .3.7c0 .2 0 .3-.1.4l-.3.3.6.3a1.63 1.63 0 0 0 0 .7zm-1.1-1.5c0-.3-.2-.4-.6-.4h-.2v.8h.2c.4 0 .6-.1.6-.4zm.2 1.5c0-.3-.2-.5-.6-.5H9v.9h.3c.4.1.6-.1.6-.4zm2.2.7a.35.35 0 1 1-.1-.3c.1 0 .1.2.1.3zm6.4.4h-.8l-.4-2.3-.8 2.3H16l-.8-2.3-.3 2.3h-.8l.6-3.7h.8l.8 2.4.8-2.4h.8l.6 3.7zm4.1-1.8a2.05 2.05 0 0 1-2 2 2.05 2.05 0 0 1-2-2 2.05 2.05 0 0 1 2-2 2.05 2.05 0 0 1 2 2zm-.8 0a1 1 0 1 0-.3.8 1.33 1.33 0 0 0 .3-.8zm3.9.7a1.14 1.14 0 0 1-.3.8 1.49 1.49 0 0 1-1 .3h-1.3v-3.7h1.2a2 2 0 0 1 .9.2.91.91 0 0 1 .3.7c0 .2 0 .3-.1.4l-.3.3.6.3a1.63 1.63 0 0 0 0 .7zm-1.1-1.5c0-.3-.2-.4-.6-.4h-.2v.8h.2c.4 0 .6-.1.6-.4zm.3 1.5c0-.3-.2-.5-.6-.5H24v.9h.3a.44.44 0 0 0 .6-.4zm2.1 1.1h-.8v-3.7h.8v3.7zm2.5 0h-1.9v-3.7h.8v2.9h1.1v.8zm2.5 0h-2.1v-3.7H32v.7h-1.3v.7h1.2v.7h-1.2v.8H32v.8zm1.5-.4a.35.35 0 1 1-.1-.3c.1 0 .1.2.1.3zm5.3.4H38v-1.6h-1.5v1.6h-.8v-3.7h.8v1.4H38v-1.4h.8v3.7zm1.5 0h-.8v-3.7h.8v3.7zm4.2-1.8a2 2 0 0 1-.5 1.4 1.9 1.9 0 0 1-1.3.5 2.17 2.17 0 0 1-1.4-.5 1.74 1.74 0 0 1-.5-1.4 1.82 1.82 0 0 1 .6-1.4 1.74 1.74 0 0 1 1.4-.5 3 3 0 0 1 1 .2 1.34 1.34 0 0 1 .6.7l-.7.4a1 1 0 0 0-.9-.6.91.91 0 0 0-.8.4 1.31 1.31 0 0 0 .8 2.2 1.07 1.07 0 0 0 .6-.2.55.55 0 0 0 .3-.5h-.8v-.6h1.8v-.1zm3.5 1.8h-.8v-1.6h-1.5v1.6h-.8v-3.7h.8v1.4h1.5v-1.4h.8v3.7zm2.6 0h-1.9v-3.7h.8v2.9h1.1v.8zm4-1.8a2.05 2.05 0 0 1-2 2 2.05 2.05 0 0 1-2-2 2.05 2.05 0 0 1 2-2 2.05 2.05 0 0 1 2 2zm-.8 0a1 1 0 1 0-.3.8 1.33 1.33 0 0 0 .3-.8zm4.6 1.8L57 60.8h-.9l-1.4 3.7h.9l.3-.8h1.5l.3.8zM57 63.1h-1l.5-1.4.5 1.4zm4.7-.4a1.9 1.9 0 0 1-.5 1.3 2.17 2.17 0 0 1-1.4.5h-1.1v-3.7h1.2a2.17 2.17 0 0 1 1.4.5 2.12 2.12 0 0 1 .4 1.4zm-.8 0a1 1 0 0 0-.3-.8 1.22 1.22 0 0 0-.9-.3h-.2v2.2h.2a1.22 1.22 0 0 0 .9-.3 1.14 1.14 0 0 0 .3-.8z"/></g></g></svg>