<svg xmlns="http://www.w3.org/2000/svg" width="101.993" height="58.651"><path d="M19.065 23.318c-7.277 0-13.173 5.021-13.173 11.213 0 4.485 3.093 8.354 7.567 10.148a15.073 15.073 0 0 0 5.607 1.062 13.753 13.753 0 0 0 11.339-5.5 9.939 9.939 0 0 0 1.835-5.713c0-6.19-5.896-11.21-13.175-11.21zm7.29 16.329a8.764 8.764 0 0 1-.827.8 10.026 10.026 0 0 1-6.437 2.327h-.592a10.365 10.365 0 0 1-5.3-1.41.467.467 0 0 0 .007-.064 9.107 9.107 0 0 1-2.6-2.29 7.238 7.238 0 0 1-.026-8.931.041.041 0 0 0 .01-.011 10.1 10.1 0 0 1 7.6-3.779c.1-.006.208-.008.31-.011h.592c.092 0 .184.006.277.011l.267.017c.184.013.363.036.543.056a10.155 10.155 0 0 1 6.2 3.064l.086.1a7.461 7.461 0 0 1 1.983 5 6.994 6.994 0 0 1-.158 1.491 7.7 7.7 0 0 1-1.933 3.629z" fill="#ffc107"/><path d="M31.759 23.181a21.311 21.311 0 0 0-26.386 0 15.774 15.774 0 0 0-3.854 4.737.008.008 0 0 1 0 .006 13.908 13.908 0 0 0-1.515 6.47 14.187 14.187 0 0 0 5.373 11.21 18.629 18.629 0 0 0 4.431 2.812 19.722 19.722 0 0 0 5.58 1.559 24.1 24.1 0 0 0 3.159.2 19.763 19.763 0 0 0 13.21-4.575 14.575 14.575 0 0 0 4.971-7.6 14.7 14.7 0 0 0 .438-3.608 14.149 14.149 0 0 0-5.407-11.211z" fill="#ffc107"/><path d="M27.465 26.834a14.367 14.367 0 0 0-17.788 0 10.634 10.634 0 0 0-2.6 3.194 9.378 9.378 0 0 0-1.022 4.361 9.565 9.565 0 0 0 3.622 7.557 12.562 12.562 0 0 0 2.987 1.9 13.286 13.286 0 0 0 3.762 1.051 16.277 16.277 0 0 0 2.13.136 13.323 13.323 0 0 0 8.905-3.084 9.824 9.824 0 0 0 3.351-5.123 9.912 9.912 0 0 0 .3-2.432 9.539 9.539 0 0 0-3.647-7.56zM4.947 40.537v.017a2.41 2.41 0 0 1-.8-.278 5.354 5.354 0 0 0 .8.261z" fill="#ffc107"/><path d="M36.898 38.138a13.247 13.247 0 0 1-8.324 8.609c-.125.053-.257.1-.389.149a.413.413 0 0 0 .036-.042 7.374 7.374 0 0 0 2.191-6.613 9.239 9.239 0 0 0-1.561-3.487 16.53 16.53 0 0 0-.557-.734 6.994 6.994 0 0 0 .158-1.491 7.461 7.461 0 0 0-1.983-5 1.049 1.049 0 0 1-.086-.1 10.155 10.155 0 0 0-6.2-3.064c-.18-.02-.358-.043-.543-.056l-.267-.017c-.092-.006-.184-.008-.277-.011h-.592c-.1 0-.208.006-.31.011a10.1 10.1 0 0 0-7.6 3.779.041.041 0 0 1-.01.011 7.238 7.238 0 0 0 .026 8.931 9.107 9.107 0 0 0 2.6 2.29.467.467 0 0 1-.007.064 8.49 8.49 0 0 0-.046.65 9.363 9.363 0 0 0 .306 2.66 10.294 10.294 0 0 0 1.328 3.078c-1.967-.188-3.386-3.255-3.386-3.255.534 4.306-1.861 2.175.461 3.238-4.266-.569-5.7-.883-6.911-7.185.072.011.145.025.217.031-.04-.008-.119-.022-.221-.048-.4-2.066-.771-4.777-1.212-8.345 0 0-2.329 6.531.415 8.084-1.924-.793-5.551-3.493-2.471-12.216a.008.008 0 0 0 0-.006C3.483 22.968 19.92 5.712 17.999-.001c0 0 8.782 3.857 9.023 18.753 0 0 4.319-2.243 3.6-8.16-.002.001 9.755 16.296 6.276 27.546z" fill="#ffc107"/><path d="M34.527 38.958c-.067.126-2.969 5.565-6.356 7.945-.443 1.458 1.2-1.293 0 0 4.694-3.521 4.978-3.572 6.356-7.945z" fill="#ffc107" opacity=".1"/><path d="M53.917 30.53v1.2a8.809 8.809 0 0 0-5.277-1.735 8.675 8.675 0 0 0-6.835 3.05 11.319 11.319 0 0 0-2.231 7.048 10.762 10.762 0 0 0 2.231 7.047 8.5 8.5 0 0 0 6.587 3.046 9.353 9.353 0 0 0 4.923-1.275v1.984a2.591 2.591 0 0 1-1.168 2.373 5.147 5.147 0 0 1-2.94.85 4.166 4.166 0 0 1-2.16-.6 3.487 3.487 0 0 1-1.027-1.136l-4.463 2.161a8.64 8.64 0 0 0 3.613 3.258 11.1 11.1 0 0 0 4 .85 10.434 10.434 0 0 0 5.387-1.346 7.024 7.024 0 0 0 3.577-6.34V30.53zm-4.745 15.371a4.07 4.07 0 0 1-3.542-1.7 7.515 7.515 0 0 1-.956-4.108 7.509 7.509 0 0 1 1.027-4.108 3.985 3.985 0 0 1 3.648-1.7 4.051 4.051 0 0 1 3.223 1.346 6.909 6.909 0 0 1 1.345 4.462 6.843 6.843 0 0 1-1.345 4.462 4.431 4.431 0 0 1-3.4 1.346zm21.913 4.285a9.423 9.423 0 0 0 7.331-3.188 10.368 10.368 0 0 0 2.373-6.906 10.256 10.256 0 0 0-2.373-6.906 9.423 9.423 0 0 0-7.331-3.187 9.594 9.594 0 0 0-7.328 3.187 10.643 10.643 0 0 0-2.338 6.906 10.467 10.467 0 0 0 2.338 6.907 9.541 9.541 0 0 0 7.328 3.187zm3.506-6.131a4.272 4.272 0 0 1-3.506 1.629 4.272 4.272 0 0 1-3.507-1.629 6.494 6.494 0 0 1-1.062-3.967 6.6 6.6 0 0 1 1.063-4 4.245 4.245 0 0 1 3.506-1.594 4.245 4.245 0 0 1 3.506 1.594 6.622 6.622 0 0 1 1.1 4 6.513 6.513 0 0 1-1.1 3.967zm24.817-11.931a8.679 8.679 0 0 0-5.915-2.125 9.026 9.026 0 0 0-5.171 1.842v-1.31h-4.25v19.124h4.852v-8.323a19.527 19.527 0 0 1 .213-3.471 3.944 3.944 0 0 1 1.42-2.444 4.029 4.029 0 0 1 2.267-.744 4 4 0 0 1 3.01 1.063 6.106 6.106 0 0 1 1.275 4.356v9.563h4.888v-9.562c-.004-3.33-.322-5.88-2.589-7.969z" fill="#2d2d2d"/></svg>