<svg version="1.1" id="Слой_1" xmlns="http://www.w3.org/2000/svg" x="0" y="0" viewBox="0 0 16 16" xml:space="preserve"><style>.st0{fill:#ffc107}</style><path class="st0" d="M8.3 7.5c-1.7 0-3.1 1.4-3.1 3.1 0 1.3.7 2.3 1.8 2.8.4.2.9.3 1.3.3 1.1 0 2.2-.6 2.7-1.5.3-.5.4-1 .4-1.6 0-1.7-1.4-3.1-3.1-3.1zm1.7 4.6c-.1.1-.1.2-.2.2-.4.4-.9.6-1.5.7h-.2c-.5 0-.9-.1-1.3-.4-.2-.2-.5-.4-.6-.6-.2-.4-.4-.8-.4-1.3s.1-.9.4-1.2c.4-.6 1-1 1.8-1.1h.6c.6 0 1.1.3 1.4.8.3.4.5.9.5 1.4v.4c-.1.4-.2.8-.5 1.1z"/><path class="st0" d="M11.3 7.4c-.9-.9-1.9-1.3-3.1-1.3-1.3.1-2.3.5-3.2 1.3-.4.4-.7.9-.9 1.4-.2.5-.4 1.2-.4 1.8 0 1.2.4 2.3 1.3 3.1.3.3.7.6 1.1.8.4.2.9.4 1.3.4.3.1.5.1.8.1 1.2 0 2.3-.4 3.1-1.3.6-.6 1-1.3 1.2-2.1.1-.3.1-.7.1-1 0-1.3-.4-2.3-1.3-3.2z"/><path class="st0" d="M10.3 8.5c-.6-.6-1.3-.9-2.1-.9s-1.5.3-2.1.9c-.3.2-.5.5-.7.9-.2.4-.2.8-.2 1.2 0 .8.3 1.5.9 2.1.2.2.5.4.7.5l.9.3h.5c.8 0 1.5-.3 2.1-.9.4-.4.7-.9.8-1.4 0-.2.1-.4.1-.7 0-.8-.3-1.5-.9-2zm-5.4 3.8c-.1 0-.1 0-.2-.1.1.1.2.1.2.1z"/><path class="st0" d="M12.5 11.6c-.3 1-.9 1.9-2 2.4h-.1c.5-.7.6-1.3.5-1.9-.1-.4-.2-.7-.4-1 0-.1-.1-.1-.1-.2v-.4c0-.5-.2-1-.5-1.4-.2-.4-.7-.7-1.3-.8H8c-.8 0-1.4.5-1.8 1.1-.2.3-.3.8-.3 1.2 0 .5.1.9.4 1.3.2.3.4.5.6.6v.2c0 .3 0 .5.1.7.1.5.3.9.3.9-.5-.1-.8-.9-.8-.9.1 1.2-.5.6.1.9-1-.2-1.4-.2-1.6-2-.2-.6-.2-1.3-.4-2.3 0 0-.6 1.8.1 2.3-.5-.2-1.3-1-.6-3.4C4.6 7.4 8.5 2.6 8 1c0 0 2.1 1.1 2.1 5.2 0 0 1-.6.9-2.3.1 0 2.4 4.6 1.5 7.7z"/><path d="M12 11.9s-.7 1.6-1.5 2.2c-.1.4.3-.4 0 0 1.1-1 1.2-1 1.5-2.2z" opacity=".1" fill="#ffc107"/></svg>