<svg xmlns="http://www.w3.org/2000/svg" width="213" height="57"><path d="M55.909 41.511h-3.272l-6.591-8.029v8.029H43.3V24.632h2.746v7.571l6.353-7.571h3.271l-6.759 8.222z" fill="#13110f"/><path d="M65.892 29.454h2.578v12.057h-2.578v-1.736a4.819 4.819 0 0 1-4.18 2.05 5.574 5.574 0 0 1-4.2-1.845 6.686 6.686 0 0 1 0-9.006 5.59 5.59 0 0 1 4.2-1.833 4.837 4.837 0 0 1 4.18 2.025zm-6.472 8.79a3.869 3.869 0 0 0 5.4 0 4.083 4.083 0 0 0 0-5.522 3.869 3.869 0 0 0-5.4 0 4.084 4.084 0 0 0 0 5.522zm22.687-8.79v12.057h-2.58v-9.6h-5.469v9.6h-2.579V29.454zm11.63 0h1.982v12.057h-2.532v-7.667l-6.114 7.667h-1.986V29.454h2.531v7.645zm14.089 0v2.51h-3.892v9.548h-2.579v-9.548h-3.917v-2.51zm10.724 0h2.579v12.057h-2.579v-1.736a4.819 4.819 0 0 1-4.179 2.05 5.572 5.572 0 0 1-4.2-1.845 6.685 6.685 0 0 1 0-9.006 5.589 5.589 0 0 1 4.2-1.833 4.836 4.836 0 0 1 4.179 2.025zm-6.472 8.79a3.869 3.869 0 0 0 5.4 0 4.083 4.083 0 0 0 0-5.522 3.869 3.869 0 0 0-5.4 0 4.084 4.084 0 0 0 0 5.522zm22.138-8.79v12.057h-2.579v-9.547h-3.989v4.484q0 2.868-1.242 4.075a4.25 4.25 0 0 1-3.534.989v-2.436a1.632 1.632 0 0 0 1.647-.458 3.616 3.616 0 0 0 .55-2.291v-6.873zm21.444-4.822v16.879h-2.746V27.286h-6.806v14.226h-2.746v-16.88zm9.936 4.51a5.58 5.58 0 0 1 4.2 1.844 6.687 6.687 0 0 1 0 9.006 5.593 5.593 0 0 1-4.2 1.834 4.835 4.835 0 0 1-4.179-2.025v6.534h-2.579V29.454h2.579v1.737a4.818 4.818 0 0 1 4.179-2.049zm-3.1 9.1a3.869 3.869 0 0 0 5.4 0 4.083 4.083 0 0 0 0-5.522 3.869 3.869 0 0 0-5.4 0 4.084 4.084 0 0 0 0 5.522zm20.844-8.788h2.579v12.057h-2.579v-1.736a4.819 4.819 0 0 1-4.179 2.05 5.572 5.572 0 0 1-4.2-1.845 6.685 6.685 0 0 1 0-9.006 5.589 5.589 0 0 1 4.2-1.833 4.836 4.836 0 0 1 4.179 2.025zm-6.472 8.79a3.869 3.869 0 0 0 5.4 0 4.083 4.083 0 0 0 0-5.522 3.869 3.869 0 0 0-5.4 0 4.084 4.084 0 0 0 0 5.522zm20.319-2.931a2.84 2.84 0 0 1 1.767 2.775 3.236 3.236 0 0 1-1.015 2.472 4.083 4.083 0 0 1-2.9.951h-6.112V29.454h5.636a4.075 4.075 0 0 1 2.854.928 3.107 3.107 0 0 1 1.015 2.4 2.817 2.817 0 0 1-1.245 2.531zm-2.818-3.64h-2.982v2.678h2.985q1.576 0 1.576-1.351c0-.883-.525-1.327-1.576-1.327zm.43 7.571q1.624 0 1.624-1.422a1.2 1.2 0 0 0-.43-.978 1.854 1.854 0 0 0-1.194-.348h-3.412v2.748zm11.896 2.581a6.252 6.252 0 1 1 4.477-1.834 6.09 6.09 0 0 1-4.477 1.834zm-2.651-3.618a3.779 3.779 0 0 0 5.3 0 3.989 3.989 0 0 0 0-5.448 3.778 3.778 0 0 0-5.3 0 3.99 3.99 0 0 0 0 5.448zM48.463 51.253a2.005 2.005 0 0 1 0 3 3.131 3.131 0 0 1-1.808.659v.617h-.868v-.617a3.142 3.142 0 0 1-1.816-.659 2.005 2.005 0 0 1 0-3 3.145 3.145 0 0 1 1.816-.659v-.617h.863v.617a3.135 3.135 0 0 1 1.813.659zm-4.285 1.5a1.15 1.15 0 0 0 .417.943 2.161 2.161 0 0 0 1.2.408v-2.7q-1.616.147-1.616 1.35zm2.476 1.35q1.606-.162 1.605-1.35 0-1.2-1.605-1.351zm5.925-2.506h.635v3.859h-.81v-2.455l-1.957 2.455h-.635v-3.859h.811v2.447zm4.167 0h.826v3.859h-.826V53.92h-1.751v1.536h-.826v-3.859h.826v1.536h1.751zm4.809 0h.826v3.859h-.826V54.9a1.542 1.542 0 0 1-1.338.656 1.784 1.784 0 0 1-1.346-.591 2.141 2.141 0 0 1 0-2.882 1.791 1.791 0 0 1 1.346-.586 1.547 1.547 0 0 1 1.338.648zm-2.072 2.814a1.241 1.241 0 0 0 1.728 0 1.307 1.307 0 0 0 0-1.769 1.241 1.241 0 0 0-1.728 0 1.31 1.31 0 0 0 0 1.769zm6.436-2.814h.826v3.859h-.826V53.92h-1.751v1.536h-.826v-3.859h.826v1.536h1.751zm3.585 3.959a1.94 1.94 0 0 1-1.441-.586 2.1 2.1 0 0 1 0-2.891 2.063 2.063 0 0 1 2.458-.312 1.735 1.735 0 0 1 .688.725l-.71.417a.981.981 0 0 0-.394-.436 1.154 1.154 0 0 0-.608-.159 1.131 1.131 0 0 0-.844.349 1.267 1.267 0 0 0 0 1.728 1.137 1.137 0 0 0 .844.348 1.168 1.168 0 0 0 .608-.162 1.048 1.048 0 0 0 .409-.433l.711.409a1.823 1.823 0 0 1-.7.733 1.957 1.957 0 0 1-1.021.27zm4.06 0a2 2 0 1 1 1.434-.586 1.951 1.951 0 0 1-1.434.586zm-.849-1.158a1.208 1.208 0 0 0 1.7 0 1.279 1.279 0 0 0 0-1.743 1.208 1.208 0 0 0-1.7 0 1.279 1.279 0 0 0 0 1.743zm6.26-.926a.91.91 0 0 1 .566.889 1.035 1.035 0 0 1-.325.79 1.306 1.306 0 0 1-.929.3h-1.958v-3.859h1.8a1.3 1.3 0 0 1 .914.3 1 1 0 0 1 .325.769.9.9 0 0 1-.393.811zm-.9-1.165h-.956v.858h.956c.337 0 .5-.144.5-.433s-.165-.426-.502-.426zm.138 2.425c.346 0 .52-.151.52-.456a.383.383 0 0 0-.138-.313.59.59 0 0 0-.382-.112H77.12v.881zm3.805.824a2 2 0 1 1 1.433-.586 1.95 1.95 0 0 1-1.433.586zm-.849-1.158a1.207 1.207 0 0 0 1.7 0 1.277 1.277 0 0 0 0-1.743 1.207 1.207 0 0 0-1.7 0 1.278 1.278 0 0 0 0 1.743zm3.67-.887v-.8h2.828v.8zm7.254-2.014a2.03 2.03 0 1 1 0 4.059 1.909 1.909 0 0 1-1.28-.459 1.952 1.952 0 0 1-.669-1.176h-.635v1.536h-.822v-3.859h.826v1.536h.635a1.952 1.952 0 0 1 .669-1.176 1.909 1.909 0 0 1 1.276-.461zm-.849 2.9a1.208 1.208 0 0 0 1.7 0 1.279 1.279 0 0 0 0-1.743 1.208 1.208 0 0 0-1.7 0 1.277 1.277 0 0 0 0 1.743zm5.78-2.9a1.782 1.782 0 0 1 1.345.59 2.14 2.14 0 0 1 0 2.883 1.79 1.79 0 0 1-1.345.586 1.548 1.548 0 0 1-1.338-.648V57h-.826v-5.4h.826v.556a1.542 1.542 0 0 1 1.338-.659zm-.994 2.914a1.242 1.242 0 0 0 1.728 0 1.309 1.309 0 0 0 0-1.769 1.242 1.242 0 0 0-1.728 0 1.309 1.309 0 0 0 0 1.769zm6.414-2.814h.634v3.859h-.81v-2.455l-1.958 2.455h-.635v-3.859h.811v2.447zm4.953 3.067h.512v1.822h-.811v-1.034h-2.621v1.034h-.81v-1.822h.467a2.4 2.4 0 0 0 .351-1.4v-1.675h2.913zm-2.354 0h1.544v-2.3h-1.291v.911a3.466 3.466 0 0 1-.253 1.389zm6.306-3.067h.635v3.859h-.81v-2.455l-1.958 2.455h-.634v-3.859h.811v2.447zm3.914 0h.826v3.859h-.826v-1.3a2.728 2.728 0 0 1-.963.17 1.67 1.67 0 0 1-1.124-.355 1.3 1.3 0 0 1-.413-1.042v-1.328h.826v1.25q0 .7.818.7a1.973 1.973 0 0 0 .857-.178zm2.438 2.284a1.055 1.055 0 0 0 .421.675 1.335 1.335 0 0 0 .8.236 1.12 1.12 0 0 0 .987-.478l.68.4a1.887 1.887 0 0 1-1.674.84 2.029 2.029 0 0 1-1.506-.575 2.133 2.133 0 0 1-.008-2.9 1.933 1.933 0 0 1 1.452-.583 1.782 1.782 0 0 1 1.38.593 2.075 2.075 0 0 1 .539 1.444 2.628 2.628 0 0 1-.03.347zm-.008-.678h2.248a1.065 1.065 0 0 0-1.093-.95 1.111 1.111 0 0 0-1.154.95zm5.588 2.353a1.941 1.941 0 0 1-1.441-.586 2.1 2.1 0 0 1 0-2.891 2.063 2.063 0 0 1 2.458-.312 1.735 1.735 0 0 1 .688.725l-.71.417a.981.981 0 0 0-.394-.436 1.153 1.153 0 0 0-.608-.159 1.131 1.131 0 0 0-.844.349 1.267 1.267 0 0 0 0 1.728 1.137 1.137 0 0 0 .844.348 1.168 1.168 0 0 0 .608-.162 1.048 1.048 0 0 0 .409-.433l.711.409a1.826 1.826 0 0 1-.7.733 1.957 1.957 0 0 1-1.021.27zm5.718-.1h-.986l-1.568-1.783v1.783h-.825v-3.859h.825v1.706l1.483-1.706h1.009l-1.681 1.891z" fill="#13110f"/><path d="M132.279 51.597h.826v3.859h-.826V54.9a1.542 1.542 0 0 1-1.338.656 1.784 1.784 0 0 1-1.346-.591 2.141 2.141 0 0 1 0-2.882 1.791 1.791 0 0 1 1.346-.586 1.546 1.546 0 0 1 1.338.648zm-2.072 2.814a1.242 1.242 0 0 0 1.728 0 1.309 1.309 0 0 0 0-1.769 1.242 1.242 0 0 0-1.728 0 1.311 1.311 0 0 0 0 1.769zm6.819-2.814v3.859h-.81v-1.3h-.459l-.971 1.3h-.971l1.032-1.373a1.253 1.253 0 0 1-.638-.464 1.268 1.268 0 0 1 .138-1.647 1.326 1.326 0 0 1 .975-.375zm-1.659 1.845h.849v-1.089h-.849a.612.612 0 0 0-.42.147.507.507 0 0 0-.169.4.5.5 0 0 0 .169.393.618.618 0 0 0 .421.149zm6.682.038a.947.947 0 0 1 .611.919 1.034 1.034 0 0 1-.4.827 1.683 1.683 0 0 1-1.108.331 1.539 1.539 0 0 1-1.56-.926l.673-.4a.851.851 0 0 0 .894.578.842.842 0 0 0 .5-.134.426.426 0 0 0 .183-.359.394.394 0 0 0-.145-.321.62.62 0 0 0-.4-.12h-.543v-.733h.405a.581.581 0 0 0 .393-.12.406.406 0 0 0 .141-.328.4.4 0 0 0-.16-.327.666.666 0 0 0-.428-.128.8.8 0 0 0-.8.509l-.672-.386a1.688 1.688 0 0 1 2.473-.536 1.019 1.019 0 0 1 .378.8.938.938 0 0 1-.435.854zm4.311-1.883h.825v3.859h-.825V54.9a1.542 1.542 0 0 1-1.338.656 1.783 1.783 0 0 1-1.345-.592 2.14 2.14 0 0 1 0-2.882 1.79 1.79 0 0 1 1.345-.586 1.547 1.547 0 0 1 1.338.648zm-2.072 2.814a1.241 1.241 0 0 0 1.728 0 1.307 1.307 0 0 0 0-1.769 1.241 1.241 0 0 0-1.728 0 1.31 1.31 0 0 0 0 1.769zm9.135.253h.512v1.822h-.811v-1.034h-4.976v-3.859h.826v3.071h1.4v-3.072h.826v3.072h1.4v-3.072h.826zm3.952-3.067h.635v3.859h-.81v-2.455l-1.957 2.455h-.635v-3.859h.811v2.447zm4.512 0v.8h-1.246v3.056h-.826v-3.056h-1.253v-.8zm3.43 0h.826v3.859h-.826V54.9a1.542 1.542 0 0 1-1.338.656 1.783 1.783 0 0 1-1.345-.591 2.14 2.14 0 0 1 0-2.882 1.79 1.79 0 0 1 1.345-.586 1.547 1.547 0 0 1 1.338.648zm-2.072 2.814a1.241 1.241 0 0 0 1.728 0 1.307 1.307 0 0 0 0-1.769 1.241 1.241 0 0 0-1.728 0 1.31 1.31 0 0 0 0 1.769z" fill="#13110f"/><path d="M39.832 19.506V0L19.063 17.274l.042 5.54 15.945-13.4v8.642L13.302 36.005.002 24.858v5.4l13.344 11.291z" fill="#0076b7"/></svg>