<svg xmlns="http://www.w3.org/2000/svg" width="43" height="24"><path d="M23.016 0c-2.289.01-3.748.013-5.805.013-1.72 0-2.687.69-2.717 1.1-.028.376.85.681 1.384.986a2.775 2.775 0 0 1 .981 2v5.921a1.49 1.49 0 0 1-.588 1.322 1.143 1.143 0 0 1-.759.219.9.9 0 0 1-.749-.316c-2.266-2.907-2.273-3.266-5.449-9.124a2.166 2.166 0 0 0-.622-.812A2.545 2.545 0 0 0 7.161.933C4.609.933 3.034.97 1.355.97c-1.588 0-1.436.965-1.223 1.4 1.9 3.934 3.839 7.691 6.061 11.5 2.6 4.465 4.983 7.147 8.986 9.073a11.124 11.124 0 0 0 4.542.909h4.116c.528 0 1.407-.414 1.407-.968v-3.06c0-.874.88-1.192 1.36-1.407a1.365 1.365 0 0 1 1.458.463c2.3 2.436 2.039 2.171 4.135 4.353a2.013 2.013 0 0 0 1.727.752c6.046 0 6.051.012 7.5 0 .4 0 .985-.592 1.115-.822a1.96 1.96 0 0 0-.063-2.087c-2.125-2.38-4.292-4.56-6.366-6.724a.951.951 0 0 1-.282-.615 1.208 1.208 0 0 1 .282-.693c2.328-3.2 4.251-5.912 6.342-9.28a2.462 2.462 0 0 0 .467-2.137 1.36 1.36 0 0 0-1.1-.739c-2.794-.015-4-.054-6.981-.05-.889 0-1.678-.067-2.166 1-1.309 2.845-3.446 7.185-5.3 8.99a1.893 1.893 0 0 1-1.2.583.9.9 0 0 1-.884-.912c-.046-3.1-.008-5.738-.024-8.771a1.381 1.381 0 0 0-.7-1.372 2.9 2.9 0 0 0-1.542-.362z" fill="#fff"/></svg>