<svg width="282" height="6" fill="none" xmlns="http://www.w3.org/2000/svg"><path d="M1 4.75C4.415 4.75 4.188 1 7.667 1c3.479 0 3.188 3.75 6.667 3.75C17.813 4.75 17.521 1 21 1c3.479 0 3.188 3.75 6.667 3.75 3.479 0 3.187-3.75 6.666-3.75C37.812 1 37.521 4.75 41 4.75c3.479 0 3.188-3.75 6.667-3.75 3.479 0 3.188 3.75 6.667 3.75C57.813 4.75 57.521 1 61 1c3.479 0 3.188 3.75 6.667 3.75 3.479 0 3.187-3.75 6.666-3.75C77.812 1 77.521 4.75 81 4.75c3.479 0 3.188-3.75 6.667-3.75 3.479 0 3.188 3.75 6.667 3.75" stroke="#fff" stroke-width="2" stroke-miterlimit="10" stroke-linecap="round"/><path d="M94.148 4.8c3.415 0 3.188-3.671 6.667-3.671 3.479 0 3.188 3.672 6.667 3.672 3.479 0 3.187-3.672 6.666-3.672 3.479 0 3.188 3.672 6.667 3.672 3.479 0 3.187-3.672 6.666-3.672 3.479 0 3.188 3.672 6.667 3.672 3.479 0 3.188-3.672 6.667-3.672 3.479 0 3.188 3.672 6.667 3.672 3.479 0 3.187-3.672 6.666-3.672 3.479 0 3.188 3.672 6.667 3.672 3.479 0 3.187-3.672 6.666-3.672 3.479 0 3.188 3.672 6.667 3.672 3.479 0 3.188-3.672 6.667-3.672 3.479 0 3.188 3.672 6.667 3.672" stroke="#fff" stroke-width="2" stroke-miterlimit="10" stroke-linecap="round"/><path d="M187.261 4.79c3.415 0 3.188-3.672 6.667-3.672 3.479 0 3.188 3.672 6.667 3.672 3.479 0 3.187-3.672 6.666-3.672 3.479 0 3.188 3.672 6.667 3.672 3.479 0 3.187-3.672 6.666-3.672 3.479 0 3.188 3.672 6.667 3.672 3.479 0 3.188-3.672 6.667-3.672 3.479 0 3.188 3.672 6.667 3.672 3.479 0 3.187-3.672 6.666-3.672 3.479 0 3.188 3.672 6.667 3.672 3.479 0 3.187-3.672 6.666-3.672 3.479 0 3.188 3.672 6.667 3.672 3.479 0 3.188-3.672 6.667-3.672 3.479 0 3.188 3.672 6.667 3.672" stroke="#fff" stroke-width="2" stroke-miterlimit="10" stroke-linecap="round"/></svg>