<svg width="31" height="31" fill="none" xmlns="http://www.w3.org/2000/svg"><path d="M15.61 21.61c1.882 0 4.393-.157 6.903-.314.157 0 .471-.157.628-.157.941-.47 1.57-1.412 1.726-2.51.157-.942.157-1.884.157-2.825 0-1.57 0-3.295-.157-4.864-.157-1.256-.942-2.511-2.825-2.511-1.883 0-3.765-.157-5.648-.157-2.511 0-5.022 0-7.532.157-.471 0-.942.157-1.256.47-.784.628-1.098 1.57-1.255 2.511a44.005 44.005 0 0 0 0 6.434c0 .784.314 1.569.628 2.197.47.627 1.098 1.255 1.883 1.255 2.04.157 4.08.314 6.747.314zm15.063-7.532v2.04c-.157 2.04-.628 4.08-1.726 5.963-2.354 4.236-5.963 6.904-10.67 7.688-.628.157-1.099.157-1.727.314h-1.882c-2.04-.157-4.08-.627-5.963-1.726-5.021-2.824-7.689-7.061-8.003-12.71-.157-2.51.314-4.864 1.412-6.904C4.782 3.408 9.176.426 15.138.113c2.51-.157 4.865.313 7.061 1.412 4.55 2.197 7.375 5.963 8.474 10.984-.157.314 0 .941 0 1.569z" fill="#fff"/><path d="M13.883 18.628v-7.532l5.649 3.766c-2.04 1.412-3.767 2.51-5.65 3.766z" fill="#fff"/></svg>