<svg xmlns="http://www.w3.org/2000/svg" width="463.999" height="176.226"><path d="M419.599 152.473c0-13.425 8.771-23.749 22.2-23.749 13.36 0 22.2 10.324 22.2 23.749s-8.837 23.754-22.2 23.754c-13.426 0-22.2-10.324-22.2-23.754zm4.111 0c0 11.571 6.991 20.173 18.089 20.173 10.962 0 18.085-8.6 18.085-20.173 0-11.7-7.123-20.173-18.085-20.173-11.094.001-18.086 8.47-18.086 20.173zm-129.5 0c0-14.112 10.208-23.749 23.155-23.749a20.572 20.572 0 0 1 16.646 8.122l-3.287 2.137a16.576 16.576 0 0 0-13.36-6.682c-10.756 0-19.044 8.192-19.044 20.173 0 11.844 8.288 20.173 19.044 20.173a16.572 16.572 0 0 0 13.36-6.677l3.287 2.065c-4.041 5.026-9.383 8.193-16.646 8.193-12.942-.001-23.15-9.638-23.15-23.755zm113.189 22.926l-12.811-19H384.52v19h-3.906v-45.917h17.064c7.876 0 13.908 5.026 13.908 13.425 0 8.329-5.9 12.94-12.677 13.217l13.224 19.274zm-22.879-22.582h12.811c6.031 0 10.142-4.126 10.142-9.91s-4.111-9.85-10.142-9.85H384.52zm-30.9 22.582v-42.342h-14.939v-3.576h33.846v3.576H357.59v42.341zm-96.341 0v-45.917h28.98v3.576h-25.07v17.006h24.593v3.581h-24.594v18.182h25.07v3.577zm-34.53 0v-45.917h3.9v42.345h22.135v3.577zm-38.646 0v-45.917h28.981v3.576h-25.076v17.006h24.591v3.581h-24.591v18.182h25.075v3.577zm209.425-75.323a37.769 37.769 0 0 1-9.992-26.2 36.983 36.983 0 0 1 9.906-25.729q9.9-10.895 26.8-10.889 14.687 0 22.708 10.1V0h17.419v108.915h-17.415v-7.258q-8.708 9.47-23.392 9.47-16.05 0-26.036-11.051zm13.912-41.83q-5.8 6.477-5.8 16.259a22.7 22.7 0 0 0 5.72 15.708q5.723 6.395 15.285 6.389 9.9 0 15.621-6.233t5.719-15.864q0-10.895-6.232-16.808a21.13 21.13 0 0 0-15.109-5.92q-9.399-.001-15.205 6.469zm-190.978 41.83a37.582 37.582 0 0 1-9.987-26.046 37.2 37.2 0 0 1 9.9-25.886q9.906-10.895 26.809-10.889 14.68 0 22.709 10.1v-8.208h17.415v69.766h-17.415v-7.256q-8.709 9.47-22.88 9.47-16.563 0-26.552-11.051zm14-41.83a24.8 24.8 0 0 0-.171 31.886q5.723 6.477 15.45 6.469t15.456-6.313q5.715-6.311 5.719-16.1 0-10.735-6.147-16.576a21.026 21.026 0 0 0-15.028-5.839 19.7 19.7 0 0 0-15.277 6.473zM9.986 100.076A37.561 37.561 0 0 1-.001 74.027a37.175 37.175 0 0 1 9.9-25.886q9.9-10.895 26.8-10.889 14.687 0 22.708 10.1v-8.208h17.422v69.766H59.413v-7.253q-8.708 9.47-22.879 9.47-16.556 0-26.548-11.051zm14-41.83a24.8 24.8 0 0 0-.171 31.886q5.715 6.477 15.45 6.469t15.45-6.313q5.723-6.311 5.72-16.1 0-10.735-6.147-16.576a21.017 21.017 0 0 0-15.024-5.839 19.7 19.7 0 0 0-15.275 6.473zm331.2 50.669V56.527l-9.108.031 7.288-17.41h19.233v69.766zm-59.611 0V39.149h17.416v4.96c4.976-4.974 14.234-6.223 17.611-6.328a53.124 53.124 0 0 1 14.923 1.706l-7.217 16.754a19.532 19.532 0 0 0-10.993-2.884c-4.79.318-8.751 1.207-11.254 4.889q-3.075 4.583-3.071 14.365v36.3zm-116.38 0V70.56q0-8.205-1.538-12.47-2.73-6.31-10.073-6.314-7 0-10.585 5.364-3.415 4.736-3.417 15.789v35.986h-17.41V70.56q0-8.363-1.708-12.47-2.564-6.31-10.073-6.314a12.455 12.455 0 0 0-10.59 5.364q-3.241 4.583-3.242 15.789v35.986H93.144V56.979l-9.058.02v-17.85h26.473v6.47q7.17-8.363 18.783-8.364 13.48 0 19.462 10.415 7.343-10.418 22.366-10.415 14.513 0 21.517 11.046 3.92 6 3.925 17.521v43.093z" fill="#fff"/></svg>